<svg width="56" height="56" fill="none" xmlns="http://www.w3.org/2000/svg">
  <g clip-path="url(#a)">
    <rect width="56" height="56" rx="13" fill="#0F1B2B" />
    <path d="M38.986 11.452s1.866.074 3.806.298c-4.364-3.429-8.506-4.44-11.86-4.44-4.625 0-7.755 1.904-7.941 2.016l1.457-2.313s-5.816-.558-7.868 5.592c-.52-1.308-1.004-3.205-1.004-3.205s-3.032 2.647-1.612 7.049c-3.466-1.271-8.431-3.02-8.617-3.057-.26-.037-.335.075-.335.075s-.074.111.149.297c.409.335 8.239 6.12 9.956 7.235-.372 1.346-.372 1.978 0 2.61.521.856.558 1.308.484 1.94-.075.633-.744 6.12-.893 6.79-.149.669-1.717 3.056-1.643 3.769.075.707 1.042 3.732 1.903 4.067.633.223 2.201.706 3.243.706.372 0 .707-.074.855-.223.633-.558.819-.67 1.271-.67h.112c.186 0 .409.038.67.038.595 0 1.382-.112 1.94-.633.818-.818 2.238-1.94 2.684-2.46.558-.708.856-1.68.707-2.648-.112-.893.372-1.68.93-2.461.707-.93 2.015-2.61 2.015-2.61 2.579 1.928 4.185 4.873 4.185 8.158 0 5.816-5.072 10.515-11.34 10.515-.967 0-1.903-.112-2.833-.335 2.87 1.004 5.295 1.345 7.272 1.345 4.216 0 6.454-1.53 6.454-1.53s-.781 1.003-2.052 2.163h.037c6.975-.967 10.366-6.714 10.366-6.714s-.26 1.866-.595 3.13c9.287-6.974 7.718-15.703 7.681-16 .074.11 1.004 1.233 1.494 1.828 1.494-15.362-11.078-20.322-11.078-20.322Z" fill="#1B314F" />
    <path d="M38.54 36.436c.075-.297.41-.483.781-.67.26-.148.595-.334.633-.446.148-.855.223-1.717.223-2.572 0-.186-.298-.484-.558-.707-.298-.298-.595-.595-.633-.893-.26-2.424-1.153-4.774-2.61-6.714.112 1.345.075 2.982-.297 4.885 2.684 4.737 1.004 10.707-2.461 14.321a13.875 13.875 0 0 0 4.922-7.204ZM25.112 34.316c-.41-1.606-2.015-2.461-2.536-2.424-.595.074-1.42.186-1.68.372.483-.744 1.153-1.116 1.829-1.308.558-1.606 1.754-4.885 2.015-5.109.148-.111.52-.223 1.153-.409.372-.074.892-.223.967-.297.149-.223 1.643-3.807 1.754-4.067-.037-.26-.78-2.164-1.568-3.993-1.897 1.383-3.943 1.01-3.943 1.01s1.457-.408 2.945-2.61c1.457-2.2.074-5.22.074-5.22s-5.108 7.682-5.747 7.83c-.632.15-1.079-.632-1.079-.632s-1.345 3.503-1.717 4.774c-.372 1.271.075 2.461.41 3.056.371.596 1.152 2.09.074 3.621.149-.67-.521-1.717-1.005-2.35-.186 1.643-.67 5.555-.818 6.194-.074.446-.335.93-.781 1.791-.223.447-.67 1.234-.781 1.606.148.67.706 2.275 1.079 2.759.52.186 1.27.372 1.903.484.297 0 .67-.15 1.196-.633.967-.893 1.606-1.382 1.792-2.35.186-.93.111-2.386.558-2.796.409-.409 1.308-.595 2.015-.409-.558 0-1.197.26-1.197.26s1.079-.185 1.494.596c.41.781.075 1.234-.595 1.68-.558.372-2.2 2.09-2.759 2.833h1.117c.446 0 .743-.074.892-.223.372-.372.856-.781 1.308-1.197.446-.409 1.079-.967 1.234-1.153.297-.446.483-1.004.409-1.605v-.081h-.012Zm-1.86-18.128 2.498-3.694s.335 1.494-.52 2.498c-1.085 1.234-2.015 1.197-1.978 1.197Zm-6.9 20.85c-.484.037-.67-.558-.558-.893.111-.298 1.345-2.461 1.345-2.461l-.298 1.494s.595-.075.595.595c-.006.514-.6 1.227-1.084 1.265Zm3.912-11.042c-.224.856-2.127.484-1.42-2.238 0 0 .335 1.308.67 1.19.334-.111 4.14-6.081 4.14-6.081s-.483 1.568-.818 2.35c1.309.26 1.68 1.791.968 2.61-.701.787-2.493 1.909-3.54 2.17Z" fill="#fff" />
    <path d="M28.807 15.03c-.26.408-.52.78-.781 1.078.558 1.383 2.015 4.997 2.015 5.183 0 .223-.707 2.052-.781 2.126-.075.037-.93.112-1.271.112-.372.893-.744 1.754-.819 1.866-.111.149-.446.26-1.153.446-.372.112-.93.26-1.004.335-.186.223-1.197 2.87-1.866 4.737.893-.15 1.68.037 1.866.111 1.457-2.759 2.61-4.253 2.908-4.253.297-.037 3.843.484 5.22-2.833 1.345-3.28-.596-6.082-.67-6.193.075.037 3.057 1.42 3.807 5.89a14.548 14.548 0 0 1 3.056 7.42c0 .186.298.447.484.67.334.334.67.67.67 1.004 0 .893-.075 1.792-.224 2.647-.074.298-.446.521-.818.707-.224.149-.558.335-.596.446-.818 2.945-2.684 5.555-5.108 7.421 5.146-2.461 8.692-7.718 8.692-13.763-.013-7.849-5.983-14.333-13.627-15.158ZM22.947 34.614c0-.521-.707-.633-1.004-.558-.298.074-.372.558-.41.818-.037.26 0 1.079-.334 1.568.074-.074.595-.632.855-.892.372-.341.893-.453.893-.936ZM16.91 19.803c.26-.484.037-.818-.187-1.004l-.074-.075c-.446-.223-3.242-1.27-6.007-2.238 2.424 1.606 5.108 3.168 5.554 3.391.341.155.565.193.713-.074Z" fill="#fff" />
    <path d="M27.48 18.098c-.137-.335-.285-.676-.428-1.017-1.854 1.346-3.844 1.023-3.949 1.01.105.025 2.077.645 4.377.007ZM31.36 15.531a15.778 15.778 0 0 0-2.554-.502c-.26.41-.52.781-.781 1.079.155.384.384.942.626 1.556.924-.434 1.86-1.11 2.71-2.133ZM25.111 34.316c-.409-1.606-2.014-2.461-2.535-2.424-.595.074-1.42.186-1.68.372.483-.744 1.153-1.116 1.829-1.308.192-.546.452-1.29.731-2.04-.632.335-2.889 1.538-3.081 1.668-.223.149-1.004 1.717-1.606 3.354-.334-1.042-1.078-1.68-1.116-1.717.038.186.819 3.28.558 4.215-.26.968-1.903 1.83-1.903 1.83l2.468.545c.024-.019.043-.044.068-.062.967-.893 1.605-1.383 1.791-2.35.186-.93.112-2.387.558-2.796.41-.409 1.308-.595 2.015-.409-.204 0-.415.031-.601.08.632.007 1.482.255 1.463 1.526 0 .967-1.079 1.041-2.164 1.94-.217.18-.458.39-.694.608-.434.465-.83.917-1.054 1.215h1.116c.446 0 .744-.075.893-.223.372-.372.855-.782 1.308-1.197.446-.41 1.078-.967 1.233-1.153.298-.446.484-1.01.41-1.606v-.068h-.006Z" fill="#94A6C3" />
    <path d="M28.211 25.81c-1.308 0-3.056.856-3.056.856l-1.718 4.216c.763-.069 1.402.086 1.563.148 1.457-2.758 2.61-4.253 2.907-4.253.298-.037 3.844.484 5.22-2.833 1.346-3.28-.595-6.081-.67-6.193 1.57 5.152-1.896 8.022-4.246 8.06ZM38.54 36.436c.075-.297.41-.483.781-.67.26-.148.595-.334.633-.445.148-.856.223-1.718.223-2.573 0-.186-.298-.484-.558-.707-.298-.298-.595-.595-.633-.893-.26-2.424-1.153-4.773-2.61-6.714.112 1.34.075 2.982-.297 4.885 2.684 4.737 1.004 10.707-2.461 14.321a13.875 13.875 0 0 0 4.922-7.204Z" fill="#94A6C3" />
    <path d="M42.01 29.425c-1.326-7.533-8.952-11.414-9.534-11.668.235.118 2.95 1.488 3.744 5.623a14.298 14.298 0 0 1 3.33 7.725c0 .186.26.446.52.67.335.334.67.669.67 1.004 0 .892-.075 1.791-.224 2.647-.074.297-.446.483-.818.707-.223.148-.558.334-.595.446-.756 2.69-2.35 5.096-4.476 6.919-.174.149-.347.291-.52.427 4.01-2.275 6.85-5.734 7.767-9.67.36-1.545.422-3.169.136-4.83Z" fill="#94A6C3" />
    <path d="m20.56 25.29 1.941-3.317s1.116.558.558 1.457c-.707 1.035-2.498 1.86-2.498 1.86Z" fill="#FFD923" />
    <path d="M42.643 24.88c.186.335 4.774 8.804-.037 18.053a21.069 21.069 0 0 0 1.94-2.275c3.206-4.476 2.76-10.626-.93-14.73a25.385 25.385 0 0 0-.973-1.048ZM49.023 28.755c-.075-4.773-1.68-8.878-4.774-12.157l-.074-.075c-2.722-2.87-6.714-4.215-10.67-3.657-1.494.186-2.982.483-4.14.855a3.096 3.096 0 0 0-.559.149h.075c.297-.037 5.74-.298 10.818 3.056 5.257 3.478 7.644 7.316 9.324 11.83ZM38.502 10.293c-2.461-1.234-5.034-1.866-7.607-1.904-.967 0-1.866.075-2.684.224-2.908.52-5.295 2.61-6.12 5.406 0 0 .596-.93 2.016-1.904.52-.706 1.345-1.829 2.126-2.758.223.483.484 1.078.558 1.382 2.573-.967 6.156-1.488 11.711-.446ZM15.117 11.936c-.075.297-1.531 5.368 2.833 5.517-2.535-1.525-2.833-5.48-2.833-5.517ZM22.24 8.321c-.26.112-5.889 1.94-2.684 6.826 0-.006-.67-4.817 2.685-6.826Z" fill="#D82122" />
  </g>
  <defs>
    <clipPath id="a">
      <path fill="#fff" d="M0 0h56v56H0z" />
    </clipPath>
  </defs>
</svg>
