<svg width="56" height="56" fill="none" xmlns="http://www.w3.org/2000/svg">
  <g clip-path="url(#a)">
    <rect width="56" height="56" rx="12" fill="url(#b)" />
    <path d="m40.253 39.157-9.468-22.891c-.534-1.184-1.328-1.76-2.374-1.76h-.837c-1.046 0-1.84.576-2.374 1.76l-4.12 9.973h-3.118a1.708 1.708 0 0 0-1.696 1.696v.022c.007.93.765 1.688 1.696 1.695h1.674l-3.933 9.505c-.072.209-.116.425-.116.65 0 .533.166.952.462 1.276.296.325.722.484 1.256.484a1.68 1.68 0 0 0 .974-.325c.303-.209.512-.512.678-.858l4.33-10.739h3.003a1.708 1.708 0 0 0 1.695-1.695v-.044a1.713 1.713 0 0 0-1.695-1.696h-1.603l3.306-8.234 9.006 22.4c.166.347.375.65.678.859.282.21.628.318.974.325.534 0 .953-.159 1.256-.484.303-.325.462-.743.462-1.277a1.512 1.512 0 0 0-.116-.642Z" fill="#fff" />
  </g>
  <defs>
    <linearGradient id="b" x1="48.876" y1="10.434" x2="7.212" y2="45.49" gradientUnits="userSpaceOnUse">
      <stop stop-color="#B6509E" />
      <stop offset="1" stop-color="#2EBAC6" />
    </linearGradient>
    <clipPath id="a">
      <path fill="#fff" d="M0 0h56v56H0z" />
    </clipPath>
  </defs>
</svg>
