<svg width="24" height="24" viewBox="0 0 24 24" fill="none" xmlns="http://www.w3.org/2000/svg">
<g clip-path="url(#clip0_15721_133413)">
<g clip-path="url(#clip1_15721_133413)">
<path d="M11.0088 11.25H12.1588V15.5" stroke="#E5E4FA" stroke-width="2" stroke-linecap="round" stroke-linejoin="round"/>
<path d="M11 15.5H13.31" stroke="#E5E4FA" stroke-width="2" stroke-linecap="round" stroke-linejoin="round"/>
<path d="M12.1001 8.23982H12.0901C12.0801 8.36982 11.9701 8.47982 11.8301 8.47982C11.6901 8.46982 11.5801 8.35982 11.5801 8.21982C11.5801 8.07982 11.6901 7.96982 11.8201 7.96982H11.8101C11.9401 7.95982 12.0601 8.07982 12.0601 8.20982" stroke="#E5E4FA" stroke-width="2" stroke-linecap="round" stroke-linejoin="round"/>
<path d="M17.6569 6.34315C20.781 9.46735 20.781 14.5327 17.6569 17.6569C14.5327 20.781 9.46734 20.781 6.34315 17.6569C3.21895 14.5327 3.21895 9.46734 6.34315 6.34315C9.46735 3.21895 14.5327 3.21895 17.6569 6.34315Z" stroke="#E5E4FA" stroke-width="2" stroke-linecap="round" stroke-linejoin="round"/>
</g>
</g>
<defs>
<clipPath id="clip0_15721_133413">
<rect width="24" height="24" fill="white"/>
</clipPath>
<clipPath id="clip1_15721_133413">
<rect width="24" height="24" fill="white"/>
</clipPath>
</defs>
</svg>
