<svg width="24" height="24" viewBox="0 0 24 24" fill="none" xmlns="http://www.w3.org/2000/svg">
<path d="M23.1 6.3C22.9806 6.14086 22.803 6.0357 22.6061 6.0075C22.4091 5.97938 22.2091 6.03062 22.05 6.15L21.75 6.375V4.5C21.7494 3.90344 21.5121 3.33148 21.0903 2.90968C20.6685 2.48788 20.0966 2.25062 19.5 2.25H17.625V0.75C17.625 0.551094 17.546 0.36032 17.4053 0.21968C17.2647 0.078976 17.0739 0 16.875 0H7.12499C6.92609 0 6.73531 0.078984 6.59467 0.21968C6.45397 0.360304 6.37499 0.55108 6.37499 0.75V5.25C6.37499 5.44891 6.45398 5.63968 6.59467 5.78032C6.7353 5.92102 6.92607 6 7.12499 6H16.875C17.0739 6 17.2647 5.92102 17.4053 5.78032C17.546 5.6397 17.625 5.44892 17.625 5.25V3.75H19.5C19.6989 3.75 19.8897 3.82898 20.0303 3.96968C20.171 4.1103 20.25 4.30108 20.25 4.5V6.375L19.95 6.15C19.7356 5.98922 19.4518 5.955 19.2054 6.06031C18.959 6.16555 18.7874 6.39429 18.7554 6.66031C18.7234 6.92633 18.8356 7.18921 19.05 7.34999L20.25 8.24999V10.5C20.25 10.6989 20.171 10.8897 20.0303 11.0303C19.8897 11.171 19.6989 11.25 19.5 11.25H17.625V9.37499C17.625 9.17609 17.546 8.98531 17.4053 8.84467C17.2647 8.70397 17.0739 8.62499 16.875 8.62499H7.12499C6.92609 8.62499 6.73531 8.70398 6.59467 8.84467C6.45397 8.9853 6.37499 9.17607 6.37499 9.37499V11.25H4.49999C3.90343 11.2506 3.33147 11.4879 2.90967 11.9097C2.48787 12.3315 2.25061 12.9034 2.24999 13.5V16.125L1.94999 15.9C1.73561 15.7392 1.45179 15.705 1.20539 15.8103C0.958992 15.9155 0.787432 16.1443 0.755392 16.4103C0.72336 16.6763 0.835626 16.9392 1.04999 17.1L2.24999 18V19.5C2.25062 20.0965 2.48789 20.6685 2.90967 21.0903C3.33145 21.5121 3.90343 21.7494 4.49999 21.75H6.37499V23.25C6.37499 23.4489 6.45398 23.6397 6.59467 23.7803C6.7353 23.921 6.92607 24 7.12499 24H16.875C17.0739 24 17.2647 23.921 17.4053 23.7803C17.546 23.6397 17.625 23.4489 17.625 23.25V18.75C17.625 18.5511 17.546 18.3603 17.4053 18.2197C17.2647 18.079 17.0739 18 16.875 18H7.12499C6.92609 18 6.73531 18.079 6.59467 18.2197C6.45397 18.3603 6.37499 18.5511 6.37499 18.75V20.25H4.49999C4.30109 20.25 4.11031 20.171 3.96967 20.0303C3.82897 19.8897 3.74999 19.6989 3.74999 19.5V18L4.94999 17.1C5.16437 16.9392 5.27663 16.6763 5.24459 16.4103C5.21256 16.1443 5.04099 15.9155 4.79459 15.8103C4.54819 15.705 4.26435 15.7392 4.04999 15.9L3.74999 16.125V13.5C3.74999 13.3011 3.82898 13.1103 3.96967 12.9697C4.1103 12.829 4.30107 12.75 4.49999 12.75H6.37499V14.625C6.37499 14.8239 6.45398 15.0147 6.59467 15.1553C6.7353 15.296 6.92607 15.375 7.12499 15.375H16.875C17.0739 15.375 17.2647 15.296 17.4053 15.1553C17.546 15.0147 17.625 14.8239 17.625 14.625V12.75H19.5C20.0966 12.7494 20.6685 12.5121 21.0903 12.0903C21.5121 11.6685 21.7494 11.0966 21.75 10.5V8.24999L22.95 7.34999C23.1091 7.23062 23.2143 7.05295 23.2425 6.85609C23.2706 6.65914 23.2194 6.45914 23.1 6.3ZM16.125 4.5H7.87499V1.5H16.125V4.5ZM7.87499 19.5H16.125V22.5H7.87499V19.5Z" fill="white"/>
</svg>
