<svg width="34" height="34" viewBox="0 0 34 34" fill="none" xmlns="http://www.w3.org/2000/svg">
<path d="M17 34C26.3888 34 34 26.3888 34 17C34 7.61116 26.3888 0 17 0C7.61116 0 0 7.61116 0 17C0 26.3888 7.61116 34 17 34Z" fill="#213147"/>
<g clip-path="url(#clip0_21286_17980)">
<path d="M7.16992 12.2956V21.7036C7.16992 22.3084 7.48672 22.8556 8.01472 23.1628L16.1651 27.8668C16.6835 28.1644 17.3267 28.1644 17.8451 27.8668L25.9955 23.1628C26.5139 22.8652 26.8403 22.3084 26.8403 21.7036V12.2956C26.8403 11.6908 26.5235 11.1436 25.9955 10.8364L17.8451 6.13238C17.3267 5.83478 16.6835 5.83478 16.1651 6.13238L8.01472 10.8364C7.49632 11.134 7.17952 11.6908 7.17952 12.2956H7.16992Z" fill="#213147"/>
<path d="M18.776 18.8239L17.6144 22.0111C17.5856 22.0975 17.5856 22.1935 17.6144 22.2895L19.6112 27.7711L21.9248 26.4367L19.1504 18.8239C19.0832 18.6511 18.8432 18.6511 18.776 18.8239Z" fill="#12AAFF"/>
<path d="M21.1084 13.4675C21.0412 13.2947 20.8012 13.2947 20.734 13.4675L19.5724 16.6547C19.5436 16.7411 19.5436 16.8371 19.5724 16.9331L22.846 25.9091L25.1596 24.5747L21.1084 13.4771V13.4675Z" fill="#12AAFF"/>
<path d="M17.0001 6.488C17.0577 6.488 17.1153 6.5072 17.1633 6.536L25.9761 11.624C26.0817 11.6816 26.1393 11.7968 26.1393 11.912V22.088C26.1393 22.2032 26.0721 22.3184 25.9761 22.376L17.1633 27.464C17.1153 27.4928 17.0577 27.512 17.0001 27.512C16.9425 27.512 16.8849 27.4928 16.8369 27.464L8.02408 22.376C7.91848 22.3184 7.86088 22.2032 7.86088 22.088V11.9024C7.86088 11.7872 7.92808 11.672 8.02408 11.6144L16.8369 6.5264C16.8849 6.4976 16.9425 6.4784 17.0001 6.4784V6.488ZM17.0001 5C16.6833 5 16.3761 5.0768 16.0881 5.24L7.27528 10.328C6.70888 10.6544 6.36328 11.2496 6.36328 11.9024V22.0784C6.36328 22.7312 6.70888 23.3264 7.27528 23.6528L16.0881 28.7408C16.3665 28.904 16.6833 28.9808 17.0001 28.9808C17.3169 28.9808 17.6241 28.904 17.9121 28.7408L26.7249 23.6528C27.2913 23.3264 27.6369 22.7312 27.6369 22.0784V11.9024C27.6369 11.2496 27.2913 10.6544 26.7249 10.328L17.9025 5.24C17.6241 5.0768 17.3073 5 16.9905 5H17.0001Z" fill="#9DCCED"/>
<path d="M11.1631 25.9186L11.9791 23.6914L13.6111 25.045L12.0847 26.4466L11.1631 25.9186Z" fill="#213147"/>
<path d="M16.2512 11.1825H14.0144C13.8512 11.1825 13.6976 11.2881 13.64 11.4417L8.84961 24.5745L11.1632 25.9089L16.4432 11.4417C16.4912 11.3073 16.3952 11.1729 16.2608 11.1729L16.2512 11.1825Z" fill="white"/>
<path d="M20.1682 11.1825H17.9314C17.7682 11.1825 17.6146 11.2881 17.557 11.4417L12.085 26.4369L14.3986 27.7713L20.3506 11.4417C20.3986 11.3073 20.3026 11.1729 20.1682 11.1729V11.1825Z" fill="white"/>
</g>
<defs>
<clipPath id="clip0_21286_17980">
<rect width="24" height="24" fill="white" transform="translate(5 5)"/>
</clipPath>
</defs>
</svg>
