<svg width="56" height="56" viewBox="0 0 56 56" fill="none" xmlns="http://www.w3.org/2000/svg">
<g clip-path="url(#clip0_4862_39735)">
<rect width="56" height="56" rx="13" fill="#DCDAE0"/>
<path fill-rule="evenodd" clip-rule="evenodd" d="M27.986 7.30001C16.5628 7.30001 7.29995 16.5663 7.29995 28C7.29995 39.4336 16.5628 48.7 27.986 48.7C39.4091 48.7 48.6721 39.4336 48.6721 28C48.6721 16.5663 39.4091 7.30001 27.986 7.30001ZM4.69995 28C4.69995 15.1318 15.1254 4.70001 27.986 4.70001C40.8465 4.70001 51.2721 15.1318 51.2721 28C51.2721 40.8681 40.8465 51.3 27.986 51.3C15.1254 51.3 4.69995 40.8681 4.69995 28Z" fill="black"/>
<path fill-rule="evenodd" clip-rule="evenodd" d="M29.0832 15.8317C28.9 15.5453 28.5834 15.372 28.2436 15.3719C27.9035 15.3719 27.5871 15.5452 27.4037 15.8316L14.8891 35.3863C14.6926 35.6934 14.6791 36.0832 14.8541 36.403C15.029 36.723 15.3644 36.9219 15.7288 36.9219H40.7556C41.1201 36.9219 41.4554 36.723 41.6304 36.4032C41.8053 36.0832 41.7919 35.6934 41.5954 35.3863L29.0832 15.8317ZM18.7566 34.9265H37.7286C35.0182 33.0627 31.6918 32.0332 28.2422 32.0332C24.7928 32.0332 21.468 33.0627 18.7566 34.9265ZM37.2515 32.2983L35.6424 29.7833C35.6108 29.7722 35.5794 29.7595 35.5485 29.745C30.9655 27.6081 25.5163 27.6081 20.9361 29.745C20.9055 29.7592 20.8745 29.7719 20.8433 29.7828L19.2331 32.2987C21.9452 30.8274 25.0536 30.0378 28.2422 30.0378C31.4304 30.0378 34.5397 30.8272 37.2515 32.2983ZM24.0527 24.768L22.647 26.9643C26.2793 25.8741 30.206 25.8746 33.8392 26.9652L32.4151 24.7395C29.6751 24.0793 26.7885 24.0888 24.0527 24.768ZM30.9404 22.4349C29.1488 22.1915 27.3265 22.1964 25.5363 22.4498L28.2433 18.2198L30.9404 22.4349Z" fill="black"/>
</g>
<defs>
<clipPath id="clip0_4862_39735">
<rect width="56" height="56" fill="white"/>
</clipPath>
</defs>
</svg>
