<svg width="34" height="35" viewBox="0 0 34 35" fill="none" xmlns="http://www.w3.org/2000/svg">
<path d="M27.5 5.83594H6.5V24.9375H27.5V5.83594Z" fill="white"/>
<path fill-rule="evenodd" clip-rule="evenodd" d="M34 17C34 26.3889 26.3889 34 17 34C7.61116 34 0 26.3889 0 17C0 7.61116 7.61116 0 17 0C26.3889 0 34 7.61116 34 17ZM12.1827 23.7651H8.88346C8.1902 23.7651 7.84775 23.7651 7.63895 23.6316C7.41343 23.4854 7.27562 23.2431 7.25891 22.9758C7.24637 22.7295 7.41761 22.4287 7.76006 21.8273L15.9062 7.46857C16.2529 6.85883 16.4283 6.55396 16.6496 6.44121C16.8877 6.32011 17.1717 6.32011 17.4097 6.44121C17.631 6.55396 17.8064 6.85883 18.1531 7.46857L19.8277 10.3919L19.8363 10.4069C20.2107 11.061 20.4005 11.3927 20.4834 11.7408C20.5753 12.1209 20.5753 12.5218 20.4834 12.9018C20.3999 13.2526 20.212 13.5868 19.8319 14.2508L15.5529 21.8148L15.5418 21.8342C15.165 22.4937 14.974 22.828 14.7093 23.0802C14.4212 23.3559 14.0745 23.5562 13.6945 23.6692C13.3479 23.7651 12.9595 23.7651 12.1827 23.7651ZM20.5143 23.7651H25.2417C25.9391 23.7651 26.29 23.7651 26.4989 23.6275C26.7244 23.4813 26.8663 23.2348 26.879 22.9677C26.891 22.7293 26.7235 22.4402 26.3953 21.8738C26.384 21.8545 26.3726 21.8349 26.3611 21.8149L23.9931 17.764L23.9662 17.7184C23.6334 17.1557 23.4654 16.8715 23.2497 16.7617C23.0118 16.6406 22.7318 16.6406 22.4939 16.7617C22.2767 16.8744 22.1013 17.171 21.7547 17.7681L19.3951 21.8191L19.387 21.833C19.0416 22.4293 18.869 22.7273 18.8814 22.9717C18.8981 23.2391 19.0359 23.4854 19.2614 23.6316C19.4661 23.7651 19.8169 23.7651 20.5143 23.7651Z" fill="#E84142"/>
</svg>
