<svg fill="none" height="315" viewBox="0 0 360 315" width="360" xmlns="http://www.w3.org/2000/svg" xmlns:xlink="http://www.w3.org/1999/xlink"><clipPath id="a"><path d="m0 0h360v315h-360z"/></clipPath><g clip-path="url(#a)" fill="#fff"><path d="m148.293 174.119 13.231 63.136-14.029 8.1-13.177-77.768 8.928-5.155zm45.115 44.728-48.106-43.001-7.729-10.138 9.015-5.205 60.893 50.219zm-14.553-23.379 5.966 10.335-33.818 19.525-5.967-10.335z" opacity=".1"/><path d="m84.4567 196.375 36.9683 64.031-13.149 7.592-36.9687-64.032zm19.7023-11.375 5.967 10.334-52.2461 30.164-5.9668-10.334z" opacity=".1"/><path d="m69.272 276.796 5.9414 10.291-34.0828 19.677-5.9414-10.29zm-60.80032-36.552 36.96872 64.032-13.1933 7.617-36.96878-64.031zm40.38792 11.454 5.789 10.027-29.6411 17.113-5.789-10.026zm-10.6589-28.618 5.9668 10.335-34.0389 19.652-5.96675-10.334z" opacity=".1"/><path d="m-25.4399 307.73-16.4478 9.496-5.3184-9.009 13.8091-7.972c2.4334-1.405 4.2493-2.864 5.4477-4.377 1.1815-1.542 1.8064-3.134 1.8747-4.776.0806-1.689-.3868-3.413-1.4025-5.172-1.151-1.993-2.4631-3.386-3.9364-4.177-1.4439-.808-3.1182-1.034-5.023-.677-1.8755.34-4.0447 1.221-6.5074 2.643l-9.1474 5.281 31.0019 53.697-13.1933 7.617-36.9688-64.031 22.3408-12.899c3.7234-2.149 7.2542-3.719 10.5923-4.708 3.3675-1.006 6.492-1.383 9.3738-1.131 2.8817.251 5.4997 1.164 7.854 2.736 2.3374 1.543 4.3694 3.81 6.096 6.801 1.5234 2.638 2.3273 5.419 2.4117 8.341.1137 2.905-.6985 5.798-2.4367 8.678-1.7089 2.863-4.5587 5.544-8.5494 8.044zm15.65285 28.432-19.48215 11.248-.796-13.262 14.3367-8.277c2.3162-1.337 3.9957-2.795 5.0384-4.375 1.02584-1.608 1.51818-3.261 1.47704-4.957-.04115-1.696-.54414-3.38-1.50894-5.051-1.0834-1.877-2.3453-3.318-3.7859-4.323-1.4113-1.023-3.0175-1.503-4.8186-1.44-1.8181.033-3.8559.702-6.1134 2.005l-12.7096 7.338-5.1426-9.11 15.8321-9.141 5.0911 1.81c3.8655-2.31 7.4004-3.432 10.6046-3.366 3.21662.019 6.01902.844 8.40719 2.475 2.417491 1.615 4.37103 3.712 5.86061 6.292 2.36979 4.104 3.47297 8.08 3.30954 11.927-.18036 3.818-1.59408 7.43-4.24118 10.834-2.61777 3.388-6.40407 6.512-11.35891 9.373z" opacity=".1"/><path d="m364.457 39.3745 36.968 64.0315-13.149 7.592-36.969-64.0317zm19.702-11.375 5.967 10.3348-52.246 30.1641-5.967-10.3348z" opacity=".1"/><path d="m349.272 119.796 5.941 10.29-34.082 19.678-5.942-10.291zm-60.8-36.5519 36.968 64.0319-13.193 7.617-36.969-64.0317zm40.388 11.4539 5.789 10.027-29.641 17.113-5.79-10.027zm-10.659-28.6179 5.966 10.3348-34.038 19.6523-5.967-10.3348z" opacity=".1"/><path d="m254.56 150.73-16.448 9.496-5.318-9.009 13.809-7.973c2.433-1.404 4.249-2.863 5.448-4.376 1.181-1.542 1.806-3.134 1.874-4.777.081-1.688-.386-3.412-1.402-5.171-1.151-1.994-2.463-3.386-3.936-4.177-1.444-.809-3.119-1.034-5.024-.677-1.875.34-4.044 1.221-6.507 2.643l-9.147 5.281 31.002 53.697-13.194 7.617-36.968-64.032 22.34-12.898c3.724-2.15 7.255-3.719 10.593-4.708 3.367-1.006 6.492-1.383 9.373-1.132 2.882.252 5.5 1.164 7.854 2.737 2.338 1.543 4.37 3.81 6.096 6.801 1.524 2.638 2.328 5.419 2.412 8.341.114 2.905-.698 5.798-2.437 8.678-1.709 2.863-4.558 5.544-8.549 8.043zm15.653 28.432-19.482 11.248-.796-13.262 14.337-8.277c2.316-1.337 3.995-2.796 5.038-4.375 1.026-1.609 1.518-3.261 1.477-4.957-.041-1.697-.544-3.38-1.509-5.052-1.083-1.876-2.345-3.317-3.786-4.322-1.411-1.023-3.017-1.503-4.819-1.44-1.818.033-3.855.701-6.113 2.005l-12.71 7.338-5.142-9.111 15.832-9.14 5.091 1.81c3.866-2.31 7.4-3.432 10.605-3.367 3.216.02 6.019.845 8.407 2.476 2.417 1.614 4.371 3.712 5.861 6.292 2.369 4.104 3.472 8.08 3.309 11.927-.18 3.818-1.594 7.429-4.241 10.834-2.618 3.388-6.404 6.512-11.359 9.373z" opacity=".1"/><path d="m249.293-25.8811 13.231 63.136-14.029 8.0996-13.177-77.7681 8.928-5.1543zm45.115 44.7278-48.106-43.0012-7.729-10.138 9.015-5.2051 60.893 50.2193zm-14.553-23.37898 5.966 10.3348-33.818 19.52538-5.967-10.3348z" opacity=".1"/><path d="m185.457-3.62549 36.968 64.03179-13.149 7.5918-36.969-64.03179zm19.702-11.37501 5.967 10.33481-52.246 30.16409-5.967-10.3348z" opacity=".1"/><path d="m170.272 76.7956 5.941 10.2908-34.082 19.6776-5.942-10.2906zm-60.8-36.5515 36.968 64.0319-13.193 7.617-36.9687-64.0317zm40.388 11.4539 5.789 10.027-29.641 17.1132-5.79-10.0269zm-10.659-28.6179 5.966 10.3348-34.038 19.6523-5.967-10.3348z" opacity=".1"/><path d="m75.5601 107.73-16.4478 9.496-5.3184-9.009 13.8091-7.973c2.4334-1.4045 4.2493-2.8633 5.4477-4.3762 1.1815-1.5421 1.8064-3.1343 1.8747-4.7764.0806-1.6884-.3868-3.4122-1.4025-5.1713-1.151-1.9937-2.4631-3.3862-3.9364-4.1774-1.4439-.8082-3.1182-1.0338-5.023-.6768-1.8755.3401-4.0447 1.221-6.5074 2.6429l-9.1474 5.2813 31.0019 53.6969-13.1933 7.617-36.9688-64.0315 22.3408-12.8985c3.7234-2.1497 7.2542-3.7191 10.5923-4.7082 3.3675-1.006 6.492-1.3831 9.3738-1.1314 2.8817.2517 5.4997 1.1639 7.854 2.7365 2.3374 1.5432 4.3694 3.8101 6.096 6.8006 1.5234 2.6387 2.3273 5.4191 2.4117 8.3414.1137 2.9052-.6985 5.7979-2.4367 8.6778-1.7089 2.863-4.5587 5.5443-8.5494 8.0433zm15.6528 28.432-19.4821 11.248-.796-13.262 14.3367-8.277c2.3162-1.337 3.9957-2.796 5.0384-4.375 1.0258-1.609 1.5182-3.261 1.477-4.957-.0411-1.697-.5441-3.38-1.5089-5.052-1.0834-1.876-2.3453-3.317-3.7859-4.322-1.4113-1.023-3.0175-1.503-4.8186-1.44-1.8181.033-3.8559.701-6.1134 2.005l-12.7096 7.338-5.1426-9.111 15.8321-9.1402 5.0911 1.8102c3.8655-2.3099 7.4004-3.4321 10.6046-3.3666 3.2166.0192 6.019.8445 8.4072 2.4757 2.4171 1.6143 4.3711 3.7119 5.8611 6.2919 2.369 4.104 3.472 8.08 3.309 11.927-.18 3.818-1.594 7.429-4.241 10.834-2.6179 3.388-6.4042 6.512-11.3591 9.373z" opacity=".1"/></g></svg>