<svg width="34" height="34" viewBox="0 0 34 34" fill="none" xmlns="http://www.w3.org/2000/svg">
<g clip-path="url(#clip0_10856_75957)">
<path d="M17 34C26.3888 34 34 26.3888 34 17C34 7.61116 26.3888 0 17 0C7.61116 0 0 7.61116 0 17C0 26.3888 7.61116 34 17 34Z" fill="#14151A"/>
<path d="M10.624 8.6761L16.9928 5L23.3616 8.6761L21.0201 10.0342L16.9928 7.7161L12.9655 10.0342L10.624 8.6761ZM23.3616 13.3122L21.0201 11.9542L16.9928 14.2722L12.9655 11.9542L10.624 13.3122V16.0283L14.6513 18.3463V22.9824L16.9928 24.3405L19.3343 22.9824V18.3463L23.3616 16.0283V13.3122ZM23.3616 20.6644V17.9483L21.0201 19.3063V22.0224L23.3616 20.6644ZM25.024 21.6244L20.9967 23.9424V26.6585L27.3655 22.9824V15.6302L25.024 16.9883V21.6244ZM22.6826 10.9942L25.024 12.3522V15.0683L27.3655 13.7102V10.9942L25.024 9.6361L22.6826 10.9942ZM14.6513 24.9259V27.642L16.9928 29L19.3343 27.642V24.9259L16.9928 26.2839L14.6513 24.9259ZM10.624 20.6644L12.9655 22.0224V19.3063L10.624 17.9483V20.6644ZM14.6513 10.9942L16.9928 12.3522L19.3343 10.9942L16.9928 9.6361L14.6513 10.9942ZM8.96158 12.3522L11.303 10.9942L8.96158 9.6361L6.62012 10.9942V13.7102L8.96158 15.0683V12.3522ZM8.96158 16.9883L6.62012 15.6302V22.9824L12.9889 26.6585V23.9424L8.96158 21.6244V16.9883Z" fill="#F0B90B"/>
</g>
<defs>
<clipPath id="clip0_10856_75957">
<rect width="34" height="34" fill="white"/>
</clipPath>
</defs>
</svg>
