<svg width="34" height="34" viewBox="0 0 34 34" fill="none" xmlns="http://www.w3.org/2000/svg">
  <path d="M17 34c9.389 0 17-7.611 17-17S26.389 0 17 0 0 7.611 0 17s7.611 17 17 17Z" fill="#F7931A" />
  <path d="M24.639 14.896c.333-2.227-1.364-3.424-3.682-4.223l.752-3.018-1.836-.457-.733 2.938c-.482-.12-.977-.233-1.471-.346l.738-2.957-1.836-.458-.752 3.016c-.4-.09-.793-.18-1.173-.276l.002-.01-2.533-.632-.489 1.962s1.363.312 1.335.331c.743.186.877.678.855 1.07l-.857 3.436c.052.013.117.032.192.06l-.195-.047-1.2 4.815c-.092.226-.322.565-.843.436.02.027-1.334-.333-1.334-.333l-.912 2.102 2.39.596c.445.112.88.229 1.309.338l-.76 3.052 1.835.456.752-3.017c.502.135.988.26 1.464.38l-.75 3.004 1.836.457.76-3.045c3.132.593 5.486.354 6.478-2.48.799-2.28-.04-3.596-1.687-4.453 1.2-.276 2.103-1.066 2.345-2.697Zm-4.197 5.884c-.567 2.282-4.408 1.048-5.653.739l1.01-4.043c1.245.311 5.237.927 4.643 3.304Zm.568-5.917c-.517 2.075-3.713 1.02-4.75.762l.914-3.665c1.036.258 4.376.739 3.836 2.903Z" fill="#fff" />
</svg>
