<svg width="24" height="24" viewBox="0 0 24 24" fill="none" xmlns="http://www.w3.org/2000/svg">
<path d="M22.5533 15.3333H21.0928L20.2988 2H17.0018V3.94549C17.0018 5.73195 16.049 7.38246 14.5019 8.27565C12.9549 9.16884 11.0488 9.16888 9.50163 8.27565C7.95443 7.38243 7.00171 5.73191 7.00171 3.94549V2H3.70461L2.91078 15.3333H1.4502V16.4484L2.85007 16.4486L2.58952 20.891L1.45021 20.8908V22H8.11688V20.8908H7.00177V16.4484H17.002V20.8908L15.8928 20.8907V21.9998H22.5594V20.8907H21.4141L21.1535 16.4483H22.5535L22.5533 15.3333ZM8.66832 15.3333H7.00183V7.45458C7.44942 8.09335 8.01513 8.6406 8.66848 9.06676L8.66832 15.3333ZM11.4501 15.3333H9.77747V9.63018C10.3132 9.84234 10.8765 9.97703 11.4502 10.0302L11.4501 15.3333ZM14.2259 15.3333H12.5533V10.0303C13.1271 9.9772 13.6904 9.84251 14.2261 9.63034L14.2259 15.3333ZM17.0018 15.3333H15.3351V9.06057C15.9885 8.63441 16.5542 8.08731 17.0018 7.44854V15.3333Z" fill="white"/>
</svg>
