<svg width="24" height="24" viewBox="0 0 24 24" fill="none" xmlns="http://www.w3.org/2000/svg">
<g clip-path="url(#clip0_13584_97573)">
<path fill-rule="evenodd" clip-rule="evenodd" d="M18 19H6C4.343 19 3 17.657 3 16V10H21V16C21 17.657 19.657 19 18 19ZM21 8H3C3 6.343 4.343 5 6 5H18C19.657 5 21 6.343 21 8ZM7 12C6.44772 12 6 12.4477 6 13C6 13.5523 6.44772 14 7 14H9.57C10.1223 14 10.57 13.5523 10.57 13C10.57 12.4477 10.1223 12 9.57 12H7Z" fill="white"/>
</g>
<defs>
<clipPath id="clip0_13584_97573">
<rect width="24" height="24" fill="white"/>
</clipPath>
</defs>
</svg>
