<svg width="37" height="24" viewBox="0 0 37 24" fill="none" xmlns="http://www.w3.org/2000/svg">
<path d="M7.55955 22.1698C10.8522 22.1698 13.5214 19.4491 13.5214 16.0929C13.5214 12.7367 10.8522 10.016 7.55955 10.016C4.26692 10.016 1.59772 12.7367 1.59772 16.0929C1.59772 19.4491 4.26692 22.1698 7.55955 22.1698Z" fill="#444444"/>
<path d="M29.3928 22.1698C32.6854 22.1698 35.3546 19.4491 35.3546 16.0929C35.3546 12.7367 32.6854 10.016 29.3928 10.016C26.1002 10.016 23.431 12.7367 23.431 16.0929C23.431 19.4491 26.1002 22.1698 29.3928 22.1698Z" fill="#DDDDDD"/>
<mask id="mask0_4214_36906" style="mask-type:alpha" maskUnits="userSpaceOnUse" x="3" y="1" width="31" height="16">
<path d="M33.0986 1.88574H3.77283V16.7496H33.0986V1.88574Z" fill="#C4C4C4"/>
</mask>
<g mask="url(#mask0_4214_36906)">
<mask id="mask1_4214_36906" style="mask-type:alpha" maskUnits="userSpaceOnUse" x="3" y="2" width="31" height="42">
<path fill-rule="evenodd" clip-rule="evenodd" d="M18.4409 2.11182C10.3933 2.11182 3.86938 8.56615 3.86938 16.528V43.2029H11.1765V17.2168C11.1765 13.2476 14.4288 10.03 18.4407 10.03C22.4527 10.03 25.705 13.2476 25.705 17.2168V43.2029H33.0123V16.528C33.0123 8.56614 26.4884 2.11182 18.4409 2.11182Z" fill="#E9BCFF"/>
</mask>
<g mask="url(#mask1_4214_36906)">
<path d="M3.86963 16.9646C3.86963 8.76166 10.3935 2.11182 18.4411 2.11182C26.4887 2.11182 33.0125 8.76166 33.0125 16.9646V43.2029H3.86963V16.9646Z" fill="#E9BCFF"/>
<path d="M5.52246 17.1926C5.52246 9.90916 11.315 4.00476 18.4605 4.00476C25.6061 4.00476 31.3986 9.90916 31.3986 17.1926V45.833H5.52246V17.1926Z" fill="#2C98F3"/>
<path d="M7.22192 17.1584C7.22192 10.9396 12.1677 5.89832 18.2687 5.89832C24.3697 5.89832 29.3155 10.9396 29.3155 17.1584V50.0504H7.22192V17.1584Z" fill="#58C971"/>
<path d="M9.28534 17.3826C9.28534 12.2285 13.3844 8.05029 18.4408 8.05029C23.4973 8.05029 27.5964 12.2285 27.5964 17.3826V55.3008H9.28534V17.3826Z" fill="#FFCA42"/>
</g>
</g>
</svg>
