<svg width="56" height="56" viewBox="0 0 56 56" fill="none" xmlns="http://www.w3.org/2000/svg">
<g clip-path="url(#clip0_9280_79452)">
<rect width="56" height="56" rx="13" fill="#28253E"/>
<path d="M27.8765 8C18.0036 8 9.99995 15.9838 9.99995 25.8322C9.99995 30.9686 12.177 35.5978 15.6608 38.8517L13.6125 47.6977C14.463 47.8954 15.3493 48 16.2601 48C19.999 48 23.3254 46.238 25.4503 43.501C26.2431 43.6089 27.0533 43.6644 27.8765 43.6644C37.5574 43.6644 45.4409 35.9883 45.744 26.4049L27.8765 26.4048V26.3775C24.0421 26.3775 20.9336 23.2768 20.9336 19.4519C20.9336 15.6269 24.0421 12.5262 27.8765 12.5262C31.711 12.5262 34.8194 15.6269 34.8194 19.4519C34.8194 20.6024 34.5382 21.6873 34.0405 22.6421C37.2446 22.6421 38.9967 21.5125 39.2967 19.2531C40.1169 21.4942 42.1739 22.6239 45.4678 22.642C43.9603 14.3158 36.6578 8 27.8765 8Z" fill="#00D89A"/>
<mask id="mask0_9280_79452" style="mask-type:luminance" maskUnits="userSpaceOnUse" x="10" y="8" width="36" height="40">
<path d="M27.8765 8C18.0036 8 9.99995 15.9838 9.99995 25.8322C9.99995 30.9686 12.177 35.5978 15.6608 38.8517L13.6125 47.6977C14.463 47.8954 15.3493 48 16.2601 48C19.999 48 23.3254 46.238 25.4503 43.501C26.2431 43.6089 27.0533 43.6644 27.8765 43.6644C37.5574 43.6644 45.4409 35.9883 45.744 26.4049L27.8765 26.4048V26.3775C24.0421 26.3775 20.9336 23.2768 20.9336 19.4519C20.9336 15.6269 24.0421 12.5262 27.8765 12.5262C31.711 12.5262 34.8194 15.6269 34.8194 19.4519C34.8194 20.6024 34.5382 21.6873 34.0405 22.6421C37.2446 22.6421 38.9967 21.5125 39.2967 19.2531C40.1169 21.4942 42.1739 22.6239 45.4678 22.642C43.9603 14.3158 36.6578 8 27.8765 8Z" fill="#00FFD6"/>
</mask>
<g mask="url(#mask0_9280_79452)">
<path d="M21.1796 39.6563C11.0953 39.6563 2.92037 31.5016 2.92037 21.4423C2.92037 11.3831 11.0953 3.22839 21.1796 3.22839C31.2639 3.22839 39.4388 11.3831 39.4388 21.4423C39.4388 31.5016 31.2639 39.6563 21.1796 39.6563Z" fill="#00FFD6"/>
</g>
</g>
<defs>
<clipPath id="clip0_9280_79452">
<rect width="56" height="56" fill="white"/>
</clipPath>
</defs>
</svg>
