<svg width="20" height="20" viewBox="0 0 20 20" fill="none" xmlns="http://www.w3.org/2000/svg">
<circle cx="10" cy="10" r="10" fill="#039581"/>
<path fill-rule="evenodd" clip-rule="evenodd" d="M14.1667 6.66667C13.9333 6.66667 13.725 6.75833 13.575 6.90833L8.33333 12.1583L6.425 10.2417C6.275 10.0917 6.06667 10 5.83333 10C5.375 10 5 10.375 5 10.8333C5 11.0667 5.09167 11.275 5.24167 11.425L7.74167 13.925C7.89167 14.075 8.1 14.1667 8.33333 14.1667C8.56667 14.1667 8.775 14.075 8.925 13.925L14.7583 8.09167C14.9083 7.94167 15 7.73333 15 7.5C15 7.04167 14.625 6.66667 14.1667 6.66667Z" fill="white"/>
</svg>
