<svg xmlns="http://www.w3.org/2000/svg" width="120" height="120" viewBox="0 0 120 120" fill="none">
  <path d="M60 11.25C50.3582 11.25 40.9329 14.1091 32.916 19.4659C24.8991 24.8226 18.6507 32.4363 14.9609 41.3442C11.2711 50.2521 10.3057 60.0541 12.1867 69.5107C14.0678 78.9672 18.7108 87.6536 25.5286 94.4715C32.3464 101.289 41.0328 105.932 50.4894 107.813C59.9459 109.694 69.7479 108.729 78.6558 105.039C87.5637 101.349 95.1774 95.1009 100.534 87.084C105.891 79.0671 108.75 69.6418 108.75 60C108.735 47.0753 103.594 34.6842 94.455 25.545C85.3158 16.4059 72.9247 11.2649 60 11.25ZM83.2178 51.4636L55.7154 77.7136C55.0161 78.379 54.0878 78.75 53.1226 78.75C52.1574 78.75 51.2291 78.379 50.5298 77.7136L36.7822 64.5886C36.064 63.9006 35.6482 62.9557 35.6262 61.9614C35.6042 60.967 35.9778 60.0046 36.6648 59.2855C37.3519 58.5664 38.2963 58.1494 39.2906 58.1262C40.2849 58.1029 41.2478 58.4752 41.9678 59.1614L53.1226 69.8145L78.0322 46.0364C78.7522 45.3502 79.7151 44.9779 80.7094 45.0012C81.7037 45.0244 82.6481 45.4414 83.3352 46.1605C84.0223 46.8796 84.3958 47.842 84.3738 48.8364C84.3518 49.8307 83.936 50.7756 83.2178 51.4636Z" fill="#946BEC"/>
</svg>