<svg width="16" height="16" viewBox="0 0 16 16" fill="none" xmlns="http://www.w3.org/2000/svg">
<path d="M7.99967 14.6666C4.31778 14.6666 1.33301 11.6819 1.33301 7.99998C1.33301 4.31808 4.31778 1.33331 7.99967 1.33331C11.6816 1.33331 14.6663 4.31808 14.6663 7.99998C14.6623 11.6802 11.6799 14.6626 7.99967 14.6666ZM7.99967 2.66665C5.05416 2.66665 2.66634 5.05446 2.66634 7.99998C2.66634 10.9455 5.05416 13.3333 7.99967 13.3333C10.9452 13.3333 13.333 10.9455 13.333 7.99998C13.3297 5.05583 10.9438 2.66995 7.99967 2.66665ZM11.333 8.66665H7.33301V4.66665H8.66634V7.33331H11.333V8.66665Z" fill="#9594AA"/>
</svg>
