<svg width="52" height="52" viewBox="0 0 52 52" fill="none" xmlns="http://www.w3.org/2000/svg">
<path d="M26 0C40.3592 0 52 11.6408 52 26C52 40.3592 40.3592 52 26 52C11.6408 52 0 40.3592 0 26C0 11.6408 11.6408 0 26 0Z" fill="#0052FF"/>
<path d="M26.0117 35.1361C20.9583 35.1361 16.875 31.0415 16.875 25.9994C16.875 20.9574 20.9696 16.8628 26.0117 16.8628C30.5349 16.8628 34.2911 20.1565 35.013 24.4767H44.2173C43.439 15.0919 35.5883 7.71484 26.0004 7.71484C15.905 7.71484 7.71582 15.904 7.71582 25.9994C7.71582 36.0949 15.905 44.284 26.0004 44.284C35.5883 44.284 43.439 36.907 44.2173 27.5222H35.0017C34.2798 31.8424 30.5349 35.1361 26.0117 35.1361Z" fill="white"/>
</svg>
