<svg width="209" height="202" viewBox="0 0 209 202" fill="none" xmlns="http://www.w3.org/2000/svg">
<path d="M102.486 196.604C154.043 196.604 195.839 154.945 195.839 103.556C195.839 52.1668 154.043 10.5078 102.486 10.5078C50.928 10.5078 9.13232 52.1668 9.13232 103.556C9.13232 154.945 50.928 196.604 102.486 196.604Z" fill="url(#paint0_radial_1761_15548)"/>
<path d="M104.903 196.604C159.372 196.604 203.527 152.593 203.527 98.3019C203.527 44.0113 159.372 0 104.903 0C50.434 0 6.27832 44.0113 6.27832 98.3019C6.27832 152.593 50.434 196.604 104.903 196.604Z" fill="url(#paint1_radial_1761_15548)"/>
<path opacity="0.68" d="M137.184 151.887C142.506 151.887 146.829 147.578 146.829 142.274C146.829 136.97 142.506 132.662 137.184 132.662C131.854 132.662 127.532 136.97 127.532 142.274C127.532 147.578 131.854 151.887 137.184 151.887Z" fill="url(#paint2_radial_1761_15548)"/>
<path d="M137.184 144.976C138.687 144.976 139.904 143.763 139.904 142.266C139.904 140.768 138.687 139.555 137.184 139.555C135.682 139.555 134.465 140.768 134.465 142.266C134.456 143.763 135.674 144.976 137.184 144.976Z" fill="#8D29C1"/>
<path opacity="0.68" d="M98.6077 160.579C102.074 160.579 104.894 157.777 104.894 154.313C104.894 150.85 102.074 148.047 98.6077 148.047C95.1327 148.047 92.3125 150.85 92.3125 154.313C92.3209 157.768 95.1327 160.579 98.6077 160.579Z" fill="url(#paint3_radial_1761_15548)"/>
<path d="M98.608 156.078C99.59 156.078 100.379 155.284 100.379 154.313C100.379 153.334 99.5816 152.548 98.608 152.548C97.6259 152.548 96.8369 153.343 96.8369 154.313C96.8369 155.284 97.6259 156.078 98.608 156.078Z" fill="#8D29C1"/>
<path opacity="0.68" d="M51.6288 105.296C55.4983 105.296 58.6459 102.167 58.6459 98.3017C58.6459 94.4365 55.4983 91.3076 51.6288 91.3076C47.751 91.3076 44.6118 94.4365 44.6118 98.3017C44.6118 102.167 47.7594 105.296 51.6288 105.296Z" fill="url(#paint4_radial_1761_15548)"/>
<path d="M51.6288 100.276C52.72 100.276 53.6097 99.3896 53.6097 98.302C53.6097 97.2144 52.72 96.3276 51.6288 96.3276C50.5377 96.3276 49.6479 97.2144 49.6479 98.302C49.6479 99.3896 50.5377 100.276 51.6288 100.276Z" fill="#8D29C1"/>
<path d="M153.535 42.5001L157.06 41.2368L158.37 41.4627C158.37 41.4627 159.73 42.3495 160.007 42.8013C161.056 44.5163 164.506 47.5198 167.67 45.0852L164.313 48.3648C164.313 48.3648 160.913 48.0719 159.276 46.1226C157.497 44.0144 158.722 42.9351 153.535 42.5001Z" fill="#2E2E8E"/>
<path d="M116.083 90.7307L86.6385 66.5693L57.0344 136.435C55.213 141.438 56.5811 147.035 60.5009 150.649L60.6436 150.783C64.5718 154.405 70.2962 155.317 75.1645 153.1L142.431 118.188L116.083 90.7307Z" fill="url(#paint5_linear_1761_15548)"/>
<path d="M116.083 90.7307L86.6385 66.5693L57.0344 136.435C55.213 141.438 56.5811 147.035 60.5009 150.649L60.6436 150.783C64.5718 154.405 70.2962 155.317 75.1645 153.1L142.431 118.188L116.083 90.7307Z" fill="url(#paint6_linear_1761_15548)"/>
<path d="M143.076 117.688C147.851 112.542 139.164 96.7969 123.675 82.5211C108.186 68.2453 91.759 60.8444 86.9848 65.9906C82.2106 71.1368 90.8969 86.8814 106.386 101.157C121.875 115.433 138.302 122.834 143.076 117.688Z" fill="#A346C1"/>
<path d="M123.931 82.2976C139.417 96.5702 147.878 112.65 143.555 117.301C139.233 121.953 123.78 113.428 108.294 99.1553C92.8079 84.8827 82.9622 70.3675 87.2849 65.7076C91.5992 61.056 108.445 68.025 123.931 82.2976Z" fill="url(#paint7_linear_1761_15548)"/>
<path d="M80.7632 80.4321C80.7632 80.4321 78.8159 91.6427 101.067 110.776C101.067 110.776 119.105 126.747 129.572 124.84L114.514 132.653C114.514 132.653 104.886 133.005 89.3079 118.13C84.4983 113.537 74.5603 103.774 74.0483 96.3445L80.7632 80.4321Z" fill="#69318D"/>
<path d="M68.6764 109.027C68.6764 109.027 67.3502 116.641 82.467 129.633C82.467 129.633 94.7132 140.476 101.823 139.179L90.5332 145.119C90.5332 145.119 81.401 141.588 74.4763 134.628C71.2952 131.423 64.4544 124.881 64.1187 119.836L68.6764 109.027Z" fill="#69318D"/>
<path opacity="0.1" d="M140.634 119.075L138.351 120.297L80.8635 150.13L76.4904 152.397C76.4904 152.397 71.278 155.568 65.8306 153.719L128.514 116.59C128.514 116.59 132.727 118.314 134.255 118.715C138.309 119.795 140.634 119.075 140.634 119.075Z" fill="#03031C"/>
<path d="M121.547 46.0303L114.455 42.8763L116.427 38.8354L122.244 41.9644L121.547 46.0303Z" fill="#B85EDD"/>
<path d="M56.8079 80.4317L49.7153 77.2694L51.6878 73.2285L57.5046 76.3658L56.8079 80.4317Z" fill="#60215B"/>
<path d="M175.048 125.693L167.343 126.638L166.932 122.17L173.537 121.853L175.048 125.693Z" fill="#B85EDD"/>
<path d="M158.169 72.0072L151.084 68.8449L152.184 66.5776L158.865 67.9413L158.169 72.0072Z" fill="#9B49C1"/>
<path d="M119.13 62.2186L111.576 58.8471L113.33 55.2329L119.919 58.4873L119.13 62.2186Z" fill="#3737A5"/>
<path d="M78.4298 54.8984L72.2689 60.4033L69.6753 57.3245L75.341 52.6562L78.4298 54.8984Z" fill="#3737A5"/>
<path d="M174.595 81.938L174.385 73.689L178.414 73.7141L178.313 81.0428L174.595 81.938Z" fill="#3737A5"/>
<path d="M134.641 102.109L142.514 99.5654L143.639 103.422L136.555 105.405L134.641 102.109Z" fill="#3737A5"/>
<path d="M165.194 86.2212L160.527 86.9323C160.527 86.9323 166.419 102.543 159.763 104.819L161.291 106.174C161.291 106.174 171.472 104.928 165.194 86.2212Z" fill="#B85EDD"/>
<path d="M122.034 98.302C122.034 98.302 126.936 85.4851 135.22 84.0378C137.327 83.6697 141.146 81.9379 141.096 77.8134C141.096 77.8134 142.54 78.4576 143.748 75.8808C144.26 74.7848 146.728 84.615 137.73 87.1165C133.382 88.3296 131.46 88.0117 127.809 98.1598L122.034 98.302Z" fill="#3737A5"/>
<path d="M151.94 51.2845C151.94 51.2845 155.449 37.2713 160.384 43.3116C160.384 43.3116 157.002 38.0326 152.058 41.1532C152.058 41.1532 148.549 43.161 147.139 52.1379L151.94 51.2845Z" fill="#3737A5"/>
<path d="M151.941 51.2845C151.907 51.092 147.173 38.4508 141.507 37.8066L137.176 39.1871C137.176 39.1871 144.831 45.9971 147.139 52.1462L151.941 51.2845Z" fill="#2E2E8E"/>
<path d="M127.011 66.72L135.774 63.0306C135.774 63.0306 133.592 38.7019 141.935 37.8904C141.935 37.8904 125.828 33.632 127.011 66.72Z" fill="#3737A5"/>
<path d="M99.6651 15.8203C99.6651 15.8203 86.8481 21.8607 92.4466 30.8124C93.3112 32.1928 94.5031 33.3306 95.8292 34.2676C98.2718 35.991 103.14 40.3916 97.4996 45.1603C97.4996 45.1603 89.7523 50.0294 97.6674 59.9683L104.265 61.4575C104.265 61.4575 96.5679 51.6106 99.4637 47.9629C99.4637 47.9629 99.5476 47.8793 99.6987 47.7287C103.509 43.9137 103.425 37.7144 99.5056 33.9999L97.7178 32.3016C96.7022 31.1136 96.1734 29.5826 96.2489 28.0265C96.3832 25.0063 97.4156 20.4468 102.418 19.8946L99.6651 15.8203Z" fill="url(#paint8_linear_1761_15548)"/>
<path d="M102.486 40.5004C102.377 38.1161 101.386 35.7736 99.5144 33.9916L97.7266 32.2933C96.711 31.1053 96.1822 29.5743 96.2577 28.0182C96.392 24.998 97.4244 20.4385 102.427 19.8863L99.6739 15.812C99.6739 15.812 86.8569 21.8524 92.4554 30.8041C93.32 32.1845 94.5118 33.3223 95.838 34.2593C96.0563 34.4183 96.2997 34.594 96.5515 34.7864C96.6354 34.8282 101.73 36.719 102.486 40.5004Z" fill="#60215B"/>
<path d="M151.084 68.8446C151.084 68.8446 152.125 69.3466 154.215 68.167L158.177 72.007C158.169 72.007 154.039 73.1365 151.084 68.8446Z" fill="#60215B"/>
<path d="M125.249 112.482C125.249 112.482 151.143 110.341 148.835 128.412C148.835 128.412 146.887 142.308 158.437 144.165L160.284 139.789C160.284 139.789 150.606 138.894 151.815 129.959C152.31 126.303 155.08 122.631 147.676 115.804C142.993 111.487 141.365 109.454 122.084 110.357L125.249 112.482Z" fill="#3737A5"/>
<path d="M91.7671 81.4692C91.7671 81.4692 95.284 77.8132 94.176 73.764L98.1462 72.3418C98.1462 72.3418 100.547 80.7246 94.3943 84.9328L91.7671 81.4692Z" fill="#B85EDD"/>
<path d="M115.622 87.5264L109.352 85.5269L110.98 80.3901L116.822 83.4438L115.622 87.5264Z" fill="#B85EDD"/>
<path d="M139.14 86.6397C139.14 86.6397 144.999 79.7209 143.186 74.626L144.478 76.3829C144.478 76.3829 147.013 82.5738 139.14 86.6397Z" fill="#4646B2"/>
<path d="M167.217 96.3525C167.217 96.3525 167.913 105.129 161.266 106.174C161.266 106.174 163.255 105.179 163.33 103.765C163.339 103.765 167.124 100.904 167.217 96.3525Z" fill="#60215B"/>
<defs>
<radialGradient id="paint0_radial_1761_15548" cx="0" cy="0" r="1" gradientUnits="userSpaceOnUse" gradientTransform="translate(102.485 103.559) scale(93.3531 93.0478)">
<stop stop-color="#5C308E"/>
<stop offset="0.1723" stop-color="#582E89" stop-opacity="0.8277"/>
<stop offset="0.3646" stop-color="#4E297C" stop-opacity="0.6354"/>
<stop offset="0.5667" stop-color="#3C2066" stop-opacity="0.4333"/>
<stop offset="0.7754" stop-color="#241446" stop-opacity="0.2246"/>
<stop offset="0.9874" stop-color="#05041F" stop-opacity="0.0126"/>
<stop offset="1" stop-color="#03031C" stop-opacity="0"/>
</radialGradient>
<radialGradient id="paint1_radial_1761_15548" cx="0" cy="0" r="1" gradientUnits="userSpaceOnUse" gradientTransform="translate(104.9 98.3036) scale(98.6262 98.3036)">
<stop stop-color="#5C308E"/>
<stop offset="0.7095" stop-color="#1E103E" stop-opacity="0.2905"/>
<stop offset="1" stop-color="#03031C" stop-opacity="0"/>
</radialGradient>
<radialGradient id="paint2_radial_1761_15548" cx="0" cy="0" r="1" gradientUnits="userSpaceOnUse" gradientTransform="translate(137.179 142.267) scale(9.64992 9.61836)">
<stop stop-color="#8D29C1"/>
<stop offset="0.2143" stop-color="#8529B9" stop-opacity="0.7776"/>
<stop offset="0.5518" stop-color="#6E2AA3" stop-opacity="0.4274"/>
<stop offset="0.9635" stop-color="#4A2B80" stop-opacity="0"/>
</radialGradient>
<radialGradient id="paint3_radial_1761_15548" cx="0" cy="0" r="1" gradientUnits="userSpaceOnUse" gradientTransform="translate(98.6086 154.309) scale(6.29056 6.26999)">
<stop stop-color="#8D29C1"/>
<stop offset="0.2143" stop-color="#8529B9" stop-opacity="0.7776"/>
<stop offset="0.5518" stop-color="#6E2AA3" stop-opacity="0.4274"/>
<stop offset="0.9635" stop-color="#4A2B80" stop-opacity="0"/>
</radialGradient>
<radialGradient id="paint4_radial_1761_15548" cx="0" cy="0" r="1" gradientUnits="userSpaceOnUse" gradientTransform="translate(51.6299 98.3034) scale(7.01703 6.99408)">
<stop stop-color="#8D29C1"/>
<stop offset="0.2143" stop-color="#8529B9" stop-opacity="0.7776"/>
<stop offset="0.5518" stop-color="#6E2AA3" stop-opacity="0.4274"/>
<stop offset="0.9635" stop-color="#4A2B80" stop-opacity="0"/>
</radialGradient>
<linearGradient id="paint5_linear_1761_15548" x1="5.73289" y1="206.53" x2="153.1" y2="51.0255" gradientUnits="userSpaceOnUse">
<stop stop-color="#5C308E"/>
<stop offset="0.6908" stop-color="#973588"/>
</linearGradient>
<linearGradient id="paint6_linear_1761_15548" x1="73.8332" y1="108.957" x2="102.622" y2="132.233" gradientUnits="userSpaceOnUse">
<stop stop-color="#973588" stop-opacity="0"/>
<stop offset="0.3649" stop-color="#C8429F" stop-opacity="0.8"/>
<stop offset="0.6118" stop-color="#B13C94" stop-opacity="0.454"/>
<stop offset="0.9357" stop-color="#973588" stop-opacity="0"/>
</linearGradient>
<linearGradient id="paint7_linear_1761_15548" x1="84.7179" y1="63.1623" x2="156.254" y2="126.666" gradientUnits="userSpaceOnUse">
<stop offset="0.1717" stop-color="#52306F"/>
<stop offset="0.4439" stop-color="#973588"/>
<stop offset="0.6896" stop-color="#5E318D"/>
</linearGradient>
<linearGradient id="paint8_linear_1761_15548" x1="72.8815" y1="58.5407" x2="130.645" y2="18.54" gradientUnits="userSpaceOnUse">
<stop stop-color="#5C308E"/>
<stop offset="0.6908" stop-color="#973588"/>
</linearGradient>
</defs>
</svg>
