<svg width="24" height="24" viewBox="0 0 24 24" fill="none" xmlns="http://www.w3.org/2000/svg">
<path d="M16.5092 6.34372C15.5161 5.35056 14.2789 4.63627 12.9223 4.27265C11.5656 3.90912 10.1371 3.90912 8.78029 4.27265C7.4236 4.63627 6.18635 5.35056 5.19336 6.34372L6.81078 7.96114C7.60998 7.16174 8.62827 6.61719 9.7369 6.39656C10.8456 6.17592 11.9947 6.28894 13.0393 6.72149C14.0837 7.15402 14.9763 7.88655 15.6044 8.82642C16.2325 9.76629 16.5677 10.8714 16.5677 12.0016C16.5677 13.1319 16.2324 14.2371 15.6044 15.1768C14.9763 16.1166 14.0837 16.8492 13.0393 17.2818C11.9949 17.7143 10.8457 17.8273 9.7369 17.6067C8.6282 17.3861 7.60993 16.8415 6.81078 16.0421L5.19336 17.6595C6.60065 19.0652 8.48096 19.8965 10.4679 19.991C12.4547 20.0855 14.4056 19.4366 15.9399 18.1707C17.4742 16.905 18.4819 15.1132 18.7667 13.1446H21.1385V10.8585H18.7667C18.5241 9.14849 17.7318 7.56379 16.5093 6.34362L16.5092 6.34372Z" fill="#D4C4ED"/>
<path d="M13.1363 14.5616C12.5073 15.1221 11.6939 15.4313 10.8513 15.4304C10.1429 15.4295 9.45199 15.2093 8.87377 14.8C8.29555 14.3906 7.85837 13.8123 7.62219 13.1443H2.8501V10.8583H7.62219C7.90311 10.0639 8.46652 9.40079 9.2052 8.99533C9.94383 8.58996 10.8058 8.47062 11.6267 8.66019C12.4477 8.84976 13.1701 9.33495 13.6562 10.0232C14.1422 10.7113 14.3579 11.5545 14.262 12.3915C14.1662 13.2286 13.7654 14.0011 13.1363 14.5616Z" fill="#D4C4ED"/>
</svg>
