<svg xmlns="http://www.w3.org/2000/svg" width="24" height="24" viewBox="0 0 24 24" fill="none">
<path fill-rule="evenodd" clip-rule="evenodd" d="M16.1182 4.11741C15.9617 3.96086 15.7079 3.96086 15.5514 4.11741L12.215 7.45501L11.6278 6.86768C11.4713 6.71113 11.2176 6.71113 11.0611 6.86768L5.26268 12.668C4.72897 13.1999 4.3443 13.8633 4.14808 14.5909C3.95182 15.3186 3.95062 16.0853 4.14464 16.8136C4.33865 17.542 4.72107 18.2064 5.25334 18.74C5.78634 19.2742 6.45073 19.6585 7.17957 19.8538C7.90838 20.0491 8.67583 20.0487 9.40441 19.8526C10.133 19.6566 10.7969 19.2718 11.3293 18.7371L17.1279 12.9365C17.2844 12.7799 17.2844 12.5261 17.1279 12.3696L16.5461 11.7876L19.8826 8.45004C20.0391 8.29349 20.0391 8.03968 19.8826 7.88313L16.1182 4.11741ZM12.783 8.02061L15.8348 4.96778L19.0325 8.16658L15.9807 11.2194L12.783 8.02061ZM5.82884 13.2355L11.3445 7.71804L16.2778 12.653L10.7616 18.1711C10.3286 18.606 9.78869 18.919 9.19619 19.0784C8.60372 19.2379 7.97964 19.2382 7.38699 19.0794C6.79436 18.9205 6.2541 18.6081 5.82064 18.1736C5.38781 17.7398 5.07685 17.1995 4.91909 16.6072C4.76131 16.0149 4.76229 15.3915 4.92188 14.7997C5.08147 14.2079 5.39411 13.6686 5.82827 13.2361L5.82884 13.2355Z" fill="#D4C4ED" stroke="#D4C4ED" stroke-linecap="round" stroke-linejoin="round"/>
</svg>