<svg width="16" height="21" viewBox="0 0 16 21" fill="none" xmlns="http://www.w3.org/2000/svg">
<path d="M12.493 5.4434C11.9407 5.4434 11.493 5.89111 11.493 6.4434V8.84228C11.493 9.15343 11.7452 9.40566 12.0563 9.40566C12.3675 9.40566 12.6197 9.65789 12.6197 9.96904V10.3962C12.6197 10.9433 12.1762 11.3868 11.6292 11.3868H10.2394C9.68715 11.3868 9.23944 10.9391 9.23944 10.3868V4.1737C9.23944 3.78078 9.55796 3.46226 9.95087 3.46226C10.5579 3.46226 10.8861 2.75091 10.4921 2.28909L8.87344 0.391748C8.47421 -0.0762194 7.75114 -0.0762185 7.35191 0.391748L5.73325 2.28909C5.33926 2.75091 5.66744 3.46226 6.27448 3.46226C6.6674 3.46226 6.98592 3.78078 6.98592 4.1737V10.3868C6.98592 10.9391 6.5382 11.3868 5.98592 11.3868H4.60563C4.05335 11.3868 3.60563 10.9391 3.60563 10.3868V9.97433C3.60563 9.58522 3.84344 9.24523 4.14783 9.00284C4.64006 8.61086 4.95775 8.05679 4.95775 7.42453C4.95775 6.21604 3.84225 5.24528 2.47887 5.24528C1.10423 5.24528 0 6.21604 0 7.42453C0 8.05679 0.317684 8.61086 0.809917 9.00284C1.11431 9.24523 1.35211 9.58522 1.35211 9.97433V11.3868C1.35211 11.9122 1.58954 12.4161 2.01215 12.7877C2.43477 13.1592 3.00796 13.3679 3.60563 13.3679H5.98591C6.5382 13.3679 6.98592 13.8156 6.98592 14.3679V15.7401C6.98592 16.1348 6.74044 16.4782 6.43324 16.7261C5.94273 17.1221 5.6338 17.6909 5.6338 18.3208C5.6338 18.8987 5.89497 19.453 6.35985 19.8617C6.82473 20.2704 7.45524 20.5 8.11268 20.5C8.77011 20.5 9.40063 20.2704 9.8655 19.8617C10.3304 19.453 10.5915 18.8987 10.5915 18.3208C10.5915 17.6909 10.2826 17.1221 9.79211 16.7261C9.48491 16.4782 9.23944 16.1348 9.23944 15.7401V14.3679C9.23944 13.8156 9.68715 13.3679 10.2394 13.3679H12.6197C13.2174 13.3679 13.7906 13.1592 14.2132 12.7877C14.6358 12.4161 14.8732 11.9122 14.8732 11.3868V9.96904C14.8732 9.65789 15.1255 9.40566 15.4366 9.40566C15.7478 9.40566 16 9.15343 16 8.84228V6.4434C16 5.89111 15.5523 5.4434 15 5.4434H12.493Z" fill="white"/>
</svg>
