<svg width="51" height="56" viewBox="0 0 51 56" fill="none" xmlns="http://www.w3.org/2000/svg">
<path d="M43.6279 0H6.51163C4.78465 0 3.12861 0.686314 1.90721 1.90721C0.68628 3.1286 0 4.78465 0 6.51163V49.4884C0 51.2153 0.686315 52.8714 1.90721 54.0928C3.12861 55.3137 4.78465 56 6.51163 56H43.6279C45.3549 56 47.0109 55.3137 48.2323 54.0928C49.4533 52.8714 50.1395 51.2153 50.1395 49.4884V6.51163C50.1395 4.78465 49.4532 3.1286 48.2323 1.90721C47.0109 0.686279 45.3549 0 43.6279 0V0ZM9.11628 53.3953H6.5114C5.47533 53.3953 4.48151 52.9838 3.74884 52.2512C3.01619 51.5185 2.60468 50.5247 2.60468 49.4886V6.51188C2.60468 5.47581 3.0162 4.482 3.74884 3.74933C4.48149 3.01667 5.47535 2.60516 6.5114 2.60516H9.11582L9.11628 53.3953ZM47.5349 49.4881V49.4886C47.5349 50.5247 47.1234 51.5185 46.3907 52.2511C45.6581 52.9838 44.6642 53.3953 43.6282 53.3953H11.7212L11.7207 2.60462H43.6277C44.6638 2.60462 45.6576 3.01614 46.3903 3.74878C47.1229 4.48143 47.5344 5.47529 47.5344 6.51134L47.5349 49.4881Z" fill="#656474"/>
<path d="M28.6512 27.6036C30.5317 27.6036 32.3354 26.8564 33.6653 25.5265C34.9952 24.1966 35.7424 22.3929 35.7424 20.5124C35.7424 18.6315 34.9952 16.8278 33.6653 15.4979C32.3353 14.1684 30.5317 13.4213 28.6512 13.4213C26.7703 13.4213 24.9666 14.1685 23.6371 15.4979C22.3071 16.8279 21.5601 18.6315 21.5601 20.5124C21.5619 22.3924 22.3095 24.1952 23.639 25.5246C24.9685 26.8542 26.7709 27.6017 28.6512 27.6036V27.6036ZM28.6512 16.0261V16.0257C29.8408 16.0257 30.9823 16.4985 31.8234 17.3398C32.6651 18.1814 33.1375 19.3224 33.1375 20.5124C33.1375 21.702 32.6651 22.8435 31.8234 23.6846C30.9822 24.5259 29.8408 24.9987 28.6512 24.9987C27.4612 24.9987 26.3202 24.5259 25.4785 23.6846C24.6373 22.8434 24.1645 21.702 24.1645 20.5124C24.1663 19.3229 24.6396 18.1828 25.4808 17.3415C26.3215 16.5008 27.4616 16.0274 28.6512 16.0257V16.0261Z" fill="#656474"/>
<path d="M28.6512 28.7745C26.2293 28.7077 23.8365 29.3141 21.739 30.5256C19.6409 31.7374 17.9199 33.5071 16.7676 35.6378C16.6849 35.8131 16.6427 36.0043 16.6436 36.1978V41.5503C16.6436 41.8959 16.7807 42.227 17.0251 42.4714C17.2695 42.7153 17.6006 42.8525 17.9458 42.8525H39.3563C39.7019 42.8525 40.033 42.7153 40.2774 42.4714C40.5213 42.227 40.6585 41.8959 40.6585 41.5503V36.1978C40.6594 36.0043 40.6172 35.8131 40.535 35.6378C39.3821 33.5071 37.6616 31.7374 35.5636 30.5256C33.4655 29.3142 31.0727 28.7078 28.6513 28.7745H28.6512ZM38.0538 40.248H19.248V36.5235C20.2151 34.9065 21.5968 33.5769 23.2497 32.6726C24.9026 31.7683 26.7671 31.3218 28.6507 31.379C30.5334 31.3214 32.3976 31.7669 34.0505 32.67C35.7034 33.5729 37.0851 34.9011 38.0535 36.5167L38.0538 40.248Z" fill="#656474"/>
</svg>
