<svg width="14" height="14" viewBox="0 0 14 14" fill="none" xmlns="http://www.w3.org/2000/svg">
<path fill-rule="evenodd" clip-rule="evenodd" d="M0.7 11.2L0.781635 11.1953C1.10299 11.158 1.35797 10.903 1.39529 10.5816L1.4 10.5V1.4H10.5L10.5816 1.39529C10.9298 1.35486 11.2 1.05899 11.2 0.7C11.2 0.341015 10.9298 0.045145 10.5816 0.00470941L10.5 0H0.7L0.618365 0.00470941C0.297008 0.0420346 0.0420346 0.297008 0.00470941 0.618365L0 0.7V10.5L0.00470941 10.5816C0.0420346 10.903 0.297008 11.158 0.618365 11.1953L0.7 11.2ZM13.3 14L13.3816 13.9953C13.703 13.958 13.958 13.703 13.9953 13.3816L14 13.3V3.50001L13.9953 3.41837C13.9611 3.12379 13.744 2.885 13.4605 2.81849L13.3816 2.80471L13.3 2.80001H3.5L3.41836 2.80471C3.09701 2.84204 2.84203 3.09701 2.80471 3.41837L2.8 3.50001V13.3L2.80471 13.3816C2.83892 13.6762 3.05602 13.915 3.3395 13.9815L3.41836 13.9953L3.5 14H13.3ZM4.2 4.2V12.6H12.6V4.2H4.2Z" fill="currentColor"/>
</svg>
