<svg width="56" height="56" viewBox="0 0 56 56" fill="none" xmlns="http://www.w3.org/2000/svg">
<g clip-path="url(#clip0_3156_29585)">
<rect width="56" height="56" rx="13" fill="url(#paint0_linear_3156_29585)"/>
<path fill-rule="evenodd" clip-rule="evenodd" d="M39.6298 30.3183C38.7518 33.2293 36.8065 35.8251 33.9655 37.4653C28.0419 40.8853 20.4674 38.8557 17.0473 32.9321C13.6273 27.0084 15.6569 19.4339 21.5806 16.0139C27.5042 12.5938 35.0787 14.6234 38.4988 20.5471C39.6451 22.5325 40.1791 24.7034 40.1596 26.8412C38.7087 28.0083 37.1388 29.168 35.4314 30.3108C35.0163 28.4643 33.3659 27.0846 31.3932 27.0846H31.0482C28.5711 27.0846 26.563 29.0926 26.563 31.5697V35.3648H30.4766C33.813 35.6026 36.8641 33.9205 39.6298 30.3183ZM20.0128 27.0846V29.8447C20.0128 32.8934 22.4843 35.3648 25.533 35.3648V32.6047C25.533 29.556 23.0615 27.0846 20.0128 27.0846ZM25.533 18.1143L25.326 18.1181C22.3732 18.2269 20.0128 20.6551 20.0128 23.6345V26.3946L20.1847 26.3919C23.1539 26.3011 25.533 23.8656 25.533 20.8744V18.1143ZM31.3932 18.1143H26.563V21.9094C26.563 24.3865 28.5711 26.3946 31.0482 26.3946H31.3932C33.6797 26.3946 35.5333 24.541 35.5333 22.2544C35.5333 19.9679 33.6797 18.1143 31.3932 18.1143Z" fill="white"/>
<path d="M36.0097 13.2891C36.7145 12.8822 36.956 11.9809 36.5491 11.2762C36.1422 10.5714 35.241 10.3299 34.5362 10.7368C33.8314 11.1437 33.5899 12.0449 33.9968 12.7497C34.4037 13.4545 35.3049 13.696 36.0097 13.2891Z" fill="white"/>
<path fill-rule="evenodd" clip-rule="evenodd" d="M17.8036 40.6708C18.8048 40.0928 20.0851 40.4358 20.6631 41.4371C21.2412 42.4383 20.8981 43.7185 19.8969 44.2966C18.8957 44.8746 17.6154 44.5316 17.0374 43.5304C16.4593 42.5291 16.8024 41.2489 17.8036 40.6708ZM22.582 41.0448C22.9344 40.8413 23.385 40.9621 23.5885 41.3145C23.7919 41.6669 23.6712 42.1175 23.3188 42.3209C22.9664 42.5244 22.5158 42.4037 22.3123 42.0513C22.1089 41.6989 22.2296 41.2482 22.582 41.0448Z" fill="white"/>
<g filter="url(#filter0_d_3156_29585)">
<path d="M34.7902 16.531L35.0885 16.4185L35.7051 16.1947L36.3123 15.9832L36.9097 15.7842L37.4968 15.5978L38.073 15.4241L38.357 15.342L38.9161 15.1876L39.4633 15.0461L39.9981 14.9177L40.5199 14.8025L41.0283 14.7007C41.1955 14.669 41.3604 14.6395 41.5229 14.6123L42.0031 14.5374C42.0819 14.5261 42.1601 14.5153 42.2377 14.5051L42.6956 14.4508L42.9187 14.4289L43.3531 14.3954L43.7712 14.376C45.7524 14.316 47.1484 14.7515 47.7198 15.7411C48.3946 16.9099 47.8246 18.6887 46.2911 20.7837L46.1446 20.9811L45.9924 21.1802C45.9149 21.2802 45.8354 21.3809 45.7538 21.4822L45.4393 21.8635L45.1062 22.2503L44.7546 22.6422L44.3849 23.0388L44.1934 23.2388L43.7973 23.642L43.5928 23.845L43.1709 24.2539L42.9537 24.4596L42.5069 24.8733L42.0438 25.2899L41.5649 25.7089L41.0704 26.1301L40.5607 26.5531L40.0361 26.9774L39.497 27.4029L38.9436 27.8291C38.8502 27.9002 38.7563 27.9712 38.6617 28.0423L38.0877 28.469L37.7957 28.6822L37.2017 29.1085L36.5949 29.5341L36.2867 29.7465L35.6613 30.1704L35.344 30.3818L34.7006 30.8032L34.0456 31.2226L33.3795 31.6395L32.7026 32.0537L32.0151 32.4647L31.6675 32.6689L30.9663 33.0737L30.2655 33.4689L29.567 33.8534L29.2188 34.0417L28.5247 34.4101L27.834 34.7676L27.1474 35.1141L26.4651 35.4495L26.1258 35.6129L25.4511 35.9313L24.782 36.2384L24.4497 36.3875L23.7899 36.6772L23.4625 36.8176L22.813 37.0897L22.1711 37.3498L21.5371 37.598L20.9116 37.834L20.2949 38.0579L19.6877 38.2693L19.3877 38.3704L18.7954 38.5631L18.2137 38.7432L17.643 38.9105C17.4547 38.9642 17.2683 39.0157 17.0839 39.065L16.5367 39.2065L16.0019 39.3349C15.9139 39.3552 15.8263 39.3749 15.7394 39.3941L15.2242 39.5026L14.7226 39.5978L14.2352 39.6794L13.7623 39.7474C10.9697 40.1145 8.98947 39.7399 8.28025 38.5115C7.78774 37.6584 7.95828 36.4804 8.68256 35.0917L8.86696 34.7544C8.93194 34.6407 9.0004 34.5257 9.07229 34.4094L9.29821 34.057L9.54439 33.6975C9.58709 33.6371 9.63062 33.5763 9.67497 33.5153L9.9509 33.1459C9.99852 33.0838 10.0469 33.0215 10.0962 32.9589L10.4011 32.5804C10.5059 32.4533 10.6139 32.3253 10.7249 32.1963L11.0674 31.807L11.428 31.4126L11.8066 31.0137L12.2027 30.6106L12.6161 30.2035L12.8291 29.9987L13.2677 29.5865L13.7227 29.1713L14.1937 28.7534L14.6804 28.3333L15.1826 27.9112L15.4297 27.7089C15.4625 28.1331 15.5166 28.5514 15.5911 28.9627L15.4778 29.0732L15.099 29.452L14.7392 29.8266C14.6809 29.8886 14.6233 29.9505 14.5666 30.0121L14.2361 30.3793L14.0717 30.5688L13.9128 30.7567C13.8347 30.8503 13.7587 30.9432 13.6849 31.0355L13.5401 31.2193C13.4454 31.3412 13.3546 31.4619 13.2678 31.5814L13.1404 31.7596C12.0205 33.3549 11.6214 34.711 12.1441 35.6164C12.6088 36.4212 13.746 36.7733 15.3566 36.7206L15.5603 36.712C15.5947 36.7102 15.6293 36.7082 15.664 36.706L15.875 36.6911C16.0173 36.6797 16.1627 36.6656 16.3111 36.6487L16.536 36.6213C16.5739 36.6164 16.6119 36.6113 16.6501 36.606L16.8817 36.5725C16.9596 36.5606 17.0382 36.5481 17.1175 36.5349L17.3576 36.4932C17.4787 36.4714 17.6014 36.448 17.7256 36.4232L18.2088 36.3206C18.2905 36.3023 18.3729 36.2834 18.4558 36.2639L18.9601 36.1396L19.4776 36.0009C19.6523 35.9524 19.829 35.9014 20.0078 35.8481L20.55 35.6813L20.8254 35.5927L21.3846 35.4051L21.6681 35.3062L22.2428 35.0982L22.8271 34.8768L23.4204 34.642C23.52 34.6018 23.62 34.561 23.7203 34.5197L24.3259 34.2653L24.6316 34.1333L25.2482 33.8595L25.8714 33.5731C25.9758 33.5243 26.0804 33.475 26.1853 33.4252L26.8171 33.12L27.135 32.9628L27.7742 32.6391L28.0954 32.4727L28.7406 32.131L29.389 31.7773L30.04 31.4119L30.3663 31.2248L31.0138 30.8457L31.3334 30.6547L31.9639 30.27L32.5824 29.8821L33.1887 29.4916C33.2887 29.4263 33.3881 29.3609 33.487 29.2954L34.0739 28.9016L34.3624 28.7041L34.929 28.3081L35.4816 27.9113C35.5725 27.8451 35.6628 27.7788 35.7524 27.7126L36.2831 27.3153C36.3703 27.249 36.4569 27.1828 36.5428 27.1166L37.0505 26.7198L37.2985 26.5217L37.7825 26.1264L38.25 25.7327L38.7006 25.3411L39.1339 24.9519L39.5495 24.5658C39.685 24.4376 39.8175 24.31 39.9469 24.183L40.3257 23.8041L40.6855 23.4295C40.7439 23.3675 40.8014 23.3057 40.8581 23.244L41.1886 22.8768C41.242 22.816 41.2946 22.7555 41.3463 22.6952L41.6464 22.3363L41.7977 22.1478C41.8472 22.0853 41.8957 22.023 41.9431 21.9611L42.0825 21.7762C43.3549 20.0599 43.8336 18.5976 43.2806 17.6398C42.7276 16.6819 41.2219 16.3653 39.0992 16.6091L38.8695 16.6374C38.8308 16.6425 38.7919 16.6477 38.7529 16.6531L38.5162 16.6878C38.4764 16.6939 38.4363 16.7002 38.3962 16.7067L37.9353 16.7872C37.8572 16.8018 37.7785 16.8171 37.6992 16.833L37.2159 16.9355C37.1342 16.9538 37.0519 16.9727 36.9689 16.9923L36.4647 17.1166L35.9471 17.2552L35.7927 17.2988C35.4722 17.0264 35.1376 16.7701 34.7902 16.531Z" fill="black"/>
</g>
<path d="M34.7902 16.531L35.0885 16.4185L35.7051 16.1947L36.3123 15.9832L36.9097 15.7842L37.4968 15.5978L38.073 15.4241L38.357 15.342L38.9161 15.1876L39.4633 15.0461L39.9981 14.9177L40.5199 14.8025L41.0283 14.7007C41.1955 14.669 41.3604 14.6395 41.5229 14.6123L42.0031 14.5374C42.0819 14.5261 42.1601 14.5153 42.2377 14.5051L42.6956 14.4508L42.9187 14.4289L43.3531 14.3954L43.7712 14.376C45.7524 14.316 47.1484 14.7515 47.7198 15.7411C48.3946 16.9099 47.8246 18.6887 46.2911 20.7837L46.1446 20.9811L45.9924 21.1802C45.9149 21.2802 45.8354 21.3809 45.7538 21.4822L45.4393 21.8635L45.1062 22.2503L44.7546 22.6422L44.3849 23.0388L44.1934 23.2388L43.7973 23.642L43.5928 23.845L43.1709 24.2539L42.9537 24.4596L42.5069 24.8733L42.0438 25.2899L41.5649 25.7089L41.0704 26.1301L40.5607 26.5531L40.0361 26.9774L39.497 27.4029L38.9436 27.8291C38.8502 27.9002 38.7563 27.9712 38.6617 28.0423L38.0877 28.469L37.7957 28.6822L37.2017 29.1085L36.5949 29.5341L36.2867 29.7465L35.6613 30.1704L35.344 30.3818L34.7006 30.8032L34.0456 31.2226L33.3795 31.6395L32.7026 32.0537L32.0151 32.4647L31.6675 32.6689L30.9663 33.0737L30.2655 33.4689L29.567 33.8534L29.2188 34.0417L28.5247 34.4101L27.834 34.7676L27.1474 35.1141L26.4651 35.4495L26.1258 35.6129L25.4511 35.9313L24.782 36.2384L24.4497 36.3875L23.7899 36.6772L23.4625 36.8176L22.813 37.0897L22.1711 37.3498L21.5371 37.598L20.9116 37.834L20.2949 38.0579L19.6877 38.2693L19.3877 38.3704L18.7954 38.5631L18.2137 38.7432L17.643 38.9105C17.4547 38.9642 17.2683 39.0157 17.0839 39.065L16.5367 39.2065L16.0019 39.3349C15.9139 39.3552 15.8263 39.3749 15.7394 39.3941L15.2242 39.5026L14.7226 39.5978L14.2352 39.6794L13.7623 39.7474C10.9697 40.1145 8.98947 39.7399 8.28025 38.5115C7.78774 37.6584 7.95828 36.4804 8.68256 35.0917L8.86696 34.7544C8.93194 34.6407 9.0004 34.5257 9.07229 34.4094L9.29821 34.057L9.54439 33.6975C9.58709 33.6371 9.63062 33.5763 9.67497 33.5153L9.9509 33.1459C9.99852 33.0838 10.0469 33.0215 10.0962 32.9589L10.4011 32.5804C10.5059 32.4533 10.6139 32.3253 10.7249 32.1963L11.0674 31.807L11.428 31.4126L11.8066 31.0137L12.2027 30.6106L12.6161 30.2035L12.8291 29.9987L13.2677 29.5865L13.7227 29.1713L14.1937 28.7534L14.6804 28.3333L15.1826 27.9112L15.4297 27.7089C15.4625 28.1331 15.5166 28.5514 15.5911 28.9627L15.4778 29.0732L15.099 29.452L14.7392 29.8266C14.6809 29.8886 14.6233 29.9505 14.5666 30.0121L14.2361 30.3793L14.0717 30.5688L13.9128 30.7567C13.8347 30.8503 13.7587 30.9432 13.6849 31.0355L13.5401 31.2193C13.4454 31.3412 13.3546 31.4619 13.2678 31.5814L13.1404 31.7596C12.0205 33.3549 11.6214 34.711 12.1441 35.6164C12.6088 36.4212 13.746 36.7733 15.3566 36.7206L15.5603 36.712C15.5947 36.7102 15.6293 36.7082 15.664 36.706L15.875 36.6911C16.0173 36.6797 16.1627 36.6656 16.3111 36.6487L16.536 36.6213C16.5739 36.6164 16.6119 36.6113 16.6501 36.606L16.8817 36.5725C16.9596 36.5606 17.0382 36.5481 17.1175 36.5349L17.3576 36.4932C17.4787 36.4714 17.6014 36.448 17.7256 36.4232L18.2088 36.3206C18.2905 36.3023 18.3729 36.2834 18.4558 36.2639L18.9601 36.1396L19.4776 36.0009C19.6523 35.9524 19.829 35.9014 20.0078 35.8481L20.55 35.6813L20.8254 35.5927L21.3846 35.4051L21.6681 35.3062L22.2428 35.0982L22.8271 34.8768L23.4204 34.642C23.52 34.6018 23.62 34.561 23.7203 34.5197L24.3259 34.2653L24.6316 34.1333L25.2482 33.8595L25.8714 33.5731C25.9758 33.5243 26.0804 33.475 26.1853 33.4252L26.8171 33.12L27.135 32.9628L27.7742 32.6391L28.0954 32.4727L28.7406 32.131L29.389 31.7773L30.04 31.4119L30.3663 31.2248L31.0138 30.8457L31.3334 30.6547L31.9639 30.27L32.5824 29.8821L33.1887 29.4916C33.2887 29.4263 33.3881 29.3609 33.487 29.2954L34.0739 28.9016L34.3624 28.7041L34.929 28.3081L35.4816 27.9113C35.5725 27.8451 35.6628 27.7788 35.7524 27.7126L36.2831 27.3153C36.3703 27.249 36.4569 27.1828 36.5428 27.1166L37.0505 26.7198L37.2985 26.5217L37.7825 26.1264L38.25 25.7327L38.7006 25.3411L39.1339 24.9519L39.5495 24.5658C39.685 24.4376 39.8175 24.31 39.9469 24.183L40.3257 23.8041L40.6855 23.4295C40.7439 23.3675 40.8014 23.3057 40.8581 23.244L41.1886 22.8768C41.242 22.816 41.2946 22.7555 41.3463 22.6952L41.6464 22.3363L41.7977 22.1478C41.8472 22.0853 41.8957 22.023 41.9431 21.9611L42.0825 21.7762C43.3549 20.0599 43.8336 18.5976 43.2806 17.6398C42.7276 16.6819 41.2219 16.3653 39.0992 16.6091L38.8695 16.6374C38.8308 16.6425 38.7919 16.6477 38.7529 16.6531L38.5162 16.6878C38.4764 16.6939 38.4363 16.7002 38.3962 16.7067L37.9353 16.7872C37.8572 16.8018 37.7785 16.8171 37.6992 16.833L37.2159 16.9355C37.1342 16.9538 37.0519 16.9727 36.9689 16.9923L36.4647 17.1166L35.9471 17.2552L35.7927 17.2988C35.4722 17.0264 35.1376 16.7701 34.7902 16.531Z" fill="white"/>
</g>
<defs>
<filter id="filter0_d_3156_29585" x="4" y="12.3705" width="48" height="33.5115" filterUnits="userSpaceOnUse" color-interpolation-filters="sRGB">
<feFlood flood-opacity="0" result="BackgroundImageFix"/>
<feColorMatrix in="SourceAlpha" type="matrix" values="0 0 0 0 0 0 0 0 0 0 0 0 0 0 0 0 0 0 127 0" result="hardAlpha"/>
<feOffset dy="2"/>
<feGaussianBlur stdDeviation="2"/>
<feColorMatrix type="matrix" values="0 0 0 0 0 0 0 0 0 0 0 0 0 0 0 0 0 0 0.5 0"/>
<feBlend mode="normal" in2="BackgroundImageFix" result="effect1_dropShadow_3156_29585"/>
<feBlend mode="normal" in="SourceGraphic" in2="effect1_dropShadow_3156_29585" result="shape"/>
</filter>
<linearGradient id="paint0_linear_3156_29585" x1="56" y1="28" x2="0" y2="28" gradientUnits="userSpaceOnUse">
<stop stop-color="#EC54BC"/>
<stop offset="1" stop-color="#00E9FE"/>
</linearGradient>
<clipPath id="clip0_3156_29585">
<rect width="56" height="56" fill="white"/>
</clipPath>
</defs>
</svg>
