<svg width="20" height="20" viewBox="0 0 20 20" fill="none" xmlns="http://www.w3.org/2000/svg">
<path opacity="0.4" d="M13.3964 1.6665H16.2181C17.3866 1.6665 18.3335 2.62138 18.3335 3.79981V6.64528C18.3335 7.8237 17.3866 8.77858 16.2181 8.77858H13.3964C12.2279 8.77858 11.281 7.8237 11.281 6.64528V3.79981C11.281 2.62138 12.2279 1.6665 13.3964 1.6665Z" fill="#E5E4FA"/>
<path fill-rule="evenodd" clip-rule="evenodd" d="M3.78219 1.6665H6.60382C7.77238 1.6665 8.71926 2.62138 8.71926 3.79981V6.64528C8.71926 7.8237 7.77238 8.77858 6.60382 8.77858H3.78219C2.61363 8.77858 1.66675 7.8237 1.66675 6.64528V3.79981C1.66675 2.62138 2.61363 1.6665 3.78219 1.6665ZM3.78219 11.2211H6.60382C7.77238 11.2211 8.71926 12.176 8.71926 13.3544V16.1999C8.71926 17.3775 7.77238 18.3332 6.60382 18.3332H3.78219C2.61363 18.3332 1.66675 17.3775 1.66675 16.1999V13.3544C1.66675 12.176 2.61363 11.2211 3.78219 11.2211ZM16.218 11.2211H13.3963C12.2278 11.2211 11.2809 12.176 11.2809 13.3544V16.1999C11.2809 17.3775 12.2278 18.3332 13.3963 18.3332H16.218C17.3865 18.3332 18.3334 17.3775 18.3334 16.1999V13.3544C18.3334 12.176 17.3865 11.2211 16.218 11.2211Z" fill="#E5E4FA"/>
</svg>
