<svg width="46" height="18" viewBox="0 0 46 18" fill="none" xmlns="http://www.w3.org/2000/svg">
<path fill-rule="evenodd" clip-rule="evenodd" d="M10.0152 6.16896C10.0527 6.16896 10.0901 6.16085 10.1244 6.14626C10.1586 6.13166 10.1896 6.11057 10.2156 6.083L10.6165 5.6678C10.641 5.64185 10.6703 5.62076 10.7045 5.60779C10.7371 5.59319 10.773 5.5867 10.8089 5.5867H10.8268C10.8643 5.5867 10.9017 5.59481 10.936 5.60941C10.9702 5.62563 11.0012 5.64834 11.0256 5.67591L11.3646 6.05543C11.3972 6.09111 11.4363 6.11868 11.4803 6.13815C11.5243 6.15761 11.5716 6.16734 11.6188 6.16734H12.525C12.0849 5.58346 11.5129 5.10987 10.8561 4.78225C10.1993 4.45625 9.47573 4.28595 8.74234 4.28595C8.00896 4.28595 7.28536 4.45625 6.62857 4.78225C5.97179 5.10825 5.40138 5.58184 4.95972 6.16734H10.0184L10.0152 6.16896ZM10.4943 7.44052H13.2062C13.3382 7.81518 13.4213 8.20605 13.4539 8.60342H9.93857C9.88968 8.60342 9.84242 8.59369 9.79841 8.57422C9.75441 8.55476 9.7153 8.52557 9.68433 8.48989L9.34535 8.11036C9.31927 8.08279 9.28994 8.06009 9.25571 8.04549C9.22149 8.03089 9.184 8.02278 9.14652 8.02278H9.13022C9.09437 8.02278 9.05851 8.02927 9.02592 8.04387C8.99332 8.05846 8.96236 8.07793 8.93791 8.10388L8.53537 8.5207C8.50929 8.54827 8.47833 8.56936 8.4441 8.58396C8.40988 8.59855 8.37239 8.60666 8.33491 8.60666H4.02588C4.05847 8.21092 4.14159 7.82005 4.2736 7.44377H8.8385C8.90858 7.44377 8.97866 7.42917 9.04384 7.39998C9.10903 7.37078 9.16608 7.32861 9.21334 7.27509L9.50343 6.94909C9.52788 6.92152 9.55884 6.89881 9.59307 6.88422C9.62729 6.86962 9.66478 6.86151 9.70226 6.86151C9.73974 6.86151 9.77723 6.86962 9.81145 6.88422C9.84568 6.89881 9.87664 6.92152 9.90109 6.94909L10.2401 7.32861C10.271 7.36429 10.3102 7.39349 10.3542 7.41295C10.3982 7.43241 10.4454 7.44377 10.4943 7.44377V7.44052ZM6.74265 11.0249C6.70843 11.0395 6.67095 11.0476 6.63346 11.0476L4.47895 11.0508C4.29805 10.6778 4.16767 10.2837 4.09107 9.8766H7.15987C7.23158 9.8766 7.30165 9.862 7.36521 9.83281C7.4304 9.80362 7.48744 9.76145 7.53471 9.70955L7.8248 9.38355C7.84925 9.35597 7.88021 9.33327 7.91444 9.31705C7.94866 9.30083 7.98614 9.29272 8.02363 9.29434C8.06111 9.29434 8.0986 9.30245 8.13282 9.31867C8.16705 9.33489 8.19801 9.3576 8.22246 9.38517L8.56144 9.76469C8.59241 9.80037 8.63152 9.82794 8.67552 9.84741C8.71953 9.86687 8.76679 9.8766 8.81405 9.8766H13.3904C13.3138 10.2821 13.1818 10.6762 13.0009 11.0476H8.23387C8.18497 11.0476 8.13771 11.0363 8.09371 11.0168C8.0497 10.9973 8.01059 10.9681 7.97963 10.9325L7.64227 10.5529C7.61619 10.5254 7.58686 10.5026 7.55263 10.4881C7.51841 10.4735 7.48093 10.4653 7.44344 10.4653H7.42551C7.38966 10.4653 7.35381 10.4735 7.32121 10.4864C7.28862 10.501 7.25765 10.5205 7.2332 10.5464L6.83229 10.9633C6.80621 10.9908 6.77525 11.0119 6.74102 11.0265L6.74265 11.0249ZM6.95615 12.2105H8.19638L12.2023 12.217C11.759 12.689 11.2244 13.0669 10.6296 13.3231C10.0347 13.581 9.39261 13.714 8.74397 13.714C8.09534 13.714 7.45322 13.581 6.85837 13.3231C6.26351 13.0652 5.72733 12.689 5.28567 12.217H5.30359C5.37367 12.217 5.44375 12.2024 5.50894 12.1732C5.57413 12.144 5.63117 12.1018 5.67843 12.0483L5.97016 11.7158C5.9946 11.6883 6.02557 11.6655 6.05979 11.6509C6.09402 11.6363 6.1315 11.6282 6.16899 11.6282C6.20647 11.6282 6.24395 11.6363 6.27818 11.6509C6.3124 11.6655 6.34337 11.6883 6.36781 11.7158L6.70517 12.0953C6.73613 12.131 6.77525 12.1602 6.81925 12.1797C6.86325 12.1991 6.91052 12.2105 6.95778 12.2105H6.95615Z" fill="white"/>
<path d="M20.31 5.62157L17.4946 14H15.5204L19.211 4.12227H20.4728L20.31 5.62157ZM22.6641 14L19.8351 5.62157L19.6655 4.12227H20.9341L24.6451 14H22.6641ZM22.5352 10.3298V11.8019H17.2368V10.3298H22.5352ZM29.5146 10.3976H26.9706V8.93224H29.5146C29.9307 8.93224 30.2677 8.86439 30.5255 8.72871C30.7878 8.5885 30.98 8.39855 31.1021 8.15884C31.2242 7.91461 31.2853 7.63646 31.2853 7.32439C31.2853 7.02136 31.2242 6.73869 31.1021 6.47637C30.98 6.21405 30.7878 6.00148 30.5255 5.83866C30.2677 5.67584 29.9307 5.59443 29.5146 5.59443H27.5811V14H25.7155V4.12227H29.5146C30.2835 4.12227 30.9393 4.26021 31.482 4.5361C32.0293 4.80747 32.4454 5.18512 32.7303 5.66906C33.0198 6.14847 33.1645 6.69573 33.1645 7.31082C33.1645 7.94853 33.0198 8.49805 32.7303 8.95937C32.4454 9.42069 32.0293 9.77573 31.482 10.0245C30.9393 10.2732 30.2835 10.3976 29.5146 10.3976ZM38.9228 4.12227V14H37.0639V4.12227H38.9228ZM41.9892 4.12227V5.59443H34.0314V4.12227H41.9892Z" fill="white"/>
<rect x="1.08857" y="1.06245" width="44.288" height="15.8751" rx="1.53055" stroke="white" stroke-opacity="0.6" stroke-width="0.908594"/>
</svg>
