<svg width="81" height="29" viewBox="0 0 81 29" fill="none" xmlns="http://www.w3.org/2000/svg">
<path fill-rule="evenodd" clip-rule="evenodd" d="M16.5948 9.4921C16.6611 9.4921 16.7274 9.47775 16.7879 9.45193C16.8485 9.42611 16.9033 9.38881 16.9494 9.34004L17.6586 8.60556C17.7018 8.55966 17.7537 8.52236 17.8143 8.49941C17.8719 8.47359 17.9354 8.46211 17.9988 8.46211H18.0305C18.0968 8.46211 18.1631 8.47645 18.2236 8.50228C18.2842 8.53097 18.339 8.57113 18.3822 8.61991L18.9819 9.29126C19.0395 9.35438 19.1087 9.40316 19.1865 9.43759C19.2644 9.47201 19.348 9.48923 19.4316 9.48923H21.0345C20.2561 8.45637 19.2442 7.61861 18.0824 7.03906C16.9206 6.46238 15.6405 6.16113 14.3432 6.16113C13.0459 6.16113 11.7659 6.46238 10.604 7.03906C9.44222 7.61574 8.4332 8.4535 7.65192 9.48923H16.6006L16.5948 9.4921ZM17.4424 11.7414H22.2396C22.4731 12.4042 22.6201 13.0956 22.6778 13.7985H16.4593C16.3728 13.7985 16.2892 13.7813 16.2114 13.7469C16.1335 13.7125 16.0643 13.6608 16.0096 13.5977L15.4099 12.9263C15.3638 12.8776 15.3119 12.8374 15.2513 12.8116C15.1908 12.7858 15.1245 12.7714 15.0582 12.7714H15.0294C14.9659 12.7714 14.9025 12.7829 14.8448 12.8087C14.7872 12.8345 14.7324 12.869 14.6892 12.9149L13.9771 13.6522C13.931 13.701 13.8762 13.7383 13.8156 13.7641C13.7551 13.7899 13.6888 13.8043 13.6225 13.8043H6C6.05766 13.1042 6.20469 12.4128 6.43821 11.7472H14.5133C14.6373 11.7472 14.7612 11.7213 14.8766 11.6697C14.9919 11.6181 15.0928 11.5435 15.1764 11.4488L15.6895 10.8721C15.7328 10.8233 15.7876 10.7832 15.8481 10.7573C15.9086 10.7315 15.975 10.7172 16.0413 10.7172C16.1076 10.7172 16.1739 10.7315 16.2344 10.7573C16.295 10.7832 16.3497 10.8233 16.393 10.8721L16.9926 11.5435C17.0474 11.6066 17.1166 11.6582 17.1944 11.6927C17.2723 11.7271 17.3559 11.7472 17.4424 11.7472V11.7414ZM10.8059 18.082C10.7453 18.1079 10.679 18.1222 10.6127 18.1222L6.80146 18.1279C6.48145 17.4681 6.25082 16.7709 6.11532 16.0507H11.5439C11.6707 16.0507 11.7947 16.0249 11.9071 15.9733C12.0225 15.9216 12.1234 15.847 12.207 15.7552L12.7201 15.1786C12.7634 15.1298 12.8181 15.0896 12.8787 15.0609C12.9392 15.0322 13.0055 15.0179 13.0718 15.0208C13.1381 15.0208 13.2045 15.0351 13.265 15.0638C13.3255 15.0925 13.3803 15.1326 13.4236 15.1814L14.0232 15.8528C14.078 15.9159 14.1472 15.9647 14.225 15.9991C14.3029 16.0335 14.3865 16.0507 14.4701 16.0507H22.5653C22.4298 16.768 22.1963 17.4652 21.8763 18.1222H13.4437C13.3573 18.1222 13.2736 18.1021 13.1958 18.0677C13.118 18.0333 13.0488 17.9816 12.994 17.9185L12.3972 17.2471C12.3511 17.1984 12.2992 17.1582 12.2387 17.1324C12.1781 17.1066 12.1118 17.0922 12.0455 17.0922H12.0138C11.9504 17.0922 11.887 17.1066 11.8293 17.1295C11.7716 17.1553 11.7169 17.1898 11.6736 17.2357L10.9644 17.973C10.9183 18.0218 10.8635 18.0591 10.803 18.0849L10.8059 18.082ZM11.1835 20.1793H13.3774L20.4637 20.1908C19.6795 21.0257 18.7339 21.6942 17.6817 22.1475C16.6294 22.6036 15.4935 22.8389 14.3461 22.8389C13.1987 22.8389 12.0628 22.6036 11.0105 22.1475C9.95827 21.6913 9.00978 21.0257 8.22851 20.1908H8.26022C8.38419 20.1908 8.50815 20.165 8.62347 20.1133C8.73879 20.0617 8.83969 19.9871 8.9233 19.8924L9.43934 19.3042C9.48258 19.2555 9.53736 19.2153 9.5979 19.1895C9.65844 19.1637 9.72475 19.1493 9.79106 19.1493C9.85737 19.1493 9.92367 19.1637 9.98422 19.1895C10.0448 19.2153 10.0995 19.2555 10.1428 19.3042L10.7395 19.9756C10.7943 20.0387 10.8635 20.0904 10.9414 20.1248C11.0192 20.1592 11.1028 20.1793 11.1864 20.1793H11.1835Z" fill="white"/>
<path d="M34.8056 8.17893L29.8252 23H26.333L32.8614 5.52674H35.0936L34.8056 8.17893ZM38.9699 23L33.9655 8.17893L33.6655 5.52674H35.9097L42.4741 23H38.9699ZM38.7419 16.5075V19.1117H29.3692V16.5075H38.7419ZM51.0882 16.6275H46.5878V14.0354H51.0882C51.8242 14.0354 52.4202 13.9153 52.8763 13.6753C53.3403 13.4273 53.6803 13.0913 53.8964 12.6673C54.1124 12.2352 54.2204 11.7432 54.2204 11.1911C54.2204 10.6551 54.1124 10.1551 53.8964 9.69104C53.6803 9.227 53.3403 8.85098 52.8763 8.56296C52.4202 8.27493 51.8242 8.13092 51.0882 8.13092H47.6679V23H44.3677V5.52674H51.0882C52.4483 5.52674 53.6083 5.77075 54.5684 6.25879C55.5365 6.73882 56.2725 7.40687 56.7766 8.26293C57.2886 9.111 57.5446 10.0791 57.5446 11.1671C57.5446 12.2952 57.2886 13.2673 56.7766 14.0834C56.2725 14.8994 55.5365 15.5275 54.5684 15.9675C53.6083 16.4075 52.4483 16.6275 51.0882 16.6275ZM67.7307 5.52674V23H64.4425V5.52674H67.7307ZM73.1551 5.52674V8.13092H59.0781V5.52674H73.1551Z" fill="white"/>
<rect x="0.5" y="0.5" width="79.1889" height="28" rx="3.01111" stroke="white" stroke-opacity="0.6"/>
</svg>
