<svg width="24" height="24" viewBox="0 0 24 24" fill="none" xmlns="http://www.w3.org/2000/svg">
<path fill-rule="evenodd" clip-rule="evenodd" d="M6.89844 4.00002C6.89844 2.84023 7.83864 1.90002 8.99844 1.90002H14.9984C16.1582 1.90002 17.0984 2.84023 17.0984 4.00002V4.90002H19.9984C20.606 4.90002 21.0984 5.39251 21.0984 6.00002C21.0984 6.60754 20.606 7.10002 19.9984 7.10002H19.0984V20C19.0984 21.1598 18.1582 22.1 16.9984 22.1H6.99844C5.83864 22.1 4.89844 21.1598 4.89844 20V7.10002H3.99844C3.39092 7.10002 2.89844 6.60754 2.89844 6.00002C2.89844 5.39251 3.39092 4.90002 3.99844 4.90002H6.89844V4.00002ZM8.89844 3.90002H15.0984V5.10002H8.89844V3.90002ZM6.89844 7.40002C6.89844 7.12388 7.12229 6.90002 7.39844 6.90002H16.5984C16.8746 6.90002 17.0984 7.12388 17.0984 7.40002V19.6C17.0984 19.8762 16.8746 20.1 16.5984 20.1H7.39844C7.12229 20.1 6.89844 19.8762 6.89844 19.6V7.40002Z" fill="#D4C4ED"/>
</svg>
