<svg width="34" height="34" viewBox="0 0 34 34" fill="none" xmlns="http://www.w3.org/2000/svg">
<path fill-rule="evenodd" clip-rule="evenodd" d="M17 34C26.3888 34 34 26.3888 34 17C34 7.61116 26.3888 0 17 0C7.61116 0 0 7.61116 0 17C0 26.3888 7.61116 34 17 34ZM17.0007 9.33337C14.4848 9.33337 12.6006 10.3753 11.3643 11.3953L11.3086 11.4416C11.2065 10.9977 10.8089 10.6667 10.334 10.6667C9.7817 10.6667 9.33398 11.1144 9.33398 11.6667V14C9.33398 14.5523 9.7817 15 10.334 15H12.6673C13.2196 15 13.6673 14.5523 13.6673 14C13.6673 13.4478 13.2196 13 12.6673 13H12.5629C12.5873 12.9794 12.612 12.9587 12.637 12.9381C13.6229 12.1248 15.0721 11.3334 17.0007 11.3334C20.1499 11.3334 22.6673 13.8683 22.6673 17C22.6673 17.5523 23.115 18 23.6673 18C24.2196 18 24.6673 17.5523 24.6673 17C24.6673 12.768 21.2588 9.33337 17.0007 9.33337ZM11.1873 14.5214C11.1875 14.5211 11.1878 14.5206 11.1883 14.5199L11.1878 14.5206L11.1873 14.5214ZM11.334 17C11.334 16.4478 10.8863 16 10.334 16C9.7817 16 9.33398 16.4478 9.33398 17C9.33398 21.2342 12.7665 24.6667 17.0007 24.6667C19.1771 24.6667 20.9011 23.5877 22.0342 22.591C22.1478 23.0184 22.5374 23.3334 23.0007 23.3334C23.5529 23.3334 24.0007 22.8857 24.0007 22.3334V20C24.0007 19.4478 23.5529 19 23.0007 19H20.6673C20.115 19 19.6673 19.4478 19.6673 20C19.6673 20.5523 20.115 21 20.6673 21H20.8131C20.7825 21.0278 20.7515 21.0555 20.7201 21.0833C19.7734 21.9178 18.5006 22.6667 17.0007 22.6667C13.871 22.6667 11.334 20.1297 11.334 17Z" fill="#9594AA"/>
</svg>
