<svg width="48" height="48" viewBox="0 0 48 48" fill="none" xmlns="http://www.w3.org/2000/svg">
<circle cx="24" cy="24" r="24" fill="#5865F2" fill-opacity="0.19"/>
<circle cx="24" cy="24" r="23.5" stroke="#707CFF" stroke-opacity="0.05"/>
<path d="M33.5654 15.7947C36.6712 20.4257 38.205 25.6492 37.6316 31.6628C37.6292 31.6882 37.6161 31.7116 37.5955 31.7269C35.2436 33.4783 32.9649 34.5412 30.7181 35.2461C30.7006 35.2515 30.6819 35.2512 30.6646 35.2453C30.6473 35.2393 30.6322 35.2281 30.6215 35.213C30.1025 34.4806 29.6308 33.7084 29.2176 32.8975C29.1939 32.8498 29.2156 32.7923 29.2644 32.7734C30.0134 32.4872 30.7257 32.1442 31.4108 31.7381C31.4647 31.706 31.4682 31.6275 31.4183 31.5899C31.2729 31.4804 31.1289 31.3654 30.991 31.2504C30.9653 31.2291 30.9305 31.2249 30.9013 31.2392C26.4536 33.3221 21.5813 33.3221 17.0809 31.2392C17.0517 31.2259 17.0169 31.2305 16.9919 31.2514C16.8544 31.3664 16.71 31.4804 16.5659 31.5899C16.5161 31.6275 16.5202 31.706 16.5745 31.7381C17.2596 32.1365 17.9719 32.4872 18.7199 32.7748C18.7684 32.7937 18.7914 32.8498 18.7673 32.8975C18.3631 33.7094 17.8914 34.4816 17.3628 35.2141C17.3397 35.2437 17.3019 35.2573 17.2662 35.2461C15.0301 34.5412 12.7514 33.4783 10.3994 31.7269C10.3798 31.7116 10.3657 31.6872 10.3637 31.6617C9.88449 26.4601 10.8611 21.1933 14.4261 15.7937C14.4347 15.7794 14.4478 15.7682 14.4629 15.7616C16.217 14.9452 18.0963 14.3445 20.0605 14.0015C20.0963 13.9959 20.132 14.0126 20.1506 14.0447C20.3933 14.4805 20.6707 15.0393 20.8583 15.496C22.9288 15.1752 25.0315 15.1752 27.1452 15.496C27.3329 15.049 27.6006 14.4805 27.8423 14.0447C27.8509 14.0288 27.8643 14.016 27.8804 14.0083C27.8966 14.0005 27.9148 13.9981 27.9324 14.0015C29.8976 14.3455 31.7769 14.9462 33.5296 15.7616C33.5451 15.7682 33.5578 15.7794 33.5654 15.7947ZM21.9109 25.6848C21.9326 24.1471 20.8271 22.8746 19.4394 22.8746C18.063 22.8746 16.9681 24.1359 16.9681 25.6848C16.9681 27.2333 18.0846 28.4946 19.4394 28.4946C20.8161 28.4946 21.9109 27.2333 21.9109 25.6848ZM31.0485 25.6848C31.0701 24.1471 29.9646 22.8746 28.5772 22.8746C27.2005 22.8746 26.1057 24.1359 26.1057 25.6848C26.1057 27.2333 27.2222 28.4946 28.5772 28.4946C29.9646 28.4946 31.0485 27.2333 31.0485 25.6848Z" fill="#707CFF"/>
</svg>
