<svg width="72" height="80" viewBox="0 0 72 80" fill="none" xmlns="http://www.w3.org/2000/svg">
<path fill-rule="evenodd" clip-rule="evenodd" d="M28.4076 9.78841L22.0162 8.07503C18.8123 7.21566 15.5143 9.12089 14.6549 12.3249L12.6269 19.8909H6.01091C2.69289 19.8909 0 22.5838 0 25.9018V73.9891C0 77.3071 2.69289 80 6.01091 80H38.0697C41.3877 80 44.0806 77.3071 44.0806 73.9891V72.8231L45.9817 65.7301L70.4805 25.0775C70.4865 25.0674 70.4946 25.0553 70.5006 25.0453C72.1596 22.1721 71.1721 18.4937 68.3008 16.8345L40.5372 0.80568C37.664 -0.853365 33.9857 0.132132 32.3265 3.0055L28.4093 9.78993L28.4076 9.78841ZM23.0702 36.3498C22.4369 35.9674 21.6433 35.9674 21.0107 36.3498L10.9927 42.3607C10.3876 42.7216 10.0187 43.3743 10.0187 44.0781V56.0999C10.0187 56.8029 10.3876 57.4563 10.9927 57.8173L21.0107 63.8282C21.644 64.2106 22.4376 64.2106 23.0702 63.8282L33.0882 57.8173C33.6933 57.4563 34.0623 56.8036 34.0623 56.0999V44.0781C34.0623 43.375 33.6933 42.7216 33.0882 42.3607L23.0702 36.3498ZM22.0404 40.4032L30.0552 45.2119V54.9655L22.0404 59.7743L14.0257 54.9655V45.2119L22.0404 40.4032ZM28.8269 14.0479L20.9805 11.9462C19.9124 11.6597 18.8122 12.295 18.5258 13.363L16.7768 19.8912H38.0691C41.3871 19.8912 44.08 22.5841 44.08 25.9021V57.3392L53.3628 22.6992C53.6492 21.6291 53.0139 20.5309 51.9459 20.2445L28.8898 14.0671C28.8697 14.0611 28.8475 14.0551 28.8254 14.049L28.8269 14.0479ZM49.7277 51.75C56.9891 39.7001 67.0408 23.0196 67.0494 23.0076C67.5761 22.0556 67.244 20.8495 66.2981 20.3027L38.5345 4.27384C37.5766 3.72104 36.3509 4.0491 35.7973 5.00708L32.4168 10.8596L52.9844 16.3715C56.1905 17.2288 58.0937 20.5288 57.2364 23.7328L49.7277 51.75Z" fill="#656474"/>
</svg>
