<svg width="113" height="80" viewBox="0 0 113 80" fill="none" xmlns="http://www.w3.org/2000/svg">
<path d="M100.032 7.38025C97.6605 2.76698 93.0472 0 88.0388 0H24.9092C19.7692 0 15.1562 2.76815 12.9157 7.51275L0.526777 33.7399C0.262929 34.2666 0 34.7943 0 35.4535V66.8206C0 74.0695 5.93051 80 13.1794 80H99.6366C106.886 80 112.816 74.0695 112.816 66.8206V35.3217C112.816 34.6625 112.685 34.1357 112.289 33.6081L100.032 7.38025ZM78.9457 31.4986C77.1006 31.4986 75.5192 32.6846 75.1241 34.5297C74.9926 35.1888 71.8292 50.081 56.4093 50.081C41.1209 50.081 37.826 35.0564 37.6945 34.5297C37.4306 32.6846 35.7179 31.4986 33.8729 31.4986H9.88395L19.637 10.8064C20.56 8.8299 22.5365 7.51158 24.777 7.51158H87.9065C90.0154 7.51158 92.1244 8.69752 93.0465 10.5426L102.8 31.2348H78.9447L78.9457 31.4986Z" fill="#656474"/>
</svg>
