<svg width="81" height="80" viewBox="0 0 81 80" fill="none" xmlns="http://www.w3.org/2000/svg">
<path d="M60.0005 25C60.0005 27.7614 57.7615 29.9995 55.0001 29.9995C52.2387 29.9995 50.0005 27.7614 50.0005 25C50.0005 22.2386 52.2387 19.9995 55.0001 19.9995C57.7615 19.9995 60.0005 22.2386 60.0005 25Z" fill="url(#paint0_linear_11304_80658)"/>
<path d="M0.900225 18.7498V18.7498L0.9 12.5C0.9 12.5 0.9 12.5 0.9 12.5C0.900009 9.4234 2.12179 6.47252 4.29745 4.29769L4.29768 4.29746C6.47253 2.12186 9.42343 0.9 12.5 0.9H18.7501C20.2149 0.9 21.5684 1.6816 22.3005 2.94974C23.0326 4.21795 23.0327 5.78102 22.3005 7.04942L22.3004 7.04961C21.5683 8.3186 20.2151 9.10003 18.7501 9.10003H12.5C10.6219 9.10003 9.10025 10.6216 9.10025 12.4998V18.7498C9.10025 20.2147 8.31883 21.5681 7.04984 22.3002L7.04961 22.3003C5.78141 23.0324 4.21829 23.0324 2.94994 22.3003C1.68172 21.5682 0.900225 20.2149 0.900225 18.7498Z" fill="url(#paint1_linear_11304_80658)" stroke="#0A091E" stroke-width="1.8"/>
<path d="M79.1004 67.5001V67.5641C79.0835 70.6175 77.8637 73.5425 75.7032 75.7022L75.7029 75.7025C73.5281 77.8781 70.5772 79.0999 67.5006 79.0999H61.2505C59.7857 79.0999 58.4321 78.3183 57.7001 77.0502C56.968 75.782 56.9679 74.2189 57.7001 72.9505L57.7002 72.9503C58.4323 71.6813 59.7855 70.8999 61.2505 70.8999H67.5006C68.4027 70.8999 69.267 70.5419 69.9047 69.9053L69.9059 69.9041C70.5423 69.2665 70.9004 68.4022 70.9004 67.5001V61.2501C70.9004 59.7852 71.6818 58.4318 72.9508 57.6997L72.951 57.6996C74.2192 56.9675 75.7823 56.9674 77.0507 57.6996L77.4992 56.9226L77.0507 57.6996C78.3189 58.4317 79.1004 59.785 79.1004 61.2501V67.5001Z" fill="url(#paint2_linear_11304_80658)" stroke="#0A091E" stroke-width="1.8"/>
<path d="M52.5011 9.0986C51.8269 9.0977 51.1526 9.13246 50.4811 9.20289L50.4755 9.20351C46.5206 9.64344 42.8122 11.3473 39.9031 14.0621L39.903 14.0622C36.9938 16.7778 35.038 20.3595 34.3267 24.2751L34.3258 24.2801C34.0646 25.7655 33.9885 27.2773 34.1004 28.7823V34.6257L11.8639 56.8622L11.6003 57.1258V57.4986V67.4988V68.3988H12.5003H22.5005H23.4005V67.4988V61.2488C23.4005 61.0553 23.5565 60.8993 23.75 60.8993H30.0001H30.9001V59.9993V53.7493C30.9001 53.5558 31.0569 53.3989 31.2504 53.3989H37.5004H38.4004V52.4989V46.2489C38.4004 46.055 38.5577 45.8986 38.7499 45.8986H52.5C52.5002 45.8986 52.5003 45.8986 52.5004 45.8986C57.0308 45.9004 61.4028 44.231 64.7785 41.2083C68.154 38.1867 70.2965 34.0265 70.7952 29.5233L70.8166 29.3299L70.8156 29.327C71.3287 24.1907 69.6604 19.071 66.2121 15.2218C62.7204 11.3239 57.7346 9.09712 52.5011 9.0986ZM52.5011 9.0986C52.5007 9.0986 52.5003 9.0986 52.4999 9.0986L52.5002 9.9986L52.5014 9.0986C52.5013 9.0986 52.5012 9.0986 52.5011 9.0986ZM25.8244 31.2989L26.1321 30.9912L26.0821 30.559C25.2674 23.5241 27.2908 16.4546 31.705 10.917C36.119 5.37964 42.5587 1.83142 49.5974 1.05691C50.4939 0.960452 51.3951 0.908458 52.2966 0.900942H52.5006C62.0051 0.900942 70.7865 5.97074 75.5382 14.2005C80.29 22.4306 80.29 32.5699 75.5382 40.8006C70.7856 49.0307 62.0041 54.1002 52.5006 54.1002L52.4977 54.1002C51.476 54.1036 50.4553 54.0471 49.4406 53.9308L49.0097 53.8814L48.7025 54.1877L43.94 58.938L43.939 58.939C42.733 60.1458 41.2111 60.99 39.5483 61.3732L38.9998 61.4996L38.8734 62.0481C38.49 63.7112 37.6473 65.2332 36.4405 66.4399C35.2337 67.6467 33.7117 68.4902 32.0487 68.8734L31.5005 68.9998L31.3739 69.5479C30.9106 71.5537 29.7807 73.3429 28.1692 74.6235L28.169 74.6237C26.5576 75.9051 24.5598 76.6017 22.5017 76.6001H22.501H12.5007C10.0869 76.6001 7.77235 75.6417 6.06572 73.935C4.359 72.2281 3.40049 69.9137 3.40049 67.4999L3.40049 57.4996L3.40049 57.499C3.39887 55.0851 4.35577 52.7692 6.06242 51.0609L25.8244 31.2989Z" fill="url(#paint3_linear_11304_80658)" stroke="#0A091E" stroke-width="1.8"/>
<defs>
<linearGradient id="paint0_linear_11304_80658" x1="50.0005" y1="24.9995" x2="60.0005" y2="24.9995" gradientUnits="userSpaceOnUse">
<stop stop-color="#6E42CA"/>
<stop offset="1" stop-color="#8D29C1"/>
</linearGradient>
<linearGradient id="paint1_linear_11304_80658" x1="0" y1="11.8747" x2="23.7496" y2="11.8747" gradientUnits="userSpaceOnUse">
<stop stop-color="#6E42CA"/>
<stop offset="1" stop-color="#8D29C1"/>
</linearGradient>
<linearGradient id="paint2_linear_11304_80658" x1="56.251" y1="68.1252" x2="80.0006" y2="68.1252" gradientUnits="userSpaceOnUse">
<stop stop-color="#6E42CA"/>
<stop offset="1" stop-color="#8D29C1"/>
</linearGradient>
<linearGradient id="paint3_linear_11304_80658" x1="2.50049" y1="38.7501" x2="80.002" y2="38.7501" gradientUnits="userSpaceOnUse">
<stop stop-color="#6E42CA"/>
<stop offset="1" stop-color="#8D29C1"/>
</linearGradient>
</defs>
</svg>
