<svg width="40" height="24" fill="none" xmlns="http://www.w3.org/2000/svg">
  <g clip-path="url(#a)">
    <path d="M28 24c6.627 0 12-5.373 12-12S34.627 0 28 0 16 5.373 16 12s5.373 12 12 12Z" fill="#8247E5" />
    <path d="M31.972 9.432a1.015 1.015 0 0 0-.978 0l-2.245 1.284-1.526.837-2.245 1.284a1.015 1.015 0 0 1-.979 0l-1.784-1.005c-.288-.167-.49-.474-.49-.809V9.042a.9.9 0 0 1 .49-.81l1.756-.976c.288-.168.662-.168.978 0l1.756.976c.288.168.49.475.49.81v1.284l1.525-.866V8.177a.9.9 0 0 0-.49-.81l-3.252-1.842a1.016 1.016 0 0 0-.979 0l-3.31 1.842a.9.9 0 0 0-.489.81v3.711a.9.9 0 0 0 .49.81L24 14.539c.287.168.662.168.978 0l2.245-1.255 1.526-.866 2.245-1.255c.287-.168.662-.168.978 0l1.756.976c.288.168.49.475.49.81v1.981a.9.9 0 0 1-.49.81l-1.756 1.004a1.016 1.016 0 0 1-.978 0l-1.756-.977c-.288-.167-.49-.474-.49-.809v-1.284l-1.525.865v1.284a.9.9 0 0 0 .49.81l3.31 1.841c.287.168.661.168.978 0l3.31-1.841c.288-.168.49-.475.49-.81v-3.712a.9.9 0 0 0-.49-.809l-3.339-1.87Z" fill="#fff" />
  </g>
  <g clip-path="url(#b)">
    <path d="M20 24c6.627 0 12-5.373 12-12S26.627 0 20 0 8 5.373 8 12s5.373 12 12 12Z" fill="#FF0420" />
    <path d="M16.501 15.187c-.715 0-1.3-.168-1.757-.504-.451-.34-.677-.83-.677-1.459 0-.134.015-.293.044-.485.076-.432.187-.95.33-1.56.409-1.651 1.465-2.477 3.164-2.477.46 0 .878.077 1.243.236.365.148.653.379.864.686.211.302.317.662.317 1.08 0 .125-.014.283-.043.475a19.478 19.478 0 0 1-.327 1.56c-.21.821-.57 1.44-1.09 1.848-.513.403-1.204.6-2.068.6Zm.13-1.296c.336 0 .619-.1.854-.297.24-.197.413-.5.514-.912.139-.567.244-1.056.316-1.479.024-.125.039-.254.039-.389 0-.547-.283-.82-.855-.82-.336 0-.624.1-.864.297-.235.197-.403.5-.504.912-.11.403-.216.893-.326 1.479-.024.12-.038.244-.038.379-.005.557.288.83.864.83ZM20.447 15.1c-.067 0-.116-.018-.154-.061-.029-.048-.038-.101-.029-.164l1.244-5.856a.24.24 0 0 1 .1-.163.264.264 0 0 1 .173-.062h2.395c.668 0 1.2.139 1.604.412.407.279.614.677.614 1.2 0 .15-.02.308-.053.47-.149.692-.451 1.2-.912 1.532-.451.331-1.07.495-1.857.495h-1.215l-.413 1.972a.258.258 0 0 1-.1.164.264.264 0 0 1-.173.062h-1.224Zm3.187-3.44c.254 0 .47-.068.657-.207a.987.987 0 0 0 .38-.595c.019-.101.029-.192.029-.27 0-.172-.053-.306-.154-.397-.1-.097-.279-.145-.523-.145h-1.08l-.341 1.613h1.032Z" fill="#fff" />
  </g>
  <circle cx="12" cy="12" r="12" fill="#627EEA" />
  <path d="m12.001 4.235-4.766 7.909 4.766-2.166V4.235Z" fill="#fff" />
  <path d="m12.001 9.978-4.766 2.166 4.766 2.818V9.978Z" fill="#C0CBF6" />
  <path d="M16.768 12.144 12 4.235v5.743l4.767 2.166Z" fill="#C0CBF6" />
  <path d="m12.001 14.962 4.767-2.818L12 9.978v4.984Z" fill="#8197EE" />
  <path d="m7.235 13.048 4.766 6.717v-3.9l-4.766-2.817Z" fill="#fff" />
  <path d="M12.001 15.864v3.9l4.77-6.716L12 15.864Z" fill="#C0CBF6" />
  <defs>
    <clipPath id="a">
      <rect x="16" width="24" height="24" rx="12" fill="#fff" />
    </clipPath>
    <clipPath id="b">
      <rect x="8" width="24" height="24" rx="12" fill="#fff" />
    </clipPath>
  </defs>
</svg>
