<svg width="8" height="8" viewBox="0 0 8 8" fill="none" xmlns="http://www.w3.org/2000/svg">
<path fill-rule="evenodd" clip-rule="evenodd" d="M3.16667 0.500049L3.14739 0.500048C3.01118 0.500037 2.91847 0.500029 2.83649 0.505402C1.5846 0.587455 0.587408 1.58465 0.505355 2.83654C0.499983 2.9185 0.49999 3.01121 0.5 3.14738V3.14743L0.500002 3.16672V4.00005L0.500002 4.01781L0.500002 4.01798C0.5 4.46878 0.5 4.83243 0.520192 5.1284C0.540959 5.43277 0.584741 5.70191 0.690303 5.95676C0.944038 6.56933 1.43072 7.05601 2.04329 7.30975C2.29814 7.41531 2.56728 7.45909 2.87166 7.47986C3.16766 7.50006 3.53136 7.50005 3.98224 7.50005H4H4.83333L4.85262 7.50005C4.98882 7.50006 5.08154 7.50007 5.16351 7.4947C6.4154 7.41264 7.4126 6.41545 7.49465 5.16356C7.50002 5.08159 7.50001 4.98887 7.5 4.85267L7.5 4.83338V4.66672C7.5 4.39057 7.27614 4.16672 7 4.16672C6.72386 4.16672 6.5 4.39057 6.5 4.66672V4.83338C6.5 4.99606 6.49973 5.05327 6.49679 5.09815C6.44756 5.84929 5.84924 6.44761 5.09811 6.49684C5.05322 6.49978 4.99602 6.50005 4.83333 6.50005H4C3.52722 6.50005 3.19767 6.49978 2.93973 6.48218C2.68627 6.46489 2.53867 6.43255 2.42598 6.38587C2.05843 6.23363 1.76642 5.94162 1.61418 5.57407C1.5675 5.46138 1.53517 5.31378 1.51787 5.06032C1.50027 4.80238 1.5 4.47283 1.5 4.00005V3.16672C1.5 3.00403 1.50027 2.94683 1.50321 2.90194C1.55245 2.15081 2.15076 1.55249 2.9019 1.50326C2.94678 1.50032 3.00399 1.50005 3.16667 1.50005H3.33334C3.60948 1.50005 3.83334 1.27619 3.83334 1.00005C3.83334 0.723906 3.60948 0.500049 3.33334 0.500049H3.16667ZM5 0.500049C4.72386 0.500049 4.5 0.723906 4.5 1.00005C4.5 1.27619 4.72386 1.50005 5 1.50005H5.7929L3.64645 3.6465C3.45119 3.84176 3.45119 4.15834 3.64645 4.3536C3.84171 4.54886 4.15829 4.54886 4.35356 4.3536L6.5 2.20716V3.00005C6.5 3.27619 6.72386 3.50005 7 3.50005C7.27614 3.50005 7.5 3.27619 7.5 3.00005V1.00005C7.5 0.723906 7.27614 0.500049 7 0.500049H5Z" fill="#E5E4FA"/>
</svg>
