<svg xmlns="http://www.w3.org/2000/svg" width="16" height="16" viewBox="0 0 16 16" fill="none">
    <path fill-rule="evenodd" clip-rule="evenodd" d="M1.67982 7.93165C2.09241 7.31094 2.92158 6.18152 4.04568 5.21477C5.17665 4.2421 6.52836 3.5 8.00099 3.5C9.47362 3.5 10.8254 4.2421 11.9563 5.21477C13.0804 6.18152 13.9096 7.31094 14.3222 7.93165C14.351 7.975 14.351 8.025 14.3222 8.06835C13.9096 8.68906 13.0804 9.81848 11.9563 10.7852C10.8254 11.7579 9.47362 12.5 8.00099 12.5C6.52836 12.5 5.17665 11.7579 4.04568 10.7852C2.92158 9.81848 2.09241 8.68906 1.67982 8.06835C1.651 8.025 1.651 7.975 1.67982 7.93165ZM8.00099 2C6.01963 2 4.33017 2.99167 3.0676 4.07751C1.79816 5.16926 0.881431 6.42307 0.430612 7.10129C0.0673996 7.64771 0.067401 8.35229 0.430612 8.89871C0.881432 9.57693 1.79816 10.8307 3.0676 11.9225C4.33017 13.0083 6.01963 14 8.00099 14C9.98235 14 11.6718 13.0083 12.9344 11.9225C14.2038 10.8307 15.1206 9.57693 15.5714 8.89871C15.9346 8.35229 15.9346 7.64771 15.5714 7.10129C15.1206 6.42307 14.2038 5.16926 12.9344 4.07751C11.6718 2.99167 9.98235 2 8.00099 2ZM8.00098 10C9.10555 10 10.001 9.10457 10.001 8C10.001 6.89543 9.10555 6 8.00098 6C6.89641 6 6.00098 6.89543 6.00098 8C6.00098 9.10457 6.89641 10 8.00098 10Z" fill="#E5E4FA"/>
</svg>
