<svg width="34" height="34" viewBox="0 0 34 34" fill="none" xmlns="http://www.w3.org/2000/svg">
<g clip-path="url(#clip0_12631_139606)">
<path d="M17 34C26.3888 34 34 26.3888 34 17C34 7.61116 26.3888 0 17 0C7.61116 0 0 7.61116 0 17C0 26.3888 7.61116 34 17 34Z" fill="#1969FF"/>
<path d="M15.9691 5.40615C16.5419 5.1042 17.4133 5.1042 17.9861 5.40615L23.8304 8.48723C24.1753 8.66907 24.3648 8.94005 24.3987 9.21978H24.4043V24.7068C24.3967 25.0119 24.2055 25.315 23.8304 25.5128L17.9861 28.5939C17.4133 28.8958 16.5419 28.8958 15.9691 28.5939L10.1248 25.5128C9.75134 25.3159 9.57209 25.0107 9.56322 24.7068C9.56231 24.6756 9.56223 24.6499 9.56319 24.6288L9.56322 9.32405C9.56235 9.30253 9.56234 9.28109 9.5632 9.25975L9.56322 9.21978H9.56583C9.59179 8.93695 9.77263 8.6729 10.1248 8.48723L15.9691 5.40615ZM23.4746 17.8301L17.9843 20.734C17.4124 21.0365 16.5422 21.0365 15.9703 20.734L10.4922 17.8366V24.6589L15.9703 27.541C16.294 27.7143 16.6306 27.883 16.9584 27.8904L16.9773 27.8906C17.3044 27.8917 17.622 27.7254 17.9441 27.5679L23.4746 24.6341V17.8301ZM8.64688 24.3711C8.64688 24.9648 8.71527 25.355 8.85106 25.6299C8.96361 25.8578 9.13248 26.0319 9.44082 26.2438L9.45842 26.2558C9.52609 26.3018 9.60063 26.3501 9.69137 26.4067L9.79837 26.4728L10.127 26.6729L9.65568 27.459L9.28791 27.2349L9.22609 27.1966C9.11976 27.1304 9.03162 27.0735 8.94941 27.0175C8.07063 26.4198 7.74289 25.7681 7.73643 24.4124L7.73633 24.3711H8.64688ZM16.5352 13.7129C16.4926 13.7275 16.4528 13.7445 16.4164 13.7637L10.5811 16.8547C10.5749 16.8579 10.5691 16.8612 10.5635 16.8643L10.5586 16.8672L10.5678 16.8725L10.5811 16.8797L16.4164 19.9707C16.4528 19.9899 16.4926 20.0069 16.5352 20.0215V13.7129ZM17.4648 13.7129V20.0215C17.5074 20.0069 17.5473 19.9899 17.5836 19.9707L23.4189 16.8797C23.425 16.8764 23.4309 16.8732 23.4364 16.8701L23.4414 16.8672L23.4322 16.8619L23.4189 16.8547L17.5836 13.7637C17.5473 13.7445 17.5074 13.7275 17.4648 13.7129ZM23.4746 10.3262L18.2285 13.082L23.4746 15.8379V10.3262ZM10.4922 10.3262V15.8379L15.7383 13.082L10.4922 10.3262ZM17.5785 6.22981C17.2748 6.06923 16.7252 6.06923 16.4215 6.22981L10.5811 9.31758C10.5749 9.32084 10.5691 9.32403 10.5635 9.32722L10.5586 9.33008L10.5678 9.33532L10.5811 9.34256L16.4215 12.4303C16.7252 12.5909 17.2748 12.5909 17.5785 12.4303L23.4189 9.34256C23.425 9.33931 23.4309 9.33612 23.4364 9.33296L23.4414 9.33008L23.4322 9.32483L23.4189 9.31758L17.5785 6.22981ZM24.3443 6.54102L24.7121 6.76511L24.7739 6.8034C24.8802 6.86963 24.9684 6.92652 25.0506 6.98244C25.9294 7.58019 26.2571 8.23189 26.2636 9.5876L26.2637 9.62891H25.3531C25.3531 9.03518 25.2847 8.64499 25.1489 8.37007C25.0364 8.14223 24.8675 7.9681 24.5592 7.75622L24.5416 7.74419C24.4739 7.69816 24.3994 7.64994 24.3086 7.59327L24.2016 7.52715L23.873 7.32709L24.3443 6.54102Z" fill="white"/>
</g>
<defs>
<clipPath id="clip0_12631_139606">
<rect width="34" height="34" fill="white"/>
</clipPath>
</defs>
</svg>
