<svg width="24" height="24" viewBox="0 0 24 24" fill="none" xmlns="http://www.w3.org/2000/svg">
<path d="M20.2755 10.0666C20.2679 9.60565 20.1257 9.04468 19.8374 8.71422C18.6158 7.32339 17.3288 5.99032 16.0188 4.67659C15.8499 4.50765 15.3465 4.36163 15.1121 4.56517C14.8585 4.78802 14.9508 5.32964 15.1045 5.55632C15.4387 6.0519 15.8997 6.47445 16.3569 6.87412C16.8334 7.28905 17.0792 7.7653 16.9792 8.39546C16.7563 9.83231 17.3211 10.9079 18.4275 11.7953C18.7079 12.0182 18.9768 12.4484 18.9846 12.7903C19.0192 14.1195 18.9999 15.4564 18.8847 16.7819C18.831 17.3889 18.8193 18.2918 17.905 18.2648C17.0713 18.2379 17.0906 17.3812 17.0059 16.7895C16.8792 15.9022 16.8907 14.9993 16.8215 14.1041C16.7254 12.8669 16.1799 12.2792 14.9582 12.0871C14.7046 12.0487 14.4474 12.0294 14.0785 11.9872V11.0421C14.0785 9.12892 14.0938 7.21942 14.0709 5.30607C14.0556 3.77707 13.2756 3.0126 11.7619 3.00478C9.96404 2.99713 8.17001 3.00095 6.37189 3.00095C4.38959 3.00095 3.70189 3.68099 3.70189 5.64803C3.69807 9.96629 3.70189 14.2805 3.70189 18.5989V19.6016V21H14.1244V19.6054V13.4852C15.2308 13.3469 15.4115 13.4891 15.519 14.4879C15.6536 15.7172 15.7149 16.9657 15.98 18.1722C16.1874 19.1249 17.0058 19.6358 17.8932 19.6513C18.7922 19.6706 19.5567 19.1903 19.8793 18.2566C20.0945 17.6382 20.2403 16.9658 20.2558 16.3166C20.3176 14.2385 20.3177 12.1486 20.2755 10.0666ZM11.7202 9.96667C10.7944 9.94736 9.86836 9.96285 8.94257 9.96285C7.98603 9.96285 7.03324 9.94757 6.0767 9.96667C5.38906 9.98195 5.04328 9.68248 5.04328 8.99459V5.34871C5.04328 4.67633 5.33914 4.34229 6.0459 4.3499C7.95523 4.36921 9.86852 4.36518 11.7781 4.3499C12.4235 4.34608 12.754 4.61499 12.754 5.27188C12.7501 6.51666 12.7463 7.76122 12.7578 9.00606C12.7614 9.72065 12.3964 9.98194 11.7202 9.96667Z" fill="#9594AA"/>
</svg>
