<svg width="24" height="24" viewBox="0 0 24 24" fill="none" xmlns="http://www.w3.org/2000/svg">
<path d="M18.9447 21H5.05738C3.92171 21 3 20.0836 3 18.9545V11.7955C3 10.6664 3.92171 9.75 5.05738 9.75H18.9426C20.0783 9.75 21 10.6664 21 11.7955V18.9545C21 20.0836 20.0783 21 18.9447 21V21Z" stroke="#D4C4ED" stroke-width="2" stroke-linecap="round" stroke-linejoin="round"/>
<path d="M12 9.75V21" stroke="#D4C4ED" stroke-width="2" stroke-linecap="round" stroke-linejoin="round"/>
<path d="M12.1303 9.75C13.2068 9.75 15.4309 9.39134 16.8443 7.8757C17.8852 6.76114 17.8852 4.9524 16.8443 3.83592C15.8034 2.72136 14.1166 2.72136 13.0757 3.83592C11.4825 5.54439 12.1303 9.75 12.1303 9.75V9.75Z" stroke="#D4C4ED" stroke-width="2" stroke-linecap="round" stroke-linejoin="round"/>
<path d="M11.8697 9.75C10.7932 9.75 8.56914 9.39138 7.15568 7.8759C6.11477 6.76146 6.11477 4.95291 7.15568 3.83655C8.19659 2.72019 9.88338 2.72211 10.9243 3.83655C12.5175 5.54484 11.8697 9.75 11.8697 9.75V9.75Z" stroke="#D4C4ED" stroke-width="2" stroke-linecap="round" stroke-linejoin="round"/>
</svg>
