<svg width="34" height="34" viewBox="0 0 34 34" fill="none" xmlns="http://www.w3.org/2000/svg">
<path d="M17 34C26.3888 34 34 26.3888 34 17C34 7.61116 26.3888 0 17 0C7.61116 0 0 7.61116 0 17C0 26.3888 7.61116 34 17 34Z" fill="#3E6957"/>
<g clip-path="url(#clip0_21286_17987)">
<path d="M12.0543 18.6659C12.744 18.6659 13.4169 18.436 13.9608 18.0154L9.58701 13.6416C8.5328 15.0042 8.78514 16.9668 10.1478 18.021C10.6973 18.436 11.3646 18.6659 12.0543 18.6659Z" fill="white"/>
<path d="M25.0634 15.5423C25.0634 14.8526 24.8335 14.1797 24.4129 13.6357L20.0391 18.0096C21.4017 19.0638 23.3587 18.8114 24.4129 17.4488C24.8335 16.9049 25.0634 16.232 25.0634 15.5423Z" fill="white"/>
<path d="M27.2673 10.7812L25.3327 12.7158C26.8916 14.5831 26.6449 17.3644 24.7776 18.9233C23.1402 20.2915 20.7626 20.2915 19.1252 18.9233L17 21.0485L14.8804 18.9289C13.0131 20.4878 10.2318 20.2411 8.6729 18.3738C7.30467 16.7364 7.30467 14.3588 8.6729 12.7214L7.68037 11.7289L6.73832 10.7812C5.6 12.6541 5 14.8074 5 16.9999C5 23.628 10.372 28.9999 17 28.9999C23.628 28.9999 29 23.628 29 16.9999C29.0056 14.8074 28.4 12.6541 27.2673 10.7812Z" fill="white"/>
<path d="M25.6804 8.71793C21.1103 3.92354 13.5178 3.7441 8.72338 8.31419C8.58319 8.44877 8.44861 8.58335 8.31964 8.71793C8.02244 9.03195 7.74207 9.35718 7.47852 9.69924L17 19.2263L26.5215 9.69924C26.2636 9.35718 25.9776 9.03195 25.6804 8.71793ZM17 6.57027C19.8037 6.57027 22.4168 7.65251 24.3795 9.62634L17 17.0058L9.62057 9.62634C11.5832 7.65251 14.1963 6.57027 17 6.57027Z" fill="white"/>
</g>
<defs>
<clipPath id="clip0_21286_17987">
<rect width="24" height="24" fill="white" transform="translate(5 5)"/>
</clipPath>
</defs>
</svg>
