<svg width="56" height="56" viewBox="0 0 56 56" fill="none" xmlns="http://www.w3.org/2000/svg">
    <rect width="56" height="56" rx="13" fill="#28253E"/>
    <path d="M34.4009 35.9243H33.6465V36.6716H34.4009V35.9243Z" fill="#EAEAEA"/>
    <path d="M35.9346 34.4164H35.1635V35.157H35.9346V34.4164ZM43.4669 35.9244V35.157H42.7209V33.6607H41.2054V32.9067H39.6866V34.4164H37.4334V35.926H36.684V36.6717H35.9346V38.9303H35.1685V38.203H33.6614V38.9303H32.1526V41.2023H31.3998V42.717H30.6321V43.4626H29.8827V42.717H28.3672V44.9756H26.8651V45.7363H25.3746V44.9856H23.8525V44.2166H21.5859V45.7346H22.3403V46.4903H21.5859V47.246H24.6052V47.9999H32.1492L32.1542 47.2393H34.4191V46.4986L35.9246 46.492L35.9213 45.7363H37.4317V44.9823H38.9422V44.2266H39.6966V43.4727H41.2054V42.717H38.9355V43.4777H38.1845V44.2316H37.4184V43.4777H38.1845V42.717H36.6823V41.2023H35.9329V41.963H35.1669V41.2023H35.9329V40.4533C35.9329 40.4533 39.7033 40.47 39.6883 40.4533C39.6716 40.4383 39.6883 41.9597 39.6883 41.9597H40.4343V38.1897H42.7159V37.4224H41.9681V36.6667H41.9648V35.926H43.4653L43.4669 35.9244ZM33.6481 41.204H32.9036V40.455L33.6481 40.4517V41.2023V41.204ZM35.9346 42.7187V43.4793H36.669V44.9873H35.9362L35.9346 43.4793H35.1669V42.7187H35.9346ZM33.6481 35.1737V35.9277H32.9036V35.1737H33.6481Z" fill="white"/>
    <path d="M13.2794 31.4037H12.53V32.1511H11.0195V30.6431H13.2744L13.2811 31.4054L13.2794 31.4037Z" fill="#959595"/>
    <path d="M26.8733 11.7732V12.5389H26.1105V13.2929H24.6034V12.5389H22.3535V11.7732H23.854V11.0259H26.1189V11.7732H26.8733Z" fill="white"/>
    <path d="M29.8875 8.74731H26.1172V9.51632H29.8875V8.74731Z" fill="#EAEAEA"/>
    <path d="M22.3382 45.7363H21.5837V46.492H22.3382V45.7363Z" fill="#959595"/>
    <path d="M17.8047 38.9455V39.6978H14.036V38.9438H13.2832V37.4375H12.5288V35.9245H11.7728V33.6609H11.0184V32.8935H10.2656V32.1512H10.2773V29.1353H11.02V32.1546H12.5305V33.6625H13.2849V36.6819H14.792V37.4392H15.5448V38.1915H16.2992V38.9472H17.8063L17.8047 38.9455ZM23.8515 41.2175H23.0955V41.9648H23.8515V41.2175Z" fill="#888888"/>
    <path d="M21.5958 42.717H20.082V43.4744H21.5975L21.5958 42.717Z" fill="#ADADAD"/>
    <path d="M21.5737 41.9546H20.8359V42.7186H21.5737V41.9546Z" fill="#B4B4B4"/>
    <path d="M21.5827 45.7363H20.0723V46.4903H21.5827V45.7363Z" fill="white"/>
    <path d="M20.0754 44.9824L20.072 45.7381L18.5649 45.7331V44.9791L20.0754 44.9824ZM18.5632 44.2268H17.0544V44.9824H18.5632V44.2268ZM15.5456 41.9631H14.0352V42.7188H15.5456V41.9631ZM17.0544 43.4728H16.3V44.2284H17.0544V43.4728Z" fill="white"/>
    <path d="M16.3025 42.7171H15.5481V43.4745H16.3025V42.7171ZM14.0376 41.2075H13.2832V41.9648H14.0376V41.2075ZM12.5288 38.9438H11.7728V39.6995H12.5288V38.9438ZM11.0184 36.6802H10.2656V37.4358H11.02L11.0184 36.6802ZM13.2832 39.6978H12.5288V41.2075H13.2832V39.6978Z" fill="white"/>
    <path d="M11.772 37.4341H11.0176V38.9438H11.772V37.4341ZM10.2649 34.4165H9.50714V36.6801H10.2615V34.4165H10.2649ZM9.50881 32.1529H8.75607V34.4165H9.50881V32.1529ZM8.7544 23.8506H8V32.1512H8.7544V23.8506Z" fill="white"/>
    <path d="M23.8503 41.9631V42.7171H23.0909V44.2167H21.5837V45.7347H20.0733L20.0766 44.9841L18.5661 44.9791V44.2284H17.0557V43.4728H16.3013V42.7171H15.5469V41.9631H14.0364V41.2074H13.282V39.6978H12.5276V38.9438H11.7715V37.4341H11.0171V36.6801H10.2644V34.4165H9.50831V32.1529H8.75557V32.1512L8.75391 23.8506H10.2777V32.1512H10.2627V32.8935H11.0171V33.6608H11.7715V35.9245H12.5276V37.4375H13.282V38.9438H14.0347V39.6978H17.8034V40.4534H20.836V42.7171H20.0799V43.4728H21.5954V42.7171H22.3348V41.9631H23.8503Z" fill="#959595"/>
    <path d="M26.8619 41.9631V43.4728H25.3547V44.2168H23.0898V42.7171H23.8492V41.9631H26.8619Z" fill="#888888"/>
    <path d="M28.368 42.717V44.9757H26.8642V45.7363H25.3737V44.9857H23.8516V44.2167H25.357V43.4727H26.8642V42.717H28.368Z" fill="#959595"/>
    <path d="M26.8663 41.963V38.2031H23.8521V37.4341H23.0977V39.6977H24.6048V40.4584H23.0977V41.2174H23.8537V41.963H26.8663Z" fill="#7F7F7F"/>
    <path d="M23.8537 39.6978H23.0977V40.4601H23.8537V39.6978Z" fill="#C4C4C4"/>
    <path d="M24.6026 39.6978H23.8516V40.4601H24.6026V39.6978Z" fill="#ADADAD"/>
    <path d="M29.8821 41.9631V42.7171H27.6172V40.4585H28.3666V41.2058H29.1243V41.9631H29.8821Z" fill="#7F7F7F"/>
    <path d="M27.6196 40.4585H26.8652V42.7171H27.6196V40.4585Z" fill="#868686"/>
    <path d="M30.6303 42.717H29.8809V43.4644H30.6303V42.717Z" fill="#959595"/>
    <path d="M31.4004 41.963V42.717H29.8833V41.963H29.1256V41.2057H28.3678V40.4584H26.8657V38.2031H23.8514V37.4341H23.097V36.6784H22.3359V35.9278H23.097V32.9085H23.8531V32.1511H24.6041V37.4341H25.3602V33.6641H26.1163V34.4198H26.864V35.1621H27.6201V39.6994H29.8883V41.2007H30.6427V41.963H31.4004Z" fill="#919191"/>
    <path d="M21.5751 40.4533H20.8374V41.9547H21.5751V40.4533ZM20.8374 39.6977H20.0613V40.455L20.8374 40.4533V39.6977ZM20.0613 38.947H19.3086V39.6977H20.0613V38.947Z" fill="#A6A6A6"/>
    <path d="M19.3075 38.1848H18.5664V38.9488H19.3075V38.1848Z" fill="#969696"/>
    <path d="M18.5674 38.1848H17.8047V38.9471H18.5674V38.1848Z" fill="#C9C9C9"/>
    <path d="M17.8047 38.9453V40.4533H20.0612V39.6976H19.3085V38.947L17.8047 38.9453Z" fill="#7F7F7F"/>
    <path d="M23.0947 41.963V38.1897H22.3337V39.6994H21.5942V38.9437H20.8398V40.4533H21.5759V42.717H22.337V41.963H23.0947Z" fill="white"/>
    <path d="M22.3332 38.9453H21.5938V39.701H22.3332V38.9453Z" fill="#C4C4C4"/>
    <path d="M22.3332 38.1897H21.5938V38.947H22.3332V38.1897Z" fill="#B0B0B0"/>
    <path d="M23.0944 36.6785H22.3334V38.1898H23.0944V36.6785ZM20.8379 38.9438V38.1898H21.594V38.9471L20.8379 38.9455V38.9438Z" fill="#C4C4C4"/>
    <path d="M20.8386 38.1897H20.0625V39.6977H20.8386V38.1897Z" fill="#EAEAEA"/>
    <path d="M20.0613 38.1897H19.3086V38.9487H20.0613V38.1897Z" fill="#DFDFDF"/>
    <path d="M18.5664 38.1863V37.434C18.5664 37.434 19.2758 37.4023 19.3075 37.434C19.3408 37.4657 19.3075 38.1897 19.3075 38.1897L18.5664 38.1863Z" fill="#909090"/>
    <path d="M20.0613 37.4341H19.3086V38.1897H20.0613V37.4341Z" fill="#ADADAD"/>
    <path d="M20.8386 37.4341H20.0625V38.1897H20.8386V37.4341ZM21.5963 37.4341H20.8419V38.1897H21.598L21.5963 37.4341Z" fill="#B0B0B0"/>
    <path d="M23.8523 32.1512V32.9068H23.0962V35.9262H22.3352V38.1898H21.5957V37.4341H18.5681V38.1848H17.8054V38.9455H16.2983V38.1898H15.5455V37.4375H16.3049V36.6785H15.5455V35.1672H14.0367V33.6642H13.2873L12.5312 33.6608V31.4055H13.2823L13.2757 30.6432V30.6349H14.0367V28.3679H14.8028L14.7895 27.6122H15.5539L15.5455 26.8766H17.0677V26.1126H16.3049V23.8506H17.0677V25.3569H17.8237V24.6146L19.3225 24.6062V25.3636L20.0886 25.3569V26.1142H18.5598V27.6206H17.8237L17.8071 31.3989H21.5874V30.6432H22.3368V31.3989L23.0946 31.4055V32.1512H23.854H23.8523Z" fill="#7F7F7F"/>
    <path d="M16.3027 29.8909H15.5449V30.6415H16.3027V29.8909Z" fill="#969696"/>
    <path d="M19.3057 32.9136H17.0508V33.6642H19.3057V32.9136Z" fill="#909090"/>
    <path d="M20.0747 32.1511H19.3086V32.9168H20.0747V32.1511Z" fill="#969696"/>
    <path d="M20.8364 32.1511H20.0703V32.9168H20.8364V32.1511Z" fill="#C9C9C9"/>
    <path d="M21.5853 32.1511H20.8359V32.9168H21.5853V32.1511Z" fill="#969696"/>
    <path d="M22.3324 32.1511H21.583V32.9168H22.3324V32.1511ZM13.2812 33.6608V34.4181H14.0307V33.6641L13.2812 33.6608Z" fill="#C9C9C9"/>
    <path d="M16.3027 34.4165H15.5449V35.1672H16.3043L16.3027 34.4165Z" fill="#969696"/>
    <path d="M16.3027 33.6641H15.5449V34.4181H16.3043L16.3027 33.6641Z" fill="#919191"/>
    <path d="M13.2812 36.6783H14.7884V37.4356H16.3005V36.6783H15.5428V35.167H13.2812V36.6783Z" fill="#B6B6B6"/>
    <path d="M29.8851 39.7011V38.9304H29.1074V39.6994L29.8851 39.7011Z" fill="#DFDFDF"/>
    <path d="M29.1093 38.9304H28.3733V38.2031H27.6172V39.6994H29.1093V38.9304Z" fill="#D4D4D4"/>
    <path d="M29.8851 38.2031H29.1074V38.9304H29.8851V38.2031ZM32.15 38.9304V40.4501H31.3973V41.2007H29.8851V38.9304H30.6295V39.6978H31.3973V38.9304H32.15Z" fill="#D4D4D4"/>
    <path d="M31.3964 41.2023H30.6387V41.9646H31.3964V41.2023ZM32.1491 40.45H31.3964V41.2039H32.1491V40.45Z" fill="#DFDFDF"/>
    <path d="M29.1077 38.2031H28.3716V38.9304H29.1077V38.2031ZM32.1503 37.4341H27.6172V38.2031H32.1519V37.4341H32.1503Z" fill="#EAEAEA"/>
    <path d="M35.9336 36.6717V38.203H33.6604V38.9303H29.8867V38.203H32.1516V37.434H32.901V35.926H33.6471V36.6717H35.9336Z" fill="#DFDFDF"/>
    <path d="M31.3983 38.9304H30.6289V39.6994H31.3983V38.9304Z" fill="#DFDFDF"/>
    <path d="M28.3616 35.1621H27.6172V37.4341H28.3616V35.1621Z" fill="#D4D4D4"/>
    <path d="M32.903 36.6716H28.3633V37.4356H32.903V36.6716Z" fill="white"/>
    <path d="M27.6193 34.4199H26.8633V35.1639H27.6193V34.4199Z" fill="#7F7F7F"/>
    <path d="M35.1616 34.4166V35.1555H35.9327V35.9262H34.4006V35.1755H32.1523V34.4266H34.4006V33.6609H35.9327V34.4166H35.1616Z" fill="#DFDFDF"/>
    <path d="M32.9022 35.1738V36.6718H32.1528V35.9262H31.3984V34.4265H32.1512V35.1738H32.9006H32.9022Z" fill="#E6E6E6"/>
    <path d="M34.4009 35.1738H33.6465V35.9278H34.4009V35.1738ZM35.933 35.9245H34.4009V36.6718H35.933V35.9245Z" fill="white"/>
    <path d="M35.934 38.2031H35.168V38.9304H35.934V38.2031Z" fill="#EAEAEA"/>
    <path d="M36.683 33.6609H35.9336V34.4166H36.683V33.6609Z" fill="white"/>
    <path d="M37.4324 34.4165H35.9336V35.9262H37.4324V34.4165Z" fill="#DFDFDF"/>
    <path d="M36.683 35.9243H35.9336V36.6716H36.683V35.9243Z" fill="#DFDFDF"/>
    <path d="M31.3976 34.4265V35.9262H32.1504V36.6718H28.3617V35.1622H27.6173V34.4199H26.1135V33.6625H25.3574V31.3972H27.6173V33.6609H28.3767V34.4149L31.3976 34.4265Z" fill="#EAEAEA"/>
    <path d="M28.3783 31.3972H27.6172V33.6609H28.3783V31.3972Z" fill="#D1D1D1"/>
    <path d="M20.0864 26.8716H19.3203V27.6172H20.0864V26.8716Z" fill="#D4D4D4"/>
    <path d="M32.1484 33.6609L32.1501 34.4282H34.4V33.6609H32.1484Z" fill="#EAEAEA"/>
    <path d="M32.8978 32.9136H32.1484V33.6626H32.8962L32.8978 32.9136Z" fill="#EAEAEA"/>
    <path d="M14.0346 34.4165H13.2852V35.1672H14.0346V34.4165Z" fill="#969696"/>
    <path d="M38.1858 29.1335H37.4297V29.8809H38.1858V29.1335Z" fill="white"/>
    <path d="M38.9402 29.1335H38.1875V29.8809H38.9402V29.1335Z" fill="#EAEAEA"/>
    <path d="M38.9469 29.8809H38.1875V30.6282H38.9469V29.8809Z" fill="white"/>
    <path d="M21.5836 28.3779H20.8242V29.1403H21.5836V28.3779ZM24.6029 37.4342H25.3573V32.9136H24.6029V37.4342Z" fill="#D1D1D1"/>
    <path d="M29.8855 32.9135H28.3767V33.6625H29.8855V32.9135ZM30.6349 31.3972H28.375V32.1529H30.6349V31.3972Z" fill="#DFDFDF"/>
    <path d="M30.6349 32.1511H28.375V32.9168H30.6349V32.1511Z" fill="#EAEAEA"/>
    <path d="M28.3767 33.6609H29.1311V34.4199L28.375 34.4166V33.6609H28.3767Z" fill="#D1D1D1"/>
    <path d="M29.1328 34.4199V33.6609H29.8872V34.4216H29.1328V34.4199Z" fill="#EAEAEA"/>
    <path d="M29.8867 33.6609V34.4216L30.6361 34.4249V33.6609H29.8867Z" fill="#DFDFDF"/>
    <path d="M30.6361 32.9136H29.8867V33.6626H30.6361V32.9136ZM30.6361 33.6609H32.1516V34.4282L30.6361 34.4249V33.6609Z" fill="white"/>
    <path d="M31.3994 32.9136H30.6367V33.6626H31.3994V32.9136Z" fill="#EAEAEA"/>
    <path d="M32.1478 32.9136H31.3984V33.6626H32.1478V32.9136Z" fill="#E6E6E6"/>
    <path d="M32.8983 32.1511H30.6367V32.9168H32.8983V32.1511Z" fill="#DFDFDF"/>
    <path d="M30.6353 31.3972V32.1512H31.398V28.3729H30.6353V27.6172H29.8859V26.8716H28.3704V27.6256H29.1332V29.1402H28.3721V28.3862H27.6094V29.8876H28.3754V31.3972H30.6353Z" fill="#EAEAEA"/>
    <path d="M18.5558 26.1143H20.0845V26.8716H19.3185V28.3646H18.5574V29.8909H20.819V30.6382H21.585V31.3972H17.8047V27.6206H18.5574L18.5558 26.1143Z" fill="#919191"/>
    <path d="M20.0855 29.8909H19.3145V30.6415H20.0855V29.8909Z" fill="#7F7F7F"/>
    <path d="M23.0903 30.6431H22.3359V31.4054H23.0903V30.6431ZM23.0903 31.4037H23.8531V32.1527H23.0937L23.0903 31.4054V31.4037Z" fill="#919191"/>
    <path d="M20.0859 29.8908V29.1401H21.5848V29.8908H24.6074V31.4055H25.3568V32.9134H24.604V32.1511H23.853V31.4055H23.0886V30.6431H20.8204V29.8908H20.0859Z" fill="#B6B6B6"/>
    <path d="M25.3574 31.4054V30.6431H28.3767V31.3987L25.3574 31.4054Z" fill="#DFDFDF"/>
    <path d="M28.3754 29.8857H27.6094V30.6447H28.3754V29.8857Z" fill="#D1D1D1"/>
    <path d="M27.6104 30.6432V29.8876H26.8677V27.6172H24.6011V28.3712H23.8517V29.1402H23.089V27.6172H21.5852V26.8716H22.3346V26.1143H20.8125V26.8716H20.0864V27.6172H19.3203V28.3646H20.0864V29.1402H20.8241V28.3779H21.5835V29.8909H24.6061V31.4056H25.3555V30.6432H27.6104Z" fill="#EAEAEA"/>
    <path d="M20.0835 29.1402V28.3646H18.5547V29.8909H20.0835V29.1402ZM20.8096 26.1143H20.0835V26.8716H20.8096V26.1143Z" fill="#D4D4D4"/>
    <path d="M29.8867 26.8714H31.3989V26.1141H32.1416V24.6011H32.911V26.1141H35.1842V26.8714H36.6664V26.1174H37.4241V24.6044H38.1918V26.8714H38.9279V27.6104H39.6973V29.1334H31.3989V28.3727H30.6361V27.617H29.8867V26.8714Z" fill="#E6E6E6"/>
    <path d="M32.1406 29.1353V28.3796H34.4155V29.142L32.1406 29.1336V29.1353Z" fill="#DFDFDF"/>
    <path d="M34.418 29.142V28.3796H35.9468V29.1336L34.418 29.142Z" fill="#EAEAEA"/>
    <path d="M38.9385 28.3796H38.1758V29.1336H38.9385V28.3796Z" fill="#DFDFDF"/>
    <path d="M38.1758 28.3795H37.4297V27.6155H39.6946V29.1335H38.9385V28.3795H38.1758Z" fill="#EAEAEA"/>
    <path d="M34.4022 32.9136H32.8984V33.6626H34.4022V32.9136Z" fill="#DFDFDF"/>
    <path d="M32.8973 29.1335H31.3984V30.6265H32.8973V29.1335ZM32.8973 31.3972H31.3984V32.1529H32.8973V31.3972Z" fill="#E6E6E6"/>
    <path d="M32.8973 31.3971V32.1511H33.65V30.6265H31.3984V31.3971H32.8973Z" fill="white"/>
    <path d="M35.9325 32.9151V33.6608H34.4004V32.1511H35.1665V32.9151H35.9325Z" fill="#EAEAEA"/>
    <path d="M32.8984 32.9152H34.4022V32.1512H35.1683V31.3972H33.6512V32.1512H32.8984V32.9152Z" fill="#E6E6E6"/>
    <path d="M33.6512 29.1335H32.8984V29.8809H33.6512V29.1335Z" fill="#DFDFDF"/>
    <path d="M33.6512 29.8809H32.8984V30.6282H33.6512V29.8809Z" fill="#EAEAEA"/>
    <path d="M34.4165 29.1335H33.6504V29.8809H34.4165V29.1335Z" fill="#E6E6E6"/>
    <path d="M34.4165 30.6265H33.6504V31.3988H34.4165V30.6265Z" fill="#EAEAEA"/>
    <path d="M35.1675 31.3972V29.8792H35.9336V29.1335H34.4165V29.8792H33.6504V30.6265H34.4165V31.3972H35.1675Z" fill="#DFDFDF"/>
    <path d="M36.685 29.1335H35.9355V29.8809H36.685V29.1335Z" fill="#E6E6E6"/>
    <path d="M35.934 29.8809H35.168V30.6282H35.934V29.8809Z" fill="#EAEAEA"/>
    <path d="M36.6834 30.6265H35.168V31.3988H36.6834V30.6265Z" fill="#E6E6E6"/>
    <path d="M41.2049 32.1512V32.9068H39.6861V34.4165H37.4328V33.6608H35.934V32.9152H35.168V31.3972H35.9257V32.1512H37.4312V31.3972H36.6851V30.6265H35.9357V29.8809H36.6851V29.1335H37.4312V29.8792H38.1872V30.6265H38.9466V31.3972H39.6861V32.1512H41.2049Z" fill="#DFDFDF"/>
    <path d="M36.6832 31.3972H35.9238V32.1529H36.6832V31.3972Z" fill="#EAEAEA"/>
    <path d="M37.4313 31.3972H36.6836V32.1529H37.433L37.4313 31.3972Z" fill="white"/>
    <path d="M37.4313 32.1511H36.6836V32.9068H37.433L37.4313 32.1511Z" fill="#E6E6E6"/>
    <path d="M37.433 33.6609H36.6836V34.4182H37.433V33.6609Z" fill="#EAEAEA"/>
    <path d="M38.9436 32.915H38.1875V33.6624H38.9419L38.9436 32.915Z" fill="white"/>
    <path d="M39.6952 29.1335H38.9375V30.6265H39.6952V29.1335Z" fill="#DFDFDF"/>
    <path d="M38.9375 30.6265H39.6952V31.3988H38.9458L38.9375 30.6265ZM40.4513 31.3971L39.6952 31.3988V32.1528H40.4513V31.3971Z" fill="white"/>
    <path d="M40.4533 30.6265H39.6973V31.3988H40.4533V30.6265Z" fill="#DFDFDF"/>
    <path d="M38.1931 24.6045H38.9391V26.1125H39.6969V26.8665H40.448V27.6171H41.204V26.8665H42.7195V28.3795H39.6969V27.6155H38.9275V26.8715H38.1914L38.1931 24.6045Z" fill="#A6A6A6"/>
    <path d="M42.719 27.6221H41.9629V28.3811H42.719V27.6221Z" fill="#909090"/>
    <path d="M39.6973 28.3796H41.9621V31.3989H41.2044V32.1513H40.4533V30.6266H39.6973V28.3796Z" fill="#E6E6E6"/>
    <path d="M41.9609 31.3972H41.2031V32.1529H41.9625L41.9609 31.3972Z" fill="white"/>
    <path d="M41.9609 32.1511H41.2031V32.9168H41.9625L41.9609 32.1511Z" fill="#EAEAEA"/>
    <path d="M42.7177 26.8666H41.2022V27.6172H40.4461V26.8666H39.6934V26.1109H38.9373V24.6046H37.4219V23.8472C37.4219 23.8472 40.4528 23.8339 40.4528 23.8472V24.6029H41.2039V23.8406H42.7177V24.6029H43.4654V25.3586H44.2248V26.8716H43.4654V27.6189H42.716V26.8649L42.7177 26.8666Z" fill="#909090"/>
    <path d="M42.7189 23.8423H41.2051V24.6063H42.7189V23.8423ZM43.465 24.6046H42.7189V25.3586H43.465V24.6046Z" fill="#868686"/>
    <path d="M40.4528 24.6044V23.0797H41.2039V22.3358H42.7177V23.0797H44.2248V25.3601H43.4638V24.6044H42.7177V23.8421H41.2039V24.6044H40.4528ZM38.1913 19.3381H37.4219V21.5868H38.1896L38.1913 19.3381Z" fill="#E6E6E6"/>
    <path d="M37.4221 17.8135H36.6777V19.3381H37.4221V17.8135Z" fill="#D1D1D1"/>
    <path d="M36.6777 18.5693H32.9023V19.3383H36.6777V18.5693Z" fill="white"/>
    <path d="M34.4071 19.3383V18.571H33.6577V17.8137H32.1339V17.063H31.3845V16.3073H30.6367V15.54H31.3878V14.781H33.6577V16.299H35.1531V17.0613H35.9125V19.3367L34.4071 19.3383Z" fill="#868686"/>
    <path d="M44.2269 18.5726V20.0773H43.4559V19.3383H41.2076V18.571H40.4532V19.3383H38.1934V18.571H38.9461V17.8253H39.7055V17.063H41.9637V17.8136H42.7198V18.5726H44.2269Z" fill="#9E9E9E"/>
    <path d="M24.5981 27.6272H23.8487V28.3729H24.5981V27.6272ZM23.8487 26.1143H23.0859V26.8716H23.8487V26.1143Z" fill="#7F7F7F"/>
    <path d="M26.1131 26.1143H23.8516V26.8716H26.1131V26.1143Z" fill="#EAEAEA"/>
    <path d="M23.0859 26.8716V29.1402H23.8487V27.6272H24.5981V26.8716H23.0859Z" fill="#8F8F8F"/>
    <path d="M24.6016 27.6289V26.8716H25.3593V27.6172L24.6016 27.6289Z" fill="#7F7F7F"/>
    <path d="M20.8125 26.1142H22.3346V26.8716H21.5852V27.6172H23.089V26.1142H26.1133V25.3519H23.089V23.8506H22.333V25.3602H20.8125V26.1142Z" fill="#D4D4D4"/>
    <path d="M26.1118 26.1143V26.8716H25.3574V27.6172H26.8662V29.8859H27.609V28.3862H29.1328V27.6256H28.3717V26.1143H26.1118Z" fill="#D4D4D4"/>
    <path d="M29.1322 28.3862H28.3711V29.1419H29.1322V28.3862Z" fill="#BEBEBE"/>
    <path d="M26.1133 26.1141V24.6045H28.3782V25.3585H29.1342V26.1141H29.882V26.8715H28.3732V26.1141H26.1133Z" fill="#E6E6E6"/>
    <path d="M28.3798 24.6045H26.1133V25.3535H28.3782V24.6045H28.3798Z" fill="#EAEAEA"/>
    <path d="M26.1109 25.3519V24.6046H27.6097V23.8506H23.8477V24.6046H24.5971V25.3519H26.1092H26.1109Z" fill="#B6B6B6"/>
    <path d="M23.0859 23.8506V25.3519H24.5981V24.6046H23.8487V23.8506H23.0859Z" fill="#EAEAEA"/>
    <path d="M28.3788 23.8506H27.6094V24.6062H28.3788V23.8506ZM28.3788 24.6046V25.3602H29.1332V24.6012L28.3788 24.6046Z" fill="white"/>
    <path d="M28.3789 24.6046H29.1333V26.1142H29.881V26.8716H31.3982V26.1142H30.6454V25.3519H29.886V24.6046H29.1333V23.8506H28.3789V24.6046Z" fill="#B6B6B6"/>
    <path d="M23.8487 23.8505V23.0898H23.0859V22.3392H23.842V21.5835H24.5981V23.0748H29.8839V23.8421H31.396V23.1032H34.3986V24.6045H36.6768V25.3518H32.9082V24.6011H32.1388V25.3618H31.396V24.6045H29.1312V23.8505H23.8487Z" fill="#8F8F8F"/>
    <path d="M29.8867 24.6045H31.3989V26.1125H30.6461V25.3518H29.8867V24.6045Z" fill="#A6A6A6"/>
    <path d="M32.1412 25.3618H31.3984V26.1141H32.1412V25.3618ZM32.9106 25.3518H37.4237V26.1175H36.6659V26.8715H35.1838V26.1141H32.9106V25.3518Z" fill="#B6B6B6"/>
    <path d="M37.4221 24.6045H36.6777V25.3535H37.4221V24.6045Z" fill="#A6A6A6"/>
    <path d="M37.4221 23.8489H36.6777V24.6062H37.4221V23.8489Z" fill="#8F8F8F"/>
    <path d="M37.4239 23.8488V22.3358H35.1673V21.6035H34.4113V20.8278H32.163V21.6035H27.6216V20.8278H26.1095V20.0771H25.3601V20.8128H24.5957V23.0748H29.8865V23.8421H31.3987V23.1031H34.4013V24.6044H36.6795V23.8488H37.4239Z" fill="#868686"/>
    <path d="M37.4219 23.8489V22.3359H38.1896V23.8423L37.4219 23.8489Z" fill="#A6A6A6"/>
    <path d="M38.1934 22.3359V21.5852H38.9444V22.3409H39.6972V23.0915H40.4549V23.8489H38.1934V22.3359Z" fill="white"/>
    <path d="M42.7188 22.3358V21.5701H44.2276V19.3381H44.967V20.8361H45.7513V22.3358H46.4841V23.0998H45.738L45.7414 24.6044H44.2259V23.0797H42.7188V22.3358Z" fill="#CACACA"/>
    <path d="M42.717 28.3796H41.9609V29.881H42.717V28.3796Z" fill="#EAEAEA"/>
    <path d="M43.4665 27.6221H42.7188V28.3811H43.4682V27.6221H43.4665Z" fill="#EAEAEA"/>
    <path d="M43.4665 27.622V26.873H44.2276V29.1417H43.4665V29.8807H42.7188V28.3794H43.4682V27.622H43.4665Z" fill="#DFDFDF"/>
    <path d="M44.2266 25.3619V26.8733H45.742V26.1176H44.9676V25.3569L44.2266 25.3619Z" fill="#D4D4D4"/>
    <path d="M45.7422 26.1158V25.3618H47.2443V26.8731H45.7422V26.1175V26.1158Z" fill="#CACACA"/>
    <path d="M45.7431 25.3569H44.9688V26.1193H45.7431V25.3569Z" fill="#E6E6E6"/>
    <path d="M44.2266 24.6045V25.3618H45.742V24.6045H44.2266Z" fill="#959595"/>
    <path d="M44.9718 29.8808V30.6265H44.2274V31.3971H43.4663V32.9151H42.7186V33.6608H41.2031V32.9151H41.9625V29.8792H42.7186V30.6265H43.468V29.8808H44.9718Z" fill="#DFDFDF"/>
    <path d="M43.4665 29.8809H42.7188V30.6282H43.4682V29.8809H43.4665Z" fill="#EAEAEA"/>
    <path d="M45.7437 29.1401H44.9727V29.8808H45.742L45.7437 29.1401Z" fill="#DFDFDF"/>
    <path d="M45.7437 28.3796H44.9727V29.1403H45.742L45.7437 28.3796Z" fill="#959595"/>
    <path d="M46.4931 27.6221V32.915H45.742V32.151H44.2266V31.397H44.9726V30.6264H45.742V27.6221H46.4931Z" fill="#CACACA"/>
    <path d="M45.7437 29.8809H44.9727V30.6282H45.742L45.7437 29.8809Z" fill="#EAEAEA"/>
    <path d="M44.9723 30.6265H44.2279V31.3988H44.9739L44.9723 30.6265ZM44.2279 31.3988L43.4668 31.3971V32.1528H44.2279V31.3988Z" fill="white"/>
    <path d="M45.7411 32.1511V32.9151H44.97V33.6608H43.4629V32.9151H44.224V32.1511H45.7411Z" fill="#DFDFDF"/>
    <path d="M44.2279 32.1511H43.4668V32.9168H44.2279V32.1511Z" fill="#EAEAEA"/>
    <path d="M43.4665 32.915H42.7188V33.6624H43.4682V32.915H43.4665Z" fill="white"/>
    <path d="M45.743 32.915V35.157H42.7188V33.6607H44.9736V32.915H45.743Z" fill="#DFDFDF"/>
    <path d="M45.7427 32.915V34.4164H43.4662V33.6607H44.9733V32.915H45.7427ZM44.9717 35.157V37.434H44.2306V38.9436H43.4662V39.6993H42.7168V41.2073H41.9607V41.963H41.198V42.7169H39.6875V41.9596H40.4352V38.937H41.2063V38.1897H42.7168V37.4223H41.969V36.6667H42.7168V35.926H43.4662V35.157H44.9717Z" fill="#CACACA"/>
    <path d="M42.7151 35.9243H41.9657V36.6666H42.7151V35.9243ZM41.2063 38.1896H40.4336V38.9386H41.2046V38.1896H41.2063Z" fill="#EAEAEA"/>
    <path d="M45.7343 36.6667H44.9732V37.4358H45.7343V36.6667ZM44.9716 37.4341H44.2305V38.9437H44.9732V37.4358L44.9716 37.4341Z" fill="#7F7F7F"/>
    <path d="M44.2299 38.9436V39.6993H43.4655V38.9436H44.2315H44.2299ZM43.4655 39.6993H42.7161V41.2073H43.4655V39.6993ZM41.9617 41.9629H41.1973V42.7186H41.9617V41.9629ZM42.7161 41.2073V41.9646L41.9617 41.9629V41.2089L42.7161 41.2073Z" fill="#7F7F7F"/>
    <path d="M33.6468 40.45V41.2039H32.9023V40.4533L33.6468 40.45Z" fill="#D1D1D1"/>
    <path d="M39.6873 41.9598V42.7171H36.683V41.2025H35.9336V40.4535C35.9336 40.4535 39.7039 40.4702 39.689 40.4535C39.6723 40.4385 39.6873 41.9598 39.6873 41.9598Z" fill="#DFDFDF"/>
    <path d="M38.9347 41.209H38.1836V43.4776H38.933L38.9347 41.209Z" fill="#EAEAEA"/>
    <path d="M35.934 41.2024H35.168V41.9647H35.934V41.2024ZM35.934 42.7171H35.168V43.4777H35.934V42.7171ZM36.6684 43.4777H35.934L35.9357 44.9857H36.6684V43.4777Z" fill="#DFDFDF"/>
    <path d="M38.184 43.4778H37.418V44.2334H38.184V43.4778Z" fill="#EAEAEA"/>
    <path d="M38.9441 21.5868V22.3408H39.6969V23.0914H41.2057V22.3358H42.7195V21.5701H44.2266V20.0771H42.7195V20.8394H41.9634V21.5868H39.6869V20.8278H38.9441V19.3381H38.1914V21.5868H38.9441Z" fill="#8F8F8F"/>
    <path d="M38.9423 19.3381H40.4528V18.5708H41.2072V19.3381H43.4538V20.0771H42.7177V20.8395H41.9616V21.5868H39.6851V20.8278H38.9423V19.3381ZM38.1913 21.5868H37.4219V22.3374H38.1896L38.1913 21.5868Z" fill="#868686"/>
    <path d="M32.9023 20.8278V20.0771H35.1789V20.8278H35.9349V21.5868H37.4221V22.3358H35.1656V21.6035H34.4095V20.8278H32.9023Z" fill="#8F8F8F"/>
    <path d="M32.9023 20.0772V19.3215L37.4221 19.3382V21.5868H35.9349V20.8279H35.1789V20.0772H32.9023Z" fill="#959595"/>
    <path d="M37.4221 20.0789H36.6777V20.8295H37.4221V20.0789Z" fill="#868686"/>
    <path d="M38.9434 18.5727V19.34H39.6911V18.5693L38.9434 18.5727Z" fill="#D4D4D4"/>
    <path d="M43.4682 17.8135H42.7188V18.5725H43.4682V17.8135Z" fill="#CACACA"/>
    <path d="M38.9423 17.063V18.5726H38.1896V19.3383H37.4219V17.063H38.9423Z" fill="#EAEAEA"/>
    <path d="M39.7028 17.0629H38.9434V17.8253H39.7028V17.0629Z" fill="#D1D1D1"/>
    <path d="M23.0879 23.0949V23.8505H22.3318V25.3618H20.8114V24.6045H21.5674V23.8505H20.0736V22.3409H19.3242V20.8279H20.8297V21.6052H21.5691V22.3409H22.3435V23.0949H23.0879Z" fill="#EAEAEA"/>
    <path d="M23.8487 23.0933H23.0859V23.8523H23.8487V23.0933Z" fill="#B6B6B6"/>
    <path d="M21.5686 23.8506H20.8125V24.6062H21.5686V23.8506Z" fill="#919191"/>
    <path d="M17.8113 22.3408V23.0948H17.0552L17.0635 23.8505H16.3008V23.0965H17.0552V22.3425L17.8113 22.3408Z" fill="#959595"/>
    <path d="M20.812 23.8506H20.0859V24.6062H20.812V23.8506Z" fill="#7F7F7F"/>
    <path d="M20.812 24.6045V26.1141H20.0859V25.3635H19.3198V24.6128H17.821V25.3568H17.065L17.0566 23.0948H18.5688V22.3408H20.0842V24.6045H20.812Z" fill="#919191"/>
    <path d="M19.3213 23.8506H18.5586V24.6146H19.3213V23.8506Z" fill="#D1D1D1"/>
    <path d="M17.0635 26.1142H16.3008V26.8799H17.0635V26.1125V26.1142Z" fill="#C9C9C9"/>
    <path d="M32.9047 18.5693H32.1387V19.3233H32.9047V18.5693Z" fill="#D4D4D4"/>
    <path d="M32.9028 19.3215H31.3906V20.0789H32.9044L32.9028 19.3215Z" fill="#EAEAEA"/>
    <path d="M11.0154 25.3619V26.8716H11.7481V28.3862H11.0187V29.1335H10.2793V23.8506H12.5275V25.3619H11.0154ZM14.0347 29.1335H11.0187L11.0204 30.6432H14.0347V29.1335Z" fill="#D4D4D4"/>
    <path d="M14.0327 28.3795H13.2949V29.1351H14.031L14.0327 28.3795ZM16.3009 24.6145V26.8781H15.5431V27.6121H14.7854V28.3695L14.0327 28.3795V26.8681H14.7871V25.3618H15.5398V24.6145H16.3009Z" fill="#919191"/>
    <path d="M14.7896 25.3618H14.0352V26.1141H14.7896V25.3618Z" fill="#7F7F7F"/>
    <path d="M12.5272 26.8781V27.6171H13.2966V29.1334H11.0167V28.3861H11.7445V26.8715H11.0117V25.3618H12.5272V26.1125H13.2966V26.8781H12.5272Z" fill="#EAEAEA"/>
    <path d="M16.3033 23.095V24.613H15.5422V25.362H14.0351V26.1126H14.7895V26.8683H14.0351V28.3796H13.2973V27.6173H12.5312V26.8783H13.3006V26.1143H12.5312V25.362H13.3006V23.8506H14.0367V23.0966H16.3049L16.3033 23.095Z" fill="#D4D4D4"/>
    <path d="M9.50997 21.5852H8.75391V23.8505H9.50997V21.5852Z" fill="white"/>
    <path d="M11.0154 22.3408H10.2793V23.8505H11.0137L11.0154 22.3408Z" fill="#959595"/>
    <path d="M12.5272 19.3184V21.587H11.7695V23.8507H11.0117V20.828H11.7661V19.32L12.5272 19.3184ZM16.3009 23.095H15.5381V21.6037H17.8113V22.341H17.0553V23.095H16.3009Z" fill="#D4D4D4"/>
    <path d="M15.5385 22.3408H14.7891V23.0948H15.5385V22.3408Z" fill="#EAEAEA"/>
    <path d="M25.3531 15.5533V16.304H24.6037V17.0613H23.0883V17.812H22.3389V18.566H19.3196V19.3267H18.5668V20.0773H17.8058V20.828H16.3036V21.607H15.5409V22.3426H14.7915V23.0966H13.291V21.587H14.0504V20.828H14.7898V20.0756H15.5559V19.325H16.2986V18.5593H18.5552V17.7986H19.3246V17.0647H20.8284V16.2957H21.5894V15.5433H22.3339V14.791H23.8543V15.5517L25.3531 15.5533Z" fill="#909090"/>
    <path d="M14.0311 23.0965V23.8505H13.2933V25.3618H12.5273V23.8505H11.7695V21.5852H13.2883V23.0949H14.0327L14.0311 23.0965Z" fill="#EAEAEA"/>
    <path d="M17.0593 17.8135V18.5608H16.2983V19.3215H15.5555V20.0721H14.7895V20.8278H14.05V21.5868H12.5312V20.8278H13.2923V20.0771H14.0384V18.5875H14.7945V17.8151L17.0593 17.8135Z" fill="#9E9E9E"/>
    <path d="M21.5901 14.7926V16.2972H20.8274V17.0646H19.3253V17.8002H18.5559V18.5609H17.0604V17.8135H15.5449V17.0512H16.301V16.3039H17.0604V15.5499H18.5592V14.7926H19.3236V14.0486H20.8307V14.7926H21.5901Z" fill="#868686"/>
    <path d="M19.3233 14.0486V14.7926H18.5589V15.5499H17.0601V16.3039H16.3007V17.0512H15.5463V17.8135H14.7969V16.3039H15.5463V15.5499H16.2907V14.7926H17.0617V14.0486H19.3233Z" fill="#A6A6A6"/>
    <path d="M19.3225 13.2947H18.5664V14.0503H19.3225V13.2947Z" fill="#909090"/>
    <path d="M22.3456 14.7926H21.5879V15.5466H22.3456V14.7926ZM23.1 14.0486H22.3456V14.7926H23.1V14.0486Z" fill="#9E9E9E"/>
    <path d="M23.854 14.0486V14.7959L23.0996 14.7926V14.0486H23.8523H23.854Z" fill="#868686"/>
    <path d="M24.6028 13.2931V14.7927H23.8534V14.0487H22.3446V14.7927H20.8275V14.0487H19.3203V13.2947H20.0764V12.5391H23.8467V13.2931H24.6028Z" fill="#B6B6B6"/>
    <path d="M23.8535 14.7926V15.5532H25.3523V14.0486H24.6029V14.7926H23.8535Z" fill="#868686"/>
    <path d="M18.5673 22.3409V20.8279H19.3217V19.325H18.564V20.0756H17.8029V20.8263H16.3008V21.6053H17.8113V22.3409H18.5673Z" fill="#EAEAEA"/>
    <path d="M18.5686 22.3408H17.8125V23.0948H18.5686V22.3408Z" fill="#7F7F7F"/>
    <path d="M19.3208 20.8279H18.5664V22.3409H19.3208V20.8279Z" fill="#D1D1D1"/>
    <path d="M19.3164 18.5658L19.3231 20.8278H20.8285V21.6051H21.568V22.3408H22.3423V23.0948H23.0884V20.0771H24.5956V19.3248H23.8528V18.5658H23.0868V17.8135H22.3407V18.5658H19.3164Z" fill="#D4D4D4"/>
    <path d="M20.0723 19.3266H20.8283V18.5676H20.0723V19.3266Z" fill="white"/>
    <path d="M23.0903 22.3408V21.5835H22.3359V22.3425L23.0903 22.3408Z" fill="#E6E6E6"/>
    <path d="M23.842 21.5835H23.0859V22.3408H23.842V21.5835Z" fill="#B6B6B6"/>
    <path d="M23.842 20.0771H23.0859V20.8278H23.842V20.0771Z" fill="#E6E6E6"/>
    <path d="M23.842 20.8279H23.0859V21.5852H23.842V20.8279Z" fill="#B2B2B2"/>
    <path d="M23.8418 21.5836V20.0773H24.5929V19.325H26.8611V20.0773H25.3573V20.8129H24.5929V21.5836H23.8418Z" fill="#A6A6A6"/>
    <path d="M23.852 17.0613H23.0859V18.5659H23.852V17.0613ZM28.3767 17.8136V18.5659H27.6273V19.3266H23.852V18.5659L26.1152 18.5676V17.8153H28.3801L28.3767 17.8136Z" fill="#EAEAEA"/>
    <path d="M26.1074 20.0773H28.3773V19.325H29.1317V20.8263H30.6372V21.6036H27.6196V20.8279H26.1074V20.0773Z" fill="#8F8F8F"/>
    <path d="M26.8652 20.0772V19.3249H27.6313V18.5659H29.8878V20.0772H29.1351V19.3249H28.3807V20.0772H26.8652Z" fill="#B6B6B6"/>
    <path d="M32.1604 21.6035V20.8278H32.9048V20.0771H31.3994V20.8412H30.6383V20.0771H29.1328V20.8278L30.6383 20.8412V21.6035H32.1604Z" fill="#A6A6A6"/>
    <path d="M31.3922 19.3215H29.8867V20.0789H31.3939V19.3215H31.3922Z" fill="#E6E6E6"/>
    <path d="M31.3961 20.0771H30.6367V20.8412H31.3961V20.0771Z" fill="#EAEAEA"/>
    <path d="M27.6119 17.0613L27.6053 17.8119H26.1148V18.5659H23.8516V17.0613H27.6119Z" fill="#D4D4D4"/>
    <path d="M27.6143 16.3022H26.1172V17.0612H27.6143V16.3022ZM27.6143 17.0612H28.3804V17.8152H27.6077L27.6143 17.0612ZM29.1348 17.8136L28.3804 17.8152V18.5676H29.1348V17.8136Z" fill="#D1D1D1"/>
    <path d="M29.8822 17.8135H29.1328V18.5675H29.8822V17.8135Z" fill="#EAEAEA"/>
    <path d="M29.8809 17.8135V19.3215H31.393V18.5658H30.6386V17.8135H29.8809Z" fill="#D4D4D4"/>
    <path d="M30.6367 17.8135H32.1355V19.3215H31.3911V18.5658H30.6367V17.8135Z" fill="#E6E6E6"/>
    <path d="M30.6384 16.3088H31.3861V17.0628H32.1355V17.8135H33.6593V18.5691H32.1355V17.8135H31.3861V17.0628H30.6367L30.6384 16.3088Z" fill="#909090"/>
    <path d="M31.3878 17.063H30.6367V17.8136H31.3861L31.3878 17.063Z" fill="#D4D4D4"/>
    <path d="M24.6037 12.5391H23.8477V13.2947H24.6021V12.5391H24.6037ZM36.6825 13.2931V14.7944H35.9148V14.0437H34.4093V13.2931H32.9055V14.0437H32.1527V14.7827H31.39V15.5417H30.6373V17.8137H29.8812V17.058H29.1318V17.812H28.3791V17.0597H27.613V16.3007H26.1159V17.0597H24.6037V16.3007H25.3531V15.5434H26.1025V14.7994H25.3531V14.0487H24.6037V13.2914H26.1092V12.5374H26.8719V11.7717H27.6147V12.5374H28.3841V13.2914H27.6147V14.042H26.8653V15.5417H28.3774V14.791H29.1335V14.0404H30.6423V13.2831H31.3917V12.5324H32.9072V11.7717H34.416V12.5274H35.1687V13.2914H36.6842L36.6825 13.2931Z" fill="#EAEAEA"/>
    <path d="M29.8796 17.058H29.1302V17.8137H29.8796V17.058ZM26.101 14.801H25.3516V15.5467H26.101V14.801Z" fill="#D1D1D1"/>
    <path d="M36.6794 18.5694V17.8137H37.4238V16.3074H36.6828V15.54H33.6602V16.3007H35.1556V17.063H35.915V18.5694H36.6794Z" fill="#909090"/>
    <path d="M33.6604 13.293H32.9043V14.0436H33.6604V13.293Z" fill="#C5C5C5"/>
    <path d="M34.4096 13.293H33.6602V14.0436H34.4096V13.293Z" fill="#CDCDCD"/>
    <path d="M35.1686 14.042V14.7943L32.1543 14.7843V14.042H35.1686Z" fill="#B6B6B6"/>
    <path d="M33.6602 14.7826V15.54H35.915V14.042H35.169V14.7926L33.6602 14.7826Z" fill="#9E9E9E"/>
    <path d="M36.6818 14.7942H35.9141V15.5415H36.6818V14.7942Z" fill="#C5C5C5"/>
    <path d="M38.9451 16.3007V17.063H37.4247V16.3074H36.6836V15.54H38.1857V16.3007H38.9451Z" fill="#D1D1D1"/>
    <path d="M29.1324 14.0435V14.7941H28.3764L28.373 14.0435H29.1324Z" fill="#D4D4D4"/>
    <path d="M35.175 10.2703V11.036H32.9068V12.5323H31.393V13.2829H30.6436V14.0436H29.1348L29.1415 13.293H29.8876V12.539H30.6436V11.016H29.1315V10.2703H27.621V11.026H22.3535V10.2686H23.864V9.51465H32.9085V10.2703H35.175ZM28.3787 14.7926H27.6127V15.5533H28.3787V14.7926Z" fill="#D4D4D4"/>
    <path d="M30.6419 11.0159V12.5389H29.8859V13.2929H29.1398V14.0435H28.3787V14.7942H27.6127V15.5532H26.8666V14.0435H27.616V13.2929H28.3821V12.5389H27.616V11.7732H26.1172V11.0259H27.6193V10.2686H29.1298V11.0142L30.6419 11.0159Z" fill="#DFDFDF"/>
    <path d="M29.1258 11.7732H28.3848V12.5405H29.1258V11.7732Z" fill="#EAEAEA"/>
    <path d="M40.4733 14.0421V14.7944H36.6813C36.6547 14.7944 36.6813 13.2931 36.6813 13.2931H35.1658V12.5291H34.4164V11.7734H32.9043V11.0361H35.1725V11.7734H35.9136V12.5391H38.1901V14.0421H40.4733Z" fill="#DFDFDF"/>
    <path d="M41.9605 17.0595V17.0628H38.9412V16.3005H38.1818V15.5398H36.6797V14.7942H40.4734V15.5398H41.2011V17.0595H41.9605Z" fill="#EAEAEA"/>
    <path d="M48.0003 24.5978V32.1527H47.2443V34.4147H46.5032V35.926H45.7338V36.6667H44.9727V35.157H45.7421V32.9151H46.4915V26.8731H47.2443V25.3618H45.7421L45.7371 23.0998H46.4815V22.3358H45.7504V20.8362H44.9677V19.3382H44.2266V18.5708H43.4689V17.8135H41.9618V17.0579H41.2024V15.5399H40.4746V12.5322H41.2174V13.2829H41.9601V14.0385L42.7128 14.0402V14.7942H43.4656V16.2905H44.2383V17.0579H44.9844L44.9877 18.5558H45.7338V20.0521H46.5032V21.5918H47.2309V24.5978H48.0003Z" fill="#E6E6E6"/>
    <path d="M44.2279 26.873V29.1417H43.4668V29.8807H44.9739V28.3794H45.7433V27.622H46.4927V26.873H44.2279Z" fill="#EAEAEA"/>
    <path d="M35.1738 11.0361H36.6826V11.7734H37.4121V12.5391H35.9132V11.7734H35.1738V11.0361ZM38.1931 12.5391H38.9309V13.2931H40.4746V14.0438H38.1931V12.5391Z" fill="#D4D4D4"/>
    <path d="M40.4755 12.5323V13.293H38.9318V12.539H37.413V11.7733H36.6835V11.036H35.1747V10.2687H32.9099V9.51466H29.8873V8.74732H26.1169V9.51466H23.8637V10.2703H22.3532V11.026H21.6038V11.7733H19.3223V12.539H17.8351V13.293H16.3113V14.0486H15.5453V14.7926H14.7925V15.5433H14.0298V17.0496H12.531V18.5609H11.7733V20.8279H11.0155V22.3409H10.2811V23.8505H9.51172V20.0772H10.2645V18.5692H11.0172V17.0579H11.7766V16.3073H12.526V14.7893H13.2837V14.0386H14.0348V13.2796H14.7909V12.529H16.3063V11.7766H17.0574V11.0126H18.5679V10.2687H20.075V9.51132H21.5855V8.75733H23.8504V8H32.1488V8.75566H34.4137V9.50965H36.6785V10.2653H37.4329V11.0193H38.9418L38.9384 11.7733H39.6962V12.529H40.4739L40.4755 12.5323Z" fill="#E6E6E6"/>
    <path d="M23.8516 11.0261V11.7734H22.3495V12.5391H20.0746V13.2947H18.5625V14.0487H17.057V14.7927H16.286V15.55H15.5415V16.304H14.7921V18.586H14.0344V20.0773H13.2883V20.828H12.5273V19.3183H11.7695V18.5593H12.5273V17.048H14.0261V15.5434H14.7921V14.791H15.5415V14.0471H16.3076V13.2914H17.8331V12.5374H19.3202V11.7717H21.6017V11.0244H23.8516V11.0261Z" fill="#EAEAEA"/>
</svg>
