<svg width="34" height="34" viewBox="0 0 34 34" fill="none" xmlns="http://www.w3.org/2000/svg">
<rect width="34" height="34" rx="17" fill="#37344D"/>
<path d="M18.7047 18.038C18.5491 18.3003 18.3357 18.5236 18.0807 18.6908C17.8256 18.858 17.5358 18.9647 17.2332 19.0027C16.9306 19.0407 16.6234 19.0091 16.3349 18.9102C16.0464 18.8114 15.7844 18.6479 15.5687 18.4322C15.3531 18.2166 15.1896 17.9545 15.0907 17.6661C14.9919 17.3776 14.9603 17.0703 14.9983 16.7678C15.0363 16.4652 15.143 16.1753 15.3102 15.9203C15.4774 15.6653 15.7006 15.4518 15.9629 15.2963M20.996 20.3294C19.8467 21.2012 18.4426 21.6711 17 21.6667C15.828 21.6875 14.6735 21.3811 13.6661 20.7819C12.6587 20.1827 11.8384 19.3144 11.2973 18.2747C11.1017 17.8782 11 17.4421 11 17C11 16.5579 11.1017 16.1218 11.2973 15.7253C11.8493 14.6262 12.7291 13.7257 13.8151 13.1485M22.6158 18.4224C22.6426 18.3717 22.6774 18.3263 22.7027 18.2747C22.8983 17.8782 23 17.4421 23 17C23 16.5579 22.8983 16.1218 22.7027 15.7253C22.1616 14.6855 21.3413 13.8173 20.3339 13.2181C19.3265 12.6188 18.1719 12.3125 17 12.3333C16.8501 12.3333 16.7045 12.3533 16.5565 12.3631M23 22.3333L11.6667 11" stroke="#D4C4ED" stroke-width="1.6" stroke-linecap="round" stroke-linejoin="round"/>
</svg>
