<svg width="24" height="24" viewBox="0 0 24 24" fill="currentColor" xmlns="http://www.w3.org/2000/svg">
<g opacity="1">
<path fill-rule="evenodd" clip-rule="evenodd" d="M11.9998 21.9999C17.5228 21.9999 21.9998 17.5239 21.9998 11.9999C21.9998 6.47788 17.5228 1.99988 11.9998 1.99988C6.47679 1.99988 1.99979 6.47788 1.99979 11.9999C1.99979 17.5239 6.47679 21.9999 11.9998 21.9999ZM15.1897 15.7094C15.3107 15.7804 15.4427 15.8144 15.5737 15.8144C15.8287 15.8144 16.0777 15.6834 16.2187 15.4484C16.4307 15.0924 16.3137 14.6324 15.9587 14.4194L12.3987 12.2964V7.67542C12.3987 7.26142 12.0627 6.92542 11.6487 6.92542C11.2347 6.92542 10.8987 7.26142 10.8987 7.67542V12.7224C10.8987 12.9864 11.0377 13.2314 11.2637 13.3674L15.1897 15.7094Z"/>
</g>
</svg>
