<svg width="40" height="40" viewBox="0 0 40 40" fill="none" xmlns="http://www.w3.org/2000/svg">
    <circle cx="20" cy="20" r="20" fill="#504D65"/>
    <path d="M24.6285 13.3184C25.9937 13.3184 27.0992 14.4239 27.0992 15.7879C27.0992 17.1518 25.9937 18.2586 24.6285 18.2586C23.2646 18.2586 22.159 17.1518 22.159 15.7879C22.159 14.4239 23.2646 13.3184 24.6285 13.3184ZM16.4902 17.2062C16.6336 17.2062 16.764 17.2643 16.8583 17.3573L20.8646 21.3663L22.6586 19.5711C22.7529 19.4626 22.8924 19.3928 23.0473 19.3928H23.0525L23.0538 19.3915H23.0564V19.3902C23.1998 19.3902 23.3302 19.4484 23.4245 19.5413L27.9631 24.0838C28.0522 24.1781 28.1078 24.306 28.1078 24.4468V26.7652C28.1078 27.0558 27.8714 27.2921 27.5795 27.2934L12.4201 27.2921C12.2806 27.2921 12.1463 27.2366 12.0468 27.1384C11.9486 27.039 11.8918 26.9046 11.8918 26.7652L11.8944 21.7967C11.897 21.6559 11.9538 21.528 12.0455 21.4351L16.0906 17.3885C16.1862 17.28 16.3244 17.2103 16.4794 17.2103H16.4807L16.4846 17.209H16.4897L16.4902 17.2062ZM28.4165 11H11.5835C10.7117 11 10.0052 11.7 10 12.5719V27.6357C10.0052 28.5075 10.7117 29.2075 11.5835 29.2088H28.4165C29.2883 29.2075 29.9948 28.5075 30 27.6357V12.5719C29.9948 11.7 29.2883 11 28.4165 11Z" fill="#9594AA"/>
</svg>
