<svg width="20" height="16" viewBox="0 0 20 16" fill="none" xmlns="http://www.w3.org/2000/svg">
<path d="M18.1233 2.53774C18.1233 2.51405 18.0996 2.51405 18.0996 2.49019C17.4583 1.18374 16.1518 0.399902 14.7031 0.399902L5.29699 0.400068C3.84807 0.400068 2.54162 1.20762 1.90042 2.49035C1.90042 2.51405 1.87673 2.51405 1.87673 2.53791L0.0951045 6.59955C0.0475523 6.71834 0.000165686 6.86083 0.000165686 7.00332L0 11.8014C0 13.8917 1.7102 15.6019 3.80053 15.6019H16.1995C18.2898 15.6019 20 13.8917 20 11.8014V7.00332C20 6.86083 19.9763 6.71834 19.9051 6.59955L18.1233 2.53774ZM3.61039 3.34529C3.94292 2.70393 4.5843 2.32401 5.29693 2.32401H14.703C15.4156 2.32401 16.057 2.72778 16.3896 3.34529L17.5772 6.05311H13.8716C13.4203 6.05311 13.0402 6.36195 12.9453 6.81328C12.9216 6.90822 12.4227 9.28349 9.99989 9.28349C7.64832 9.28349 7.10205 7.07456 7.0545 6.81328C6.95956 6.36194 6.57949 6.05311 6.12815 6.05311H2.39905L3.61039 3.34529ZM18.0996 11.8013C18.0996 12.8464 17.2445 13.7015 16.1993 13.7015L3.80037 13.7014C2.75521 13.7014 1.90011 12.8463 1.90011 11.8011V7.95321H5.41548C5.96192 9.35475 7.33958 11.1836 9.99976 11.1836C12.6599 11.1836 14.0377 9.35458 14.584 7.95321H18.0994L18.0996 11.8013Z" fill="#E5E4FA"/>
</svg>
