<svg width="40" height="40" viewBox="0 0 40 40" fill="none" xmlns="http://www.w3.org/2000/svg">
    <g clip-path="url(#clip0_23313_83152)">
        <mask id="mask0_23313_83152" style="mask-type:luminance" maskUnits="userSpaceOnUse" x="0" y="0" width="40" height="40">
            <path d="M39.1336 0.600098H0V39.388H39.1336V0.600098Z" fill="white"/>
        </mask>
        <g mask="url(#mask0_23313_83152)">
            <g filter="url(#filter0_d_23313_83152)">
                <path d="M3.74609 31.105C5.3848 33.3844 7.48681 35.2915 9.91429 36.7016C12.3418 38.1115 15.0399 38.9925 17.8317 39.2867C16.3954 37.1252 14.3075 35.1367 11.701 33.6228C9.09451 32.1089 6.33419 31.2818 3.74609 31.105Z" fill="url(#paint0_linear_23313_83152)"/>
                <path d="M15.2033 27.5946C10.1817 24.6772 4.74646 23.9336 0.857422 25.2471C1.23286 26.4879 1.728 27.6894 2.33587 28.8345C5.71478 28.7562 9.40396 29.6739 12.8367 31.6677C16.2696 33.6615 18.8952 36.4133 20.5018 39.3879C21.7983 39.3482 23.088 39.183 24.3527 38.8948C23.5664 34.8665 20.2238 30.5127 15.2033 27.5946Z" fill="url(#paint1_linear_23313_83152)"/>
                <path d="M39.1338 15.7527C38.4954 13.1557 37.3401 10.7141 35.7371 8.57348C34.134 6.43289 32.1161 4.63727 29.8037 3.29386C27.4914 1.95044 24.932 1.08677 22.2785 0.754412C19.625 0.422055 16.9316 0.627831 14.3594 1.35945C18.6566 1.88535 23.4265 3.49855 28.1043 6.21615C32.7823 8.93373 36.5497 12.2778 39.1338 15.7527Z" fill="url(#paint2_linear_23313_83152)"/>
                <path d="M32.8828 25.2769C30.6831 21.6239 26.9151 18.1259 22.2733 15.4295C17.6316 12.7329 12.7276 11.1926 8.46847 11.0907C4.72143 11.002 1.90918 12.0912 0.754823 14.0786C0.748249 14.0903 0.739046 14.1015 0.731814 14.1133C0.627949 14.4861 0.538546 14.8594 0.457031 15.2342C2.06892 14.5978 3.93652 14.2435 6.01318 14.204C10.6312 14.1173 15.7995 15.5944 20.5688 18.3652C25.338 21.1361 29.1843 24.8956 31.3957 28.949C32.3871 30.7752 33.0057 32.5731 33.2509 34.2908C33.5362 34.0358 33.8162 33.7721 34.0877 33.4981C34.095 33.4856 34.0996 33.4724 34.1068 33.4593C35.2612 31.4701 34.8148 28.4881 32.8828 25.2769Z" fill="url(#paint3_linear_23313_83152)"/>
                <path d="M18.7405 21.5074C11.6323 17.3778 3.77729 16.7309 0 19.6129C0.00741935 20.5149 0.0763838 21.4154 0.206415 22.3081C1.31756 21.9713 2.46275 21.7592 3.62082 21.6758C7.84184 21.3582 12.4954 22.5343 16.7184 24.9889C20.9413 27.4435 24.2703 30.9053 26.0859 34.7266C26.5879 35.7735 26.9707 36.8733 27.2272 38.0056C28.0673 37.6763 28.8841 37.2903 29.672 36.8506C30.3044 32.1411 25.8507 25.6377 18.7405 21.5074Z" fill="url(#paint4_linear_23313_83152)"/>
                <path d="M36.5381 19.1625C34.3136 15.5134 30.5126 12.0057 25.838 9.29135C21.1634 6.57704 16.2403 5.01249 11.9674 4.88692C8.71009 4.79292 6.18709 5.58243 4.87891 7.07401C10.3108 6.15369 17.4755 7.7005 24.42 11.7348C31.3646 15.7692 36.2594 21.228 38.1488 26.4021C38.7963 24.528 38.2329 21.9452 36.5381 19.1625Z" fill="url(#paint5_linear_23313_83152)"/>
            </g>
        </g>
    </g>
    <defs>
        <filter id="filter0_d_23313_83152" x="-22.7448" y="-19.8702" width="84.6244" height="84.2774" filterUnits="userSpaceOnUse" color-interpolation-filters="sRGB">
            <feFlood flood-opacity="0" result="BackgroundImageFix"/>
            <feColorMatrix in="SourceAlpha" type="matrix" values="0 0 0 0 0 0 0 0 0 0 0 0 0 0 0 0 0 0 127 0" result="hardAlpha"/>
            <feOffset dy="2.27449"/>
            <feGaussianBlur stdDeviation="11.3724"/>
            <feComposite in2="hardAlpha" operator="out"/>
            <feColorMatrix type="matrix" values="0 0 0 0 0 0 0 0 0 0 0 0 0 0 0 0 0 0 0.1 0"/>
            <feBlend mode="normal" in2="BackgroundImageFix" result="effect1_dropShadow_23313_83152"/>
            <feBlend mode="normal" in="SourceGraphic" in2="effect1_dropShadow_23313_83152" result="shape"/>
        </filter>
        <linearGradient id="paint0_linear_23313_83152" x1="26.0603" y1="8.4788" x2="8.08055" y2="39.3879" gradientUnits="userSpaceOnUse">
            <stop offset="0.0001" stop-color="#C7F284"/>
            <stop offset="1" stop-color="#00BEF0"/>
        </linearGradient>
        <linearGradient id="paint1_linear_23313_83152" x1="26.0603" y1="8.47885" x2="8.08046" y2="39.3879" gradientUnits="userSpaceOnUse">
            <stop offset="0.0001" stop-color="#C7F284"/>
            <stop offset="1" stop-color="#00BEF0"/>
        </linearGradient>
        <linearGradient id="paint2_linear_23313_83152" x1="26.0608" y1="8.47889" x2="8.08103" y2="39.388" gradientUnits="userSpaceOnUse">
            <stop offset="0.0001" stop-color="#C7F284"/>
            <stop offset="1" stop-color="#00BEF0"/>
        </linearGradient>
        <linearGradient id="paint3_linear_23313_83152" x1="26.062" y1="8.47892" x2="8.08224" y2="39.388" gradientUnits="userSpaceOnUse">
            <stop offset="0.0001" stop-color="#C7F284"/>
            <stop offset="1" stop-color="#00BEF0"/>
        </linearGradient>
        <linearGradient id="paint4_linear_23313_83152" x1="26.0606" y1="8.47892" x2="8.08081" y2="39.388" gradientUnits="userSpaceOnUse">
            <stop offset="0.0001" stop-color="#C7F284"/>
            <stop offset="1" stop-color="#00BEF0"/>
        </linearGradient>
        <linearGradient id="paint5_linear_23313_83152" x1="26.0612" y1="8.47875" x2="8.08145" y2="39.3878" gradientUnits="userSpaceOnUse">
            <stop offset="0.0001" stop-color="#C7F284"/>
            <stop offset="1" stop-color="#00BEF0"/>
        </linearGradient>
        <clipPath id="clip0_23313_83152">
            <rect width="40" height="38.7879" fill="white" transform="translate(0 0.600098)"/>
        </clipPath>
    </defs>
</svg>
