<svg width="56" height="56" fill="none" xmlns="http://www.w3.org/2000/svg">
  <g clip-path="url(#a)">
    <rect width="56" height="56" rx="13" fill="#091326" />
    <path d="m36.326 34.743-11.19-7.404v-6.116a.57.57 0 0 0-.561-.558.57.57 0 0 0-.562.558v13.949c0 .3.26.558.562.558a.57.57 0 0 0 .562-.558V28.67l10.562 6.995a.56.56 0 0 0 .778-.15v-.021a.53.53 0 0 0-.151-.751ZM29.068 25.664l.13.194a.45.45 0 0 0 .604.128l6.524-4.334a.443.443 0 0 0 .13-.601l-.13-.193a.45.45 0 0 0-.605-.13l-6.523 4.336a.439.439 0 0 0-.13.6Z" fill="#fff" />
    <path d="M47.515 40.107a.565.565 0 0 0-.432.215c-4.169 5.665-10.843 8.862-17.885 8.584C18.289 48.476 9.41 39.656 9 28.82c-.216-5.752 1.857-11.181 5.875-15.323 4.018-4.141 9.397-6.438 15.186-6.438 6.696 0 13.047 3.22 17.021 8.606.108.128.26.214.432.214a.537.537 0 0 0 .475-.279.575.575 0 0 0-.043-.558 22.26 22.26 0 0 0-18.512-9.034c-5.702.15-11.081 2.49-15.12 6.567-4.018 4.077-6.286 9.42-6.373 15.107-.086 5.923 2.182 11.524 6.373 15.751A22.078 22.078 0 0 0 30.083 50c7.02 0 13.717-3.37 17.886-9.034a.525.525 0 0 0 .043-.558.55.55 0 0 0-.497-.3Z" fill="url(#b)" />
  </g>
  <defs>
    <radialGradient id="b" cx="0" cy="0" r="1" gradientUnits="userSpaceOnUse" gradientTransform="matrix(26.52399 -37.02305 78.25017 56.05984 21.202 51.864)">
      <stop stop-color="#fff" />
      <stop offset="1" stop-color="#fff" stop-opacity="0" />
    </radialGradient>
    <clipPath id="a">
      <path fill="#fff" d="M0 0h56v56H0z" />
    </clipPath>
  </defs>
</svg>
