<svg width="56" height="56" viewBox="0 0 56 56" fill="none" xmlns="http://www.w3.org/2000/svg">
    <rect width="56" height="56" rx="13" fill="#2D0D3B"/>
    <path d="M36.6245 26.304L38.4906 24.9479C39.4368 24.2643 40 23.1608 40 22.0016V14.441C40 13.096 38.8924 12 37.5332 12H33.9437V17.4504H31.6984V14.597L28 13.1332L24.3016 14.597V18.6616H22.0563V12H18.4668C17.1076 12 16 13.096 16 14.441V22.0053C16 23.1645 16.5632 24.2643 17.5094 24.9516L19.3792 26.3077C19.781 26.5975 20.0175 27.0656 20.0175 27.556V33.3705C20.0175 34.4776 19.5332 35.5254 18.6884 36.2499L17.4268 37.331C16.5181 38.1075 16 39.237 16 40.4222V44H40V40.4222C40 39.2333 39.4781 38.1075 38.5732 37.331L37.3116 36.2499C36.4668 35.5254 35.9825 34.4776 35.9825 33.3705V27.5523C35.9862 27.0619 36.2228 26.5938 36.6245 26.304ZM35.9787 37.7731L37.2403 38.8543C37.6984 39.2481 37.965 39.8203 37.965 40.4222V41.9789H18.0463V40.4222C18.0463 39.8203 18.3091 39.2481 18.771 38.8543L20.0325 37.7731C20.5995 37.2864 21.0576 36.7068 21.3955 36.0641H30.7409C30.8761 36.0641 31.0075 36.0009 31.0939 35.8969L31.5444 35.3396C31.6758 35.1761 31.6758 34.9458 31.5444 34.7823L31.0939 34.225C31.0075 34.121 30.8799 34.0578 30.7409 34.0578H22.015C22.0413 33.8312 22.0563 33.5971 22.0563 33.3668V27.5523C22.0563 26.4191 21.5044 25.3454 20.5845 24.6729L18.7146 23.3168C18.2904 23.0085 18.0388 22.5181 18.0388 21.9979V14.441C18.0388 14.2069 18.2303 14.0174 18.4668 14.0174H20.0175V20.679H26.3404V15.9605L28 15.3029L29.6596 15.9605V19.4678H35.9825V14.0174H37.5332C37.7697 14.0174 37.9612 14.2069 37.9612 14.441V22.0053C37.9612 22.5255 37.7096 23.0159 37.2854 23.3243L35.4155 24.6804C34.4919 25.3491 33.9437 26.4266 33.9437 27.556V33.3705C33.9437 35.061 34.6871 36.666 35.9787 37.7731Z" fill="url(#paint0_linear_6306_54172)"/>
    <defs>
        <linearGradient id="paint0_linear_6306_54172" x1="28.0018" y1="43.9989" x2="28.0018" y2="11.9982" gradientUnits="userSpaceOnUse">
            <stop stop-color="#00FFFF"/>
            <stop offset="1" stop-color="#00F9A9"/>
        </linearGradient>
    </defs>
</svg>
