<svg width="14" height="24" viewBox="0 0 14 24" fill="none" xmlns="http://www.w3.org/2000/svg">
<path d="M6.99962 5.96715e-07C6.07573 0.00449606 5.16178 0.18746 4.30999 0.538475C3.45819 0.889491 2.68523 1.40171 2.03525 2.0458C1.38526 2.68988 0.870991 3.45326 0.521792 4.29233C0.172596 5.1314 -0.00467347 6.02973 9.36531e-05 6.93601V9.22705H5.68726V5.90781C5.68719 5.75193 5.71844 5.59757 5.77921 5.45354C5.83999 5.3095 5.9291 5.17864 6.04145 5.0684C6.1538 4.95817 6.28721 4.87076 6.43402 4.81112C6.58084 4.75147 6.7382 4.7208 6.89711 4.72082H7.10214C7.26106 4.7208 7.41846 4.75148 7.56524 4.81112C7.71209 4.87076 7.84548 4.95817 7.9579 5.0684C8.07025 5.17863 8.15935 5.3095 8.2202 5.45354C8.28097 5.59757 8.31224 5.75192 8.31224 5.90781V14.8058C9.0591 14.8058 9.79867 14.6615 10.4887 14.3812C11.1786 14.1009 11.8056 13.6899 12.3338 13.1719C12.8619 12.6539 13.2807 12.0388 13.5666 11.362C13.8523 10.6852 13.9994 9.95966 13.9994 9.22705V6.93601C14.0035 5.09976 13.2663 3.33659 11.9491 2.03185C11.3028 1.388 10.5324 0.876764 9.68257 0.527928C8.83285 0.179094 7.92082 -0.000377675 6.99962 5.96715e-07Z" fill="white"/>
<path d="M7.10242 19.3099H6.89739C6.73849 19.3099 6.58115 19.2792 6.43436 19.2196C6.28755 19.16 6.15416 19.0726 6.04182 18.9623C5.92946 18.8521 5.84035 18.7213 5.77956 18.5773C5.71877 18.4333 5.6875 18.2789 5.68753 18.1231V9.22516C4.94066 9.22509 4.20109 9.3693 3.51106 9.64961C2.82104 9.92999 2.19408 10.3409 1.66596 10.8589C1.13785 11.377 0.718923 11.992 0.43314 12.6689C0.147355 13.3458 0.000302753 14.0713 0.00036702 14.8039V17.063C-0.00910766 17.9706 0.164947 18.8711 0.512463 19.7123C0.859977 20.5535 1.37406 21.3188 2.02498 21.9639C2.67589 22.6089 3.45073 23.121 4.30467 23.4705C5.15862 23.82 6.07473 24 7.00001 24C7.92531 24 8.84139 23.82 9.69537 23.4705C10.5493 23.121 11.3242 22.6089 11.9751 21.9639C12.626 21.3188 13.1401 20.5535 13.4876 19.7123C13.8351 18.8711 14.0091 17.9706 13.9996 17.063V14.8039H8.31254V18.1231C8.31254 18.279 8.28119 18.4333 8.22042 18.5773C8.15957 18.7213 8.0704 18.8522 7.95805 18.9624C7.8457 19.0726 7.71231 19.16 7.56546 19.2196C7.41868 19.2792 7.26131 19.3099 7.10242 19.3099Z" fill="white"/>
</svg>
