<svg width="14" height="22" viewBox="0 0 14 22" fill="none" xmlns="http://www.w3.org/2000/svg">
<path d="M13.2993 8.29999H8.98211L11.4149 0.912393C11.4618 0.771769 11.4383 0.612393 11.3493 0.490513C11.2602 0.368633 11.1196 0.298325 10.9696 0.298325H4.5618C4.36024 0.298325 4.18212 0.429575 4.11648 0.621765L0.254083 12.2842C0.207207 12.4248 0.230645 12.5842 0.319707 12.706C0.408769 12.8279 0.549387 12.8982 0.699387 12.8982H4.54319L4.53381 21.2326C4.53381 21.4389 4.66975 21.6217 4.86663 21.6826C4.91351 21.6967 4.95569 21.7014 5.00257 21.7014C5.15726 21.7014 5.30257 21.6264 5.39163 21.4904L13.6932 9.03104C13.787 8.88573 13.7964 8.70292 13.7167 8.54822C13.6323 8.39822 13.4729 8.29978 13.2995 8.29978L13.2993 8.29999Z" fill="white"/>
</svg>
