<svg width="24" height="24" viewBox="0 0 24 24" fill="none" xmlns="http://www.w3.org/2000/svg">
<g clip-path="url(#clip0_17386_66526)">
<path d="M12.1466 23.804C5.66423 23.804 0.390625 18.5302 0.390625 12.048C0.390625 5.56579 5.66443 0.291992 12.1466 0.291992C14.0068 0.291992 15.8594 0.737772 17.5042 1.58113C17.9837 1.82707 18.1729 2.41495 17.9271 2.89441C17.6812 3.37395 17.0933 3.56309 16.6138 3.31731C15.2238 2.60473 13.721 2.24325 12.1466 2.24325C6.74017 2.24325 2.34177 6.64165 2.34177 12.0481C2.34177 17.4545 6.74017 21.8531 12.1466 21.8531C17.553 21.8531 21.9516 17.4547 21.9516 12.0481C21.9516 11.5092 22.3884 11.0724 22.9272 11.0724C23.4659 11.0724 23.9028 11.5092 23.9028 12.0481C23.9027 18.5305 18.629 23.8041 12.1466 23.8041L12.1466 23.804Z" fill="#E5E4FA"/>
<path fill-rule="evenodd" clip-rule="evenodd" d="M10.75 9.75C10.75 9.05964 11.3096 8.5 12 8.5C12.6904 8.5 13.25 9.05964 13.25 9.75V10.5H10.75V9.75ZM8.75 10.6495V9.75C8.75 7.95507 10.2051 6.5 12 6.5C13.7949 6.5 15.25 7.95507 15.25 9.75V10.6495C15.305 10.6695 15.3574 10.6922 15.408 10.718C15.7843 10.9097 16.0903 11.2157 16.282 11.592C16.5 12.0199 16.5 12.5799 16.5 13.7V14.05C16.5 15.1701 16.5 15.7302 16.282 16.158C16.0903 16.5343 15.7843 16.8403 15.408 17.032C14.9802 17.25 14.4201 17.25 13.3 17.25H10.7C9.5799 17.25 9.01984 17.25 8.59202 17.032C8.21569 16.8403 7.90973 16.5343 7.71799 16.158C7.5 15.7302 7.5 15.1701 7.5 14.05V13.7C7.5 12.5799 7.5 12.0199 7.71799 11.592C7.90973 11.2157 8.21569 10.9097 8.59202 10.718C8.6426 10.6922 8.69502 10.6695 8.75 10.6495Z" fill="#E5E4FA"/>
</g>
<defs>
<clipPath id="clip0_17386_66526">
<rect width="24" height="24" fill="white"/>
</clipPath>
</defs>
</svg>
