<svg width="146" height="48" viewBox="0 0 146 48" fill="none" xmlns="http://www.w3.org/2000/svg">
    <path d="M24.5691 0C11.0189 0 0 10.7615 0 23.9958C0 33.5083 5.69636 41.7494 13.9327 45.6275V45.647H13.9726C17.1775 47.1525 20.7763 48 24.5691 48C38.1193 48 49.1381 37.2385 49.1381 24.0042C49.1352 10.7615 38.1164 0 24.5691 0ZM24.5691 1.96829C36.9977 1.96829 47.1204 11.8543 47.1204 23.993C47.1204 27.478 46.2842 30.7873 44.8031 33.7202C41.5582 32.184 38.262 31.0409 34.9344 30.2631V11.8906C34.9344 11.2493 34.4207 10.7392 33.7757 10.7392H29.6433H19.2295H15.0971C14.4606 10.7392 13.9384 11.2521 13.9384 11.8906V30.3523C10.7135 31.1302 7.5057 32.2537 4.35217 33.7285C2.85959 30.7845 2.02343 27.4863 2.02343 23.9902C2.01772 11.8543 12.1376 1.96829 24.5691 1.96829ZM5.64498 35.9477C8.31621 34.6569 11.0873 33.6644 13.9412 32.9758V43.4138C10.5651 41.6491 7.71405 39.0702 5.64498 35.9477ZM19.2266 45.3905V20.8036C19.2266 17.9571 21.6153 15.6041 24.4692 15.6041C27.323 15.6041 29.6404 17.907 29.6404 20.7451C29.6404 20.7646 29.6319 20.7841 29.6319 20.8036H29.6404V29.3598C27.2118 29.0838 24.7717 28.9946 22.3316 29.1228L20.3253 31.9693C23.4503 31.7128 26.4954 31.7324 29.4977 32.0669C29.5291 32.0669 29.5491 32.0669 29.5776 32.0781C29.5976 32.0781 29.6176 32.0781 29.649 32.0864C30.1741 32.145 32.0776 32.382 33.8213 32.8057L29.649 34.1941V45.4686C28.0166 45.8338 26.3214 46.0401 24.5891 46.0401C22.7226 46.0206 20.9389 45.7947 19.2266 45.3905ZM34.9201 43.5504V33.0232C37.7626 33.723 40.5765 34.7461 43.399 36.0843C41.2814 39.2263 38.359 41.8052 34.9201 43.5504Z" fill="url(#paint0_linear_5202_43552)"/>
    <path d="M63.4393 11.9272H68.6531C71.7014 11.9272 73.5383 13.6794 73.5383 16.2516V16.288C73.5383 19.2017 71.2386 20.6823 68.3788 20.6823H66.2447V24.4357H63.4336V11.9272H63.4393ZM68.4731 18.2332C69.8787 18.2332 70.6986 17.4104 70.6986 16.3384V16.302C70.6986 15.0677 69.8215 14.4071 68.4188 14.4071H66.2476V18.2332H68.4731Z" fill="white"/>
    <path d="M75.7891 18.2191V18.1827C75.7891 14.6253 78.6545 11.7144 82.5913 11.7144C86.5309 11.7144 89.3563 14.5917 89.3563 18.1463V18.1827C89.3563 21.7401 86.4909 24.651 82.5541 24.651C78.6145 24.6482 75.7891 21.7709 75.7891 18.2191ZM86.4223 18.2191V18.1827C86.4223 16.0387 84.8168 14.2502 82.5541 14.2502C80.2915 14.2502 78.7231 16.0023 78.7231 18.1435V18.1799C78.7231 20.3239 80.3286 22.1124 82.5913 22.1124C84.8539 22.1096 86.4223 20.3603 86.4223 18.2191Z" fill="white"/>
    <path d="M92.585 11.9272H95.1761L101.158 19.6271V11.9272H103.932V24.4357H101.541L95.359 16.4839V24.4357H92.585V11.9272Z" fill="white"/>
    <path d="M110.703 14.463H106.817V11.9243H117.396V14.463H113.511V24.4328H110.7V14.463H110.703Z" fill="white"/>
    <path d="M120.276 11.9272H129.907V14.3763H123.068V16.9149H129.084V19.364H123.068V21.9922H129.998V24.4413H120.276V11.9272Z" fill="white"/>
    <path d="M133.229 11.9272H136.258L139.615 17.2172L142.971 11.9272H146V24.4357H143.209V16.2712L139.615 21.6116H139.54L135.983 16.3216V24.4329H133.229V11.9272Z" fill="white"/>
    <path d="M63.4247 30.0923H64.0561L67.8272 34.7889V30.0923H68.4843V35.9561H67.9443L64.079 31.1475V35.9561H63.4219V30.0923H63.4247Z" fill="white"/>
    <path d="M76.335 30.0923H80.6603V30.6969H77.012V32.6981H80.2774V33.3027H77.012V35.3543H80.7059V35.9589H76.3378V30.0923H76.335Z" fill="white"/>
    <path d="M89.7386 30.7025H87.7217V30.0923H92.4326V30.7025H90.4157V35.9533H89.7415V30.7025H89.7386Z" fill="white"/>
    <path d="M99.3584 30.092H100.095L101.807 34.9761L103.449 30.0752H104.004L105.646 34.9761L107.358 30.092H108.066L105.929 35.9977H105.355L103.712 31.2396L102.064 35.9977H101.498L99.3584 30.092Z" fill="white"/>
    <path d="M114.871 33.0363V33.0195C114.871 31.4045 116.111 29.9883 117.934 29.9883C119.753 29.9883 120.976 31.385 120.976 33.0027V33.0195C120.976 34.6345 119.736 36.0508 117.914 36.0508C116.094 36.0536 114.871 34.6541 114.871 33.0363ZM120.276 33.0363V33.0195C120.276 31.6872 119.285 30.5984 117.916 30.5984C116.548 30.5984 115.574 31.6704 115.574 32.9999V33.0167C115.574 34.349 116.565 35.4378 117.934 35.4378C119.299 35.4406 120.276 34.3686 120.276 33.0363Z" fill="white"/>
    <path d="M128.562 30.0923H131.133C131.878 30.0923 132.458 30.3106 132.833 30.6773C133.133 30.9711 133.295 31.363 133.295 31.8332V31.85C133.295 32.8212 132.613 33.3978 131.673 33.5602L133.512 35.9561H132.684L130.947 33.6777H129.236V35.9561H128.562V30.0923ZM131.076 33.0788C131.967 33.0788 132.615 32.6253 132.615 31.8724V31.8556C132.615 31.1251 132.05 30.6997 131.087 30.6997H129.241V33.076H131.076V33.0788Z" fill="white"/>
    <path d="M140.899 30.0923H141.574V33.591L145.01 30.0923H145.89L143.316 32.6561L145.99 35.9561H145.145L142.845 33.1179L141.571 34.3831V35.9589H140.896V30.0923H140.899Z" fill="white"/>
    <defs>
        <linearGradient id="paint0_linear_5202_43552" x1="0.769149" y1="24.0333" x2="49.9044" y2="23.9649" gradientUnits="userSpaceOnUse">
            <stop offset="0.0858" stop-color="#8D29C1"/>
            <stop offset="0.2383" stop-color="#942BBB"/>
            <stop offset="0.4667" stop-color="#A92FAC"/>
            <stop offset="0.7413" stop-color="#CA3793"/>
            <stop offset="1" stop-color="#F03F77"/>
        </linearGradient>
    </defs>
</svg>
