<svg width="44" height="44" viewBox="0 0 44 44" fill="none" xmlns="http://www.w3.org/2000/svg">
<g clip-path="url(#clip0_23377_104112)">
<rect width="44" height="44" rx="13" fill="#28253E"/>
<g clip-path="url(#clip1_23377_104112)">
<mask id="mask0_23377_104112" style="mask-type:luminance" maskUnits="userSpaceOnUse" x="6" y="6" width="32" height="32">
<path d="M37.033 6.7572H6.28516V37.2334H37.033V6.7572Z" fill="white"/>
</mask>
<g mask="url(#mask0_23377_104112)">
<g filter="url(#filter0_d_23377_104112)">
<path d="M9.22852 30.7253C10.5161 32.5163 12.1676 34.0148 14.075 35.1227C15.9823 36.2305 18.1022 36.9227 20.2958 37.1538C19.1672 35.4555 17.5268 33.8932 15.4788 32.7036C13.4308 31.5141 11.262 30.8643 9.22852 30.7253Z" fill="url(#paint0_linear_23377_104112)"/>
<path d="M18.2307 27.9672C14.2852 25.6749 10.0147 25.0907 6.95898 26.1227C7.25397 27.0977 7.64301 28.0417 8.12062 28.9414C10.7755 28.8799 13.6741 29.6009 16.3713 31.1675C19.0685 32.7341 21.1315 34.8962 22.3939 37.2334C23.4125 37.2022 24.4259 37.0724 25.4196 36.846C24.8018 33.6808 22.1754 30.26 18.2307 27.9672Z" fill="url(#paint1_linear_23377_104112)"/>
<path d="M37.032 18.6628C36.5304 16.6223 35.6227 14.7039 34.3632 13.022C33.1036 11.3401 31.5181 9.92927 29.7013 8.87373C27.8844 7.81818 25.8735 7.13959 23.7886 6.87845C21.7036 6.61731 19.5875 6.77899 17.5664 7.35384C20.9428 7.76704 24.6906 9.03455 28.366 11.1698C32.0415 13.3051 35.0016 15.9325 37.032 18.6628Z" fill="url(#paint2_linear_23377_104112)"/>
<path d="M32.1199 26.146C30.3917 23.2759 27.4311 20.5275 23.7839 18.4088C20.1369 16.29 16.2837 15.0799 12.9373 14.9998C9.99318 14.9301 7.78355 15.7859 6.87656 17.3474C6.87139 17.3566 6.86416 17.3654 6.85848 17.3747C6.77687 17.6676 6.70663 17.9609 6.64258 18.2554C7.90906 17.7554 9.37646 17.477 11.0081 17.446C14.6366 17.3779 18.6974 18.5384 22.4447 20.7155C26.1919 22.8926 29.214 25.8465 30.9516 29.0313C31.7305 30.4661 32.2165 31.8788 32.4092 33.2284C32.6334 33.028 32.8534 32.8209 33.0667 32.6056C33.0724 32.5958 33.076 32.5854 33.0817 32.5751C33.9887 31.0121 33.6379 28.6692 32.1199 26.146Z" fill="url(#paint3_linear_23377_104112)"/>
<path d="M21.0098 23.1844C15.4248 19.9397 9.25302 19.4315 6.28516 21.6958C6.29099 22.4046 6.34517 23.1121 6.44734 23.8135C7.32038 23.5489 8.22018 23.3822 9.13009 23.3167C12.4466 23.0672 16.103 23.9913 19.4211 25.9198C22.7391 27.8485 25.3547 30.5685 26.7813 33.5709C27.1756 34.3935 27.4764 35.2576 27.6779 36.1473C28.338 35.8885 28.9798 35.5853 29.5989 35.2397C30.0957 31.5395 26.5964 26.4296 21.0098 23.1844Z" fill="url(#paint4_linear_23377_104112)"/>
<path d="M34.9923 21.3421C33.2445 18.4749 30.258 15.7188 26.585 13.5862C22.9122 11.4535 19.044 10.2242 15.6867 10.1255C13.1274 10.0517 11.145 10.672 10.1172 11.844C14.3851 11.1209 20.0145 12.3362 25.4709 15.506C30.9274 18.6759 34.7733 22.9649 36.2578 27.0304C36.7666 25.5578 36.3239 23.5285 34.9923 21.3421Z" fill="url(#paint5_linear_23377_104112)"/>
</g>
</g>
</g>
</g>
<defs>
<filter id="filter0_d_23377_104112" x="-16.4596" y="-13.7131" width="76.2357" height="75.9658" filterUnits="userSpaceOnUse" color-interpolation-filters="sRGB">
<feFlood flood-opacity="0" result="BackgroundImageFix"/>
<feColorMatrix in="SourceAlpha" type="matrix" values="0 0 0 0 0 0 0 0 0 0 0 0 0 0 0 0 0 0 127 0" result="hardAlpha"/>
<feOffset dy="2.27449"/>
<feGaussianBlur stdDeviation="11.3724"/>
<feComposite in2="hardAlpha" operator="out"/>
<feColorMatrix type="matrix" values="0 0 0 0 0 0 0 0 0 0 0 0 0 0 0 0 0 0 0.1 0"/>
<feBlend mode="normal" in2="BackgroundImageFix" result="effect1_dropShadow_23377_104112"/>
<feBlend mode="normal" in="SourceGraphic" in2="effect1_dropShadow_23377_104112" result="shape"/>
</filter>
<linearGradient id="paint0_linear_23377_104112" x1="26.7611" y1="12.9476" x2="12.6342" y2="37.2333" gradientUnits="userSpaceOnUse">
<stop offset="0.0001" stop-color="#C7F284"/>
<stop offset="1" stop-color="#00BEF0"/>
</linearGradient>
<linearGradient id="paint1_linear_23377_104112" x1="26.7612" y1="12.9477" x2="12.6342" y2="37.2334" gradientUnits="userSpaceOnUse">
<stop offset="0.0001" stop-color="#C7F284"/>
<stop offset="1" stop-color="#00BEF0"/>
</linearGradient>
<linearGradient id="paint2_linear_23377_104112" x1="26.7604" y1="12.9477" x2="12.6334" y2="37.2334" gradientUnits="userSpaceOnUse">
<stop offset="0.0001" stop-color="#C7F284"/>
<stop offset="1" stop-color="#00BEF0"/>
</linearGradient>
<linearGradient id="paint3_linear_23377_104112" x1="26.7608" y1="12.9477" x2="12.6338" y2="37.2334" gradientUnits="userSpaceOnUse">
<stop offset="0.0001" stop-color="#C7F284"/>
<stop offset="1" stop-color="#00BEF0"/>
</linearGradient>
<linearGradient id="paint4_linear_23377_104112" x1="26.7613" y1="12.9477" x2="12.6344" y2="37.2335" gradientUnits="userSpaceOnUse">
<stop offset="0.0001" stop-color="#C7F284"/>
<stop offset="1" stop-color="#00BEF0"/>
</linearGradient>
<linearGradient id="paint5_linear_23377_104112" x1="26.7605" y1="12.9477" x2="12.6335" y2="37.2334" gradientUnits="userSpaceOnUse">
<stop offset="0.0001" stop-color="#C7F284"/>
<stop offset="1" stop-color="#00BEF0"/>
</linearGradient>
<clipPath id="clip0_23377_104112">
<rect width="44" height="44" fill="white"/>
</clipPath>
<clipPath id="clip1_23377_104112">
<rect width="31.4286" height="30.4762" fill="white" transform="translate(6.28516 6.7572)"/>
</clipPath>
</defs>
</svg>
