<svg width="56" height="56" fill="none" xmlns="http://www.w3.org/2000/svg">
  <g clip-path="url(#a)">
    <path d="m37.175 21.728 2.578 3.028c.295.34.556.62.662.779a4.057 4.057 0 0 1 1.202 2.88c-.072 1.272-.901 2.139-1.67 3.066l-1.803 2.117-.94 1.097a.256.256 0 0 0 .06.39c.044.027.094.04.145.038h9.401c1.436 0 3.245 1.207 3.14 3.04a3.131 3.131 0 0 1-.938 2.218 3.224 3.224 0 0 1-2.252.924H32.038c-.968 0-3.573.105-4.302-2.117a2.601 2.601 0 0 1-.062-1.437 6.237 6.237 0 0 1 .991-1.953 89.376 89.376 0 0 1 2.332-3.258c1.019-1.394 2.065-2.743 3.095-4.164a.26.26 0 0 0 0-.324l-3.74-4.388a.26.26 0 0 0-.21-.102.264.264 0 0 0-.208.102c-1.002 1.333-5.388 7.235-6.323 8.431-.935 1.196-3.24 1.262-4.514 0l-5.85-5.787a.268.268 0 0 0-.456.187v11.13a3.746 3.746 0 0 1-.68 2.214 3.834 3.834 0 0 1-1.859 1.411 3.246 3.246 0 0 1-2.903-.406 3.168 3.168 0 0 1-.99-1.122A3.117 3.117 0 0 1 6 38.277v-20.01a3.405 3.405 0 0 1 .752-1.98 3.488 3.488 0 0 1 1.786-1.169 3.6 3.6 0 0 1 1.846.005 3.563 3.563 0 0 1 1.594.917l8.995 8.875a.262.262 0 0 0 .317.043.261.261 0 0 0 .084-.076l6.39-8.716c.294-.354.665-.64 1.084-.838a3.23 3.23 0 0 1 1.342-.309h16.62c.455.001.905.097 1.319.283.414.186.783.457 1.082.794a3.106 3.106 0 0 1 .761 2.489 3.208 3.208 0 0 1-1.117 1.978 3.297 3.297 0 0 1-2.161.764h-9.307a.265.265 0 0 0-.226.14.254.254 0 0 0 .014.26Z" fill="#E42575" />
  </g>
  <defs>
    <clipPath id="a">
      <path fill="#fff" d="M0 0h56v56H0z" />
    </clipPath>
  </defs>
</svg>
