<svg width="24" height="24" viewBox="0 0 24 24" fill="none" xmlns="http://www.w3.org/2000/svg">
<path d="M20.5019 17.296C20.4992 17.2974 20.4964 17.2987 20.4936 17.3L17.2159 18.8488C17.2511 19.0303 17.2663 19.2152 17.2613 19.4001C17.2588 19.492 17.2205 19.5793 17.1546 19.6435C17.0887 19.7075 17.0004 19.7434 16.9085 19.7435H16.8984L12.1011 19.6115C12.0074 19.6089 11.9186 19.5692 11.8541 19.5012C11.7897 19.4332 11.755 19.3424 11.7576 19.2487C11.7601 19.155 11.7998 19.0663 11.8679 19.0018C11.936 18.9374 12.0268 18.9026 12.1204 18.9052L16.5307 19.0266V19.0266C16.4601 18.6118 16.2479 18.2343 15.9302 17.9584C15.6124 17.6826 15.2089 17.5253 14.7883 17.5136L11.8698 17.4333C11.2935 17.4167 10.7284 17.2707 10.2161 17.0061L9.91908 16.8524C9.20314 16.4793 8.39986 16.3064 7.59381 16.3518C6.78775 16.3972 6.00892 16.6593 5.33936 17.1103L5.22266 21.356L5.72411 21.0875C6.22261 20.8194 6.8057 20.7555 7.35038 20.9095L12.3033 22.2998C13.258 22.4953 14.25 22.3844 15.1379 21.9829L21.9996 17.5444V17.5443C21.8089 17.349 21.5608 17.2195 21.2915 17.1749C21.0221 17.1302 20.7455 17.1726 20.5019 17.2959L20.5019 17.296Z" fill="currentColor"/>
<path d="M2 22.0923L2.17379 15.7754L4.66824 15.844L4.49445 22.1609L2 22.0923Z" fill="currentColor"/>
<path fill-rule="evenodd" clip-rule="evenodd" d="M7.09091 5.7686L12 3.09091L16.9091 5.7686L16.9091 8.78758L15 7.30273L12 10.03L9 8.39364L7.09091 9.66637V5.7686ZM11.4776 2.1332C11.8032 1.9556 12.1968 1.9556 12.5224 2.1332L17.4315 4.81089C17.7819 5.00205 18 5.36938 18 5.7686V11.265C18 11.6782 17.7665 12.0559 17.397 12.2407L12.5098 14.6843C12.1904 14.844 11.8131 14.8372 11.4996 14.6662L6.56853 11.9766C6.21806 11.7854 6 11.4181 6 11.0188V5.7686C6 5.36938 6.21806 5.00205 6.56853 4.81089L11.4776 2.1332ZM12 6.21183C12 6.81432 11.5116 7.30273 10.9091 7.30273C10.3066 7.30273 9.81818 6.81432 9.81818 6.21183C9.81818 5.60933 10.3066 5.12092 10.9091 5.12092C11.5116 5.12092 12 5.60933 12 6.21183Z" fill="currentColor"/>
</svg>
