<svg width="34" height="34" viewBox="0 0 34 34" fill="none" xmlns="http://www.w3.org/2000/svg">
<circle cx="17" cy="17" r="17" fill="#6E42CA"/>
<circle cx="17" cy="17" r="17" fill="url(#paint0_radial_14111_134373)" fill-opacity="0.4" style="mix-blend-mode:overlay"/>
<path d="M23.3353 17.829L20.7499 16.5365V11.0001C20.7499 10.7159 20.5895 10.4561 20.3354 10.3291L17.3354 8.8291C17.1239 8.72363 16.8759 8.72363 16.6644 8.8291L13.6644 10.3291C13.6529 10.3343 13.6456 10.3424 13.6356 10.3481C13.6259 10.3539 13.6152 10.3558 13.6056 10.3618C13.3845 10.4986 13.2499 10.7399 13.2499 11.0001V12.2866L10.6645 13.5791C10.653 13.5849 10.6458 13.5924 10.6358 13.5986C10.626 13.6039 10.6153 13.6064 10.6058 13.6124C10.3845 13.7491 10.25 13.9903 10.25 14.2501V20.0001C10.25 20.2843 10.4105 20.5441 10.6645 20.6711L19.6645 25.1711C19.7705 25.2239 19.8852 25.2501 20 25.2501C20.1058 25.2501 20.2088 25.2209 20.3067 25.1768C20.3165 25.1758 20.3259 25.1758 20.3355 25.1711L23.3355 23.6711C23.5895 23.5441 23.75 23.2843 23.75 23.0001V18.5001C23.75 18.2159 23.5895 17.9566 23.3355 17.8291L23.3353 17.829ZM11.7499 15.4638L13.2499 16.2138V20.2866L11.7499 19.5366V15.4638ZM14.7499 12.2136L16.2499 12.9636V21.7864L14.7499 21.0364V12.2136ZM17.7499 19.7138L19.2499 20.4638V23.2866L17.7499 22.5366V19.7138Z" fill="#E5E4FA"/>
<defs>
<radialGradient id="paint0_radial_14111_134373" cx="0" cy="0" r="1" gradientUnits="userSpaceOnUse" gradientTransform="translate(17 34) rotate(-90) scale(20.8958)">
<stop stop-color="white"/>
<stop offset="0.9375" stop-color="white" stop-opacity="0"/>
</radialGradient>
</defs>
</svg>
