<svg width="144" height="144" viewBox="0 0 144 144" fill="none" xmlns="http://www.w3.org/2000/svg">
<path d="M110.927 28.7998L77.1748 54.2459L83.4512 39.2497L110.927 28.7998Z" fill="#E17726" stroke="#E17726" stroke-width="0.25" stroke-linecap="round" stroke-linejoin="round"/>
<path d="M33.0732 28.7998L66.5249 54.4836L60.5491 39.2497L33.0732 28.7998Z" fill="#E27625" stroke="#E27625" stroke-width="0.25" stroke-linecap="round" stroke-linejoin="round"/>
<path d="M98.7744 87.8008L89.7939 101.779L109.024 107.174L114.532 88.106L98.7744 87.8008Z" fill="#E27625" stroke="#E27625" stroke-width="0.25" stroke-linecap="round" stroke-linejoin="round"/>
<path d="M29.501 88.106L34.9761 107.174L54.1724 101.779L45.2252 87.8008L29.501 88.106Z" fill="#E27625" stroke="#E27625" stroke-width="0.25" stroke-linecap="round" stroke-linejoin="round"/>
<path d="M53.1375 64.1872L47.7959 72.3979L66.8253 73.2799L66.1909 52.4141L53.1375 64.1872Z" fill="#E27625" stroke="#E27625" stroke-width="0.25" stroke-linecap="round" stroke-linejoin="round"/>
<path d="M90.8628 64.1868L77.6089 52.1763L77.1748 73.2795L96.2044 72.3975L90.8628 64.1868Z" fill="#E27625" stroke="#E27625" stroke-width="0.25" stroke-linecap="round" stroke-linejoin="round"/>
<path d="M54.1719 101.78L65.6897 96.114L55.7744 88.2427L54.1719 101.78Z" fill="#E27625" stroke="#E27625" stroke-width="0.25" stroke-linecap="round" stroke-linejoin="round"/>
<path d="M78.3096 96.114L89.7939 101.78L88.2248 88.2427L78.3096 96.114Z" fill="#E27625" stroke="#E27625" stroke-width="0.25" stroke-linecap="round" stroke-linejoin="round"/>
<path d="M89.7939 101.78L78.3096 96.1143L79.2443 103.714L79.1441 106.937L89.7939 101.78Z" fill="#D5BFB2" stroke="#D5BFB2" stroke-width="0.25" stroke-linecap="round" stroke-linejoin="round"/>
<path d="M54.1719 101.78L64.8551 106.937L64.7884 103.714L65.6897 96.1143L54.1719 101.78Z" fill="#D5BFB2" stroke="#D5BFB2" stroke-width="0.25" stroke-linecap="round" stroke-linejoin="round"/>
<path d="M65.0559 83.2211L55.5078 80.3711L62.2516 77.2158L65.0559 83.2211Z" fill="#233447" stroke="#233447" stroke-width="0.25" stroke-linecap="round" stroke-linejoin="round"/>
<path d="M78.9434 83.2211L81.7476 77.2158L88.5249 80.3711L78.9434 83.2211Z" fill="#233447" stroke="#233447" stroke-width="0.25" stroke-linecap="round" stroke-linejoin="round"/>
<path d="M54.1728 101.78L55.8419 87.8013L45.2256 88.1067L54.1728 101.78Z" fill="#CC6228" stroke="#CC6228" stroke-width="0.25" stroke-linecap="round" stroke-linejoin="round"/>
<path d="M88.1582 87.8013L89.794 101.78L98.7745 88.1067L88.1582 87.8013Z" fill="#CC6228" stroke="#CC6228" stroke-width="0.25" stroke-linecap="round" stroke-linejoin="round"/>
<path d="M96.2042 72.3979L77.1748 73.28L78.9443 83.221L81.7486 77.2157L88.5256 80.371L96.2042 72.3979Z" fill="#CC6228" stroke="#CC6228" stroke-width="0.25" stroke-linecap="round" stroke-linejoin="round"/>
<path d="M55.5079 80.371L62.2517 77.2157L65.0559 83.221L66.8253 73.28L47.7959 72.3979L55.5079 80.371Z" fill="#CC6228" stroke="#CC6228" stroke-width="0.25" stroke-linecap="round" stroke-linejoin="round"/>
<path d="M47.7959 72.3979L55.7748 88.2425L55.5079 80.371L47.7959 72.3979Z" fill="#E27525" stroke="#E27525" stroke-width="0.25" stroke-linecap="round" stroke-linejoin="round"/>
<path d="M88.5262 80.371L88.2256 88.2425L96.2048 72.3979L88.5262 80.371Z" fill="#E27525" stroke="#E27525" stroke-width="0.25" stroke-linecap="round" stroke-linejoin="round"/>
<path d="M66.8252 73.2793L65.0557 83.2203L67.2926 94.9595L67.7932 79.4883L66.8252 73.2793Z" fill="#E27525" stroke="#E27525" stroke-width="0.25" stroke-linecap="round" stroke-linejoin="round"/>
<path d="M77.175 73.2793L76.2402 79.4544L76.7076 94.9595L78.9445 83.2203L77.175 73.2793Z" fill="#E27525" stroke="#E27525" stroke-width="0.25" stroke-linecap="round" stroke-linejoin="round"/>
<path d="M78.9439 83.2216L76.707 94.9608L78.3096 96.1144L88.2248 88.2431L88.5252 80.3716L78.9439 83.2216Z" fill="#F5841F" stroke="#F5841F" stroke-width="0.25" stroke-linecap="round" stroke-linejoin="round"/>
<path d="M55.5078 80.3716L55.775 88.2431L65.6902 96.1144L67.2928 94.9608L65.0559 83.2216L55.5078 80.3716Z" fill="#F5841F" stroke="#F5841F" stroke-width="0.25" stroke-linecap="round" stroke-linejoin="round"/>
<path d="M79.1439 106.937L79.2439 103.714L78.3761 102.968H65.6229L64.7884 103.714L64.8551 106.937L54.1719 101.78L57.9111 104.902L65.4895 110.228H78.4761L86.0879 104.902L89.7937 101.78L79.1439 106.937Z" fill="#C0AC9D" stroke="#C0AC9D" stroke-width="0.25" stroke-linecap="round" stroke-linejoin="round"/>
<path d="M78.3101 96.114L76.7075 94.9604H67.2929L65.6906 96.114L64.7891 103.714L65.6238 102.967H78.3768L79.2448 103.714L78.3101 96.114Z" fill="#161616" stroke="#161616" stroke-width="0.25" stroke-linecap="round" stroke-linejoin="round"/>
<path d="M112.362 55.9089L115.2 41.8627L110.926 28.8003L78.3096 53.3982L90.8621 64.1874L108.59 69.4463L112.496 64.7981L110.793 63.5427L113.497 61.0321L111.427 59.4035L114.132 57.3001L112.362 55.9089Z" fill="#763E1A" stroke="#763E1A" stroke-width="0.25" stroke-linecap="round" stroke-linejoin="round"/>
<path d="M28.7998 41.8631L31.671 55.9093L29.8348 57.3005L32.5723 59.404L30.5024 61.0326L33.2067 63.5432L31.5041 64.7985L35.4101 69.4468L53.1375 64.1878L65.6901 53.3987L33.0732 28.8008L28.7998 41.8631Z" fill="#763E1A" stroke="#763E1A" stroke-width="0.25" stroke-linecap="round" stroke-linejoin="round"/>
<path d="M108.589 69.4459L90.8619 64.187L96.2036 72.3977L88.2246 88.2422L98.7741 88.1066H114.532L108.589 69.4459Z" fill="#F5841F" stroke="#F5841F" stroke-width="0.25" stroke-linecap="round" stroke-linejoin="round"/>
<path d="M53.1374 64.187L35.4102 69.4459L29.501 88.1066H45.2252L55.775 88.2422L47.7958 72.3977L53.1374 64.187Z" fill="#F5841F" stroke="#F5841F" stroke-width="0.25" stroke-linecap="round" stroke-linejoin="round"/>
<path d="M77.1745 73.2795L78.3097 53.3977L83.4509 39.2495H60.5488L65.6902 53.3977L66.8252 73.2795L67.2593 79.5222L67.2926 94.9596H76.7072L76.7406 79.5222L77.1745 73.2795Z" fill="#F5841F" stroke="#F5841F" stroke-width="0.25" stroke-linecap="round" stroke-linejoin="round"/>
</svg>
