<svg width="200" height="200" viewBox="0 0 200 200" fill="none" xmlns="http://www.w3.org/2000/svg">
<g clip-path="url(#clip0_6495_54580)">
<path d="M200 0H0V200H200V0Z" fill="white"/>
<g clip-path="url(#clip1_6495_54580)">
<path d="M187 13H13V187H187V13Z" fill="white"/>
<path d="M19.4443 19.4443H25.8888V25.8888H19.4443V19.4443ZM25.8888 19.4443H32.3332V25.8888H25.8888V19.4443ZM32.3332 19.4443H38.7777V25.8888H32.3332V19.4443ZM38.7777 19.4443H45.2221V25.8888H38.7777V19.4443ZM45.2221 19.4443H51.6666V25.8888H45.2221V19.4443ZM51.6666 19.4443H58.111V25.8888H51.6666V19.4443ZM58.111 19.4443H64.5555V25.8888H58.111V19.4443ZM70.9999 19.4443H77.4443V25.8888H70.9999V19.4443ZM83.8888 19.4443H90.3332V25.8888H83.8888V19.4443ZM96.7777 19.4443H103.222V25.8888H96.7777V19.4443ZM103.222 19.4443H109.667V25.8888H103.222V19.4443ZM122.555 19.4443H129V25.8888H122.555V19.4443ZM135.444 19.4443H141.889V25.8888H135.444V19.4443ZM141.889 19.4443H148.333V25.8888H141.889V19.4443ZM148.333 19.4443H154.778V25.8888H148.333V19.4443ZM154.778 19.4443H161.222V25.8888H154.778V19.4443ZM161.222 19.4443H167.667V25.8888H161.222V19.4443ZM167.667 19.4443H174.111V25.8888H167.667V19.4443ZM174.111 19.4443H180.555V25.8888H174.111V19.4443ZM19.4443 25.8888H25.8888V32.3332H19.4443V25.8888ZM58.111 25.8888H64.5555V32.3332H58.111V25.8888ZM77.4443 25.8888H83.8888V32.3332H77.4443V25.8888ZM83.8888 25.8888H90.3332V32.3332H83.8888V25.8888ZM90.3332 25.8888H96.7777V32.3332H90.3332V25.8888ZM96.7777 25.8888H103.222V32.3332H96.7777V25.8888ZM103.222 25.8888H109.667V32.3332H103.222V25.8888ZM135.444 25.8888H141.889V32.3332H135.444V25.8888ZM174.111 25.8888H180.555V32.3332H174.111V25.8888ZM19.4443 32.3332H25.8888V38.7777H19.4443V32.3332ZM32.3332 32.3332H38.7777V38.7777H32.3332V32.3332ZM38.7777 32.3332H45.2221V38.7777H38.7777V32.3332ZM45.2221 32.3332H51.6666V38.7777H45.2221V32.3332ZM58.111 32.3332H64.5555V38.7777H58.111V32.3332ZM70.9999 32.3332H77.4443V38.7777H70.9999V32.3332ZM77.4443 32.3332H83.8888V38.7777H77.4443V32.3332ZM83.8888 32.3332H90.3332V38.7777H83.8888V32.3332ZM103.222 32.3332H109.667V38.7777H103.222V32.3332ZM109.667 32.3332H116.111V38.7777H109.667V32.3332ZM135.444 32.3332H141.889V38.7777H135.444V32.3332ZM148.333 32.3332H154.778V38.7777H148.333V32.3332ZM154.778 32.3332H161.222V38.7777H154.778V32.3332ZM161.222 32.3332H167.667V38.7777H161.222V32.3332ZM174.111 32.3332H180.555V38.7777H174.111V32.3332ZM19.4443 38.7777H25.8888V45.2221H19.4443V38.7777ZM32.3332 38.7777H38.7777V45.2221H32.3332V38.7777ZM38.7777 38.7777H45.2221V45.2221H38.7777V38.7777ZM45.2221 38.7777H51.6666V45.2221H45.2221V38.7777ZM58.111 38.7777H64.5555V45.2221H58.111V38.7777ZM70.9999 38.7777H77.4443V45.2221H70.9999V38.7777ZM77.4443 38.7777H83.8888V45.2221H77.4443V38.7777ZM83.8888 38.7777H90.3332V45.2221H83.8888V38.7777ZM96.7777 38.7777H103.222V45.2221H96.7777V38.7777ZM103.222 38.7777H109.667V45.2221H103.222V38.7777ZM116.111 38.7777H122.555V45.2221H116.111V38.7777ZM122.555 38.7777H129V45.2221H122.555V38.7777ZM135.444 38.7777H141.889V45.2221H135.444V38.7777ZM148.333 38.7777H154.778V45.2221H148.333V38.7777ZM154.778 38.7777H161.222V45.2221H154.778V38.7777ZM161.222 38.7777H167.667V45.2221H161.222V38.7777ZM174.111 38.7777H180.555V45.2221H174.111V38.7777ZM19.4443 45.2221H25.8888V51.6666H19.4443V45.2221ZM32.3332 45.2221H38.7777V51.6666H32.3332V45.2221ZM38.7777 45.2221H45.2221V51.6666H38.7777V45.2221ZM45.2221 45.2221H51.6666V51.6666H45.2221V45.2221ZM58.111 45.2221H64.5555V51.6666H58.111V45.2221ZM70.9999 45.2221H77.4443V51.6666H70.9999V45.2221ZM90.3332 45.2221H96.7777V51.6666H90.3332V45.2221ZM96.7777 45.2221H103.222V51.6666H96.7777V45.2221ZM103.222 45.2221H109.667V51.6666H103.222V45.2221ZM109.667 45.2221H116.111V51.6666H109.667V45.2221ZM116.111 45.2221H122.555V51.6666H116.111V45.2221ZM122.555 45.2221H129V51.6666H122.555V45.2221ZM135.444 45.2221H141.889V51.6666H135.444V45.2221ZM148.333 45.2221H154.778V51.6666H148.333V45.2221ZM154.778 45.2221H161.222V51.6666H154.778V45.2221ZM161.222 45.2221H167.667V51.6666H161.222V45.2221ZM174.111 45.2221H180.555V51.6666H174.111V45.2221ZM19.4443 51.6666H25.8888V58.111H19.4443V51.6666ZM58.111 51.6666H64.5555V58.111H58.111V51.6666ZM83.8888 51.6666H90.3332V58.111H83.8888V51.6666ZM90.3332 51.6666H96.7777V58.111H90.3332V51.6666ZM109.667 51.6666H116.111V58.111H109.667V51.6666ZM122.555 51.6666H129V58.111H122.555V51.6666ZM135.444 51.6666H141.889V58.111H135.444V51.6666ZM174.111 51.6666H180.555V58.111H174.111V51.6666ZM19.4443 58.111H25.8888V64.5555H19.4443V58.111ZM25.8888 58.111H32.3332V64.5555H25.8888V58.111ZM32.3332 58.111H38.7777V64.5555H32.3332V58.111ZM38.7777 58.111H45.2221V64.5555H38.7777V58.111ZM45.2221 58.111H51.6666V64.5555H45.2221V58.111ZM51.6666 58.111H58.111V64.5555H51.6666V58.111ZM58.111 58.111H64.5555V64.5555H58.111V58.111ZM70.9999 58.111H77.4443V64.5555H70.9999V58.111ZM83.8888 58.111H90.3332V64.5555H83.8888V58.111ZM96.7777 58.111H103.222V64.5555H96.7777V58.111ZM109.667 58.111H116.111V64.5555H109.667V58.111ZM122.555 58.111H129V64.5555H122.555V58.111ZM135.444 58.111H141.889V64.5555H135.444V58.111ZM141.889 58.111H148.333V64.5555H141.889V58.111ZM148.333 58.111H154.778V64.5555H148.333V58.111ZM154.778 58.111H161.222V64.5555H154.778V58.111ZM161.222 58.111H167.667V64.5555H161.222V58.111ZM167.667 58.111H174.111V64.5555H167.667V58.111ZM174.111 58.111H180.555V64.5555H174.111V58.111ZM83.8888 64.5555H90.3332V70.9999H83.8888V64.5555ZM96.7777 64.5555H103.222V70.9999H96.7777V64.5555ZM116.111 64.5555H122.555V70.9999H116.111V64.5555ZM122.555 64.5555H129V70.9999H122.555V64.5555ZM19.4443 70.9999H25.8888V77.4443H19.4443V70.9999ZM25.8888 70.9999H32.3332V77.4443H25.8888V70.9999ZM32.3332 70.9999H38.7777V77.4443H32.3332V70.9999ZM38.7777 70.9999H45.2221V77.4443H38.7777V70.9999ZM58.111 70.9999H64.5555V77.4443H58.111V70.9999ZM70.9999 70.9999H77.4443V77.4443H70.9999V70.9999ZM83.8888 70.9999H90.3332V77.4443H83.8888V70.9999ZM90.3332 70.9999H96.7777V77.4443H90.3332V70.9999ZM96.7777 70.9999H103.222V77.4443H96.7777V70.9999ZM109.667 70.9999H116.111V77.4443H109.667V70.9999ZM116.111 70.9999H122.555V77.4443H116.111V70.9999ZM122.555 70.9999H129V77.4443H122.555V70.9999ZM129 70.9999H135.444V77.4443H129V70.9999ZM148.333 70.9999H154.778V77.4443H148.333V70.9999ZM154.778 70.9999H161.222V77.4443H154.778V70.9999ZM161.222 70.9999H167.667V77.4443H161.222V70.9999ZM174.111 70.9999H180.555V77.4443H174.111V70.9999ZM25.8888 77.4443H32.3332V83.8888H25.8888V77.4443ZM83.8888 77.4443H90.3332V83.8888H83.8888V77.4443ZM96.7777 77.4443H103.222V83.8888H96.7777V77.4443ZM109.667 77.4443H116.111V83.8888H109.667V77.4443ZM141.889 77.4443H148.333V83.8888H141.889V77.4443ZM167.667 77.4443H174.111V83.8888H167.667V77.4443ZM45.2221 83.8888H51.6666V90.3332H45.2221V83.8888ZM58.111 83.8888H64.5555V90.3332H58.111V83.8888ZM64.5555 83.8888H70.9999V90.3332H64.5555V83.8888ZM77.4443 83.8888H83.8888V90.3332H77.4443V83.8888ZM83.8888 83.8888H90.3332V90.3332H83.8888V83.8888ZM90.3332 83.8888H96.7777V90.3332H90.3332V83.8888ZM96.7777 83.8888H103.222V90.3332H96.7777V83.8888ZM122.555 83.8888H129V90.3332H122.555V83.8888ZM135.444 83.8888H141.889V90.3332H135.444V83.8888ZM141.889 83.8888H148.333V90.3332H141.889V83.8888ZM19.4443 90.3332H25.8888V96.7777H19.4443V90.3332ZM25.8888 90.3332H32.3332V96.7777H25.8888V90.3332ZM45.2221 90.3332H51.6666V96.7777H45.2221V90.3332ZM51.6666 90.3332H58.111V96.7777H51.6666V90.3332ZM64.5555 90.3332H70.9999V96.7777H64.5555V90.3332ZM77.4443 90.3332H83.8888V96.7777H77.4443V90.3332ZM83.8888 90.3332H90.3332V96.7777H83.8888V90.3332ZM103.222 90.3332H109.667V96.7777H103.222V90.3332ZM116.111 90.3332H122.555V96.7777H116.111V90.3332ZM122.555 90.3332H129V96.7777H122.555V90.3332ZM135.444 90.3332H141.889V96.7777H135.444V90.3332ZM148.333 90.3332H154.778V96.7777H148.333V90.3332ZM154.778 90.3332H161.222V96.7777H154.778V90.3332ZM161.222 90.3332H167.667V96.7777H161.222V90.3332ZM19.4443 96.7777H25.8888V103.222H19.4443V96.7777ZM32.3332 96.7777H38.7777V103.222H32.3332V96.7777ZM51.6666 96.7777H58.111V103.222H51.6666V96.7777ZM58.111 96.7777H64.5555V103.222H58.111V96.7777ZM64.5555 96.7777H70.9999V103.222H64.5555V96.7777ZM70.9999 96.7777H77.4443V103.222H70.9999V96.7777ZM77.4443 96.7777H83.8888V103.222H77.4443V96.7777ZM83.8888 96.7777H90.3332V103.222H83.8888V96.7777ZM96.7777 96.7777H103.222V103.222H96.7777V96.7777ZM103.222 96.7777H109.667V103.222H103.222V96.7777ZM129 96.7777H135.444V103.222H129V96.7777ZM135.444 96.7777H141.889V103.222H135.444V96.7777ZM148.333 96.7777H154.778V103.222H148.333V96.7777ZM161.222 96.7777H167.667V103.222H161.222V96.7777ZM167.667 96.7777H174.111V103.222H167.667V96.7777ZM174.111 96.7777H180.555V103.222H174.111V96.7777ZM25.8888 103.222H32.3332V109.667H25.8888V103.222ZM38.7777 103.222H45.2221V109.667H38.7777V103.222ZM90.3332 103.222H96.7777V109.667H90.3332V103.222ZM96.7777 103.222H103.222V109.667H96.7777V103.222ZM116.111 103.222H122.555V109.667H116.111V103.222ZM122.555 103.222H129V109.667H122.555V103.222ZM129 103.222H135.444V109.667H129V103.222ZM135.444 103.222H141.889V109.667H135.444V103.222ZM141.889 103.222H148.333V109.667H141.889V103.222ZM148.333 103.222H154.778V109.667H148.333V103.222ZM174.111 103.222H180.555V109.667H174.111V103.222ZM25.8888 109.667H32.3332V116.111H25.8888V109.667ZM38.7777 109.667H45.2221V116.111H38.7777V109.667ZM51.6666 109.667H58.111V116.111H51.6666V109.667ZM58.111 109.667H64.5555V116.111H58.111V109.667ZM70.9999 109.667H77.4443V116.111H70.9999V109.667ZM83.8888 109.667H90.3332V116.111H83.8888V109.667ZM90.3332 109.667H96.7777V116.111H90.3332V109.667ZM122.555 109.667H129V116.111H122.555V109.667ZM129 109.667H135.444V116.111H129V109.667ZM148.333 109.667H154.778V116.111H148.333V109.667ZM161.222 109.667H167.667V116.111H161.222V109.667ZM167.667 109.667H174.111V116.111H167.667V109.667ZM19.4443 116.111H25.8888V122.555H19.4443V116.111ZM38.7777 116.111H45.2221V122.555H38.7777V116.111ZM45.2221 116.111H51.6666V122.555H45.2221V116.111ZM70.9999 116.111H77.4443V122.555H70.9999V116.111ZM90.3332 116.111H96.7777V122.555H90.3332V116.111ZM109.667 116.111H116.111V122.555H109.667V116.111ZM122.555 116.111H129V122.555H122.555V116.111ZM129 116.111H135.444V122.555H129V116.111ZM135.444 116.111H141.889V122.555H135.444V116.111ZM141.889 116.111H148.333V122.555H141.889V116.111ZM148.333 116.111H154.778V122.555H148.333V116.111ZM174.111 116.111H180.555V122.555H174.111V116.111ZM32.3332 122.555H38.7777V129H32.3332V122.555ZM38.7777 122.555H45.2221V129H38.7777V122.555ZM45.2221 122.555H51.6666V129H45.2221V122.555ZM58.111 122.555H64.5555V129H58.111V122.555ZM70.9999 122.555H77.4443V129H70.9999V122.555ZM83.8888 122.555H90.3332V129H83.8888V122.555ZM103.222 122.555H109.667V129H103.222V122.555ZM116.111 122.555H122.555V129H116.111V122.555ZM122.555 122.555H129V129H122.555V122.555ZM129 122.555H135.444V129H129V122.555ZM135.444 122.555H141.889V129H135.444V122.555ZM141.889 122.555H148.333V129H141.889V122.555ZM148.333 122.555H154.778V129H148.333V122.555ZM154.778 122.555H161.222V129H154.778V122.555ZM161.222 122.555H167.667V129H161.222V122.555ZM167.667 122.555H174.111V129H167.667V122.555ZM174.111 122.555H180.555V129H174.111V122.555ZM70.9999 129H77.4443V135.444H70.9999V129ZM77.4443 129H83.8888V135.444H77.4443V129ZM103.222 129H109.667V135.444H103.222V129ZM109.667 129H116.111V135.444H109.667V129ZM122.555 129H129V135.444H122.555V129ZM148.333 129H154.778V135.444H148.333V129ZM161.222 129H167.667V135.444H161.222V129ZM174.111 129H180.555V135.444H174.111V129ZM19.4443 135.444H25.8888V141.889H19.4443V135.444ZM25.8888 135.444H32.3332V141.889H25.8888V135.444ZM32.3332 135.444H38.7777V141.889H32.3332V135.444ZM38.7777 135.444H45.2221V141.889H38.7777V135.444ZM45.2221 135.444H51.6666V141.889H45.2221V135.444ZM51.6666 135.444H58.111V141.889H51.6666V135.444ZM58.111 135.444H64.5555V141.889H58.111V135.444ZM77.4443 135.444H83.8888V141.889H77.4443V135.444ZM83.8888 135.444H90.3332V141.889H83.8888V135.444ZM103.222 135.444H109.667V141.889H103.222V135.444ZM122.555 135.444H129V141.889H122.555V135.444ZM135.444 135.444H141.889V141.889H135.444V135.444ZM148.333 135.444H154.778V141.889H148.333V135.444ZM161.222 135.444H167.667V141.889H161.222V135.444ZM167.667 135.444H174.111V141.889H167.667V135.444ZM174.111 135.444H180.555V141.889H174.111V135.444ZM19.4443 141.889H25.8888V148.333H19.4443V141.889ZM58.111 141.889H64.5555V148.333H58.111V141.889ZM77.4443 141.889H83.8888V148.333H77.4443V141.889ZM90.3332 141.889H96.7777V148.333H90.3332V141.889ZM96.7777 141.889H103.222V148.333H96.7777V141.889ZM116.111 141.889H122.555V148.333H116.111V141.889ZM122.555 141.889H129V148.333H122.555V141.889ZM148.333 141.889H154.778V148.333H148.333V141.889ZM19.4443 148.333H25.8888V154.778H19.4443V148.333ZM32.3332 148.333H38.7777V154.778H32.3332V148.333ZM38.7777 148.333H45.2221V154.778H38.7777V148.333ZM45.2221 148.333H51.6666V154.778H45.2221V148.333ZM58.111 148.333H64.5555V154.778H58.111V148.333ZM96.7777 148.333H103.222V154.778H96.7777V148.333ZM109.667 148.333H116.111V154.778H109.667V148.333ZM122.555 148.333H129V154.778H122.555V148.333ZM129 148.333H135.444V154.778H129V148.333ZM135.444 148.333H141.889V154.778H135.444V148.333ZM141.889 148.333H148.333V154.778H141.889V148.333ZM148.333 148.333H154.778V154.778H148.333V148.333ZM154.778 148.333H161.222V154.778H154.778V148.333ZM174.111 148.333H180.555V154.778H174.111V148.333ZM19.4443 154.778H25.8888V161.222H19.4443V154.778ZM32.3332 154.778H38.7777V161.222H32.3332V154.778ZM38.7777 154.778H45.2221V161.222H38.7777V154.778ZM45.2221 154.778H51.6666V161.222H45.2221V154.778ZM58.111 154.778H64.5555V161.222H58.111V154.778ZM70.9999 154.778H77.4443V161.222H70.9999V154.778ZM77.4443 154.778H83.8888V161.222H77.4443V154.778ZM83.8888 154.778H90.3332V161.222H83.8888V154.778ZM90.3332 154.778H96.7777V161.222H90.3332V154.778ZM96.7777 154.778H103.222V161.222H96.7777V154.778ZM129 154.778H135.444V161.222H129V154.778ZM135.444 154.778H141.889V161.222H135.444V154.778ZM148.333 154.778H154.778V161.222H148.333V154.778ZM154.778 154.778H161.222V161.222H154.778V154.778ZM161.222 154.778H167.667V161.222H161.222V154.778ZM167.667 154.778H174.111V161.222H167.667V154.778ZM174.111 154.778H180.555V161.222H174.111V154.778ZM19.4443 161.222H25.8888V167.667H19.4443V161.222ZM32.3332 161.222H38.7777V167.667H32.3332V161.222ZM38.7777 161.222H45.2221V167.667H38.7777V161.222ZM45.2221 161.222H51.6666V167.667H45.2221V161.222ZM58.111 161.222H64.5555V167.667H58.111V161.222ZM70.9999 161.222H77.4443V167.667H70.9999V161.222ZM77.4443 161.222H83.8888V167.667H77.4443V161.222ZM83.8888 161.222H90.3332V167.667H83.8888V161.222ZM90.3332 161.222H96.7777V167.667H90.3332V161.222ZM96.7777 161.222H103.222V167.667H96.7777V161.222ZM109.667 161.222H116.111V167.667H109.667V161.222ZM122.555 161.222H129V167.667H122.555V161.222ZM129 161.222H135.444V167.667H129V161.222ZM135.444 161.222H141.889V167.667H135.444V161.222ZM148.333 161.222H154.778V167.667H148.333V161.222ZM161.222 161.222H167.667V167.667H161.222V161.222ZM167.667 161.222H174.111V167.667H167.667V161.222ZM19.4443 167.667H25.8888V174.111H19.4443V167.667ZM58.111 167.667H64.5555V174.111H58.111V167.667ZM70.9999 167.667H77.4443V174.111H70.9999V167.667ZM77.4443 167.667H83.8888V174.111H77.4443V167.667ZM83.8888 167.667H90.3332V174.111H83.8888V167.667ZM96.7777 167.667H103.222V174.111H96.7777V167.667ZM103.222 167.667H109.667V174.111H103.222V167.667ZM109.667 167.667H116.111V174.111H109.667V167.667ZM129 167.667H135.444V174.111H129V167.667ZM135.444 167.667H141.889V174.111H135.444V167.667ZM148.333 167.667H154.778V174.111H148.333V167.667ZM161.222 167.667H167.667V174.111H161.222V167.667ZM19.4443 174.111H25.8888V180.555H19.4443V174.111ZM25.8888 174.111H32.3332V180.555H25.8888V174.111ZM32.3332 174.111H38.7777V180.555H32.3332V174.111ZM38.7777 174.111H45.2221V180.555H38.7777V174.111ZM45.2221 174.111H51.6666V180.555H45.2221V174.111ZM51.6666 174.111H58.111V180.555H51.6666V174.111ZM58.111 174.111H64.5555V180.555H58.111V174.111ZM70.9999 174.111H77.4443V180.555H70.9999V174.111ZM83.8888 174.111H90.3332V180.555H83.8888V174.111ZM96.7777 174.111H103.222V180.555H96.7777V174.111ZM103.222 174.111H109.667V180.555H103.222V174.111ZM109.667 174.111H116.111V180.555H109.667V174.111ZM135.444 174.111H141.889V180.555H135.444V174.111ZM141.889 174.111H148.333V180.555H141.889V174.111ZM148.333 174.111H154.778V180.555H148.333V174.111ZM154.778 174.111H161.222V180.555H154.778V174.111ZM161.222 174.111H167.667V180.555H161.222V174.111ZM167.667 174.111H174.111V180.555H167.667V174.111ZM174.111 174.111H180.555V180.555H174.111V174.111Z" fill="black"/>
</g>
</g>
<defs>
<clipPath id="clip0_6495_54580">
<rect width="200" height="200" rx="21" fill="white"/>
</clipPath>
<clipPath id="clip1_6495_54580">
<rect width="174" height="174" fill="white" transform="translate(13 13)"/>
</clipPath>
</defs>
</svg>
