<svg width="52" height="52" viewBox="0 0 52 52" fill="none" xmlns="http://www.w3.org/2000/svg">
<circle cx="26" cy="26" r="26" fill="#7D00FF"/>
<path d="M35.2615 22.3497C35.9903 22.3497 36.7028 22.1336 37.3088 21.7287C37.9148 21.3237 38.3871 20.7482 38.6661 20.0748C38.945 19.4015 39.018 18.6605 38.8758 17.9457C38.7336 17.2308 38.3826 16.5742 37.8672 16.0588C37.3519 15.5435 36.6952 15.1925 35.9804 15.0503C35.2655 14.9081 34.5246 14.9811 33.8512 15.26C33.1779 15.5389 32.6023 16.0113 32.1974 16.6173C31.7925 17.2233 31.5763 17.9358 31.5763 18.6646C31.5763 19.1486 31.6716 19.6278 31.8568 20.0749C32.042 20.522 32.3134 20.9282 32.6556 21.2704C32.9978 21.6126 33.4041 21.8841 33.8512 22.0693C34.2983 22.2545 34.7775 22.3498 35.2615 22.3497ZM23.962 38.9465C22.1854 38.9465 20.4487 38.4197 18.9716 37.4327C17.4944 36.4457 16.3431 35.0428 15.6632 33.4015C14.9834 31.7602 14.8055 29.9541 15.1521 28.2117C15.4987 26.4692 16.3542 24.8687 17.6104 23.6125C18.8666 22.3563 20.4672 21.5008 22.2096 21.1542C23.952 20.8076 25.7581 20.9855 27.3994 21.6654C29.0408 22.3452 30.4436 23.4965 31.4306 24.9737C32.4176 26.4509 32.9444 28.1875 32.9444 29.9641C32.9445 31.1437 32.7122 32.3118 32.2607 33.4016C31.8094 34.4914 31.1477 35.4816 30.3136 36.3157C29.4795 37.1498 28.4893 37.8115 27.3994 38.2629C26.3096 38.7143 25.1416 38.9466 23.962 38.9465Z" fill="white"/>
</svg>
