<svg width="56" height="56" viewBox="0 0 56 56" fill="none" xmlns="http://www.w3.org/2000/svg">
<g clip-path="url(#clip0_7823_60666)">
<rect width="56" height="56" rx="13" fill="#28253E"/>
<g clip-path="url(#clip1_7823_60666)">
<path d="M38.9843 21.3831H35.4434C35.2405 21.3825 35.04 21.3389 34.8553 21.2552C34.6705 21.1715 34.5058 21.0496 34.372 20.8975L32.9364 19.2967C32.8299 19.179 32.6998 19.0848 32.5544 19.0204C32.4091 18.956 32.2518 18.9227 32.0927 18.9227C31.9336 18.9227 31.7763 18.956 31.6309 19.0204C31.4856 19.0848 31.3555 19.179 31.249 19.2967L30.0169 20.6841C29.8151 20.9098 29.5675 21.0903 29.2904 21.2136C29.0134 21.3369 28.7132 21.4001 28.4098 21.3991H9.07138C8.50498 22.9924 8.14495 24.6511 8 26.3351H26.2831C26.4423 26.3348 26.5997 26.3025 26.7461 26.2401C26.8924 26.1778 27.0247 26.0867 27.1349 25.9723L28.8384 24.2006C28.9445 24.0927 29.0711 24.0068 29.211 23.9482C29.3508 23.8896 29.5009 23.8593 29.6526 23.8591H29.7222C29.8816 23.8577 30.0394 23.8908 30.1847 23.9563C30.3299 24.0217 30.4591 24.1178 30.5633 24.238L31.9989 25.8389C32.1331 25.9903 32.298 26.1119 32.4826 26.1956C32.6672 26.2793 32.8675 26.3232 33.0703 26.3244H48C47.8577 24.64 47.4976 22.981 46.9286 21.3885H38.9843V21.3831Z" fill="white"/>
<path d="M19.062 36.698C19.2214 36.6989 19.3792 36.6671 19.5257 36.6047C19.6722 36.5423 19.8043 36.4505 19.9137 36.3351L21.6172 34.5688C21.7223 34.4591 21.8487 34.3718 21.9887 34.3122C22.1286 34.2526 22.2793 34.2219 22.4315 34.222H22.5011C22.661 34.2222 22.8191 34.2561 22.9649 34.3214C23.1108 34.3867 23.2412 34.4819 23.3475 34.6008L24.7832 36.2017C24.9181 36.3519 25.0832 36.4723 25.2677 36.5551C25.4523 36.6378 25.6522 36.681 25.8546 36.6819H46.0822C46.85 35.1007 47.403 33.4246 47.7268 31.698H28.3134C28.1104 31.6974 27.9099 31.6538 27.7252 31.57C27.5405 31.4863 27.3758 31.3644 27.242 31.2124L25.8063 29.6115C25.7008 29.4923 25.5709 29.3968 25.4255 29.3314C25.28 29.2659 25.1222 29.2321 24.9626 29.2321C24.803 29.2321 24.6452 29.2659 24.4998 29.3314C24.3543 29.3968 24.2245 29.4923 24.1189 29.6115L22.8868 30.9936C22.685 31.2193 22.4374 31.3998 22.1604 31.5231C21.8834 31.6463 21.5832 31.7096 21.2798 31.7086H8.27319C8.59943 33.4347 9.15237 35.1104 9.91776 36.6926L19.062 36.698Z" fill="white"/>
<path d="M33.4131 16.0043C33.5706 15.9992 33.7255 15.9631 33.8689 15.8981C34.0124 15.833 34.1415 15.7404 34.2488 15.6255L35.9684 13.8699C36.0737 13.7609 36.2003 13.6744 36.3402 13.6157C36.4802 13.557 36.6307 13.5273 36.7826 13.5283H36.8522C37.011 13.5276 37.1681 13.5606 37.3131 13.625C37.4581 13.6894 37.5877 13.7838 37.6933 13.9019L39.1289 15.5027C39.2627 15.6548 39.4274 15.7767 39.6121 15.8604C39.7969 15.9441 39.9974 15.9877 40.2003 15.9883H44.0519C42.1801 13.5092 39.7551 11.4978 36.9684 10.113C34.1818 8.72832 31.11 8.00828 27.9959 8.00983C24.8819 8.01138 21.8108 8.73449 19.0256 10.122C16.2404 11.5095 13.8173 13.5233 11.948 16.0043H33.4131Z" fill="white"/>
<path d="M25.6777 41.6179H20.428C20.2256 41.617 20.0257 41.5738 19.8411 41.491C19.6566 41.4083 19.4915 41.2879 19.3566 41.1377L17.9209 39.5368C17.8154 39.4176 17.6855 39.3221 17.5401 39.2567C17.3946 39.1912 17.2368 39.1574 17.0772 39.1574C16.9176 39.1574 16.7598 39.1912 16.6144 39.2567C16.4689 39.3221 16.3391 39.4176 16.2335 39.5368L15.0014 40.9242C14.7992 41.149 14.5513 41.3284 14.2743 41.4508C13.9973 41.5731 13.6974 41.6355 13.3943 41.6339H13.3247C15.2015 43.6408 17.473 45.2413 19.9978 46.3356C22.5226 47.4299 25.2465 47.9947 27.9999 47.9947C30.7534 47.9947 33.4773 47.4299 36.0021 46.3356C38.5269 45.2413 40.7984 43.6408 42.6752 41.6339L25.6777 41.6179Z" fill="white"/>
</g>
</g>
<defs>
<clipPath id="clip0_7823_60666">
<rect width="56" height="56" fill="white"/>
</clipPath>
<clipPath id="clip1_7823_60666">
<rect width="40" height="40" fill="white" transform="translate(8 8)"/>
</clipPath>
</defs>
</svg>
