<svg width="24" height="24" viewBox="0 0 24 24" fill="none" xmlns="http://www.w3.org/2000/svg">
<path d="M20.4 15.0001C20.5 14.5001 20.6 14.0001 20.6 13.4C20.6 10.1001 18.8001 7.20002 15.9 5.80001C15.8 3.70011 14.1001 2 12 2C9.89994 2 8.2 3.70008 8.1 5.80001C5.20003 7.30002 3.39998 10.2 3.39998 13.4C3.39998 13.9 3.50001 14.5001 3.60004 15.0001C2.60004 15.7002 2 16.8 2 18.1001C2 20.3001 3.70008 22.0001 5.90001 22.0001C6.79998 22.0001 7.69995 21.7002 8.29999 21.1002C11.0999 22.5001 13.8 22.0001 15.7 21.1002C16.4001 21.6002 17.2 22.0001 18.1 22.0001C20.2 22.0001 22 20.3001 22 18.1001C22.0001 16.8001 21.4001 15.7002 20.4001 15.0001H20.4ZM12 4.00004C13 4.00004 13.8999 4.79997 13.8999 5.90001C13.8999 7.00005 13 7.70009 12 7.70009C11 7.70009 10.1 6.90002 10.1 5.90001C10.1 4.90001 11 4.00004 12 4.00004ZM5.89994 20.0001C4.89993 20.0001 3.99996 19.2002 3.99996 18.1001C3.99996 17.0001 4.7999 16.2002 5.89994 16.2002C6.99998 16.2002 7.79991 17.0001 7.79991 18.1001C7.79991 19.2002 6.89994 20.0001 5.89994 20.0001ZM14.3 18.1001C14.3 18.6001 14.4 19.0001 14.5999 19.5001C12.9999 20.2002 11.0999 20.2002 9.59989 19.5001C9.79995 19.1001 9.89984 18.6001 9.89984 18.2002C9.89984 16.1001 8.0999 14.1002 5.69982 14.4002C5.69982 14.1002 5.59979 13.8001 5.59979 13.5002C5.59979 11.1002 6.79987 9.00017 8.79987 7.80016C9.49995 9.00024 10.6998 9.80017 12.0998 9.80017C13.4998 9.80017 14.7999 9.00024 15.3998 7.80016C17.3998 9.00024 18.5998 11.1001 18.5998 13.5002C18.5998 13.8001 18.5998 14.1002 18.4998 14.4002C16.2001 14 14.3002 16.0001 14.3002 18.1002L14.3 18.1001ZM18.1 20.0001C17.1 20.0001 16.2 19.2002 16.2 18.1001C16.2 17.0001 16.9999 16.2002 18.1 16.2002C19.2 16.2002 20 17.0001 20 18.1001C20 19.2002 19.2 20.0001 18.1 20.0001Z" fill="#E5E4FA"/>
</svg>
