<svg width="16" height="16" viewBox="0 0 16 16" fill="none" xmlns="http://www.w3.org/2000/svg">
<path fill-rule="evenodd" clip-rule="evenodd" d="M8.1424 15.8752H7.7674C7.04498 15.1932 6.43716 14.3993 5.9674 13.524C6.11169 13.5394 6.25614 13.5531 6.40072 13.565C6.77341 14.4845 7.38758 15.2804 8.16458 15.8738L8.1424 15.8752ZM5.5888 12.729C5.77686 12.7548 5.96522 12.7776 6.15382 12.7973C6.05328 12.3814 6 11.947 6 11.5002C6 8.46268 8.46243 6.00024 11.5 6.00024C11.526 6.00024 11.552 6.00043 11.578 6.00079C11.4491 5.25003 11.2483 4.51184 10.9777 3.79652C9.14025 3.47988 7.26443 3.45706 5.42005 3.72902C4.30872 6.63762 4.3692 9.86402 5.5888 12.729ZM12.3544 6.06622C13.7853 6.2894 15.0335 7.06421 15.8747 8.16631C15.8751 8.1117 15.8751 8.05857 15.8751 8.00764C15.8751 7.88716 15.8675 7.76857 15.86 7.65045C15.8525 7.5333 15.8451 7.41649 15.8451 7.29887C15.842 7.26607 15.8356 7.23326 15.8292 7.20045C15.8203 7.15451 15.8114 7.10857 15.8114 7.06264C15.8068 7.02528 15.8025 6.98792 15.7981 6.95061C15.7846 6.83439 15.7712 6.71869 15.7514 6.60514C15.7407 6.55164 15.7312 6.51158 15.7194 6.46195C15.7106 6.42464 15.7005 6.38179 15.6876 6.3239C15.6576 6.1889 15.6201 6.02765 15.5939 5.9264C15.5784 5.86685 15.5591 5.8086 15.5397 5.75011C15.5261 5.70927 15.5124 5.66799 15.5001 5.6264C15.4701 5.52514 15.4364 5.42389 15.3989 5.3189L15.2151 5.2139L14.9976 5.0939L14.7388 4.96265L14.5101 4.85015L14.2363 4.7264L14.0001 4.62515L13.7001 4.50515L13.4638 4.4114L13.1563 4.3064L12.9163 4.22765C12.8076 4.19015 12.6951 4.16015 12.5826 4.13015L12.3501 4.0589L11.9751 3.96515L11.8363 3.9314C12.0707 4.62791 12.2439 5.34221 12.3544 6.06622ZM0.17 8.83276C0.168203 8.82158 0.168203 8.81018 0.17 8.79901C0.125 8.53651 0.125 8.27025 0.125 8.00025C0.125 7.73025 0.125 7.52775 0.155 7.29149C0.155 7.24005 0.164598 7.18862 0.174391 7.13614C0.17959 7.10828 0.184849 7.08009 0.18875 7.05149C0.193693 7.01194 0.198376 6.97213 0.203074 6.9322C0.216187 6.82071 0.229428 6.70814 0.24875 6.59772C0.258125 6.55085 0.269375 6.50304 0.280625 6.45522C0.291875 6.40741 0.303125 6.3596 0.3125 6.31273C0.33125 6.21898 0.36875 6.05023 0.4025 5.91897C0.428077 5.81949 0.451501 5.75449 0.476035 5.6864C0.483874 5.66465 0.491827 5.64258 0.5 5.61897C0.513433 5.58016 0.526272 5.53957 0.539227 5.49862C0.558819 5.43668 0.578676 5.37391 0.60125 5.31521C0.626195 5.25034 0.676029 5.23858 0.725367 5.22695C0.750197 5.22109 0.774908 5.21526 0.79625 5.20271L1.04375 5.06396L1.31751 4.92896L1.57251 4.80521L1.86501 4.67771L2.12751 4.56521L2.43127 4.45271L2.70503 4.35146L3.02003 4.24646L3.30503 4.15646L3.63127 4.06646C3.66099 4.05845 3.69072 4.0501 3.72055 4.04172C3.78856 4.02261 3.85714 4.00334 3.92751 3.98771L4.25001 3.91271L4.56501 3.84146C3.59711 6.67606 3.64883 9.75966 4.71126 12.5603C3.34032 12.3042 2.01806 11.8348 0.79246 11.169C0.793397 11.1528 0.793397 11.1365 0.79246 11.1203C0.69332 10.8949 0.605742 10.6646 0.52996 10.4303L0.49996 10.3665C0.42496 10.129 0.36121 9.88902 0.30871 9.64652V9.59027C0.249334 9.34035 0.203046 9.08752 0.17 8.83276ZM1.4376 12.3428C2.6065 12.8508 3.835 13.2086 5.0938 13.4078C5.49762 14.2635 6.01888 15.0586 6.64256 15.7702C5.38232 15.5527 4.19496 15.0285 3.18496 14.2439C2.8977 14.02 2.62692 13.7756 2.37496 13.5127C2.01872 13.1481 1.69848 12.75 1.41872 12.3239L1.4376 12.3428ZM11.135 0.777755C12.727 1.47456 14.045 2.67658 14.885 4.19776C14.6603 4.08915 14.4244 3.99178 14.1885 3.89439L14.1875 3.894L14 3.81525C13.8013 3.74025 13.5988 3.66525 13.3962 3.59774L13.2462 3.54525C12.995 3.4665 12.74 3.3915 12.4962 3.32401L12.3125 3.27526C12.0989 3.22279 11.8848 3.17023 11.6675 3.12526L11.54 3.09901C11.54 3.07977 11.5292 3.06363 11.5185 3.04759C11.5125 3.03862 11.5065 3.02968 11.5025 3.02026C11.405 2.79526 11.3037 2.57026 11.195 2.35649C11.0862 2.14274 10.9662 1.93273 10.8425 1.72649L10.7562 1.58774C10.7016 1.50004 10.6463 1.41671 10.5909 1.33326C10.5207 1.22761 10.4504 1.12172 10.3812 1.00651L10.31 0.909005C10.1862 0.744005 10.0588 0.579005 9.93499 0.425245C9.92121 0.411466 9.91024 0.39628 9.89951 0.38141C9.89271 0.372005 9.886 0.36271 9.87874 0.353995C10.3091 0.458291 10.7295 0.600095 11.135 0.777755ZM8.6112 0.151515C8.70495 0.237765 8.80245 0.327765 8.89244 0.425275C9.04619 0.582775 9.19244 0.751515 9.33868 0.924035L9.42493 1.02904C9.55993 1.19779 9.69117 1.37404 9.81869 1.55404C9.83508 1.57511 9.85001 1.59764 9.8653 1.62073C9.8745 1.63462 9.88383 1.6487 9.89369 1.66278C10.0137 1.84279 10.1337 2.03779 10.2425 2.21779C10.25 2.23114 10.2587 2.24372 10.2687 2.25529C10.3812 2.45779 10.4899 2.66405 10.5949 2.87405C10.6034 2.89725 10.6134 2.91975 10.6249 2.94155H10.5837L10.4524 2.9228C10.2499 2.89655 10.0437 2.8703 9.83744 2.85155H9.67619C9.55748 2.85155 9.43744 2.83951 9.31686 2.82741C9.23555 2.81926 9.15399 2.81108 9.07243 2.80655H8.91493L8.29617 2.7503H7.78993C7.54993 2.7503 7.30617 2.7503 7.06617 2.7728H6.76617C6.44367 2.7953 6.12117 2.8253 5.80617 2.86279H5.77242L5.80992 2.7878C5.91117 2.58156 6.01992 2.37903 6.13242 2.18029L6.15492 2.14654C6.26742 1.9553 6.38742 1.77154 6.52992 1.59154L6.60117 1.48654C6.72492 1.31029 6.85993 1.13405 6.99493 0.969045L7.07743 0.867795C7.22368 0.699045 7.36993 0.534035 7.52367 0.376555C7.61367 0.282805 7.71117 0.192805 7.80491 0.106555C8.07437 0.104993 8.34364 0.120031 8.6112 0.151515ZM4.8612 0.777755C5.42464 0.532215 6.01496 0.353535 6.61996 0.245255C6.52325 0.353759 6.42802 0.474132 6.33521 0.591442C6.28048 0.660633 6.22658 0.728759 6.17372 0.792755L6.09497 0.897755C5.95622 1.08526 5.82121 1.27276 5.69373 1.48276L5.62248 1.59901C5.49498 1.8015 5.37498 2.00777 5.26624 2.22151C5.25858 2.2319 5.25233 2.24322 5.24749 2.25526C5.13124 2.47276 5.02625 2.69775 4.92499 2.9265L4.88749 3.00525L4.74499 3.03524C4.49749 3.08025 4.25375 3.13275 4.01375 3.189L3.815 3.234C3.52624 3.30525 3.245 3.38025 2.9675 3.4665L2.78375 3.52649C2.55625 3.6015 2.33125 3.68025 2.10875 3.76274L1.91375 3.83774C1.65125 3.93899 1.39625 4.0515 1.16375 4.16774H1.1225C1.96586 2.65898 3.2803 1.46814 4.8649 0.777735L4.8612 0.777755Z" fill="white"/>
<path d="M11.5 14C12.8807 14 14 12.8807 14 11.5C14 10.1193 12.8807 9 11.5 9C10.1193 9 9 10.1193 9 11.5C9 12.8807 10.1193 14 11.5 14Z" fill="currentColor"/>
</svg>
