<svg width="24" height="24" viewBox="0 0 24 24" fill="none" xmlns="http://www.w3.org/2000/svg">
<path fill-rule="evenodd" clip-rule="evenodd" d="M13.6862 2.118C13.5249 2.12323 13.3701 2.183 13.2473 2.28769C13.1245 2.3923 13.0409 2.53559 13.0101 2.69393C12.9737 2.87939 13.0125 3.07167 13.1179 3.22847C13.2233 3.38526 13.3867 3.49379 13.5721 3.53011C15.2335 3.85887 16.7597 4.67261 17.9573 5.87011C20.6845 8.59731 21.2483 12.8007 19.3361 16.1499C19.242 16.3137 19.2168 16.5083 19.2661 16.6906C19.3154 16.8729 19.4352 17.0283 19.599 17.1224C19.7629 17.2165 19.9573 17.2416 20.1397 17.1923C20.3221 17.143 20.4774 17.0233 20.5715 16.8594C22.7987 12.9582 22.1383 8.03643 18.9618 4.86003C17.5647 3.46299 15.7844 2.51523 13.8462 2.13183H13.8463C13.7936 2.12113 13.7399 2.11652 13.6863 2.11792L13.6862 2.118ZM9.53615 2.23769V2.23761C9.4949 2.24058 9.45389 2.24706 9.41373 2.25714C7.69115 2.70292 6.11833 3.6019 4.86013 4.86014C3.60231 6.11804 2.70313 7.69154 2.25713 9.41374H2.25705C2.20971 9.5964 2.23666 9.79038 2.33213 9.95312C2.4276 10.1159 2.58377 10.2341 2.76627 10.2819C2.94908 10.3293 3.14331 10.3021 3.30603 10.2063C3.46884 10.1106 3.58697 9.95415 3.63439 9.77133C4.01665 8.29523 4.79049 6.94853 5.86859 5.87033C6.94711 4.79181 8.29439 4.02237 9.77099 3.64013H9.77107C9.95326 3.59232 10.1092 3.47427 10.2047 3.31185C10.3001 3.14943 10.3272 2.95583 10.2803 2.77333C10.2391 2.61076 10.1419 2.46779 10.0058 2.36981C9.86958 2.27185 9.70317 2.22505 9.53591 2.2377L9.53615 2.23769ZM12.0002 5.37069C8.34655 5.37069 5.36955 8.34789 5.36955 12.0013C5.36955 15.6547 8.34675 18.6319 12.0002 18.6319C15.6538 18.6319 18.6308 15.6547 18.6308 12.0013C18.6308 8.34789 15.6536 5.37069 12.0002 5.37069ZM12.0002 6.79529C14.8838 6.79529 17.2062 9.11769 17.2062 12.0013C17.2062 14.8849 14.8838 17.2059 12.0002 17.2059C9.11655 17.2059 6.79415 14.8849 6.79415 12.0013C6.79415 9.11769 9.11655 6.79529 12.0002 6.79529ZM2.84575 13.0031C2.7931 13.0014 2.74036 13.0056 2.68857 13.0156C2.50388 13.0529 2.34153 13.1618 2.23701 13.3185C2.1324 13.4752 2.09419 13.6669 2.13068 13.8518C2.51436 15.7894 3.46358 17.5664 4.86028 18.9632C8.03668 22.1396 12.9529 22.7988 16.8543 20.5714C17.0173 20.4781 17.1369 20.3241 17.1869 20.1429C17.2369 19.9618 17.2133 19.7683 17.1214 19.6045C17.0282 19.4397 16.8733 19.3188 16.6908 19.2684C16.5084 19.2181 16.3134 19.2424 16.1489 19.336C12.7995 21.2481 8.59609 20.6858 5.86909 17.9586C4.67183 16.7614 3.85369 15.2344 3.52489 13.5734L3.52481 13.5735C3.49278 13.4157 3.40825 13.2733 3.28497 13.1697C3.16169 13.0661 3.00693 13.0074 2.84591 13.0031L2.84575 13.0031Z" fill="#E5E4FA" stroke="#E5E4FA" stroke-width="0.5"/>
</svg>
