<svg width="40" height="40" viewBox="0 0 40 40" fill="none" xmlns="http://www.w3.org/2000/svg">
<circle cx="20" cy="20" r="20" fill="#6E42CA"/>
<path fill-rule="evenodd" clip-rule="evenodd" d="M28.3333 13.333C27.8667 13.333 27.45 13.5163 27.15 13.8163L16.6667 24.3163L12.85 20.483C12.55 20.183 12.1333 19.9997 11.6667 19.9997C10.75 19.9997 10 20.7497 10 21.6663C10 22.133 10.1833 22.5497 10.4833 22.8497L15.4833 27.8497C15.7833 28.1497 16.2 28.333 16.6667 28.333C17.1333 28.333 17.55 28.1497 17.85 27.8497L29.5167 16.183C29.8167 15.883 30 15.4663 30 14.9997C30 14.083 29.25 13.333 28.3333 13.333Z" fill="white"/>
</svg>
