<svg width="20" height="20" viewBox="0 0 20 20" fill="none" xmlns="http://www.w3.org/2000/svg">
<path d="M5.41675 10.0002L1.66675 12.5002V14.5835L10.0001 19.1668L18.3334 15.0002V11.2502L14.5834 8.3335L10.0001 12.5002L5.41675 10.0002Z" fill="#E5E4FA"/>
<ellipse cx="8.33342" cy="6.66667" rx="1.66667" ry="1.66667" fill="#E5E4FA"/>
<path d="M2.3544 5.30937L9.52107 1.40028C9.81954 1.23747 10.1803 1.23747 10.4788 1.40028L17.6454 5.30937C17.9667 5.4846 18.1666 5.82132 18.1666 6.18727V14.1806C18.1666 14.5594 17.9526 14.9056 17.6138 15.075L10.4874 18.6382C10.1946 18.7846 9.84872 18.7784 9.56134 18.6217L2.3544 14.6906L1.87555 15.5685L2.3544 14.6906C2.03314 14.5154 1.83325 14.1787 1.83325 13.8127V6.18727C1.83325 5.82132 2.03314 5.4846 2.3544 5.30937Z" stroke="#E5E4FA" stroke-width="2"/>
</svg>
