<svg width="24" height="24" viewBox="0 0 24 24" fill="none" fill-rule="evenodd" xmlns="http://www.w3.org/2000/svg">
    <g opacity="1">
        <path d="M6.5 12L2 15V17.5L12 23L22 18V13.5L17.5 10L12 15L6.5 12Z" fill="currentColor"/>
            <circle cx="10" cy="8" r="2" fill="currentColor"/>
        <path d="M2.52115 6.30937L11.5211 1.40028C11.8196 1.23747 12.1804 1.23747 12.4789 1.40028L21.4789 6.30937C21.8001 6.4846 22 6.82132 22 7.18727V17.2639C22 17.6427 21.786 17.989 21.4472 18.1584L12.4875 22.6382C12.1947 22.7846 11.8488 22.7784 11.5614 22.6217L2.52115 17.6906C2.19989 17.5154 2 17.1787 2 16.8127V7.18727C2 6.82132 2.19989 6.4846 2.52115 6.30937Z" stroke="currentColor" stroke-width="2"/>
    </g>
</svg>
