<svg width="32" height="32" viewBox="0 0 32 32" fill="none" xmlns="http://www.w3.org/2000/svg">
<path d="M29.7666 0L24.9794 4.78391H24.979C21.2675 1.80239 16.3181 0.853164 11.7654 2.25033C7.21265 3.64711 3.64921 7.20813 2.25148 11.7578C0.853742 16.307 1.80325 21.2529 4.78716 24.9624L0 29.7463L2.25518 32L7.04234 27.2161C10.7568 30.1439 15.6762 31.0556 20.1942 29.6541C24.712 28.2525 28.25 24.717 29.6525 20.2023C31.0551 15.6872 30.1426 10.7712 27.2128 7.05929L32 2.27539L29.7666 0ZM4.82961 16.0106C4.8348 13.2386 5.87152 10.5677 7.73821 8.51759C9.60527 6.46707 12.1685 5.18457 14.9298 4.91907C17.6907 4.65322 20.452 5.42372 22.6761 7.08046L7.06399 22.6819C5.6143 20.7594 4.82989 18.4178 4.82961 16.0107V16.0106ZM16.0001 27.1735C13.5913 27.1731 11.2482 26.3893 9.3243 24.9406L24.9364 9.33914C26.5942 11.5617 27.3652 14.3211 27.0992 17.0802C26.8336 19.8396 25.5501 22.4011 23.4983 24.2669C21.4467 26.1323 18.7742 27.1683 16.0002 27.1735H16.0001Z" fill="#9594AA"/>
</svg>
