<svg width="41" height="40" fill="none" xmlns="http://www.w3.org/2000/svg">
  <g clip-path="url(#a)">
    <g filter="url(#b)">
      <path d="M5.5 21.667h7.303v0c.631 0 1.208.356 1.49.92l.745 1.491v0c.283.566.86.922 1.492.922h7.938v0c.632 0 1.21-.357 1.492-.922l.745-1.49v0c.282-.565.86-.922 1.492-.921H35.5" stroke="#D4C4ED" stroke-width="3" stroke-linecap="round" stroke-linejoin="round" shape-rendering="crispEdges" />
    </g>
    <g filter="url(#c)">
      <path d="M15.5 5h15a5 5 0 0 1 5 5v20a5 5 0 0 1-5 5h-20a5 5 0 0 1-5-5V10a5 5 0 0 1 5-5h5Z" stroke="#D4C4ED" stroke-width="3" stroke-linecap="round" stroke-linejoin="round" shape-rendering="crispEdges" />
    </g>
  </g>
  <defs>
    <filter id="b" x="0" y="20.167" width="41" height="14.333" filterUnits="userSpaceOnUse" color-interpolation-filters="sRGB">
      <feFlood flood-opacity="0" result="BackgroundImageFix" />
      <feColorMatrix in="SourceAlpha" values="0 0 0 0 0 0 0 0 0 0 0 0 0 0 0 0 0 0 127 0" result="hardAlpha" />
      <feOffset dy="4" />
      <feGaussianBlur stdDeviation="2" />
      <feComposite in2="hardAlpha" operator="out" />
      <feColorMatrix values="0 0 0 0 0 0 0 0 0 0 0 0 0 0 0 0 0 0 0.25 0" />
      <feBlend in2="BackgroundImageFix" result="effect1_dropShadow_23264_11848" />
      <feBlend in="SourceGraphic" in2="effect1_dropShadow_23264_11848" result="shape" />
    </filter>
    <filter id="c" x="0" y="3.5" width="41" height="41" filterUnits="userSpaceOnUse" color-interpolation-filters="sRGB">
      <feFlood flood-opacity="0" result="BackgroundImageFix" />
      <feColorMatrix in="SourceAlpha" values="0 0 0 0 0 0 0 0 0 0 0 0 0 0 0 0 0 0 127 0" result="hardAlpha" />
      <feOffset dy="4" />
      <feGaussianBlur stdDeviation="2" />
      <feComposite in2="hardAlpha" operator="out" />
      <feColorMatrix values="0 0 0 0 0 0 0 0 0 0 0 0 0 0 0 0 0 0 0.25 0" />
      <feBlend in2="BackgroundImageFix" result="effect1_dropShadow_23264_11848" />
      <feBlend in="SourceGraphic" in2="effect1_dropShadow_23264_11848" result="shape" />
    </filter>
    <clipPath id="a">
      <path fill="#fff" transform="translate(.5)" d="M0 0h40v40H0z" />
    </clipPath>
  </defs>
</svg>
