<svg width="16" height="16" viewBox="0 0 16 16" fill="none" xmlns="http://www.w3.org/2000/svg">
<path d="M9.60078 14.4C9.60078 14.8243 9.43221 15.2313 9.13215 15.5314C8.83209 15.8314 8.42513 16 8.00078 16C7.57644 16 7.16947 15.8314 6.86941 15.5314C6.56935 15.2313 6.40078 14.8243 6.40078 14.4H9.60078ZM8.00078 0C8.21295 0 8.41644 0.0842854 8.56647 0.234315C8.7165 0.384344 8.80078 0.587827 8.80078 0.8V1.664C11.0728 2.048 12.8008 4.024 12.8008 6.4V11.2L15.2008 13.6H0.800781L3.20078 11.2V6.4C3.20078 4.024 4.92878 2.048 7.20078 1.664V0.8C7.20078 0.587827 7.28507 0.384344 7.4351 0.234315C7.58512 0.0842854 7.78861 0 8.00078 0Z" fill="#E5E4FA"/>
</svg>
