<svg width="56" height="56" fill="none" xmlns="http://www.w3.org/2000/svg">
  <g clip-path="url(#a)">
    <rect width="56" height="56" rx="13" fill="#2081E2" />
    <path d="m13.814 28.94.12-.19 7.284-11.394a.25.25 0 0 1 .438.032c1.217 2.727 2.267 6.118 1.775 8.23-.21.869-.786 2.045-1.433 3.133a5.705 5.705 0 0 1-.273.463.247.247 0 0 1-.207.109h-7.491a.249.249 0 0 1-.213-.383Z" fill="#fff" />
    <path d="M46.28 31.058v1.803a.259.259 0 0 1-.155.236c-.564.242-2.494 1.128-3.297 2.244-2.048 2.85-3.613 6.927-7.111 6.927H21.123c-5.172 0-9.363-4.206-9.363-9.395v-.167a.25.25 0 0 1 .25-.25h8.135c.161 0 .28.15.265.308-.058.529.04 1.07.29 1.562a2.862 2.862 0 0 0 2.567 1.593h4.027v-3.144h-3.981a.256.256 0 0 1-.207-.403c.043-.066.091-.135.143-.212.377-.536.915-1.367 1.45-2.313.365-.639.72-1.32 1.004-2.005.058-.124.104-.25.15-.374.077-.22.158-.423.215-.628.058-.172.104-.353.15-.523a8.1 8.1 0 0 0 .193-1.835c0-.25-.012-.512-.035-.763a9.843 9.843 0 0 0-.08-.82 8.46 8.46 0 0 0-.113-.73 12.329 12.329 0 0 0-.23-1.093l-.031-.139c-.07-.25-.127-.489-.207-.739a27.89 27.89 0 0 0-.766-2.267c-.1-.285-.215-.558-.33-.831-.17-.411-.343-.785-.5-1.14-.081-.16-.15-.307-.22-.457-.077-.17-.158-.34-.238-.5-.058-.124-.124-.239-.17-.354l-.492-.909c-.069-.124.046-.27.181-.233l3.078.834h.009c.006 0 .009.003.012.003l.405.112.446.127.164.046v-1.83c0-.883.708-1.6 1.582-1.6.437 0 .834.18 1.12.47.284.29.462.687.462 1.13v2.716l.328.092c.026.009.052.02.075.037l.342.26c.115.091.24.204.389.319.296.238.65.546 1.038.9.104.09.204.181.296.273.501.466 1.062 1.013 1.597 1.617.15.17.296.342.446.523.15.185.308.366.446.547.181.242.377.492.547.754.08.123.172.25.25.374.218.33.411.673.595 1.015.078.158.158.331.227.5.205.458.366.924.47 1.39.031.1.054.21.066.308v.023c.034.138.046.285.057.434a4.643 4.643 0 0 1-.25 2.037c-.07.196-.138.4-.227.593-.173.4-.377.8-.619 1.173a6.69 6.69 0 0 1-.262.423c-.1.147-.204.285-.296.42a8.739 8.739 0 0 1-.4.515c-.124.17-.25.34-.388.49-.193.227-.377.442-.57.65a5.947 5.947 0 0 1-.365.396c-.124.138-.25.262-.366.377-.192.193-.353.343-.489.466l-.316.29a.258.258 0 0 1-.17.064h-2.45v3.144h3.083c.69 0 1.346-.244 1.876-.693.181-.158.972-.843 1.907-1.876a.24.24 0 0 1 .118-.072l8.518-2.462a.251.251 0 0 1 .32.242Z" fill="#fff" />
  </g>
  <defs>
    <clipPath id="a">
      <path fill="#fff" d="M0 0h56v56H0z" />
    </clipPath>
  </defs>
</svg>
