<svg width="34" height="34" viewBox="0 0 34 34" fill="none" xmlns="http://www.w3.org/2000/svg">
<g clip-path="url(#clip0_21288_17996)">
<path d="M17 34C26.3888 34 34 26.3888 34 17C34 7.61116 26.3888 0 17 0C7.61116 0 0 7.61116 0 17C0 26.3888 7.61116 34 17 34Z" fill="#FF0420"/>
<path d="M12.0423 21.5149C11.0291 21.5149 10.1995 21.2769 9.55353 20.8009C8.91433 20.3181 8.59473 19.6245 8.59473 18.7337C8.59473 18.5433 8.61513 18.3189 8.65593 18.0469C8.76473 17.4349 8.92113 16.7005 9.12513 15.8369C9.70313 13.4977 11.1991 12.3281 13.6063 12.3281C14.2591 12.3281 14.8507 12.4369 15.3675 12.6613C15.8843 12.8721 16.2923 13.1985 16.5915 13.6337C16.8907 14.0621 17.0403 14.5721 17.0403 15.1637C17.0403 15.3405 17.0199 15.5649 16.9791 15.8369C16.8499 16.5917 16.7003 17.3329 16.5167 18.0469C16.2175 19.2097 15.7075 20.0869 14.9731 20.6649C14.2455 21.2361 13.2663 21.5149 12.0423 21.5149ZM12.2259 19.6789C12.7019 19.6789 13.1031 19.5361 13.4363 19.2573C13.7763 18.9785 14.0211 18.5501 14.1639 17.9653C14.3611 17.1629 14.5107 16.4693 14.6127 15.8709C14.6467 15.6941 14.6671 15.5105 14.6671 15.3201C14.6671 14.5449 14.2659 14.1573 13.4567 14.1573C12.9807 14.1573 12.5727 14.3001 12.2327 14.5789C11.8995 14.8577 11.6615 15.2861 11.5187 15.8709C11.3623 16.4421 11.2127 17.1357 11.0563 17.9653C11.0223 18.1353 11.0019 18.3121 11.0019 18.5025C10.9951 19.2913 11.4099 19.6789 12.2259 19.6789Z" fill="white"/>
<path d="M17.6326 21.3932C17.5374 21.3932 17.4694 21.366 17.415 21.3048C17.3742 21.2368 17.3606 21.162 17.3742 21.0736L19.1354 12.7776C19.149 12.6824 19.1966 12.6076 19.2782 12.5464C19.353 12.4852 19.4346 12.458 19.523 12.458H22.9162C23.8614 12.458 24.6162 12.6552 25.1874 13.0428C25.7654 13.4372 26.0578 14.0016 26.0578 14.7428C26.0578 14.9536 26.0306 15.178 25.983 15.4092C25.7722 16.3884 25.3438 17.1092 24.691 17.5784C24.0518 18.0476 23.1746 18.2788 22.0594 18.2788H20.339L19.7542 21.0736C19.7338 21.1688 19.693 21.2436 19.6114 21.3048C19.5366 21.366 19.455 21.3932 19.3666 21.3932H17.6326ZM22.1478 16.5176C22.5082 16.5176 22.8142 16.4224 23.0794 16.2252C23.3514 16.028 23.5282 15.7492 23.6166 15.382C23.6438 15.2392 23.6574 15.11 23.6574 15.0012C23.6574 14.7564 23.5826 14.566 23.4398 14.4368C23.297 14.3008 23.0454 14.2328 22.6986 14.2328H21.1686L20.6858 16.5176H22.1478Z" fill="white"/>
</g>
<defs>
<clipPath id="clip0_21288_17996">
<rect width="34" height="34" fill="white"/>
</clipPath>
</defs>
</svg>
