<svg width="22" height="18" viewBox="0 0 22 18" fill="none" xmlns="http://www.w3.org/2000/svg">
<path fill-rule="evenodd" clip-rule="evenodd" d="M13.6979 1.00408C14.1002 1.00806 14.4106 1.01134 14.6839 1.06904C15.799 1.30501 16.6633 2.19411 16.8737 3.32215C16.9253 3.59871 16.9219 3.91138 16.9174 4.31646L16.9159 4.46778C16.9118 4.87305 16.9087 5.18552 16.8512 5.46107C16.6172 6.58425 15.7343 7.45491 14.6147 7.66687C14.34 7.71886 14.0297 7.71524 13.6274 7.71092L13.4774 7.70919C13.075 7.70522 12.7647 7.70193 12.4913 7.64424C11.3761 7.40827 10.5119 6.51916 10.3015 5.39112C10.2844 5.29974 10.2734 5.20456 10.2664 5.10333H1.26828C0.844009 5.10333 0.5 4.7568 0.5 4.32943C0.5 3.90205 0.844009 3.55553 1.26828 3.55553H10.2813C10.2904 3.44842 10.3039 3.34806 10.3238 3.25219C10.5579 2.12901 11.4407 1.25835 12.5604 1.04639C12.8351 0.994394 13.1453 0.997848 13.5476 1.00234L13.6979 1.00408ZM14.3682 2.58386C14.2635 2.56175 14.1194 2.55639 13.6066 2.55104C13.0939 2.54551 12.9495 2.54775 12.8444 2.56762C12.3354 2.66401 11.9341 3.05978 11.8278 3.57024C11.8057 3.67579 11.8005 3.82107 11.795 4.3376C11.7897 4.85412 11.7918 4.99939 11.8115 5.10526C11.9072 5.61798 12.3001 6.02218 12.807 6.12946C12.9118 6.15158 13.0558 6.15693 13.5688 6.16229C14.0814 6.16781 14.2256 6.16557 14.3309 6.1457C14.8399 6.04931 15.2411 5.65354 15.3475 5.14308C15.3696 5.03753 15.3747 4.89225 15.3802 4.37572C15.3855 3.8592 15.3835 3.71393 15.3638 3.60806C15.2681 3.09534 14.8752 2.69114 14.3682 2.58386Z" fill="#D4C4ED" stroke="#D4C4ED" stroke-width="0.4"/>
<path d="M20.7311 5.10347C21.1554 5.10347 21.4994 4.75694 21.4994 4.32956C21.4994 3.90219 21.1554 3.55566 20.7311 3.55566H18.6823C18.2581 3.55566 17.9141 3.90219 17.9141 4.32956C17.9141 4.75694 18.2581 5.10347 18.6823 5.10347H20.7311Z" fill="#D4C4ED" stroke="#D4C4ED" stroke-width="0.4"/>
<path d="M1.26828 14.3896C0.844009 14.3896 0.5 14.0431 0.5 13.6157C0.5 13.1883 0.844009 12.8418 1.26828 12.8418H3.31655C3.74082 12.8418 4.08483 13.1883 4.08483 13.6157C4.08483 14.0431 3.74082 14.3896 3.31655 14.3896H1.26828Z" fill="#D4C4ED" stroke="#D4C4ED" stroke-width="0.4"/>
<path fill-rule="evenodd" clip-rule="evenodd" d="M20.7316 12.8426H11.7831C11.776 12.7614 11.7661 12.684 11.752 12.6092C11.5416 11.4812 10.6775 10.5921 9.56244 10.3563C9.28891 10.2984 8.97851 10.2953 8.57637 10.2912L8.42614 10.2894C8.02399 10.285 7.71362 10.2815 7.43906 10.3335C6.31921 10.5455 5.43639 11.4161 5.20231 12.5393C5.14503 12.8148 5.14177 13.1275 5.13783 13.5326L5.13611 13.6837C5.13165 14.089 5.12822 14.4017 5.17984 14.6782C5.39026 15.8063 6.25455 16.6954 7.36961 16.9313C7.64297 16.989 7.95337 16.9923 8.35569 16.9963L8.50574 16.998C8.90806 17.0023 9.21844 17.006 9.493 16.954C10.6128 16.742 11.4955 15.8714 11.7296 14.7482C11.7531 14.6362 11.7673 14.5182 11.7764 14.3904H20.7315C21.1557 14.3904 21.4997 14.0439 21.4997 13.6165C21.4997 13.1891 21.1557 12.8426 20.7315 12.8426H20.7316ZM8.48475 11.8381C8.99752 11.8436 9.14173 11.8488 9.24653 11.8711C9.75328 11.9782 10.1462 12.3823 10.2419 12.8949C10.2616 13.001 10.2638 13.1463 10.2583 13.6628C10.2528 14.1793 10.2477 14.3246 10.2257 14.4301C10.1192 14.9408 9.71798 15.3364 9.20898 15.4328C9.10386 15.4526 8.95963 15.4549 8.44689 15.4493C7.93395 15.444 7.78991 15.4386 7.68511 15.4165C7.17818 15.3092 6.78548 14.905 6.68977 14.3923C6.67005 14.2864 6.66782 14.1411 6.67331 13.6247C6.67863 13.108 6.68394 12.9629 6.70589 12.8573C6.81239 12.3468 7.21349 11.9511 7.72248 11.8547C7.82777 11.8348 7.972 11.8326 8.48475 11.8381Z" fill="#D4C4ED" stroke="#D4C4ED" stroke-width="0.4"/>
</svg>