<svg width="56" height="56" viewBox="0 0 56 56" fill="none" xmlns="http://www.w3.org/2000/svg">
<rect width="56" height="56" rx="13" fill="white"/>
<g clip-path="url(#clip0_6937_55380)">
<path fill-rule="evenodd" clip-rule="evenodd" d="M27.9095 48.1226C21.9519 48.1182 17.1527 46.703 13.7996 44.1612C10.4061 41.5889 8.60608 37.9384 8.60608 33.8077C8.60608 29.8277 10.4022 26.9578 12.4348 25.0178C14.0275 23.4976 15.7851 22.524 17.0089 21.9638C16.7321 21.123 16.3869 20.0224 16.078 18.8855C15.6647 17.3642 15.2592 15.5792 15.2592 14.2713C15.2592 12.7232 15.6 11.1683 16.5194 9.9602C17.4909 8.68384 18.9532 8 20.7123 8C22.0873 8 23.2546 8.50485 24.1685 9.37576C25.042 10.2081 25.6235 11.3137 26.0249 12.4663C26.7301 14.4913 27.0047 17.0356 27.0818 19.5747H28.7669C28.8441 17.0356 29.1186 14.4913 29.8241 12.4663C30.2255 11.3137 30.8069 10.2083 31.6804 9.37576C32.5942 8.50505 33.7614 8 35.1364 8C36.8956 8 38.358 8.68384 39.3293 9.9602C40.2487 11.1683 40.5897 12.7232 40.5897 14.2713C40.5897 15.5792 40.1843 17.3642 39.7707 18.8855C39.4618 20.0224 39.1166 21.123 38.8398 21.9638C40.0637 22.524 41.8214 23.4976 43.4142 25.018C45.4465 26.9578 47.2428 29.8277 47.2428 33.8077C47.2428 37.9384 45.4426 41.5889 42.0493 44.1612C38.6962 46.703 33.897 48.1182 27.9394 48.1226H27.9095V48.1226Z" fill="#633001"/>
<path d="M20.7123 9.47235C18.1358 9.47235 16.9495 11.3948 16.9495 14.0532C16.9495 16.1663 18.3277 20.3982 18.8932 22.0457C19.0204 22.4164 18.8204 22.8223 18.456 22.9659C16.3909 23.7802 10.2964 26.7616 10.2964 33.5897C10.2964 40.7823 16.4899 46.2055 27.9107 46.214H27.938C39.359 46.2055 45.5521 40.7823 45.5521 33.5897C45.5521 26.7616 39.4578 23.7802 37.3927 22.9659C37.0283 22.8225 36.8283 22.4164 36.9556 22.0457C37.521 20.3984 38.8992 16.1663 38.8992 14.0532C38.8992 11.3946 37.7132 9.47235 35.1364 9.47235C31.4273 9.47235 30.5029 14.7263 30.4368 20.3653C30.4323 20.7416 30.1281 21.0471 29.7515 21.0471H26.097C25.7206 21.0471 25.4162 20.7416 25.4119 20.3653C25.3461 14.7263 24.4214 9.47235 20.7123 9.47235V9.47235Z" fill="#D1884F"/>
<path d="M27.9379 43.9101C19.5464 43.9101 10.3111 39.4182 10.2965 33.6035V33.6305C10.2965 40.8289 16.4995 46.255 27.9379 46.255C39.3763 46.255 45.5793 40.8289 45.5793 33.6305V33.6035C45.5648 39.4182 36.3294 43.9101 27.9379 43.9101Z" fill="#FEDC90"/>
<path d="M23.2755 31.8174C23.2755 33.7806 22.3476 34.803 21.2032 34.803C20.0587 34.803 19.1309 33.7806 19.1309 31.8174C19.1309 29.8542 20.0587 28.8317 21.2032 28.8317C22.3476 28.8317 23.2755 29.8542 23.2755 31.8174V31.8174ZM36.745 31.8174C36.745 33.7806 35.8173 34.803 34.6729 34.803C33.5282 34.803 32.6006 33.7806 32.6006 31.8174C32.6006 29.8542 33.5282 28.8317 34.6729 28.8317C35.8173 28.8317 36.745 29.8542 36.745 31.8174V31.8174Z" fill="#633001"/>
</g>
<defs>
<clipPath id="clip0_6937_55380">
<rect width="40" height="40.202" fill="white" transform="translate(8 8)"/>
</clipPath>
</defs>
</svg>
