<svg width="162" height="48" viewBox="0 0 162 48" fill="none" xmlns="http://www.w3.org/2000/svg">
    <rect x="0.5" y="0.5" width="161" height="47" rx="4.5" fill="black"/>
    <path d="M128.322 36.0002H130.561V20.9983H128.322V36.0002ZM148.49 26.4026L145.923 32.9065H145.846L143.182 26.4026H140.77L144.766 35.4926L142.488 40.5494H144.823L150.98 26.4026H148.49ZM135.79 34.2963C135.058 34.2963 134.035 33.9292 134.035 33.0223C134.035 31.8644 135.309 31.4205 136.408 31.4205C137.392 31.4205 137.857 31.6324 138.454 31.9221C138.28 33.312 137.084 34.2963 135.79 34.2963ZM136.062 26.0744C134.44 26.0744 132.762 26.7888 132.067 28.3713L134.054 29.201C134.479 28.3713 135.27 28.1013 136.1 28.1013C137.258 28.1013 138.435 28.7955 138.454 30.0312V30.1854C138.049 29.9538 137.18 29.6065 136.119 29.6065C133.976 29.6065 131.796 30.7834 131.796 32.9838C131.796 34.991 133.552 36.2843 135.52 36.2843C137.025 36.2843 137.857 35.6088 138.376 34.8171H138.454V35.9758H140.617V30.2238C140.617 27.5604 138.627 26.0744 136.062 26.0744ZM122.223 28.2288H119.038V23.0866H122.223C123.897 23.0866 124.848 24.4723 124.848 25.6576C124.848 26.8202 123.897 28.2288 122.223 28.2288ZM122.166 20.9983H116.8V36.0002H119.038V30.3166H122.166C124.647 30.3166 127.087 28.5204 127.087 25.6576C127.087 22.7955 124.647 20.9983 122.166 20.9983ZM92.9079 34.2991C91.361 34.2991 90.0663 33.0034 90.0663 31.2255C90.0663 29.427 91.361 28.113 92.9079 28.113C94.4351 28.113 95.6337 29.427 95.6337 31.2255C95.6337 33.0034 94.4351 34.2991 92.9079 34.2991ZM95.479 27.2426H95.4016C94.8992 26.6434 93.9321 26.1021 92.7148 26.1021C90.1624 26.1021 87.8234 28.345 87.8234 31.2255C87.8234 34.0863 90.1624 36.3096 92.7148 36.3096C93.9321 36.3096 94.8992 35.7681 95.4016 35.1499H95.479V35.8839C95.479 37.8372 94.4351 38.8807 92.7532 38.8807C91.3811 38.8807 90.5304 37.8949 90.1821 37.0638L88.2298 37.8757C88.79 39.2285 90.2782 40.8916 92.7532 40.8916C95.3829 40.8916 97.6061 39.3447 97.6061 35.5746V26.4115H95.479V27.2426ZM99.153 36.0002H101.395V20.9983H99.153V36.0002ZM104.701 31.0512C104.643 29.0791 106.229 28.0741 107.369 28.0741C108.259 28.0741 109.012 28.5189 109.264 29.1565L104.701 31.0512ZM111.66 29.3496C111.235 28.2096 109.94 26.1021 107.291 26.1021C104.662 26.1021 102.477 28.1707 102.477 31.2058C102.477 34.0671 104.643 36.3096 107.542 36.3096C109.881 36.3096 111.235 34.8794 111.796 34.0478L110.056 32.8876C109.476 33.7384 108.684 34.2991 107.542 34.2991C106.402 34.2991 105.59 33.777 105.069 32.7523L111.892 29.9299L111.66 29.3496ZM57.2909 27.6681V29.8333H62.4719C62.3172 31.0512 61.9113 31.9404 61.2926 32.5591C60.5384 33.3128 59.359 34.1444 57.2909 34.1444C54.101 34.1444 51.6072 31.5733 51.6072 28.3834C51.6072 25.1936 54.101 22.6221 57.2909 22.6221C59.0116 22.6221 60.2679 23.2989 61.196 24.1689L62.7237 22.6413C61.428 21.4042 59.7077 20.457 57.2909 20.457C52.9211 20.457 49.248 24.0142 49.248 28.3834C49.248 32.7523 52.9211 36.3096 57.2909 36.3096C59.6492 36.3096 61.428 35.5362 62.8198 34.0863C64.2504 32.6557 64.6953 30.6452 64.6953 29.021C64.6953 28.5189 64.6563 28.0549 64.579 27.6681H57.2909ZM70.5856 34.2991C69.0387 34.2991 67.7046 33.0231 67.7046 31.2058C67.7046 29.3692 69.0387 28.113 70.5856 28.113C72.1319 28.113 73.466 29.3692 73.466 31.2058C73.466 33.0231 72.1319 34.2991 70.5856 34.2991ZM70.5856 26.1021C67.7622 26.1021 65.4621 28.248 65.4621 31.2058C65.4621 34.1444 67.7622 36.3096 70.5856 36.3096C73.4079 36.3096 75.7085 34.1444 75.7085 31.2058C75.7085 28.248 73.4079 26.1021 70.5856 26.1021ZM81.761 34.2991C80.2151 34.2991 78.8806 33.0231 78.8806 31.2058C78.8806 29.3692 80.2151 28.113 81.761 28.113C83.3079 28.113 84.6414 29.3692 84.6414 31.2058C84.6414 33.0231 83.3079 34.2991 81.761 34.2991ZM81.761 26.1021C78.9387 26.1021 76.6385 28.248 76.6385 31.2058C76.6385 34.1444 78.9387 36.3096 81.761 36.3096C84.5843 36.3096 86.8845 34.1444 86.8845 31.2058C86.8845 28.248 84.5843 26.1021 81.761 26.1021Z" fill="white"/>
    <path d="M53.3729 15.8813C52.297 15.8813 51.3716 15.5028 50.6255 14.7568C49.879 14.0103 49.501 13.0757 49.501 11.9888C49.501 10.902 49.8792 9.96901 50.6255 9.22087C51.3716 8.47477 52.297 8.09634 53.3729 8.09634C53.921 8.09634 54.4325 8.19101 54.9214 8.38814C55.4104 8.58529 55.8105 8.85897 56.1256 9.21712L56.1999 9.30173L55.3606 10.1408L55.2767 10.0377C55.0678 9.78094 54.802 9.58148 54.4653 9.4365C54.1298 9.29187 53.7623 9.22509 53.3729 9.22509C52.6151 9.22509 51.9863 9.48242 51.4613 10.0056C51.4612 10.0057 51.4609 10.0057 51.4608 10.0058C50.9477 10.5395 50.6897 11.1893 50.6897 11.9888C50.6897 12.789 50.948 13.439 51.4617 13.9728C51.9868 14.4957 52.6155 14.7545 53.3728 14.7545C54.0665 14.7545 54.6402 14.5608 55.0913 14.1774H55.0915C55.5114 13.8206 55.7634 13.3385 55.8525 12.7238H53.2528V11.6176H56.9761L56.9921 11.7188C57.0226 11.9133 57.0441 12.101 57.0441 12.2813C57.0441 13.3136 56.7294 14.1561 56.112 14.776C55.415 15.5149 54.4984 15.8813 53.3728 15.8813L53.3729 15.8813ZM85.703 15.8813C84.6255 15.8813 83.7109 15.5026 82.9744 14.7568C82.9743 14.7567 82.9743 14.7567 82.9742 14.7566C82.9741 14.7565 82.974 14.7564 82.9739 14.7563C82.2364 14.0186 81.8705 13.0837 81.8705 11.9888C81.8705 10.894 82.2364 9.95908 82.9739 9.22133C82.974 9.22125 82.9741 9.22121 82.9742 9.22109L82.9744 9.22085C83.7109 8.47493 84.6255 8.09632 85.703 8.09632C86.7784 8.09632 87.6933 8.47502 88.4297 9.2321C89.1675 9.96974 89.5336 10.9028 89.5336 11.9888C89.5336 13.0837 89.1677 14.0186 88.4302 14.7563L88.43 14.7566C87.693 15.5029 86.7696 15.8813 85.703 15.8813L85.703 15.8813ZM58.1096 15.7201V8.25759H58.2296H62.5664V9.38634H59.2777V11.4357H62.2439V12.542H59.2777V14.5932H62.5664V15.7201H58.1096ZM65.2941 15.7201V9.38634H63.2766V8.25759H68.4797V9.38634H68.3597H66.4622V15.7201H65.2941ZM71.805 15.7201V8.25759H72.9732V8.37759V15.7201H71.805ZM75.9136 15.7201V9.38634H73.8961V8.25759H79.0993V9.38634H78.9793H77.0818V15.7201H75.9136ZM90.5705 15.7201V8.25759H91.8877L95.24 13.6243L95.2111 12.6055V8.25759H96.3793V15.7201H95.2233L91.7098 10.0822L91.7386 11.1003V11.102V15.7201H90.5705ZM85.703 14.7545C86.4608 14.7545 87.0794 14.496 87.5836 13.9738L87.5844 13.9728L87.5851 13.9721C88.0965 13.4605 88.3468 12.802 88.3468 11.9888C88.3468 11.1776 88.0964 10.5169 87.5851 10.0055L87.5844 10.0048L87.5836 10.0041C87.0795 9.48193 86.461 9.22502 85.703 9.22502C84.9438 9.22502 84.3253 9.48148 83.8116 10.0036L83.8111 10.0041C83.3091 10.5278 83.0592 11.1779 83.0592 11.9888C83.0592 12.8017 83.3091 13.4496 83.8111 13.9735L83.8116 13.9739C84.3254 14.4962 84.944 14.7544 85.703 14.7544V14.7545Z" fill="white"/>
    <path d="M24.8569 23.3081L12.0811 36.8681C12.0815 36.8709 12.0825 36.8732 12.083 36.8761C12.4748 38.3484 13.8196 39.4326 15.4157 39.4326C16.0538 39.4326 16.6528 39.2601 17.1665 38.9573L17.2073 38.9334L31.5881 30.6351L24.8569 23.3081Z" fill="#EA4335"/>
    <path d="M37.7829 20.9991L37.7706 20.9907L31.5621 17.3916L24.5674 23.6157L31.5864 30.6338L37.7622 27.0704C38.845 26.4859 39.58 25.3444 39.58 24.0282C39.58 22.7214 38.8548 21.5856 37.7829 20.9991Z" fill="#FBBC04"/>
    <path d="M12.081 11.1319C12.0042 11.4151 11.9639 11.7117 11.9639 12.0197V35.9809C11.9639 36.2883 12.0038 36.586 12.0815 36.8682L25.297 23.6551L12.081 11.1319Z" fill="#4285F4"/>
    <path d="M24.9515 24L31.5643 17.3892L17.1998 9.06096C16.6777 8.74824 16.0683 8.56776 15.4162 8.56776C13.8201 8.56776 12.4735 9.65388 12.0815 11.1281C12.0811 11.1295 12.0811 11.1305 12.0811 11.1318L24.9515 24Z" fill="#34A853"/>
    <rect x="0.5" y="0.5" width="161" height="47" rx="4.5" stroke="#A6A6A6"/>
</svg>
