<svg width="34" height="34" viewBox="0 0 34 34" fill="none" xmlns="http://www.w3.org/2000/svg">
<g clip-path="url(#clip0_10856_75961)">
<path d="M17 34C26.3888 34 34 26.3888 34 17C34 7.61116 26.3888 0 17 0C7.61116 0 0 7.61116 0 17C0 26.3888 7.61116 34 17 34Z" fill="#8247E5"/>
<path d="M22.6271 13.3632C22.2194 13.126 21.6893 13.126 21.2408 13.3632L18.0603 15.1818L15.8993 16.3678L12.7189 18.1864C12.3111 18.4236 11.781 18.4236 11.3325 18.1864L8.80444 16.7632C8.3967 16.526 8.11129 16.0911 8.11129 15.6167V12.8097C8.11129 12.3353 8.35593 11.9004 8.80444 11.6632L11.2917 10.2794C11.6994 10.0422 12.2295 10.0422 12.6781 10.2794L15.1653 11.6632C15.5731 11.9004 15.8585 12.3353 15.8585 12.8097V14.6283L18.0196 13.4027V11.5841C18.0196 11.1097 17.7749 10.6748 17.3264 10.4376L12.7189 7.82829C12.3111 7.59109 11.781 7.59109 11.3325 7.82829L6.64338 10.4376C6.19484 10.6748 5.9502 11.1097 5.9502 11.5841V16.8422C5.9502 17.3167 6.19484 17.7515 6.64338 17.9887L11.3325 20.5981C11.7403 20.8353 12.2703 20.8353 12.7189 20.5981L15.8993 18.819L18.0603 17.5934L21.2408 15.8143C21.6485 15.5771 22.1786 15.5771 22.6271 15.8143L25.1144 17.198C25.5221 17.4353 25.8076 17.8701 25.8076 18.3446V21.1515C25.8076 21.626 25.5629 22.0608 25.1144 22.298L22.6271 23.7213C22.2194 23.9585 21.6893 23.9585 21.2408 23.7213L18.7535 22.3376C18.3458 22.1004 18.0603 21.6655 18.0603 21.1911V19.3725L15.8993 20.5981V22.4167C15.8993 22.8911 16.1439 23.326 16.5925 23.5632L21.2816 26.1725C21.6893 26.4097 22.2194 26.4097 22.6679 26.1725L27.357 23.5632C27.7648 23.326 28.0502 22.8911 28.0502 22.4167V17.1585C28.0502 16.6841 27.8056 16.2492 27.357 16.012L22.6271 13.3632Z" fill="white"/>
</g>
<defs>
<clipPath id="clip0_10856_75961">
<rect width="34" height="34" fill="white"/>
</clipPath>
</defs>
</svg>
