<svg width="26" height="24" viewBox="0 0 26 24" fill="none" xmlns="http://www.w3.org/2000/svg">
<path fill-rule="evenodd" clip-rule="evenodd" d="M4.16193 1.38462C2.65938 1.38462 1.38462 2.67344 1.38462 4.33601V19.664C1.38462 21.3266 2.65939 22.6154 4.16193 22.6154H19.8381C21.3379 22.6154 22.6135 21.3268 22.6154 19.6632V4.33601C22.6154 2.67344 21.3406 1.38462 19.8381 1.38462H4.16193ZM0 4.33601C0 1.97339 1.83159 0 4.16193 0H19.8381C22.1684 0 24 1.97339 24 4.33601V19.6648C23.9973 22.0263 22.1665 24 19.8381 24H4.16193C1.83159 24 0 22.0266 0 19.664V4.33601Z" fill="url(#paint0_linear_16198_8359)"/>
<path d="M23.7575 18.5762L22.7962 18.0735L22.7938 18.0688C22.7798 18.0618 22.7658 18.0572 22.7542 18.0502L22.7402 18.0432C21.0298 17.2286 19.2938 16.6164 17.5415 16.1998V6.05191C17.5415 5.69813 17.2638 5.4165 16.9162 5.4165H14.6832H9.05282H6.81981C6.47681 5.4165 6.19448 5.69813 6.19448 6.05191V16.2487C4.45148 16.6793 2.7178 17.2984 1.01213 18.113L0.333133 18.5227L0.230469 20.4871C0.841803 19.8261 1.48114 19.4723 1.48114 19.4723C2.91847 18.7647 4.66148 18.0735 6.19681 17.6964V23.4616H9.05048V10.9746C9.05048 9.40351 10.3432 8.10244 11.8832 8.10244C13.4255 8.10244 14.6785 9.37325 14.6785 10.942C14.6785 10.9536 14.6738 10.9653 14.6738 10.9746H14.6785V15.6994C13.3648 15.5481 12.0465 15.4992 10.7282 15.5691L9.64315 17.1401C11.3325 16.9981 12.9775 17.0098 14.6015 17.1937C14.6178 17.1937 14.6272 17.1937 14.6435 17.1983C14.6552 17.1983 14.6668 17.1983 14.6808 17.203C14.9632 17.2356 15.9945 17.3659 16.9372 17.5986L14.6808 18.3644V23.457H17.5322V17.7173C19.0698 18.1037 20.5888 18.6693 22.1148 19.4094L22.8405 19.712C22.8405 19.712 23.6642 20.1193 23.8578 20.5359L23.7575 18.5762Z" fill="url(#paint1_linear_16198_8359)"/>
<path d="M21.9355 12.9231H24.6772L24.8079 14.3452L21.9869 14.3336L21.9355 12.9231Z" fill="#110A2F"/>
<path d="M25.4253 12.9872H22.0677C20.579 12.9872 19.375 11.7839 19.375 10.3013C19.375 8.81635 20.5813 7.61536 22.0677 7.61536H25.4253C25.6563 7.61536 25.8454 7.80156 25.8454 8.03431V12.5729C25.8454 12.801 25.6587 12.9872 25.4253 12.9872Z" fill="url(#paint2_linear_16198_8359)"/>
<path d="M22.0295 11.6537C22.7782 11.6537 23.3852 11.0482 23.3852 10.3014C23.3852 9.55453 22.7782 8.9491 22.0295 8.9491C21.2808 8.9491 20.6738 9.55453 20.6738 10.3014C20.6738 11.0482 21.2808 11.6537 22.0295 11.6537Z" fill="#110A2F"/>
<defs>
<linearGradient id="paint0_linear_16198_8359" x1="-0.0155175" y1="12.0173" x2="24.0142" y2="11.9863" gradientUnits="userSpaceOnUse">
<stop stop-color="#8D29C1"/>
<stop offset="0.0858" stop-color="#8D29C1"/>
<stop offset="0.2383" stop-color="#942BBB"/>
<stop offset="0.4667" stop-color="#A92FAC"/>
<stop offset="0.7413" stop-color="#CA3793"/>
<stop offset="1" stop-color="#F03F77"/>
</linearGradient>
<linearGradient id="paint1_linear_16198_8359" x1="0.227062" y1="14.4402" x2="23.8609" y2="14.4402" gradientUnits="userSpaceOnUse">
<stop stop-color="#8D29C1"/>
<stop offset="0.0858" stop-color="#8D29C1"/>
<stop offset="0.2383" stop-color="#942BBB"/>
<stop offset="0.4667" stop-color="#A92FAC"/>
<stop offset="0.7413" stop-color="#CA3793"/>
<stop offset="1" stop-color="#F03F77"/>
</linearGradient>
<linearGradient id="paint2_linear_16198_8359" x1="22.8319" y1="3.52778" x2="22.6006" y2="11.798" gradientUnits="userSpaceOnUse">
<stop stop-color="#8D29C1"/>
<stop offset="0.0858" stop-color="#8D29C1"/>
<stop offset="0.2383" stop-color="#942BBB"/>
<stop offset="0.4667" stop-color="#A92FAC"/>
<stop offset="0.7413" stop-color="#CA3793"/>
<stop offset="1" stop-color="#F03F77"/>
</linearGradient>
</defs>
</svg>
