<svg width="24" height="25" viewBox="0 0 24 25" fill="none" xmlns="http://www.w3.org/2000/svg">
<path fill-rule="evenodd" clip-rule="evenodd" d="M1.2002 11.998C1.2002 6.04303 6.04402 1.2002 12.0002 1.2002C17.6379 1.2002 22.279 5.53893 22.7592 11.0565L21.8948 11.3807C21.5747 6.20365 17.2571 2.08635 12.0002 2.08635C6.53594 2.08635 2.08653 6.53484 2.08653 11.998C2.08653 13.5709 2.45436 15.0552 3.11025 16.38C4.49736 15.7154 5.90664 15.2103 7.32477 14.8603V6.55256C7.32477 6.26456 7.55522 6.03416 7.83442 6.03416H9.6514H14.2293H16.0463C16.3299 6.03416 16.556 6.26456 16.556 6.55256V12.5002H16.0811L14.2293 11.883V10.5624H14.2249C14.2249 10.558 14.226 10.5535 14.2271 10.5491C14.2282 10.5447 14.2293 10.5403 14.2293 10.5358C14.2293 9.25976 13.21 8.22296 11.9559 8.22296C10.7017 8.22296 9.6514 9.28192 9.6514 10.5624V21.626C9.83958 21.6714 10.0297 21.7118 10.2218 21.747L10.54 22.7015C9.40928 22.5476 8.33318 22.2178 7.3425 21.7412H7.32477V21.7324C3.70409 19.9867 1.2002 16.2781 1.2002 11.998ZM12.1524 22.7991C12.1018 22.7998 12.051 22.8002 12.0002 22.8002C11.8746 22.8002 11.7494 22.798 11.6248 22.7937L11.3232 21.889C11.5491 21.9061 11.7777 21.916 12.0091 21.9185C12.4478 21.9185 12.8806 21.8876 13.3059 21.8302L12.1524 22.7991ZM13.9063 22.6319C17.7159 21.9512 20.8391 19.2673 22.1436 15.7126L20.1577 17.3807C20.198 17.4 20.2383 17.4194 20.2786 17.439C19.3479 18.8524 18.0627 20.0132 16.5515 20.7975V20.4099L13.9063 22.6319ZM19.1431 16.927C18.2817 16.5687 17.4198 16.2796 16.5515 16.061V19.1039L14.2338 21.0508V16.5883L16.0685 15.9635C15.3018 15.773 14.4642 15.6667 14.2338 15.6401C14.2205 15.6356 14.2116 15.6356 14.2027 15.6356C14.1894 15.6312 14.1806 15.6312 14.1673 15.6312C13.39 15.5425 12.6065 15.503 11.8133 15.5089L11.2074 14.2972C12.2162 14.2538 13.2247 14.2961 14.2293 14.4127V12.9371L15.9188 13.5002H16.556V14.8204C17.7778 15.1128 18.9904 15.5197 20.1886 16.0488L19.1431 16.927ZM21.4535 14.9863L22.6127 14.0126C22.7231 13.4284 22.7863 12.8277 22.7981 12.2147L22.754 12.1265L21.9039 12.4453C21.8644 13.3261 21.7092 14.1785 21.4535 14.9863ZM10.482 15.0823L10.1941 15.5002H10.6909L10.482 15.0823ZM7.32921 16.0388C6.07504 16.349 4.85633 16.7965 3.68193 17.3769C4.59043 18.7815 5.84459 19.9423 7.32921 20.7355V16.0388Z" fill="#656474"/>
<path d="M23.1029 12L18.1289 15.75L19.0538 13.54L23.1029 12Z" fill="#E17726" stroke="#E17726" stroke-width="0.25" stroke-linecap="round" stroke-linejoin="round"/>
<path d="M11.6299 12L16.5596 15.785L15.679 13.54L11.6299 12Z" fill="#E27625" stroke="#E27625" stroke-width="0.25" stroke-linecap="round" stroke-linejoin="round"/>
<path d="M21.3117 20.6953L19.9883 22.7553L22.8221 23.5503L23.6339 20.7403L21.3117 20.6953Z" fill="#E27625" stroke="#E27625" stroke-width="0.25" stroke-linecap="round" stroke-linejoin="round"/>
<path d="M11.103 20.7403L11.9099 23.5503L14.7388 22.7553L13.4203 20.6953L11.103 20.7403Z" fill="#E27625" stroke="#E27625" stroke-width="0.25" stroke-linecap="round" stroke-linejoin="round"/>
<path d="M14.5865 17.2145L13.7993 18.4245L16.6036 18.5545L16.5102 15.4795L14.5865 17.2145Z" fill="#E27625" stroke="#E27625" stroke-width="0.25" stroke-linecap="round" stroke-linejoin="round"/>
<path d="M20.1461 17.2153L18.1929 15.4453L18.1289 18.5553L20.9333 18.4253L20.1461 17.2153Z" fill="#E27625" stroke="#E27625" stroke-width="0.25" stroke-linecap="round" stroke-linejoin="round"/>
<path d="M14.7393 22.7548L16.4366 21.9197L14.9754 20.7598L14.7393 22.7548Z" fill="#E27625" stroke="#E27625" stroke-width="0.25" stroke-linecap="round" stroke-linejoin="round"/>
<path d="M18.2964 21.9197L19.9888 22.7548L19.7576 20.7598L18.2964 21.9197Z" fill="#E27625" stroke="#E27625" stroke-width="0.25" stroke-linecap="round" stroke-linejoin="round"/>
<path d="M19.9888 22.7549L18.2964 21.9199L18.4341 23.0399L18.4194 23.5149L19.9888 22.7549Z" fill="#D5BFB2" stroke="#D5BFB2" stroke-width="0.25" stroke-linecap="round" stroke-linejoin="round"/>
<path d="M14.7393 22.7549L16.3136 23.5149L16.3038 23.0399L16.4366 21.9199L14.7393 22.7549Z" fill="#D5BFB2" stroke="#D5BFB2" stroke-width="0.25" stroke-linecap="round" stroke-linejoin="round"/>
<path d="M16.3431 20.0198L14.936 19.5998L15.9299 19.1348L16.3431 20.0198Z" fill="#233447" stroke="#233447" stroke-width="0.25" stroke-linecap="round" stroke-linejoin="round"/>
<path d="M18.3896 20.0198L18.8029 19.1348L19.8017 19.5998L18.3896 20.0198Z" fill="#233447" stroke="#233447" stroke-width="0.25" stroke-linecap="round" stroke-linejoin="round"/>
<path d="M14.7389 22.7553L14.9849 20.6953L13.4204 20.7403L14.7389 22.7553Z" fill="#CC6228" stroke="#CC6228" stroke-width="0.25" stroke-linecap="round" stroke-linejoin="round"/>
<path d="M19.7476 20.6953L19.9886 22.7553L21.3121 20.7403L19.7476 20.6953Z" fill="#CC6228" stroke="#CC6228" stroke-width="0.25" stroke-linecap="round" stroke-linejoin="round"/>
<path d="M20.9332 18.4248L18.1289 18.5548L18.3897 20.0198L18.8029 19.1348L19.8017 19.5998L20.9332 18.4248Z" fill="#CC6228" stroke="#CC6228" stroke-width="0.25" stroke-linecap="round" stroke-linejoin="round"/>
<path d="M14.9358 19.5998L15.9296 19.1348L16.3429 20.0198L16.6036 18.5548L13.7993 18.4248L14.9358 19.5998Z" fill="#CC6228" stroke="#CC6228" stroke-width="0.25" stroke-linecap="round" stroke-linejoin="round"/>
<path d="M13.7993 18.4248L14.9752 20.7598L14.9358 19.5998L13.7993 18.4248Z" fill="#E27525" stroke="#E27525" stroke-width="0.25" stroke-linecap="round" stroke-linejoin="round"/>
<path d="M19.8016 19.5998L19.7573 20.7598L20.9332 18.4248L19.8016 19.5998Z" fill="#E27525" stroke="#E27525" stroke-width="0.25" stroke-linecap="round" stroke-linejoin="round"/>
<path d="M16.604 18.5557L16.3433 20.0207L16.6729 21.7507L16.7467 19.4707L16.604 18.5557Z" fill="#E27525" stroke="#E27525" stroke-width="0.25" stroke-linecap="round" stroke-linejoin="round"/>
<path d="M18.129 18.5557L17.9912 19.4657L18.0601 21.7507L18.3897 20.0207L18.129 18.5557Z" fill="#E27525" stroke="#E27525" stroke-width="0.25" stroke-linecap="round" stroke-linejoin="round"/>
<path d="M18.3897 20.0196L18.0601 21.7496L18.2962 21.9196L19.7574 20.7596L19.8017 19.5996L18.3897 20.0196Z" fill="#F5841F" stroke="#F5841F" stroke-width="0.25" stroke-linecap="round" stroke-linejoin="round"/>
<path d="M14.936 19.5996L14.9754 20.7596L16.4366 21.9196L16.6728 21.7496L16.3431 20.0196L14.936 19.5996Z" fill="#F5841F" stroke="#F5841F" stroke-width="0.25" stroke-linecap="round" stroke-linejoin="round"/>
<path d="M18.4194 23.5149L18.4341 23.0399L18.3062 22.9299H16.4268L16.3038 23.0399L16.3136 23.5149L14.7393 22.7549L15.2903 23.2149L16.4071 23.9999H18.3209L19.4427 23.2149L19.9888 22.7549L18.4194 23.5149Z" fill="#C0AC9D" stroke="#C0AC9D" stroke-width="0.25" stroke-linecap="round" stroke-linejoin="round"/>
<path d="M18.2963 21.92L18.0601 21.75H16.6727L16.4366 21.92L16.3037 23.04L16.4267 22.93H18.3061L18.434 23.04L18.2963 21.92Z" fill="#161616" stroke="#161616" stroke-width="0.25" stroke-linecap="round" stroke-linejoin="round"/>
<path d="M23.3147 15.9949L23.7328 13.925L23.1031 12L18.2964 15.625L20.1462 17.2149L22.7587 17.9899L23.3343 17.3049L23.0834 17.1199L23.4819 16.75L23.1769 16.5099L23.5754 16.2L23.3147 15.9949Z" fill="#763E1A" stroke="#763E1A" stroke-width="0.25" stroke-linecap="round" stroke-linejoin="round"/>
<path d="M11 13.925L11.4231 15.9949L11.1525 16.2L11.556 16.5099L11.2509 16.75L11.6494 17.1199L11.3985 17.3049L11.9741 17.9899L14.5866 17.2149L16.4365 15.625L11.6298 12L11 13.925Z" fill="#763E1A" stroke="#763E1A" stroke-width="0.25" stroke-linecap="round" stroke-linejoin="round"/>
<path d="M22.7584 17.9898L20.146 17.2148L20.9332 18.4248L19.7573 20.7598L21.312 20.7398H23.6342L22.7584 17.9898Z" fill="#F5841F" stroke="#F5841F" stroke-width="0.25" stroke-linecap="round" stroke-linejoin="round"/>
<path d="M14.5863 17.2148L11.9739 17.9898L11.103 20.7398H13.4203L14.975 20.7598L13.7991 18.4248L14.5863 17.2148Z" fill="#F5841F" stroke="#F5841F" stroke-width="0.25" stroke-linecap="round" stroke-linejoin="round"/>
<path d="M18.1288 18.555L18.2961 15.625L19.0538 13.54H15.6787L16.4364 15.625L16.6037 18.555L16.6676 19.475L16.6725 21.7499H18.0599L18.0649 19.475L18.1288 18.555Z" fill="#F5841F" stroke="#F5841F" stroke-width="0.25" stroke-linecap="round" stroke-linejoin="round"/>
</svg>
