<svg width="8" height="8" viewBox="0 0 8 8" fill="none" xmlns="http://www.w3.org/2000/svg">
<mask id="path-1-inside-1_23388_105210" fill="white">
<path d="M7.9482 3.35836C7.80352 2.46808 7.36219 1.65283 6.69585 1.04494C6.02951 0.43705 5.17728 0.0722095 4.27749 0.00963705C3.37771 -0.0529354 2.48318 0.190434 1.73912 0.700241C0.995054 1.21005 0.445131 1.95637 0.178613 2.81805C-0.0879048 3.67974 -0.0553727 4.60621 0.270929 5.44708C0.597231 6.28795 1.19815 6.99385 1.97614 7.45021C2.75413 7.90658 3.66352 8.0866 4.5567 7.96107C5.44989 7.83554 6.27443 7.41182 6.89648 6.75869L4 4L7.9482 3.35836Z"/>
</mask>
<path d="M7.9482 3.35836C7.80352 2.46808 7.36219 1.65283 6.69585 1.04494C6.02951 0.43705 5.17728 0.0722095 4.27749 0.00963705C3.37771 -0.0529354 2.48318 0.190434 1.73912 0.700241C0.995054 1.21005 0.445131 1.95637 0.178613 2.81805C-0.0879048 3.67974 -0.0553727 4.60621 0.270929 5.44708C0.597231 6.28795 1.19815 6.99385 1.97614 7.45021C2.75413 7.90658 3.66352 8.0866 4.5567 7.96107C5.44989 7.83554 6.27443 7.41182 6.89648 6.75869L4 4L7.9482 3.35836Z" stroke="white" stroke-width="4" mask="url(#path-1-inside-1_23388_105210)"/>
<circle cx="4" cy="4" r="2.5" fill="#0A091E"/>
</svg>
