<svg width="24" height="24" viewBox="0 0 24 24" fill="none" xmlns="http://www.w3.org/2000/svg">
    <path
        d="M21.3093 4.87585C14.6693 4.21906 12.7304 0.581181 12.6507 0.404249C12.5178 0.151547 12.2788 0 11.9867 0C11.6945 0 11.4555 0.151551 11.3227 0.404249C11.243 0.5558 9.30412 4.21892 2.66401 4.87585C2.29217 4.90105 2 5.20433 2 5.558V11.8485C2 19.1242 11.2695 23.7474 11.6679 23.9242C11.7741 23.9748 11.8804 24 12.0133 24C12.1461 24 12.2523 23.9748 12.3586 23.9242C12.7569 23.7221 22 19.1242 22 11.8485L21.9998 5.58326C21.9731 5.22959 21.681 4.92647 21.3092 4.8759L21.3093 4.87585ZM14.0318 15.8653C14.5365 15.8653 14.9615 16.2441 14.9615 16.7496C14.9615 17.2296 14.5632 17.6339 14.0318 17.6339H12.8898L12.8896 18.5937C12.8896 19.0738 12.4913 19.478 11.9599 19.478C11.4552 19.478 11.0302 19.0991 11.0302 18.5937L11.0304 12.379C9.54307 12.0001 8.42754 10.7116 8.42754 9.17057C8.42754 7.32641 9.99455 5.83576 11.9336 5.83576C13.8724 5.83576 15.4396 7.32623 15.4396 9.17057C15.4396 10.7116 14.3241 12 12.8368 12.379V15.8654L14.0318 15.8653Z"
        fill="#E5E4FA" />
</svg>