<svg width="24" height="24" viewBox="0 0 24 24" fill="none" xmlns="http://www.w3.org/2000/svg">
    <path
        d="M14.9923 16.7036C15.712 16.7036 16.3181 17.259 16.3181 18C16.3181 18.7038 15.7501 19.2964 14.9923 19.2964H13.3637L13.3634 20.7036C13.3634 21.4074 12.7953 22 12.0375 22C11.3178 22 10.7117 21.4446 10.7117 20.7036L10.712 11.5926C8.59087 11.0372 7 9.14816 7 6.88894C7 4.18535 9.23472 2 12 2C14.765 2 17 4.18508 17 6.88894C17 9.14816 15.4091 11.037 13.288 11.5926V16.7037L14.9923 16.7036Z"
        fill="#E5E4FA" />
</svg>