<svg width="20" height="20" viewBox="0 0 20 20" fill="none" xmlns="http://www.w3.org/2000/svg">
<path d="M16.8206 8.89362H15.7102V6.21042C15.7102 5.1501 14.8505 4.29042 13.7902 4.29042H10.4288V3.17948C10.4288 1.88206 9.37681 0.830078 8.07937 0.830078H7.98148C6.68406 0.830078 5.63208 1.88204 5.63208 3.17948V4.29042H2.75008C1.68976 4.29042 0.830078 5.1501 0.830078 6.21042V8.89362H1.94054C3.23796 8.89362 4.28994 9.94558 4.28994 11.243V11.3409C4.28994 12.6383 3.23798 13.6903 1.94054 13.6903H0.830078V17.2505C0.830078 18.3108 1.68976 19.1705 2.75008 19.1705H5.63208V18.1997C5.63208 16.9023 6.68404 15.8503 7.98148 15.8503H8.07937C9.37679 15.8503 10.4288 16.9023 10.4288 18.1997V19.1705H13.7902C14.8505 19.1705 15.7102 18.3108 15.7102 17.2505V13.6903H16.8206C18.1181 13.6903 19.17 12.6383 19.17 11.3409V11.243C19.17 9.94536 18.1181 8.89362 16.8206 8.89362Z" fill="#E5E4FA"/>
</svg>
