<svg width="15" height="16" viewBox="0 0 15 16" fill="none" xmlns="http://www.w3.org/2000/svg">
<path d="M1.57692 6.95933H5.34615C5.63177 6.95933 5.90569 6.85015 6.10765 6.65581C6.30962 6.46147 6.42308 6.19789 6.42308 5.92305V2.29605C6.42308 2.02121 6.30962 1.75763 6.10765 1.56329C5.90569 1.36895 5.63177 1.25977 5.34615 1.25977H1.57692C1.29131 1.25977 1.01739 1.36895 0.815424 1.56329C0.613461 1.75763 0.5 2.02121 0.5 2.29605V5.92305C0.5 6.19789 0.613461 6.46147 0.815424 6.65581C1.01739 6.85015 1.29131 6.95933 1.57692 6.95933ZM2.11538 2.81419H4.80769V5.4049H2.11538V2.81419Z" fill="currentColor"/>
<path d="M1.57692 14.7315H5.34615C5.63177 14.7315 5.90569 14.6223 6.10765 14.4279C6.30962 14.2336 6.42308 13.97 6.42308 13.6952V10.0682C6.42308 9.79334 6.30962 9.52975 6.10765 9.33541C5.90569 9.14107 5.63177 9.03189 5.34615 9.03189H1.57692C1.29131 9.03189 1.01739 9.14107 0.815424 9.33541C0.613461 9.52975 0.5 9.79334 0.5 10.0682V13.6952C0.5 13.97 0.613461 14.2336 0.815424 14.4279C1.01739 14.6223 1.29131 14.7315 1.57692 14.7315ZM2.11538 10.5863H4.80769V13.177H2.11538V10.5863Z" fill="currentColor"/>
<path d="M9.6531 6.95933H13.4223C13.7079 6.95933 13.9819 6.85015 14.1838 6.65581C14.3858 6.46147 14.4992 6.19789 14.4992 5.92305V2.29605C14.4992 2.02121 14.3858 1.75763 14.1838 1.56329C13.9819 1.36895 13.7079 1.25977 13.4223 1.25977H9.6531C9.36748 1.25977 9.09356 1.36895 8.8916 1.56329C8.68963 1.75763 8.57617 2.02121 8.57617 2.29605V5.92305C8.57617 6.19789 8.68963 6.46147 8.8916 6.65581C9.09356 6.85015 9.36748 6.95933 9.6531 6.95933ZM10.1916 2.81419H12.8839V5.4049H10.1916V2.81419Z" fill="currentColor"/>
<path d="M12.5218 10.9354H10.5469V12.8358H12.5218V10.9354Z" fill="currentColor"/>
<path d="M14.4983 9.51018C14.4983 9.38418 14.4463 9.26334 14.3537 9.17425C14.2611 9.08515 14.1355 9.0351 14.0046 9.0351H12.5234V10.9354H14.4983V9.51018Z" fill="currentColor"/>
<path d="M9.06599 9.0351C8.93504 9.0351 8.80946 9.08515 8.71687 9.17425C8.62428 9.26334 8.57227 9.38418 8.57227 9.51018V10.9354H10.5471V9.0351H9.06599Z" fill="currentColor"/>
<path d="M14.0046 14.7357C14.1355 14.7357 14.2611 14.6857 14.3537 14.5966C14.4463 14.5075 14.4983 14.3867 14.4983 14.2607V12.8354H12.5234V14.7357H14.0046Z" fill="currentColor"/>
<path d="M8.57227 14.2605C8.57227 14.3865 8.62428 14.5073 8.71687 14.5964C8.80946 14.6855 8.93504 14.7356 9.06599 14.7356H10.5471V12.8352H8.57227V14.2605Z" fill="currentColor"/>
</svg>
