<svg width="56" height="56" fill="none" xmlns="http://www.w3.org/2000/svg">
  <rect width="56" height="56" rx="13" fill="#131A35" />
  <path d="M45.07 22.513v15.342l-17.066 9.851-17.074-9.85V18.143l17.074-9.86L41.12 15.86l1.98-1.142L28.003 6 8.95 17.002v21.996L28.004 50 47.06 38.998V21.37l-1.99 1.142Z" fill="url(#a)" />
  <path d="M23.226 37.865h-2.855V28.29h9.518a3.426 3.426 0 0 0 3.388-3.417 3.265 3.265 0 0 0-1-2.389 3.302 3.302 0 0 0-2.388-.999H20.37v-2.912h9.527a6.339 6.339 0 0 1 6.3 6.3 6.12 6.12 0 0 1-1.113 3.57 6.204 6.204 0 0 1-2.74 2.246c-1.102.35-2.252.523-3.408.514h-5.71v6.662Z" fill="url(#b)" />
  <path d="m43.08 19.325 1.97 1.094 1.97-1.094v-2.313l-1.97-1.142-1.97 1.142v2.313Z" fill="url(#c)" />
  <defs>
    <linearGradient id="a" x1="47.025" y1="17.015" x2="6.62" y2="33.173" gradientUnits="userSpaceOnUse">
      <stop stop-color="#C200FB" />
      <stop offset=".49" stop-color="#3772FF" />
      <stop offset=".49" stop-color="#3773FE" />
      <stop offset="1" stop-color="#5AC4BE" />
    </linearGradient>
    <linearGradient id="b" x1="47.025" y1="17.015" x2="6.619" y2="33.172" gradientUnits="userSpaceOnUse">
      <stop stop-color="#C200FB" />
      <stop offset=".49" stop-color="#3772FF" />
      <stop offset=".49" stop-color="#3773FE" />
      <stop offset="1" stop-color="#5AC4BE" />
    </linearGradient>
    <linearGradient id="c" x1="47.025" y1="17.015" x2="6.62" y2="33.173" gradientUnits="userSpaceOnUse">
      <stop stop-color="#C200FB" />
      <stop offset=".49" stop-color="#3772FF" />
      <stop offset=".49" stop-color="#3773FE" />
      <stop offset="1" stop-color="#5AC4BE" />
    </linearGradient>
  </defs>
</svg>
