<svg width="32" height="32" viewBox="0 0 32 32" fill="none" xmlns="http://www.w3.org/2000/svg">
<path fill-rule="evenodd" clip-rule="evenodd" d="M23.2239 5.60021C24.2438 5.60021 24.6017 5.60394 24.8798 5.6465C26.3066 5.86427 27.4235 6.81496 27.6792 8.02942C27.7053 8.15346 27.7192 8.29613 27.7262 8.52906C26.9327 8.45574 25.953 8.45574 24.7862 8.45574H6.86221C6.22418 8.45574 5.7069 8.89589 5.7069 9.43914C5.7069 9.98223 6.22418 10.4225 6.86221 10.4225H24.7169C26.0115 10.4225 26.8805 10.4241 27.5363 10.4901C28.1669 10.5535 28.4482 10.6644 28.6345 10.7946C28.732 10.8626 28.8211 10.9389 28.9014 11.0218C29.0541 11.18 29.1845 11.4195 29.2591 11.9562C29.315 12.3595 29.3313 12.8573 29.3365 13.5178C29.294 13.5138 29.2516 13.5104 29.2098 13.5073C28.6946 13.4676 28.079 13.4676 27.4219 13.4676H26.5061C25.849 13.4676 25.2335 13.4676 24.7185 13.5073C24.1581 13.5506 23.5305 13.6511 22.9206 13.9507C22.2765 14.267 21.7419 14.7223 21.37 15.2706C21.0177 15.7897 20.8999 16.3238 20.8491 16.801C20.8024 17.2394 20.8024 17.7633 20.8024 18.3226V18.4464C20.8024 19.0059 20.8024 19.5299 20.8491 19.968C20.8999 20.4452 21.0177 20.9795 21.37 21.4987C21.7419 22.0468 22.2765 22.502 22.9206 22.8184C23.5305 23.1183 24.1582 23.2186 24.7185 23.2618C25.2335 23.3015 25.8491 23.3015 26.5061 23.3015H27.4219C28.079 23.3015 28.6945 23.3015 29.2098 23.2618C29.2505 23.2587 29.2921 23.2554 29.3341 23.2515C29.3255 23.9221 29.3023 24.4389 29.2358 24.8599C29.1402 25.4651 28.9751 25.7238 28.7745 25.8949C28.5735 26.0657 28.2693 26.2064 27.5585 26.2876C26.8145 26.3728 25.8168 26.3749 24.3319 26.3749L13.5009 26.375C14.7038 25.3073 15.6427 23.9443 16.2176 22.4159L16.581 21.4499L16.2176 20.4839C14.8462 16.8382 11.404 14.1334 7.24767 14.1334C4.73869 14.1334 2.48992 15.119 0.799805 16.7023L0.799859 13.6536C0.799859 11.8598 0.801109 10.5856 0.915379 9.59643C1.02757 8.6227 1.24029 8.03049 1.58559 7.56968C1.97757 7.04654 2.49925 6.60275 3.11383 6.26901C3.65509 5.97491 4.35093 5.79375 5.49487 5.69825C6.65717 5.60125 8.15394 5.6001 10.2613 5.6001L23.2239 5.60021ZM1.90828 19.5453C1.46701 20.1147 1.10671 20.7561 0.845726 21.4499C1.10671 22.1437 1.46701 22.785 1.90828 23.3545C2.41579 24.0095 3.0304 24.5694 3.72421 25.0047C4.75452 25.6511 5.95946 26.0227 7.24767 26.0227C8.53588 26.0227 9.74083 25.6511 10.7711 25.0047C11.4649 24.5694 12.0796 24.0095 12.5871 23.3545C13.0283 22.785 13.3886 22.1437 13.6496 21.4499C13.3886 20.7561 13.0283 20.1147 12.5871 19.5453C12.0796 18.8903 11.4649 18.3304 10.7711 17.8951C9.74083 17.2487 8.53588 16.8771 7.24767 16.8771C5.95946 16.8771 4.75452 17.2487 3.72421 17.8951C3.0304 18.3304 2.41579 18.8903 1.90828 19.5453ZM10.1025 20.8591C9.99495 20.2888 9.73314 19.7586 9.34322 19.3347C9.33072 19.3211 9.3181 19.3076 9.30533 19.2942C8.75961 18.7225 8.01944 18.4013 7.24767 18.4013C6.4759 18.4013 5.73573 18.7225 5.19001 19.2942C5.17725 19.3076 5.16462 19.3211 5.15212 19.3347C4.7622 19.7586 4.50039 20.2888 4.39285 20.8591C4.35642 21.0523 4.3377 21.2501 4.3377 21.4499C4.3377 21.6497 4.35642 21.8475 4.39285 22.0407C4.50039 22.611 4.7622 23.1412 5.15212 23.5651C5.16462 23.5787 5.17725 23.5922 5.19001 23.6055C5.73573 24.1773 6.4759 24.4984 7.24767 24.4984C8.01944 24.4984 8.75961 24.1773 9.30533 23.6055C9.3181 23.5922 9.33072 23.5787 9.34322 23.5651C9.73314 23.1412 9.99495 22.611 10.1025 22.0407C10.1389 21.8475 10.1576 21.6497 10.1576 21.4499C10.1576 21.2501 10.1389 21.0523 10.1025 20.8591ZM6.05195 20.117C6.37522 19.7987 6.80269 19.6208 7.24767 19.6208C7.69266 19.6208 8.12013 19.7987 8.44339 20.117C8.45652 20.1299 8.46948 20.1431 8.48227 20.1565C8.8097 20.4995 8.99366 20.9648 8.99366 21.4499C8.99366 21.935 8.8097 22.4003 8.48227 22.7433C8.46948 22.7567 8.45652 22.7698 8.44339 22.7828C8.12013 23.1011 7.69266 23.279 7.24767 23.279C6.80269 23.279 6.37522 23.1011 6.05195 22.7828C6.03882 22.7698 6.02586 22.7567 6.01307 22.7433C5.68564 22.4003 5.50169 21.935 5.50169 21.4499C5.50169 20.9648 5.68564 20.4995 6.01307 20.1565C6.02586 20.1431 6.03882 20.1299 6.05195 20.117ZM22.7282 18.3849C22.7282 17.1592 22.7282 16.5466 23.0379 16.0903C23.2406 15.7913 23.5322 15.543 23.8835 15.3703C24.4198 15.1069 25.1398 15.1069 26.5792 15.1069H27.3496C28.7894 15.1069 29.5091 15.1069 30.0453 15.3703C30.3965 15.543 30.6884 15.7913 30.8911 16.0903C31.2006 16.5467 31.2006 17.1593 31.2006 18.3849C31.2006 19.6105 31.2006 20.2231 30.8911 20.6795C30.6884 20.9787 30.3965 21.2268 30.0453 21.3995C29.509 21.6629 28.7893 21.6629 27.3496 21.6629H27.3496H26.5792H26.5792C25.1396 21.6629 24.4196 21.6629 23.8835 21.3995C23.5322 21.2267 23.2406 20.9787 23.0379 20.6795C22.7282 20.223 22.7282 19.6104 22.7282 18.3849Z" fill="#D4C4ED"/>
<path d="M7.24667 19.6206C6.78361 19.6206 6.33951 19.8134 6.01207 20.1564C5.68464 20.4994 5.50069 20.9647 5.50069 21.4498C5.50069 21.9349 5.68464 22.4001 6.01207 22.7432C6.33951 23.0862 6.78361 23.2789 7.24667 23.2789C7.70974 23.2789 8.15383 23.0862 8.48127 22.7432C8.80871 22.4001 8.99266 21.9349 8.99266 21.4498C8.99266 20.9647 8.80871 20.4994 8.48127 20.1564C8.15383 19.8134 7.70974 19.6206 7.24667 19.6206ZM7.24667 24.4983C6.4749 24.4983 5.73474 24.1771 5.18901 23.6054C4.64328 23.0337 4.3367 22.2583 4.3367 21.4498C4.3367 20.6412 4.64328 19.8658 5.18901 19.2941C5.73474 18.7224 6.4749 18.4012 7.24667 18.4012C8.01845 18.4012 8.75861 18.7224 9.30433 19.2941C9.85006 19.8658 10.1566 20.6412 10.1566 21.4498C10.1566 22.2583 9.85006 23.0337 9.30433 23.6054C8.75861 24.1771 8.01845 24.4983 7.24667 24.4983ZM7.24667 16.877C4.3367 16.877 1.85158 18.7731 0.844727 21.4498C1.85158 24.1264 4.3367 26.0226 7.24667 26.0226C10.1566 26.0226 12.6418 24.1264 13.6486 21.4498C12.6418 18.7731 10.1566 16.877 7.24667 16.877Z" fill="#D4C4ED"/>
</svg>
