<svg width="24" height="24" viewBox="0 0 24 24" fill="none" xmlns="http://www.w3.org/2000/svg">
<path fill-rule="evenodd" clip-rule="evenodd" d="M2.51875 11.8975C3.13763 10.9664 4.38139 9.27228 6.06754 7.82215C7.76399 6.36315 9.79156 5.25 12.0005 5.25C14.2094 5.25 16.2371 6.36315 17.9334 7.82215C19.6196 9.27228 20.8634 10.9664 21.4823 11.8975C21.5255 11.9625 21.5255 12.0375 21.4823 12.1025C20.8634 13.0336 19.6196 14.7277 17.9334 16.1778C16.2371 17.6369 14.2094 18.75 12.0005 18.75C9.79156 18.75 7.76399 17.6369 6.06754 16.1778C4.38139 14.7277 3.13763 13.0336 2.51875 12.1025C2.47552 12.0375 2.47552 11.9625 2.51875 11.8975ZM12.0005 3C9.02846 3 6.49427 4.4875 4.60042 6.11626C2.69626 7.75389 1.32117 9.63461 0.644941 10.6519C0.100123 11.4716 0.100125 12.5284 0.644941 13.3481C1.32117 14.3654 2.69626 16.246 4.60042 17.8837C6.49427 19.5124 9.02846 21 12.0005 21C14.9725 21 17.5067 19.5124 19.4006 17.8837C21.3047 16.246 22.6799 14.3654 23.3561 13.3481C23.9009 12.5284 23.9009 11.4716 23.3561 10.6519C22.6799 9.63461 21.3047 7.75389 19.4006 6.11626C17.5067 4.4875 14.9725 3 12.0005 3ZM12.0005 15C13.6573 15 15.0005 13.6569 15.0005 12C15.0005 10.3431 13.6573 9 12.0005 9C10.3436 9 9.00049 10.3431 9.00049 12C9.00049 13.6569 10.3436 15 12.0005 15Z" fill="#D4C4ED"/>
</svg>
