<svg width="16" height="16" viewBox="0 0 16 16" fill="none" xmlns="http://www.w3.org/2000/svg">
<path fill-rule="evenodd" clip-rule="evenodd" d="M2.49076 2.54958C3.70208 1.55024 5.54274 0.53334 7.99987 0.53334C12.1471 0.53334 15.4665 3.87799 15.4665 8.00001C15.4665 8.44184 15.1084 8.80001 14.6665 8.80001C14.2247 8.80001 13.8665 8.44184 13.8665 8.00001C13.8665 4.75823 11.26 2.13334 7.99987 2.13334C6.01255 2.13334 4.51988 2.94978 3.50898 3.78377C3.3392 3.92384 3.18366 4.06393 3.04242 4.20001H3.66654C4.10836 4.20001 4.46654 4.55818 4.46654 5.00001C4.46654 5.44184 4.10836 5.80001 3.66654 5.80001H1.3332C0.891375 5.80001 0.533203 5.44184 0.533203 5.00001V2.66667C0.533203 2.22485 0.891375 1.86667 1.3332 1.86667C1.77503 1.86667 2.1332 2.22485 2.1332 2.66667V2.85959C2.24587 2.75699 2.36505 2.65329 2.49076 2.54958ZM2.01703 5.4152L2.01632 5.41636L2.01674 5.41567L2.01703 5.4152ZM1.3332 7.20001C1.77503 7.20001 2.1332 7.55818 2.1332 8.00001C2.1332 11.2401 4.7598 13.8667 7.99987 13.8667C9.56802 13.8667 10.8863 13.0842 11.8515 12.2332C12.0168 12.0875 12.1696 11.9416 12.3093 11.8H11.6665C11.2247 11.8 10.8665 11.4418 10.8665 11C10.8665 10.5582 11.2247 10.2 11.6665 10.2H13.9999C14.4417 10.2 14.7999 10.5582 14.7999 11V13.3333C14.7999 13.7752 14.4417 14.1333 13.9999 14.1333C13.558 14.1333 13.1999 13.7752 13.1999 13.3333V13.1676C13.1072 13.2557 13.0105 13.3445 12.9096 13.4334C11.7954 14.4158 10.1136 15.4667 7.99987 15.4667C3.87614 15.4667 0.533203 12.1237 0.533203 8.00001C0.533203 7.55818 0.891375 7.20001 1.3332 7.20001Z" fill="#9594AA"/>
</svg>
