<svg width="60" height="80" viewBox="0 0 60 80" fill="none" xmlns="http://www.w3.org/2000/svg">
<path d="M48.694 41.7114C46.8072 41.7114 45.2797 40.1815 45.2797 38.2947V20.1576C45.2797 12.8102 39.3012 6.83271 31.9541 6.83271H28.4638C21.1167 6.83271 15.1392 12.8102 15.1392 20.1576V38.2947C15.1392 40.1815 13.6104 41.7114 11.7232 41.7114C9.83631 41.7114 8.30676 40.1815 8.30676 38.2947V20.1576C8.30676 9.04235 17.3499 -0.000106812 28.4638 -0.000106812H31.9541C43.068 -0.000106812 52.1118 9.04235 52.1118 20.1576V38.2947C52.1118 40.1815 50.5809 41.7114 48.694 41.7114Z" fill="#6E42CA"/>
<path d="M59.9808 74.1431C59.9808 77.3777 57.3579 80 54.1232 80H6.29597C3.06065 80 0.438721 77.3777 0.438721 74.1431V34.0779C0.438721 30.8433 3.06065 28.221 6.29597 28.221H54.1232C57.3579 28.221 59.9808 30.8433 59.9808 34.0779V74.1431Z" fill="url(#paint0_linear_11304_80385)"/>
<path d="M52.3258 60.308C52.3258 61.5569 51.3132 62.5698 50.0657 62.5698H10.3526C9.10338 62.5698 8.09082 61.5569 8.09082 60.308V47.9117C8.09082 46.6631 9.10338 45.6502 10.3526 45.6502H50.0657C51.3132 45.6502 52.3258 46.6631 52.3258 47.9117V60.308Z" fill="#14142F"/>
<path d="M50.0663 45.6502H30.2092V62.5698H50.0663C51.3138 62.5698 52.3264 61.5569 52.3264 60.308V47.9117C52.3264 46.6631 51.3138 45.6502 50.0663 45.6502Z" fill="url(#paint1_linear_11304_80385)"/>
<path d="M16.1417 54.4254L15.5967 54.1109L16.1424 53.7957C16.4486 53.6192 16.5529 53.2273 16.377 52.9207C16.1991 52.6145 15.8075 52.5091 15.5017 52.6864L14.9567 53.0009V52.3726C14.9567 52.0184 14.6695 51.7316 14.3163 51.7316C13.9621 51.7316 13.6756 52.0184 13.6756 52.3726V53.0016L13.1303 52.6864C12.8241 52.5091 12.4322 52.6145 12.2549 52.9207C12.0784 53.2273 12.1838 53.6192 12.4896 53.7957L13.0349 54.1106L12.4899 54.425C12.1837 54.602 12.0784 54.9932 12.2557 55.3001C12.4322 55.6066 12.8241 55.7113 13.1303 55.5344L13.6756 55.2202V55.8495C13.6756 56.2034 13.9621 56.4902 14.3163 56.4902C14.6695 56.4902 14.9567 56.2034 14.9567 55.8495V55.2206L15.501 55.5354C15.8071 55.712 16.1987 55.6066 16.3763 55.3004C16.5529 54.9932 16.4485 54.6023 16.1417 54.4254Z" fill="white"/>
<path d="M24.0886 54.4254L23.5426 54.1109L24.0886 53.7957C24.3928 53.6192 24.4999 53.2273 24.3237 52.9207C24.1474 52.6145 23.7534 52.5091 23.4493 52.6864L22.9033 53.0009V52.3726C22.9033 52.0184 22.6165 51.7316 22.264 51.7316C21.908 51.7316 21.6212 52.0184 21.6212 52.3726V53.0016L21.0752 52.6864C20.7711 52.5091 20.3771 52.6145 20.2009 52.9207C20.0246 53.2273 20.1283 53.6192 20.4359 53.7957L20.9819 54.1106L20.4359 54.425C20.1283 54.602 20.0246 54.9932 20.2009 55.3001C20.3771 55.6066 20.7711 55.7113 21.0752 55.5344L21.6212 55.2202V55.8495C21.6212 56.2034 21.908 56.4902 22.264 56.4902C22.6165 56.4902 22.9033 56.2034 22.9033 55.8495V55.2206L23.4459 55.5354C23.7534 55.712 24.144 55.6066 24.3237 55.3004C24.4999 54.9932 24.3928 54.6023 24.0886 54.4254Z" fill="white"/>
<path d="M32.0345 54.4254L31.4919 54.1109L32.0379 53.7957C32.3421 53.6192 32.4457 53.2273 32.2695 52.9207C32.0932 52.6145 31.7027 52.5091 31.3952 52.6864L30.8492 53.0009V52.3726C30.8492 52.0184 30.5623 51.7316 30.2098 51.7316C29.8574 51.7316 29.5705 52.0184 29.5705 52.3726V53.0016L29.0245 52.6864C28.7169 52.5091 28.3264 52.6145 28.1502 52.9207C27.9705 53.2273 28.0776 53.6192 28.3817 53.7957L28.9277 54.1106L28.3852 54.425C28.0776 54.602 27.9739 54.9932 28.1502 55.3001C28.3264 55.6066 28.7169 55.7113 29.0245 55.5344L29.5705 55.2202V55.8495C29.5705 56.2034 29.8574 56.4902 30.2098 56.4902C30.5623 56.4902 30.8492 56.2034 30.8492 55.8495V55.2206L31.3952 55.5354C31.6993 55.712 32.0932 55.6066 32.2695 55.3004C32.4457 54.9932 32.3421 54.6023 32.0345 54.4254Z" fill="white"/>
<path d="M39.9827 54.4254L39.4367 54.1109L39.9827 53.7957C40.2868 53.6192 40.3939 53.2273 40.2177 52.9207C40.038 52.6145 39.6475 52.5091 39.3434 52.6864L38.7974 53.0009V52.3726C38.7974 52.0184 38.5105 51.7316 38.1546 51.7316C37.8021 51.7316 37.5152 52.0184 37.5152 52.3726V53.0016L36.9692 52.6864C36.6651 52.5091 36.2712 52.6145 36.0949 52.9207C35.9187 53.2273 36.0223 53.6192 36.3299 53.7957L36.8759 54.1106L36.3299 54.425C36.0223 54.602 35.9187 54.9932 36.0949 55.3001C36.2712 55.6066 36.6651 55.7113 36.9692 55.5344L37.5152 55.2202V55.8495C37.5152 56.2034 37.8021 56.4902 38.1546 56.4902C38.5105 56.4902 38.7974 56.2034 38.7974 55.8495V55.2206L39.3399 55.5354C39.6475 55.712 40.038 55.6066 40.2142 55.3004C40.3939 54.9932 40.2868 54.6023 39.9827 54.4254Z" fill="white"/>
<path d="M47.9273 54.4254L47.3812 54.1109L47.9273 53.7957C48.2348 53.6192 48.3385 53.2273 48.1623 52.9207C47.986 52.6145 47.5955 52.5091 47.2879 52.6864L46.7419 53.0009V52.3726C46.7419 52.0184 46.4551 51.7316 46.1026 51.7316C45.7466 51.7316 45.4598 52.0184 45.4598 52.3726V53.0016L44.9172 52.6864C44.6097 52.5091 44.2192 52.6145 44.0395 52.9207C43.8632 53.2273 43.9704 53.6192 44.2745 53.7957L44.8205 54.1106L44.2745 54.425C43.9704 54.602 43.8632 54.9932 44.0429 55.3001C44.2192 55.6066 44.6097 55.7113 44.9172 55.5344L45.4598 55.2202V55.8495C45.4598 56.2034 45.7466 56.4902 46.1026 56.4902C46.4551 56.4902 46.7419 56.2034 46.7419 55.8495V55.2206L47.2879 55.5354C47.5921 55.712 47.986 55.6066 48.1623 55.3004C48.3385 54.9932 48.2348 54.6023 47.9273 54.4254Z" fill="white"/>
<defs>
<linearGradient id="paint0_linear_11304_80385" x1="0.438721" y1="54.1105" x2="59.9808" y2="54.1105" gradientUnits="userSpaceOnUse">
<stop stop-color="#6E42CA"/>
<stop offset="1" stop-color="#8D29C1"/>
</linearGradient>
<linearGradient id="paint1_linear_11304_80385" x1="37.3359" y1="47.2112" x2="44.6034" y2="54.5193" gradientUnits="userSpaceOnUse">
<stop stop-color="#14072E"/>
<stop offset="1" stop-color="#0A081E"/>
</linearGradient>
</defs>
</svg>
