<svg width="16" height="16" viewBox="0 0 16 16" fill="none" xmlns="http://www.w3.org/2000/svg">
<path d="M0.547567 7.34485L6.40188 9.5982L8.65523 15.4525C8.78156 15.7683 9.09754 16 9.43437 16C9.77134 16 10.0871 15.7894 10.2135 15.4735L15.9415 1.15363C16.0678 0.837811 15.9836 0.479678 15.752 0.248183C15.5203 0.0165298 15.1623 -0.067637 14.8465 0.0586888L0.526617 5.78665C0.210651 5.91283 0 6.22881 0 6.56578C0 6.92376 0.210647 7.21856 0.547601 7.34492L0.547567 7.34485ZM13.6461 2.35394L9.45539 12.8412L8.10763 9.32436L10.3188 7.11316L9.11841 5.91274L7.01254 8.01861L3.15881 6.54454L13.6461 2.35394Z" fill="#E5E4FA"/>
</svg>
