<svg width="24" height="24" viewBox="0 0 24 24" fill="none" xmlns="http://www.w3.org/2000/svg">
<path d="M13.4142 10.5856C14.1953 11.3667 14.1953 12.633 13.4142 13.414C12.6332 14.1951 11.3668 14.1951 10.5858 13.414C9.80474 12.633 9.80474 11.3667 10.5858 10.5856C11.3668 9.80455 12.6332 9.80455 13.4142 10.5856Z" stroke="#D4C4ED" stroke-width="2" stroke-linecap="round" stroke-linejoin="round"/>
<path d="M14.8483 4.12002L15.4313 4.31403C15.9654 4.49203 16.3264 4.99205 16.3264 5.55507V6.39211C16.3264 7.10413 16.8945 7.68515 17.6066 7.70016L18.4446 7.71816C18.9297 7.72816 19.3697 8.00717 19.5868 8.44118L19.8618 8.9912C20.1138 9.49522 20.0148 10.1032 19.6168 10.5013L19.0247 11.0933C18.5217 11.5963 18.5127 12.4093 19.0047 12.9234L19.5848 13.5294C19.9208 13.8804 20.0348 14.3874 19.8808 14.8484L19.6868 15.4314C19.5088 15.9655 19.0087 16.3265 18.4456 16.3265H17.6086C16.8965 16.3265 16.3154 16.8945 16.3004 17.6065L16.2824 18.4446C16.2724 18.9296 15.9934 19.3696 15.5594 19.5866L15.0093 19.8616C14.5053 20.1136 13.8972 20.0146 13.4992 19.6166L12.9071 19.0246C12.404 18.5216 11.591 18.5126 11.0769 19.0046L10.4708 19.5846C10.1198 19.9206 9.61276 20.0346 9.15171 19.8806L8.56866 19.6866C8.0346 19.5086 7.67357 19.0086 7.67357 18.4456V17.6085C7.67357 16.8965 7.10551 16.3155 6.39344 16.3005L5.55535 16.2825C5.07031 16.2725 4.63026 15.9935 4.41324 15.5595L4.13821 15.0094C3.88619 14.5054 3.9852 13.8974 4.38324 13.4994L4.9753 12.9074C5.47835 12.4043 5.48735 11.5913 4.9953 11.0773L4.41524 10.4713C4.07821 10.1192 3.9642 9.61123 4.11821 9.15121L4.31223 8.56819C4.49025 8.03417 4.9903 7.67315 5.55335 7.67315H6.39044C7.10251 7.67315 7.68357 7.10513 7.69857 6.39311L7.71657 5.55507C7.72857 5.07006 8.0066 4.63004 8.44064 4.41303L8.9907 4.13802C9.49475 3.88601 10.1028 3.98502 10.5008 4.38303L11.0929 4.97505C11.596 5.47807 12.409 5.48707 12.9231 4.99505L13.5292 4.41503C13.8802 4.08002 14.3882 3.96601 14.8483 4.12002V4.12002Z" stroke="#D4C4ED" stroke-width="2" stroke-linecap="round" stroke-linejoin="round"/>
</svg>
