<svg width="24" height="24" viewBox="0 0 24 24" fill="none" xmlns="http://www.w3.org/2000/svg">
<path d="M13.4142 10.5855C14.1953 11.3666 14.1953 12.6329 13.4142 13.414C12.6332 14.195 11.3668 14.195 10.5858 13.414C9.80474 12.6329 9.80474 11.3666 10.5858 10.5855C11.3668 9.80449 12.6332 9.80449 13.4142 10.5855Z" stroke="#D4C4ED" stroke-width="2" stroke-linecap="round" stroke-linejoin="round"/>
<path d="M14.8483 4.11996L15.4313 4.31397C15.9654 4.49197 16.3264 4.99199 16.3264 5.55501V6.39205C16.3264 7.10407 16.8945 7.68509 17.6066 7.70009L18.4446 7.71809C18.9297 7.7281 19.3697 8.00711 19.5868 8.44112L19.8618 8.99114C20.1138 9.49516 20.0148 10.1032 19.6168 10.5012L19.0247 11.0932C18.5217 11.5962 18.5127 12.4093 19.0047 12.9233L19.5848 13.5293C19.9208 13.8803 20.0348 14.3873 19.8808 14.8484L19.6868 15.4314C19.5088 15.9654 19.0087 16.3264 18.4456 16.3264H17.6086C16.8965 16.3264 16.3154 16.8944 16.3004 17.6065L16.2824 18.4445C16.2724 18.9295 15.9934 19.3695 15.5594 19.5865L15.0093 19.8616C14.5053 20.1136 13.8972 20.0146 13.4992 19.6165L12.9071 19.0245C12.404 18.5215 11.591 18.5125 11.0769 19.0045L10.4708 19.5845C10.1198 19.9206 9.61276 20.0346 9.15171 19.8806L8.56866 19.6865C8.0346 19.5085 7.67357 19.0085 7.67357 18.4455V17.6085C7.67357 16.8964 7.10551 16.3154 6.39344 16.3004L5.55535 16.2824C5.07031 16.2724 4.63026 15.9934 4.41324 15.5594L4.13821 15.0094C3.88619 14.5054 3.9852 13.8973 4.38324 13.4993L4.9753 12.9073C5.47835 12.4043 5.48735 11.5912 4.9953 11.0772L4.41524 10.4712C4.07821 10.1192 3.9642 9.61117 4.11821 9.15115L4.31223 8.56813C4.49025 8.03411 4.9903 7.67309 5.55335 7.67309H6.39044C7.10251 7.67309 7.68357 7.10507 7.69857 6.39305L7.71657 5.55501C7.72857 5.07 8.0066 4.62998 8.44064 4.41297L8.9907 4.13796C9.49475 3.88595 10.1028 3.98495 10.5008 4.38297L11.0929 4.97499C11.596 5.47801 12.409 5.48701 12.9231 4.99499L13.5292 4.41497C13.8802 4.07996 14.3882 3.96595 14.8483 4.11996V4.11996Z" stroke="#D4C4ED" stroke-width="2" stroke-linecap="round" stroke-linejoin="round"/>
</svg>
