<svg width="24" height="24" viewBox="0 0 24 24" fill="none" xmlns="http://www.w3.org/2000/svg">
<path fill-rule="evenodd" clip-rule="evenodd" d="M5.07692 3H18.9231C20.1 3 21 3.89627 21 5.06832V18.8571C21 20.0292 20.1 20.9254 18.9231 20.9254H18.2308C18.2308 22.0106 17.4593 22.0057 16.4108 21.999H16.4107C16.3268 21.9984 16.2411 21.9979 16.1538 21.9979C16.0666 21.9979 15.9809 21.9984 15.897 21.999H15.8969C14.8484 22.0057 14.0769 22.0106 14.0769 20.9254H9.92308C9.92308 22.0106 9.15157 22.0057 8.10307 21.999H8.10302C8.01909 21.9984 7.93338 21.9979 7.84615 21.9979C7.75893 21.9979 7.67322 21.9984 7.58929 21.999H7.58924C6.54074 22.0057 5.76923 22.0106 5.76923 20.9254H5.07692C3.9 20.9254 3 20.0292 3 18.8571V16H5.76923V16.0994C5.76923 17.2714 6.66923 18.1677 7.84615 18.1677H16.1538C17.3308 18.1677 18.2308 17.2714 18.2308 16.0994V7.82608C18.2308 6.65403 17.3308 5.75776 16.1538 5.75776H7.84615C6.66923 5.75776 5.76923 6.65403 5.76923 7.82608V8H3V5.06832C3 3.89627 3.9 3 5.07692 3ZM5.76923 14.5V9.5H3V14.5H5.76923ZM16.1533 7.13709H7.84563C7.43024 7.13709 7.15332 7.41286 7.15332 7.82653V16.0998C7.15332 16.5135 7.43024 16.7892 7.84563 16.7892H16.1533C16.5687 16.7892 16.8456 16.5135 16.8456 16.0998V7.82653C16.8456 7.41286 16.5687 7.13709 16.1533 7.13709ZM11.9995 14.7209C10.4764 14.7209 9.23024 13.4799 9.23024 11.9632C9.23024 10.4464 10.4764 9.20541 11.9995 9.20541C13.5226 9.20541 14.7687 10.4464 14.7687 11.9632C14.7687 13.4799 13.5226 14.7209 11.9995 14.7209ZM13.385 11.9627C13.385 12.7241 12.765 13.3416 12.0003 13.3416C11.2357 13.3416 10.6157 12.7241 10.6157 11.9627C10.6157 11.2012 11.2357 10.5838 12.0003 10.5838C12.765 10.5838 13.385 11.2012 13.385 11.9627Z" fill="white"/>
</svg>
