<svg width="56" height="56" fill="none" xmlns="http://www.w3.org/2000/svg">
  <g clip-path="url(#a)">
    <rect width="56" height="56" rx="13" fill="#F4F5F6" />
    <g clip-path="url(#b)">
      <mask id="c" style="mask-type:luminance" maskUnits="userSpaceOnUse" x="7" y="7" width="42" height="42">
        <path d="M49 7H7v42h42V7Z" fill="#fff" />
      </mask>
      <g mask="url(#c)">
        <path d="M15.75 11.025 48.3 33.25l-8.05 11.9L7.7 22.75l8.05-11.725Z" fill="url(#d)" />
        <path d="M48.3 33.25c-2.8 4.025-12.25 2.45-21.175-3.85-9.1-6.125-14-14.35-11.375-18.375C18.55 7 28 8.575 36.925 14.875c9.1 5.95 14 14.35 11.375 18.375Z" fill="url(#e)" />
        <path d="M40.25 44.975C37.45 49 28 47.425 19.075 41.125c-8.925-6.3-14-14.35-11.2-18.55 2.8-4.025 12.25-2.45 21.175 3.85 8.925 6.3 13.825 14.525 11.2 18.55Z" fill="url(#f)" />
        <path d="m48.3 33.25-8.05 11.9c-2.8 4.025-12.25 2.275-21.175-3.85a52.723 52.723 0 0 1-4.9-3.85c1.225-.175 2.8-.875 4.375-2.625 2.8-2.975 4.2-3.675 5.425-3.5 1.225 0 2.625 1.225 4.9 4.2 2.275 2.975 5.425 3.85 7.35 2.275.175-.175.35-.175.525-.35 1.575-1.225 2.1-1.75 5.075-7.35.7-1.4 3.15-3.675 6.475-2.625.875 2.275.875 4.2 0 5.775Z" fill="#0E0F23" />
        <path fill-rule="evenodd" clip-rule="evenodd" d="M47.075 32.55c-2.45 3.5-11.025 1.75-19.25-4.025-8.4-5.775-13.3-13.125-10.85-16.625 2.45-3.5 11.025-1.75 19.25 4.025S49.35 29.05 47.075 32.55Zm-7.7-5.25c-1.225 1.75-5.425.875-9.625-1.925-4.025-2.8-6.475-6.475-5.25-8.225 1.225-1.75 5.425-.875 9.625 1.925 4.025 2.8 6.475 6.475 5.25 8.225Z" fill="#fff" />
        <path d="M15.05 15.05c0-.175-.175-.35-.35-.175s-.35.175-.35.35c.175.525.35.875.35 1.225 0 .175.175.35.35.175.175 0 .35-.175.175-.35 0-.35 0-.7-.175-1.225ZM15.925 17.85c0-.175-.175-.35-.35-.175s-.175.175-.175.35c1.925 4.375 5.95 9.1 11.2 12.6.175.175.35 0 .525 0 .175-.175 0-.35 0-.525-5.425-3.5-9.275-8.05-11.2-12.25ZM37.1 35c-.175 0-.35 0-.35.175s0 .35.175.35c.525.175 1.225.35 1.75.525.175 0 .35 0 .35-.175s0-.35-.175-.35c-.525-.175-1.225-.35-1.75-.525ZM40.25 35.7a.376.376 0 0 0-.35.35c0 .175.175.35.35.35 1.4.175 2.975.35 4.2.175.175 0 .35-.175.35-.35a.376.376 0 0 0-.35-.35c-1.4.175-2.8 0-4.2-.175Z" fill="#fff" />
      </g>
    </g>
  </g>
  <defs>
    <linearGradient id="d" x1="22.128" y1="7.865" x2="28.583" y2="30.031" gradientUnits="userSpaceOnUse">
      <stop stop-color="#03B8FF" />
      <stop offset="1" stop-color="#FA52A0" />
    </linearGradient>
    <linearGradient id="e" x1="27.443" y1="6.317" x2="33.898" y2="28.483" gradientUnits="userSpaceOnUse">
      <stop stop-color="#03B8FF" />
      <stop offset="1" stop-color="#FA52A0" />
    </linearGradient>
    <linearGradient id="f" x1="16.828" y1="9.408" x2="23.283" y2="31.574" gradientUnits="userSpaceOnUse">
      <stop stop-color="#03B8FF" />
      <stop offset="1" stop-color="#FA52A0" />
    </linearGradient>
    <clipPath id="a">
      <path fill="#fff" d="M0 0h56v56H0z" />
    </clipPath>
    <clipPath id="b">
      <path fill="#fff" transform="translate(7 7)" d="M0 0h42v42H0z" />
    </clipPath>
  </defs>
</svg>
