<svg width="24" height="24" viewBox="0 0 24 24" fill="currentColor" xmlns="http://www.w3.org/2000/svg">
<path d="M7.96773 5.76103V14.13L10.2652 13.6872C11.0603 13.6872 11.4613 14.6463 10.8996 15.2109L6.21357 19.897C6.03578 20.0712 5.80916 20.1622 5.58235 20.1622C5.35234 20.1622 5.12552 20.0716 4.94791 19.897L0.261847 15.2109C-0.29942 14.646 0.1016 13.6872 0.896283 13.6872L3.19375 14.13V5.76103C3.19375 4.44317 4.2621 3.37427 5.58051 3.37427C6.89939 3.37427 7.96768 4.44317 7.96768 5.76103H7.96773Z"/>
<path d="M18.4186 20.162C17.1008 20.162 16.0319 19.0936 16.0319 17.7752V9.40624L13.7344 9.84911C12.9394 9.84911 12.5384 8.89001 13.1 8.32537L17.786 3.63931C17.9638 3.46511 18.1904 3.37402 18.4205 3.37402C18.6473 3.37402 18.8737 3.46471 19.0517 3.63931L23.7378 8.32537C24.299 8.89021 23.898 9.84911 23.1033 9.84911L20.8059 9.40624L20.8061 17.7752C20.8057 19.0933 19.7372 20.162 18.4187 20.162H18.4186Z"/>
</svg>
