<svg width="16" height="12" viewBox="0 0 16 12" fill="none" xmlns="http://www.w3.org/2000/svg">
<path fill-rule="evenodd" clip-rule="evenodd" d="M0.255765 3.82293C-0.0852979 4.16405 -0.0852485 4.71707 0.255875 5.05813C0.596998 5.3992 1.15002 5.39915 1.49108 5.05802L3.16683 3.38197L3.16683 10.7753C3.16683 11.2576 3.55788 11.6487 4.04025 11.6487C4.52263 11.6487 4.91368 11.2576 4.91368 10.7753L4.91368 3.38144L6.59067 5.05813C6.93179 5.3992 7.48481 5.39915 7.82587 5.05802C8.16694 4.7169 8.16689 4.16388 7.82576 3.82282L4.6578 0.655419C4.49399 0.491636 4.27182 0.399635 4.04018 0.399655C3.80853 0.399676 3.58638 0.491717 3.4226 0.65553L3.59403 0.82693L3.4226 0.655531L0.255765 3.82293ZM11.5124 11.2226L11.341 11.394L8.17413 8.22663C7.83306 7.88551 7.83311 7.33249 8.17424 6.99142C8.51536 6.65036 9.06838 6.65041 9.40944 6.99153L11.0853 8.66771L11.0858 1.27424C11.0858 0.791861 11.4769 0.400839 11.9592 0.400867C12.4416 0.400896 12.8326 0.791965 12.8326 1.27434L12.8322 8.66799L14.509 6.99142C14.8502 6.65036 15.4032 6.65041 15.7442 6.99153C16.0853 7.33266 16.0852 7.88568 15.7441 8.22674L12.5762 11.3941C12.4124 11.5579 12.1902 11.6499 11.9585 11.6499C11.7269 11.6499 11.5047 11.5578 11.341 11.394L11.5124 11.2226Z" fill="#656474"/>
</svg>