<svg width="12" height="12" viewBox="0 0 12 12" fill="none" xmlns="http://www.w3.org/2000/svg">
<path d="M4.11894 6.99859H6.79173C7.96242 6.99859 8.92699 6.04958 8.94255 4.89521C8.94255 3.72452 7.97798 2.79183 6.79173 2.79183L4.75212 2.79109C4.54675 2.33215 4.08781 2 3.5503 2C2.82298 2 2.23725 2.60129 2.23725 3.31305C2.23725 4.0248 2.83854 4.62609 3.5503 4.62609C4.10414 4.62609 4.56232 4.29394 4.75212 3.835H6.79248C7.40934 3.835 7.91573 4.34139 7.91573 4.91079C7.91573 5.4802 7.40934 5.98659 6.79248 5.98659H4.15083C2.98013 5.98659 2.01556 6.93559 2 8.08997C2 9.27622 2.96457 10.1933 4.15083 10.1933H6.34911C6.55447 10.6523 7.01341 11 7.55093 11C8.27825 11 8.86398 10.3987 8.86398 9.68695C8.86398 8.95964 8.26269 8.37391 7.55093 8.37391C6.99709 8.37391 6.53891 8.70606 6.34911 9.165L4.13527 9.16574C3.51841 9.16574 3.01202 8.65935 3.01202 8.08995C3.01202 7.50498 3.50209 7.01415 4.11894 6.99859Z" fill="#C7F282"/>
</svg>
