<svg width="25" height="24" viewBox="0 0 25 24" fill="none" xmlns="http://www.w3.org/2000/svg">
<path d="M7.96773 5.76078L7.86 14.1298L10.2652 13.6869C11.0603 13.6869 11.4613 14.646 10.8996 15.2106L6.21357 19.8967C6.03578 20.0709 5.80916 20.162 5.58235 20.162C5.35234 20.162 5.12552 20.0713 4.94791 19.8967L0.261847 15.2106C-0.29942 14.6458 0.1016 13.6869 0.896283 13.6869L3.3 14.1298L3.19375 5.76078C3.19375 4.44293 4.2621 3.37402 5.58051 3.37402C6.89939 3.37402 7.96773 4.44293 7.96773 5.76078Z" fill="white"/>
<path d="M16.1939 17.7753L16.3016 9.40635L13.8964 9.84923C13.1014 9.84923 12.7004 8.89012 13.262 8.32549L17.9481 3.63942C18.1258 3.46522 18.3525 3.37414 18.5793 3.37414C18.8093 3.37414 19.0361 3.46482 19.2137 3.63942L23.8998 8.32549C24.461 8.89033 24.06 9.84923 23.2653 9.84923L20.8616 9.40635L20.9679 17.7753C20.9679 19.0932 19.8995 20.1621 18.5811 20.1621C17.2622 20.1621 16.1939 19.0932 16.1939 17.7753Z" fill="white"/>
</svg>