<svg width="20" height="20" viewBox="0 0 20 20" fill="none" xmlns="http://www.w3.org/2000/svg">
<g id="noun-coins-3416369 1" clip-path="url(#clip0_21009_181215)">
<path id="Vector" d="M7.22217 4.44449C3.24 4.44449 0 7.6845 0 11.6667C0 15.6488 3.24 18.8888 7.22217 18.8888C11.2047 18.8888 14.4445 15.6488 14.4445 11.6667C14.4445 7.6845 11.2043 4.44449 7.22217 4.44449ZM7.22217 17.7778C3.8465 17.7778 1.11117 15.0412 1.11117 11.6667C1.11117 8.292 3.8465 5.5555 7.22217 5.5555C10.597 5.5555 13.3332 8.29216 13.3332 11.6667C13.3332 15.0413 10.5968 17.7778 7.22217 17.7778ZM12.2222 11.6667C12.2222 14.4238 9.97917 16.6667 7.22217 16.6667C4.46517 16.6667 2.22217 14.4238 2.22217 11.6667C2.22217 8.9095 4.46517 6.66666 7.22217 6.66666C9.97917 6.66666 12.2222 8.9095 12.2222 11.6667ZM20 8.33333C20 11.6392 17.7672 14.4325 14.7303 15.2865C14.9402 14.8521 15.1132 14.3967 15.246 13.9239C17.391 12.9753 18.8888 10.8292 18.8888 8.3332C18.8888 4.95886 16.1521 2.2222 12.7776 2.2222C11.3543 2.2222 10.0446 2.70918 9.00597 3.52519C8.53897 3.42337 8.0574 3.36061 7.56457 3.34083C8.8802 1.96784 10.7307 1.11133 12.7777 1.11133C16.7602 1.11133 19.9999 4.35116 19.9999 8.33333H20ZM15.5127 12.5165C15.8137 9.54383 14.4769 5.62816 10.3743 3.9505C11.0878 3.55753 11.9072 3.33331 12.7778 3.33331C15.5348 3.33331 17.7778 5.57615 17.7778 8.33331C17.7778 10.0816 16.8756 11.6225 15.5127 12.5165Z" fill="#E5E4FA"/>
</g>
<defs>
<clipPath id="clip0_21009_181215">
<rect width="20" height="20" fill="white"/>
</clipPath>
</defs>
</svg>
