<svg width="16" height="16" viewBox="0 0 16 16" xmlns="http://www.w3.org/2000/svg">
<path fill-rule="evenodd" clip-rule="evenodd" d="M3.60023 3.60023C6.03016 1.17029 9.96985 1.1703 12.3998 3.60023C14.8297 6.03016 14.8297 9.96985 12.3998 12.3998C9.96984 14.8297 6.03016 14.8297 3.60023 12.3998C1.17029 9.96984 1.1703 6.03016 3.60023 3.60023ZM13.6569 2.34315C10.5327 -0.78105 5.46735 -0.781049 2.34315 2.34315C-0.78105 5.46734 -0.781049 10.5327 2.34315 13.6569C5.46734 16.7811 10.5327 16.781 13.6569 13.6569C16.7811 10.5327 16.781 5.46735 13.6569 2.34315ZM7.76271 3.53151C8.11832 3.50424 8.4147 3.6556 8.60496 3.84071C8.7067 3.9397 8.79636 4.06556 8.85754 4.2119C8.9337 4.34297 8.97731 4.49529 8.97731 4.6578C8.97731 4.77793 8.95348 4.89249 8.91029 4.99702C8.76303 5.43159 8.35359 5.76002 7.84842 5.76002C7.82729 5.76002 7.80616 5.75927 7.78509 5.75776C7.23137 5.71821 6.73731 5.26595 6.73731 4.64002C6.73731 4.07274 7.1716 3.57172 7.76271 3.53151ZM6.22998 7.33323C6.22998 6.84231 6.62795 6.44434 7.11887 6.44434H8.14109C8.63201 6.44434 9.02998 6.84231 9.02998 7.33323V11.111C9.02998 11.6019 8.63201 11.9999 8.14109 11.9999C7.65017 11.9999 7.2522 11.6019 7.2522 11.111V8.22211H7.11887C6.62795 8.22211 6.22998 7.82415 6.22998 7.33323Z" fill="white"/>
</svg>
