<svg width="56" height="56" viewBox="0 0 56 56" fill="none" xmlns="http://www.w3.org/2000/svg">
<g clip-path="url(#clip0_3156_29557)">
<rect width="56" height="56" rx="13" fill="#FF007A"/>
<path fill-rule="evenodd" clip-rule="evenodd" d="M15.8632 13.2525L13 16.1157V27.593V39.0702L13.1663 39.2418C13.4274 39.5111 18.5692 44.7476 18.6466 44.823L18.7158 44.8905H27.9152H37.1146L37.2717 44.7331C37.3582 44.6466 38.5193 43.4553 39.8519 42.0858C41.1847 40.7162 42.387 39.4819 42.5239 39.3426L42.7727 39.0895V27.5941V16.0986L42.0581 15.379C41.6651 14.9832 40.8781 14.1901 40.3094 13.6165C39.7406 13.043 38.7867 12.0823 38.1896 11.4816L37.1039 10.3894H27.9151H18.7263L15.8632 13.2525ZM37.0339 16.1282C37.074 16.1683 37.0643 25.8739 37.024 25.9085C36.9981 25.9308 29.5079 26.9171 29.2264 26.9353C29.112 26.9427 29.1508 26.8896 31.7938 23.4265C34.7753 19.5198 34.4851 19.9158 34.4082 19.8586C34.3083 19.7843 31.4318 18.1202 31.4033 18.1202C31.365 18.1202 31.4978 17.8076 29.6735 22.1911C28.1598 25.8285 27.9664 26.2787 27.9323 26.2445C27.9268 26.2391 27.1634 24.4109 26.2356 22.1819C24.644 18.3578 24.5463 18.1292 24.5051 18.1296C24.459 18.13 21.5118 19.8307 21.4721 19.8798C21.4392 19.9203 21.2441 19.659 24.1099 23.414C26.7374 26.8568 26.8 26.9423 26.6901 26.9354C26.4174 26.9185 18.7747 25.9128 18.7487 25.8904C18.7085 25.8559 18.6986 16.1683 18.7388 16.1282C18.7703 16.0967 37.0024 16.0967 37.0339 16.1282ZM26.7433 28.341C26.7426 28.3609 25.5624 29.9223 24.1206 31.811C21.2285 35.5994 21.4455 35.3113 21.4589 35.3457C21.4735 35.3833 24.4862 37.1283 24.5164 37.1167C24.5543 37.1022 24.4851 37.2659 26.2676 32.9796C28.0017 28.8098 27.9488 28.9295 28.0058 29.0513C28.0174 29.0759 28.7604 30.8599 29.6569 33.0155C31.4921 37.4284 31.3627 37.1237 31.4002 37.1237C31.424 37.1237 34.1845 35.5317 34.3829 35.4035C34.4871 35.3364 34.6182 35.518 31.8 31.8254C30.3496 29.9249 29.1628 28.3579 29.1628 28.3431C29.1628 28.3284 29.1697 28.312 29.1781 28.3068C29.1865 28.3015 30.9402 28.5235 33.075 28.8001C35.2099 29.0766 36.9661 29.3029 36.9778 29.3029C36.9895 29.3029 37.0117 29.3156 37.0272 29.3312C37.0646 29.3686 37.0712 39.1143 37.0339 39.1517C37.0024 39.1831 18.7703 39.1831 18.7388 39.1517C18.7066 39.1194 18.7075 29.3689 18.7397 29.3437C18.8172 29.283 26.7453 28.2898 26.7433 28.341Z" fill="white"/>
</g>
<defs>
<clipPath id="clip0_3156_29557">
<rect width="56" height="56" fill="white"/>
</clipPath>
</defs>
</svg>
