<svg width="52" height="52" viewBox="0 0 52 52" fill="none" xmlns="http://www.w3.org/2000/svg">
<path fill-rule="evenodd" clip-rule="evenodd" d="M52 26C52 40.3594 40.3594 52 26 52C11.6406 52 0 40.3594 0 26C0 11.6406 11.6406 0 26 0C40.3594 0 52 11.6406 52 26ZM35.0738 17.0668L42.4176 24.4105C42.7886 24.7902 42.9949 25.3008 42.9919 25.8316C42.9888 26.3624 42.7767 26.8707 42.4014 27.2461C42.0261 27.6215 41.518 27.8339 40.9872 27.8371C40.4564 27.8404 39.9457 27.6343 39.5659 27.2635L35.6529 23.3433V33.5194C35.6529 34.0543 35.4404 34.5674 35.0621 34.9457C34.6839 35.3239 34.1708 35.5364 33.6359 35.5364C33.1009 35.5364 32.5879 35.3239 32.2096 34.9457C31.8313 34.5674 31.6188 34.0543 31.6188 33.5194V23.3748L20.0374 34.9634C20.0011 35.0046 19.9587 35.0409 19.9163 35.0773L19.9163 35.0773L19.8957 35.0955C19.8267 35.1521 19.7538 35.204 19.6776 35.2505L19.6316 35.2772C19.5538 35.3233 19.4728 35.3638 19.3893 35.3983C19.3307 35.4228 19.2708 35.4442 19.21 35.4625H19.2003C19.1446 35.4795 19.0876 35.4928 19.0307 35.5049H19.0077C18.9568 35.5158 18.9047 35.5219 18.8526 35.528H18.8126C18.7585 35.5328 18.704 35.5352 18.6491 35.5352H18.6188C18.5534 35.5352 18.488 35.5316 18.4226 35.5255H18.4141C18.0876 35.4961 17.7733 35.3876 17.4982 35.2093C17.4449 35.1694 17.3916 35.1294 17.3407 35.0882C17.2877 35.0455 17.2371 34.9998 17.1893 34.9513L9.57659 27.3386C9.21315 26.9575 9.0132 26.4493 9.01946 25.9227C9.02572 25.396 9.2377 24.8928 9.6101 24.5204C9.98249 24.148 10.4858 23.936 11.0124 23.9297C11.539 23.9235 12.0472 24.1234 12.4283 24.4869L16.5981 28.6567V18.4805C16.5981 17.9456 16.8106 17.4325 17.1889 17.0543C17.5672 16.676 18.0802 16.4635 18.6152 16.4635C19.1501 16.4635 19.6632 16.676 20.0414 17.0543C20.4197 17.4325 20.6322 17.9456 20.6322 18.4805V28.6567L32.0537 17.2339C32.3614 16.8392 32.8063 16.5746 33.3 16.4927C33.7937 16.4108 34.3002 16.5176 34.7189 16.7918C34.7371 16.8027 34.754 16.8124 34.771 16.8245C34.8097 16.8499 34.8461 16.8778 34.8824 16.9069C34.9342 16.9446 34.9839 16.9851 35.0314 17.028L35.0605 17.0534L35.0738 17.0668Z" fill="white"/>
</svg>
