<svg width="24" height="24" viewBox="0 0 24 24" fill="none" xmlns="http://www.w3.org/2000/svg">
<path fill-rule="evenodd" clip-rule="evenodd" d="M6.90039 4.00039C6.90039 2.84059 7.84059 1.90039 9.00039 1.90039H15.0004C16.1602 1.90039 17.1004 2.84059 17.1004 4.00039V4.90039H20.0004C20.6079 4.90039 21.1004 5.39288 21.1004 6.00039C21.1004 6.6079 20.6079 7.10039 20.0004 7.10039H19.1004V20.0004C19.1004 21.1602 18.1602 22.1004 17.0004 22.1004H7.00039C5.84059 22.1004 4.90039 21.1602 4.90039 20.0004V7.10039H4.00039C3.39288 7.10039 2.90039 6.6079 2.90039 6.00039C2.90039 5.39288 3.39288 4.90039 4.00039 4.90039H6.90039V4.00039ZM8.90039 3.90039H15.1004V5.10039H8.90039V3.90039ZM6.90039 7.40039C6.90039 7.12425 7.12425 6.90039 7.40039 6.90039H16.6004C16.8765 6.90039 17.1004 7.12425 17.1004 7.40039V19.6004C17.1004 19.8765 16.8765 20.1004 16.6004 20.1004H7.40039C7.12425 20.1004 6.90039 19.8765 6.90039 19.6004V7.40039Z" fill="#9594AA"/>
</svg>
