<svg width="24" height="24" viewBox="0 0 24 24" fill="none" xmlns="http://www.w3.org/2000/svg">
<path fill-rule="evenodd" clip-rule="evenodd" d="M6.8999 4C6.8999 2.8402 7.8401 1.9 8.9999 1.9H14.9999C16.1597 1.9 17.0999 2.8402 17.0999 4V4.9H19.9999C20.6074 4.9 21.0999 5.39249 21.0999 6C21.0999 6.60751 20.6074 7.1 19.9999 7.1H19.0999V20C19.0999 21.1598 18.1597 22.1 16.9999 22.1H6.9999C5.8401 22.1 4.8999 21.1598 4.8999 20V7.1H3.9999C3.39239 7.1 2.8999 6.60751 2.8999 6C2.8999 5.39249 3.39239 4.9 3.9999 4.9H6.8999V4ZM8.8999 3.9H15.0999V5.1H8.8999V3.9ZM6.8999 7.4C6.8999 7.12386 7.12376 6.9 7.3999 6.9H16.5999C16.876 6.9 17.0999 7.12386 17.0999 7.4V19.6C17.0999 19.8761 16.876 20.1 16.5999 20.1H7.3999C7.12376 20.1 6.8999 19.8761 6.8999 19.6V7.4Z" fill="currentColor"/>
</svg>
