<svg width="88" height="88" viewBox="0 0 88 88" fill="none" xmlns="http://www.w3.org/2000/svg">
<path d="M44 0C35.2976 0 26.7907 2.58055 19.5549 7.41534C12.3192 12.2501 6.67957 19.122 3.34932 27.1619C0.0190645 35.2019 -0.852282 44.0488 0.845467 52.584C2.54322 61.1191 6.73381 68.9592 12.8873 75.1127C19.0408 81.2662 26.8809 85.4568 35.416 87.1545C43.9512 88.8523 52.7981 87.9809 60.8381 84.6507C68.878 81.3204 75.7499 75.6808 80.5847 68.4451C85.4194 61.2093 88 52.7024 88 44C87.9865 32.3346 83.3465 21.1509 75.0978 12.9022C66.8491 4.65351 55.6654 0.0134826 44 0ZM64.9555 36.2954L40.1328 59.9877C39.5017 60.5882 38.6639 60.9231 37.7927 60.9231C36.9215 60.9231 36.0837 60.5882 35.4525 59.9877L23.0445 48.1415C22.3962 47.5206 22.021 46.6677 22.0011 45.7702C21.9812 44.8728 22.3184 44.0042 22.9385 43.3551C23.5587 42.7061 24.411 42.3297 25.3085 42.3087C26.2059 42.2877 27.075 42.6238 27.7248 43.2431L37.7927 52.8582L60.2752 31.3969C60.9251 30.7776 61.7941 30.4416 62.6916 30.4626C63.589 30.4836 64.4414 30.8599 65.0615 31.509C65.6816 32.158 66.0188 33.0266 65.9989 33.9241C65.979 34.8215 65.6038 35.6744 64.9555 36.2954Z" fill="#946BEC"/>
</svg>
