<svg width="56" height="56" fill="none" xmlns="http://www.w3.org/2000/svg">
  <g clip-path="url(#a)">
    <rect width="56" height="56" rx="13" fill="#fff" />
    <g filter="url(#b)">
      <circle cx="28" cy="28" r="26" fill="#FFE8F7" />
    </g>
  </g>
  <path d="M23.118 14.782c-.51-.079-.532-.088-.292-.125.46-.071 1.548.025 2.297.204 1.748.416 3.34 1.482 5.038 3.377l.451.503.646-.104c2.719-.438 5.485-.09 7.799.98.637.295 1.64.881 1.766 1.032.04.048.113.357.163.687.171 1.14.086 2.016-.263 2.669-.19.355-.2.468-.073.772.102.243.386.422.667.422.575 0 1.194-.932 1.48-2.227l.114-.515.226.256c1.238 1.405 2.21 3.32 2.377 4.684l.043.355-.208-.323c-.358-.556-.718-.934-1.178-1.24-.83-.55-1.709-.737-4.034-.86-2.1-.111-3.29-.29-4.468-.676-2.005-.654-3.016-1.527-5.398-4.657-1.058-1.39-1.712-2.16-2.363-2.779-1.478-1.408-2.93-2.146-4.79-2.435Z" fill="#FF007A" />
  <path d="M41.296 17.887c.053-.932.18-1.547.433-2.108.1-.222.194-.404.209-.404.014 0-.03.164-.097.365-.185.544-.215 1.29-.088 2.156.161 1.1.253 1.258 1.413 2.446.545.558 1.178 1.26 1.408 1.562l.417.549-.417-.393c-.51-.479-1.685-1.414-1.944-1.548-.174-.09-.2-.088-.307.02-.099.098-.12.246-.133.945-.021 1.09-.17 1.79-.528 2.49-.194.38-.224.299-.049-.129.13-.319.144-.459.143-1.515-.002-2.12-.253-2.63-1.728-3.505-.373-.22-.989-.54-1.367-.709-.38-.169-.68-.316-.669-.327.042-.041 1.48.38 2.059.602.86.332 1.003.375 1.107.335.07-.027.104-.232.138-.832ZM24.11 21.515c-1.037-1.428-1.678-3.62-1.539-5.257l.043-.507.236.043c.443.081 1.206.366 1.564.584.981.597 1.406 1.383 1.839 3.4.126.592.292 1.26.369 1.487.123.365.588 1.216.966 1.77.272.397.091.586-.51.532-.92-.083-2.165-.944-2.968-2.052ZM40.04 32.15c-4.843-1.953-6.549-3.648-6.549-6.508 0-.421.015-.766.032-.766.018 0 .205.14.417.309.982.789 2.081 1.126 5.125 1.57 1.792.262 2.8.474 3.73.783 2.955.981 4.784 2.974 5.22 5.687.127.789.053 2.268-.153 3.047-.162.616-.657 1.725-.788 1.767-.037.012-.072-.127-.082-.317-.05-1.02-.564-2.011-1.427-2.755-.982-.844-2.3-1.517-5.526-2.818ZM36.64 32.96a8.612 8.612 0 0 0-.234-1.026l-.124-.368.23.258c.317.357.568.814.781 1.422.162.465.18.603.18 1.357-.002.741-.022.897-.172 1.315a4.156 4.156 0 0 1-1.022 1.628c-.885.902-2.022 1.4-3.663 1.608-.285.036-1.117.097-1.848.135-1.842.096-3.055.294-4.144.677-.157.055-.296.089-.31.074-.045-.044.697-.486 1.31-.782.864-.417 1.724-.644 3.65-.966.952-.158 1.935-.351 2.185-.428 2.357-.723 3.568-2.591 3.18-4.903Z" fill="#FF007A" />
  <path d="M38.86 36.91c-.644-1.386-.792-2.724-.44-3.971.039-.133.1-.242.136-.242.036 0 .188.082.337.182.297.2.891.537 2.475 1.402 1.977 1.08 3.104 1.915 3.87 2.87.672.837 1.087 1.79 1.287 2.95.114.659.047 2.242-.121 2.905-.532 2.089-1.767 3.73-3.529 4.687-.258.14-.49.256-.515.256-.025 0 .069-.239.209-.532.593-1.241.66-2.448.212-3.792-.274-.822-.834-1.826-1.963-3.523-1.313-1.972-1.636-2.497-1.959-3.193ZM20.67 44.383c1.798-1.52 4.034-2.599 6.07-2.93.878-.143 2.34-.086 3.153.122 1.303.334 2.469 1.082 3.075 1.973.592.871.846 1.63 1.111 3.319.104.666.218 1.335.252 1.486.199.875.586 1.575 1.065 1.926.76.558 2.071.593 3.36.09.22-.086.41-.145.423-.132.046.047-.603.482-1.06.71-.617.31-1.107.428-1.758.428-1.18 0-2.161-.601-2.98-1.828-.16-.241-.522-.964-.803-1.607-.864-1.973-1.29-2.574-2.293-3.231-.873-.573-1.998-.675-2.845-.26-1.112.547-1.422 1.97-.626 2.872.317.359.907.668 1.39.728a1.485 1.485 0 0 0 1.68-1.489c0-.593-.228-.931-.801-1.19-.782-.353-1.623.06-1.62.796.002.314.139.511.453.653.201.092.206.099.042.065-.718-.15-.886-1.016-.31-1.592.694-.69 2.127-.386 2.619.557.207.396.23 1.185.05 1.662-.403 1.066-1.58 1.626-2.772 1.321-.813-.208-1.143-.432-2.123-1.443-1.702-1.756-2.363-2.096-4.816-2.48l-.47-.073.535-.453Z" fill="#FF007A" />
  <path fill-rule="evenodd" clip-rule="evenodd" d="M7.837 5.05c5.684 6.91 14.446 17.666 14.881 18.269.36.497.224.944-.391 1.294-.342.195-1.046.393-1.398.393-.398 0-.847-.193-1.174-.503-.231-.22-1.163-1.614-3.316-4.959-1.647-2.56-3.025-4.683-3.063-4.718-.086-.082-.085-.08 2.895 5.261 1.872 3.354 2.503 4.54 2.503 4.698 0 .323-.088.492-.485.936-.662.74-.958 1.571-1.172 3.292-.24 1.928-.913 3.29-2.78 5.623C13.245 36 13.066 36.25 12.79 36.8c-.347.693-.443 1.08-.481 1.956-.041.925.038 1.522.32 2.407.248.774.505 1.285 1.165 2.308.568.882.896 1.538.896 1.794 0 .204.039.205.92.005 2.11-.477 3.823-1.316 4.786-2.344.596-.637.736-.988.74-1.86.004-.57-.016-.69-.17-1.019-.251-.534-.707-.978-1.713-1.666-1.318-.903-1.88-1.629-2.036-2.628-.128-.82.02-1.398.75-2.928.754-1.584.94-2.259 1.067-3.855.082-1.032.195-1.439.491-1.765.309-.34.587-.456 1.35-.56 1.245-.17 2.038-.494 2.69-1.095.565-.522.802-1.025.838-1.781l.028-.574-.316-.369C22.97 21.491 7.07 4 7 4c-.015 0 .362.473.837 1.05Zm7.495 34.753a1.015 1.015 0 0 0-.311-1.337c-.41-.272-1.044-.144-1.044.211 0 .108.06.187.194.257.227.117.244.248.065.517-.18.272-.166.511.041.674.334.262.807.118 1.055-.322ZM25.216 26.946c-.584.18-1.152.8-1.328 1.451-.108.397-.047 1.093.114 1.308.26.348.51.44 1.19.434 1.332-.009 2.49-.58 2.624-1.296.11-.585-.398-1.398-1.098-1.754-.362-.184-1.13-.257-1.502-.143Zm1.556 1.22c.206-.293.116-.609-.233-.822-.665-.407-1.67-.07-1.67.559 0 .313.524.654 1.005.654.32 0 .757-.19.899-.392Z" fill="#FF007A" />
  <defs>
    <clipPath id="a">
      <rect width="56" height="56" rx="13" fill="#fff" />
    </clipPath>
    <filter id="b" x="-10" y="-10" width="76" height="76" filterUnits="userSpaceOnUse" color-interpolation-filters="sRGB">
      <feFlood flood-opacity="0" result="BackgroundImageFix" />
      <feBlend in="SourceGraphic" in2="BackgroundImageFix" result="shape" />
      <feGaussianBlur stdDeviation="6" result="effect1_foregroundBlur_25501_64258" />
    </filter>
  </defs>
</svg>
