<svg width="24" height="24" viewBox="0 0 24 24" fill="none" xmlns="http://www.w3.org/2000/svg">
<path d="M12.0006 22C6.32785 22 1.7431 17.2526 2.01119 11.5226C2.24918 6.43451 6.43523 2.24923 11.5226 2.01118C17.2533 1.7432 22 6.32713 22 11.9999C22 13.724 21.562 15.3987 20.7267 16.886C20.5359 17.2253 20.1033 17.342 19.778 17.1273L19.7673 17.1206C19.4846 16.934 19.3799 16.5593 19.5466 16.2647C20.5059 14.5706 20.8699 12.5919 20.5559 10.6045C19.9432 6.72573 16.6698 3.69975 12.7571 3.3657C7.63825 2.92833 3.33226 6.97107 3.33226 11.9997C3.33226 16.7785 7.22029 20.6665 11.999 20.6665C13.2797 20.6665 14.5445 20.3831 15.6924 19.8424C16.0131 19.6917 16.3944 19.7951 16.569 20.1038L16.575 20.1145C16.767 20.4538 16.6217 20.8778 16.269 21.0445C14.941 21.6711 13.4783 22.0004 11.9982 22.0004L12.0006 22Z" fill="#D4C4ED"/>
<path d="M14.001 11H10.001C8.89633 11 8.00098 11.8954 8.00098 13V14.3334C8.00098 15.438 8.89633 16.3334 10.001 16.3334H14.001C15.1057 16.3334 16.0011 15.438 16.0011 14.3334V13C16.0011 11.8954 15.1057 11 14.001 11ZM12.001 14.3334C11.633 14.3334 11.3343 14.0347 11.3343 13.6667C11.3343 13.2987 11.633 13 12.001 13C12.369 13 12.6677 13.2987 12.6677 13.6667C12.6677 14.0347 12.369 14.3334 12.001 14.3334Z" fill="#D4C4ED"/>
<path d="M14.0007 17.0002H10.0007C8.52996 17.0002 7.33398 15.8042 7.33398 14.3335V13.0002C7.33398 11.5295 8.52996 10.3335 10.0007 10.3335H14.0007C15.4714 10.3335 16.6674 11.5295 16.6674 13.0002V14.3335C16.6674 15.8042 15.4714 17.0002 14.0007 17.0002ZM10.0007 11.6668C9.26533 11.6668 8.66733 12.2648 8.66733 13.0002V14.3335C8.66733 15.0689 9.26533 15.6669 10.0007 15.6669H14.0007C14.7361 15.6669 15.3341 15.0689 15.3341 14.3335V13.0002C15.3341 12.2648 14.7361 11.6668 14.0007 11.6668H10.0007Z" fill="#D4C4ED"/>
<path d="M14.6674 11.6667H9.33398V9.66669C9.33398 8.19598 10.53 7 12.0007 7C13.4714 7 14.6674 8.19598 14.6674 9.66669V11.6667ZM10.6673 10.3334H13.334V9.66669C13.334 8.93134 12.736 8.33335 12.0007 8.33335C11.2653 8.33335 10.6673 8.93134 10.6673 9.66669V10.3334Z" fill="#D4C4ED"/>
</svg>
