<svg width="22" height="22" viewBox="0 0 22 22" fill="none" xmlns="http://www.w3.org/2000/svg">
<circle cx="11" cy="11" r="11" fill="#6E42CA"/>
<path d="M10.0843 13.4138H11.8299C11.8299 13.2276 11.8346 13.0694 11.8439 12.939C11.8532 12.804 11.8765 12.6807 11.9137 12.5689C11.9463 12.4572 12.0022 12.3478 12.0813 12.2408C12.1604 12.1337 12.2698 12.0104 12.4095 11.8707C12.6376 11.6705 12.8633 11.4657 13.0868 11.2562C13.3149 11.0421 13.5174 10.8164 13.6942 10.579C13.8711 10.3462 14.0154 10.0948 14.1271 9.82485C14.2389 9.55021 14.2947 9.24764 14.2947 8.91714C14.2947 8.47026 14.2202 8.07692 14.0713 7.73711C13.9223 7.3973 13.7082 7.11102 13.4289 6.87827C13.145 6.65018 12.7982 6.47795 12.3885 6.36157C11.9789 6.2452 11.5157 6.18701 10.999 6.18701C10.5382 6.18701 10.1099 6.2452 9.71426 6.36157C9.31859 6.47329 8.97412 6.64552 8.68086 6.87827C8.3876 7.11102 8.15485 7.40428 7.98262 7.75806C7.81038 8.10718 7.72194 8.51914 7.71729 8.99395H9.66538C9.67004 8.77982 9.7096 8.59595 9.78408 8.44233C9.86322 8.28872 9.96563 8.16304 10.0913 8.06528C10.2123 7.96753 10.352 7.89771 10.5103 7.85581C10.6685 7.80926 10.8314 7.78599 10.999 7.78599C11.2132 7.78599 11.4017 7.80926 11.5646 7.85581C11.7322 7.90236 11.8742 7.97218 11.9905 8.06528C12.1022 8.16769 12.1884 8.29803 12.2489 8.4563C12.3094 8.60991 12.3396 8.79378 12.3396 9.00791C12.3396 9.1848 12.3001 9.36169 12.2209 9.53857C12.1418 9.71546 12.0394 9.8877 11.9137 10.0553C11.7834 10.2275 11.6391 10.3951 11.4808 10.558C11.3225 10.7163 11.1643 10.8676 11.006 11.0119C10.7872 11.1841 10.6173 11.347 10.4963 11.5006C10.3753 11.6496 10.2845 11.8125 10.224 11.9894C10.1635 12.1709 10.1239 12.3734 10.1053 12.5969C10.0913 12.8203 10.0843 13.0926 10.0843 13.4138ZM9.79805 15.5295C9.79805 15.8274 9.89813 16.0788 10.0983 16.2836C10.2985 16.4838 10.5754 16.5838 10.9292 16.5838C11.2737 16.5838 11.5483 16.4838 11.7531 16.2836C11.9626 16.0788 12.0673 15.8274 12.0673 15.5295C12.0673 15.2223 11.9626 14.9662 11.7531 14.7614C11.5483 14.552 11.2737 14.4472 10.9292 14.4472C10.5754 14.4472 10.2985 14.552 10.0983 14.7614C9.89813 14.9662 9.79805 15.2223 9.79805 15.5295Z" fill="white"/>
</svg>
