<svg width="24" height="24" viewBox="0 0 24 24" fill="none" xmlns="http://www.w3.org/2000/svg">
    <path d="M12 24C18.65 24 24 18.65 24 12C24 5.34996 18.65 0 12 0C5.34996 0 0 5.34996 0 12C0 18.65 5.34996 24 12 24Z" fill="#85BB65"/>
    <path d="M12.8288 5.29395V7.30384H11.7306V5.29395H12.8288ZM12.6907 16.5729V18.4377H11.5925V16.5729H12.6907ZM13.1534 14.266C13.1534 14.0127 13.1143 13.8032 13.036 13.6374C12.9577 13.4717 12.8311 13.3266 12.6561 13.2023C12.4812 13.078 12.2486 12.9537 11.9586 12.8293C11.3461 12.5807 10.8051 12.3251 10.3354 12.0627C9.87037 11.8002 9.50431 11.4733 9.23724 11.0819C8.97478 10.6905 8.84355 10.1817 8.84355 9.55549C8.84355 8.98452 8.98399 8.48722 9.26487 8.0636C9.55036 7.63998 9.94174 7.31305 10.439 7.08283C10.9409 6.84799 11.5188 6.73057 12.1727 6.73057C12.67 6.73057 13.1235 6.80425 13.5333 6.95159C13.9431 7.09894 14.2977 7.31305 14.597 7.59393C14.8963 7.87021 15.1265 8.21095 15.2877 8.61615C15.4488 9.01675 15.5294 9.4726 15.5294 9.98371H13.2018C13.2018 9.72125 13.1742 9.49563 13.1189 9.30684C13.0683 9.11805 12.9946 8.9638 12.8979 8.84408C12.8012 8.72436 12.6884 8.63687 12.5594 8.58162C12.4305 8.52176 12.2901 8.49183 12.1381 8.49183C11.9079 8.49183 11.7214 8.54248 11.5787 8.64378C11.4359 8.74047 11.3323 8.8694 11.2679 9.03056C11.2034 9.19172 11.1712 9.3713 11.1712 9.5693C11.1712 9.7765 11.2057 9.95839 11.2748 10.1149C11.3484 10.2669 11.4728 10.4096 11.6477 10.5432C11.8227 10.6721 12.0622 10.8056 12.3661 10.9438C12.9647 11.197 13.4988 11.4595 13.9685 11.7312C14.4381 12.0028 14.8065 12.3367 15.0736 12.7326C15.3452 13.124 15.4811 13.6305 15.4811 14.2522C15.4811 14.8508 15.3406 15.3619 15.0597 15.7855C14.7789 16.2045 14.3875 16.5245 13.8856 16.7455C13.3837 16.9666 12.8035 17.0771 12.145 17.0771C11.703 17.0771 11.2633 17.0195 10.8258 16.9044C10.393 16.7893 9.997 16.6028 9.63784 16.3449C9.28329 16.0825 9.00011 15.7348 8.7883 15.302C8.57649 14.8692 8.47058 14.3373 8.47058 13.7065H10.7982C10.7982 14.015 10.835 14.2729 10.9087 14.4801C10.9824 14.6873 11.0814 14.8531 11.2057 14.9774C11.3346 15.0971 11.4797 15.1846 11.6408 15.2398C11.802 15.2905 11.9701 15.3158 12.145 15.3158C12.3799 15.3158 12.571 15.2698 12.7183 15.1777C12.8657 15.081 12.9739 14.9544 13.0429 14.7978C13.1166 14.6366 13.1534 14.4594 13.1534 14.266Z" fill="black"/>
</svg>
