<svg xmlns="http://www.w3.org/2000/svg" width="16" viewBox="0 0 24 25" fill="none">
  <path d="M12.6801 1.31261C12.2754 1.01582 11.7249 1.01582 11.3201 1.31261L8.69888 3.2346C8.5684 3.33028 8.41331 3.38672 8.25185 3.3973L5.00845 3.60986C4.50761 3.64269 4.08591 3.99654 3.96661 4.48407L3.19407 7.64129C3.15561 7.79846 3.0731 7.94138 2.95621 8.05327L0.608253 10.3009C0.245683 10.648 0.150091 11.1901 0.372087 11.6403L1.80971 14.5554C1.88127 14.7006 1.90993 14.8631 1.89231 15.0239L1.53843 18.255C1.48379 18.7539 1.75903 19.2306 2.21845 19.4328L5.19355 20.7418C5.34165 20.807 5.46808 20.9131 5.55797 21.0476L7.36375 23.7502C7.6426 24.1675 8.15989 24.3558 8.64176 24.2154L11.7623 23.3058C11.9176 23.2605 12.0826 23.2605 12.238 23.3058L15.3585 24.2154C15.8403 24.3558 16.3576 24.1675 16.6365 23.7502L18.4423 21.0476C18.5322 20.9131 18.6586 20.807 18.8067 20.7418L21.7818 19.4328C22.2412 19.2306 22.5165 18.7539 22.4618 18.255L22.1079 15.0239C22.0903 14.8631 22.119 14.7006 22.1905 14.5554L23.6281 11.6403C23.8501 11.1901 23.7546 10.648 23.392 10.3009L21.044 8.05327C20.9271 7.94138 20.8446 7.79846 20.8062 7.64129L20.0336 4.48407C19.9143 3.99654 19.4926 3.64269 18.9918 3.60986L15.7484 3.3973C15.5869 3.38672 15.4318 3.33028 15.3014 3.2346L12.6801 1.31261Z" fill="#0057FF" stroke="white" stroke-width="0.300003"></path>
  <path d="M7.5 13L10.5 16L16.5 10" stroke="white" stroke-width="1.8" stroke-linecap="round" stroke-linejoin="round"></path>
</svg>
