<svg width="24" height="24" viewBox="0 0 24 24" fill="none" xmlns="http://www.w3.org/2000/svg">
<path d="M20.8 16H18.4C17.074 16 16 14.8813 16 13.5C16 12.1187 17.074 11 18.4 11H20.8C21.4624 11 22 11.56 22 12.25V14.75C22 15.44 21.4624 16 20.8 16Z" stroke="#E5E4FA" stroke-width="2" stroke-linecap="round" stroke-linejoin="round"/>
<path d="M20 11V8.33333C20 7.15467 19.0524 6.2 17.8824 6.2H3.58824C2.71153 6.2 2 5.4832 2 4.6C2 3.7168 2.71153 3 3.58824 3H16.8235" stroke="#E5E4FA" stroke-width="2" stroke-linecap="round" stroke-linejoin="round"/>
<path d="M20 16.3548V18.9355C20 20.0761 19.0524 21 17.8824 21H4.11765C2.94765 21 2 20.0761 2 18.9355V5" stroke="#E5E4FA" stroke-width="2" stroke-linecap="round" stroke-linejoin="round"/>
</svg>
