<svg width="27" height="27" viewBox="0 0 27 27" fill="none" xmlns="http://www.w3.org/2000/svg">
  <path fill-rule="evenodd" clip-rule="evenodd" d="M27 13.5C27 20.956 20.956 27 13.5 27c-.084 0-.168 0-.252-.002A9.456 9.456 0 0 0 15 21.5a9.457 9.457 0 0 0-1.143-4.522l3.324-3.41 1.56 2.265c.632.632 1.714.188 1.717-.707V7.67a1.016 1.016 0 0 0-.294-.715 1.016 1.016 0 0 0-.713-.292h-7.456c-.896.003-1.34 1.085-.707 1.717l2.266 1.561-3.375 3.29A9.457 9.457 0 0 0 5.5 12a9.456 9.456 0 0 0-5.498 1.752A13.776 13.776 0 0 1 0 13.5C0 6.044 6.044 0 13.5 0S27 6.044 27 13.5Z" fill="#D4C4ED" />
</svg>
