<svg width="24" height="24" viewBox="0 0 24 24" fill="none" xmlns="http://www.w3.org/2000/svg">
<g clip-path="url(#clip0_15874_127705)">
<path fill-rule="evenodd" clip-rule="evenodd" d="M17.4197 4.20004C18.1846 4.20004 18.453 4.20283 18.6615 4.23475C19.7317 4.39808 20.5694 5.1111 20.7611 6.02194C20.7807 6.11498 20.7911 6.22198 20.7964 6.39668C20.2012 6.34168 19.4664 6.34168 18.5914 6.34168H5.14837C4.66985 6.34168 4.28189 6.67179 4.28189 7.07923C4.28189 7.48655 4.66985 7.81679 5.14837 7.81679H18.5394C19.5103 7.81679 20.1621 7.81792 20.654 7.86746C21.1269 7.91501 21.3379 7.9982 21.4776 8.09582C21.5507 8.14683 21.6176 8.20402 21.6777 8.2662C21.7923 8.3849 21.8901 8.56451 21.946 8.96705C21.988 9.2695 22.0002 9.64289 22.0041 10.1383C21.9722 10.1353 21.9404 10.1327 21.9091 10.1303C21.5227 10.1005 21.0609 10.1005 20.5681 10.1005H19.8813C19.3885 10.1005 18.9269 10.1005 18.5406 10.1303C18.1203 10.1628 17.6496 10.2382 17.1922 10.4629C16.7091 10.7001 16.3081 11.0416 16.0292 11.4528C15.765 11.8422 15.6766 12.2427 15.6385 12.6006C15.6035 12.9294 15.6035 13.3224 15.6035 13.7418V13.8347C15.6035 14.2543 15.6035 14.6473 15.6385 14.9759C15.6766 15.3338 15.765 15.7345 16.0292 16.1239C16.3081 16.535 16.7091 16.8764 17.1922 17.1137C17.6496 17.3386 18.1204 17.4138 18.5406 17.4462C18.9269 17.476 19.3885 17.476 19.8813 17.476H20.5681C21.0609 17.476 21.5226 17.476 21.9091 17.4462C21.9396 17.4439 21.9708 17.4415 22.0023 17.4385C21.9959 17.9415 21.9784 18.329 21.9286 18.6448C21.8569 19.0987 21.733 19.2927 21.5826 19.421C21.4319 19.5491 21.2037 19.6547 20.6706 19.7156C20.1126 19.7795 19.3643 19.7811 18.2506 19.7811L10.1274 19.7811C11.0296 18.9804 11.7337 17.9581 12.1649 16.8118L12.4375 16.0873L12.1649 15.3628C11.1364 12.6285 8.55471 10.5999 5.43746 10.5999C3.55573 10.5999 1.86915 11.3391 0.601562 12.5266L0.601603 10.2401C0.601603 8.89473 0.602541 7.93911 0.688243 7.1972C0.772383 6.4669 0.931923 6.02274 1.1909 5.67714C1.48488 5.28478 1.87614 4.95194 2.33708 4.70164C2.74302 4.48106 3.2649 4.34519 4.12286 4.27357C4.99458 4.20082 6.11716 4.19995 7.69766 4.19995L17.4197 4.20004ZM1.43292 14.6588C1.10196 15.0859 0.831738 15.567 0.636003 16.0873C0.831738 16.6076 1.10196 17.0887 1.43292 17.5158C1.81355 18.007 2.27451 18.4269 2.79487 18.7534C3.5676 19.2382 4.47131 19.5169 5.43746 19.5169C6.40362 19.5169 7.30733 19.2382 8.08006 18.7534C8.60041 18.4269 9.06138 18.007 9.44201 17.5158C9.77296 17.0887 10.0432 16.6076 10.2389 16.0873C10.0432 15.567 9.77296 15.0859 9.44201 14.6588C9.06138 14.1676 8.60041 13.7477 8.08006 13.4212C7.30733 12.9364 6.40362 12.6577 5.43746 12.6577C4.47131 12.6577 3.5676 12.9364 2.79487 13.4212C2.27451 13.7477 1.81355 14.1676 1.43292 14.6588ZM7.57858 15.6442C7.49792 15.2165 7.30156 14.8188 7.00913 14.5009C6.99975 14.4907 6.99028 14.4806 6.98071 14.4706C6.57142 14.0418 6.01629 13.8009 5.43746 13.8009C4.85863 13.8009 4.30351 14.0418 3.89422 14.4706C3.88464 14.4806 3.87517 14.4907 3.8658 14.5009C3.57336 14.8188 3.377 15.2165 3.29635 15.6442C3.26902 15.7891 3.25498 15.9374 3.25498 16.0873C3.25498 16.2372 3.26902 16.3855 3.29635 16.5304C3.377 16.9581 3.57336 17.3558 3.8658 17.6737C3.87517 17.6839 3.88464 17.694 3.89422 17.704C4.30351 18.1328 4.85863 18.3737 5.43746 18.3737C6.01629 18.3737 6.57142 18.1328 6.98071 17.704C6.99028 17.694 6.99975 17.6839 7.00913 17.6737C7.30156 17.3558 7.49792 16.9581 7.57858 16.5304C7.6059 16.3855 7.61994 16.2372 7.61994 16.0873C7.61994 15.9374 7.6059 15.7891 7.57858 15.6442ZM4.54068 15.0876C4.78312 14.8489 5.10372 14.7155 5.43746 14.7155C5.7712 14.7155 6.0918 14.8489 6.33425 15.0876C6.3441 15.0973 6.35382 15.1072 6.36341 15.1173C6.60899 15.3745 6.74695 15.7235 6.74695 16.0873C6.74695 16.4511 6.60899 16.8001 6.36341 17.0573C6.35382 17.0674 6.3441 17.0773 6.33425 17.087C6.0918 17.3257 5.7712 17.4591 5.43746 17.4591C5.10372 17.4591 4.78312 17.3257 4.54068 17.087C4.53082 17.0773 4.5211 17.0674 4.51151 17.0573C4.26594 16.8001 4.12797 16.4511 4.12797 16.0873C4.12797 15.7235 4.26594 15.3745 4.51151 15.1173C4.5211 15.1072 4.53082 15.0973 4.54068 15.0876ZM17.0479 13.7885C17.0479 12.8693 17.0479 12.4098 17.2801 12.0676C17.4322 11.8433 17.6509 11.6571 17.9143 11.5276C18.3165 11.33 18.8565 11.33 19.9361 11.33H20.5139C21.5938 11.33 22.1336 11.33 22.5357 11.5276C22.7991 11.6571 23.018 11.8433 23.1701 12.0676C23.4022 12.4099 23.4022 12.8694 23.4022 13.7885C23.4022 14.7078 23.4022 15.1672 23.1701 15.5095C23.018 15.7339 22.7991 15.9199 22.5357 16.0495C22.1335 16.2471 21.5937 16.2471 20.5139 16.2471H20.5139H19.9361H19.9361C18.8564 16.2471 18.3164 16.2471 17.9143 16.0495C17.6509 15.9199 17.4321 15.7339 17.2801 15.5095C17.0479 15.1671 17.0479 14.7077 17.0479 13.7885Z" fill="currentColor"/>
<path d="M5.43427 14.7155C5.08697 14.7155 4.7539 14.86 4.50832 15.1173C4.26275 15.3746 4.12478 15.7235 4.12478 16.0873C4.12478 16.4512 4.26275 16.8001 4.50832 17.0574C4.7539 17.3146 5.08697 17.4592 5.43427 17.4592C5.78157 17.4592 6.11464 17.3146 6.36022 17.0574C6.6058 16.8001 6.74376 16.4512 6.74376 16.0873C6.74376 15.7235 6.6058 15.3746 6.36022 15.1173C6.11464 14.86 5.78157 14.7155 5.43427 14.7155ZM5.43427 18.3737C4.85544 18.3737 4.30032 18.1328 3.89102 17.7041C3.48173 17.2753 3.25179 16.6937 3.25179 16.0873C3.25179 15.4809 3.48173 14.8994 3.89102 14.4706C4.30032 14.0418 4.85544 13.8009 5.43427 13.8009C6.0131 13.8009 6.56822 14.0418 6.97752 14.4706C7.38681 14.8994 7.61675 15.4809 7.61675 16.0873C7.61675 16.6937 7.38681 17.2753 6.97752 17.7041C6.56822 18.1328 6.0131 18.3737 5.43427 18.3737ZM5.43427 12.6577C3.25179 12.6577 1.38795 14.0799 0.632812 16.0873C1.38795 18.0948 3.25179 19.5169 5.43427 19.5169C7.61675 19.5169 9.48059 18.0948 10.2357 16.0873C9.48059 14.0799 7.61675 12.6577 5.43427 12.6577Z" fill="currentColor"/>
</g>
<defs>
<clipPath id="clip0_15874_127705">
<rect width="24" height="24" fill="white"/>
</clipPath>
</defs>
</svg>
