<svg width="24" height="24" viewBox="0 0 24 24" fill="none" xmlns="http://www.w3.org/2000/svg">
<g clip-path="url(#clip0_16428_43969)">
<path d="M21 9.5V6.5C21 5.83696 20.7366 5.20107 20.2678 4.73223C19.7989 4.26339 19.163 4 18.5 4H5.5C4.83696 4 4.20107 4.26339 3.73223 4.73223C3.26339 5.20107 3 5.83696 3 6.5V10" stroke="#D4C4ED" stroke-width="2" stroke-linecap="round" stroke-linejoin="round"/>
<path d="M21 14.5V17.5C21 18.163 20.7366 18.7989 20.2678 19.2678C19.7989 19.7366 19.163 20 18.5 20H14" stroke="#D4C4ED" stroke-width="2" stroke-linecap="round" stroke-linejoin="round"/>
<path d="M18.5 9.5H21C21.2652 9.5 21.5196 9.60536 21.7071 9.79289C21.8946 9.98043 22 10.2348 22 10.5V13.5C22 13.7652 21.8946 14.0196 21.7071 14.2071C21.5196 14.3946 21.2652 14.5 21 14.5H18.5C17.837 14.5 17.2011 14.2366 16.7322 13.7678C16.2634 13.2989 16 12.663 16 12V12C16 11.337 16.2634 10.7011 16.7322 10.2322C17.2011 9.76339 17.837 9.5 18.5 9.5V9.5Z" stroke="#D4C4ED" stroke-width="2" stroke-linecap="round" stroke-linejoin="round"/>
<path d="M8 9H13" stroke="#D4C4ED" stroke-width="2" stroke-linecap="round" stroke-linejoin="round"/>
<path d="M6.49977 11C4.73589 11 3.28154 12.2362 3.03982 13.8696C3.03722 13.8698 3.03513 13.87 3.03103 13.8696L3.02525 13.9602C3.0101 14.0875 2.99997 14.2163 2.99997 14.3478V14.8261C2.44759 14.8261 2 15.2566 2 15.7826V21.0435C2 21.5696 2.44776 22 2.99997 22H10C10.5526 22 11 21.5696 11 21.0435V15.7826C11 15.2566 10.5524 14.8261 10 14.8261V14.3478C10 14.2162 9.9899 14.0876 9.97475 13.9602L9.96897 13.8696C9.96487 13.87 9.96278 13.8698 9.96018 13.8696C9.71853 12.2362 8.26357 11 6.49977 11ZM6.49977 12.4348C6.63781 12.4348 6.77299 12.4486 6.90307 12.4741C7.55407 12.6022 8.08962 13.0337 8.34251 13.6053C8.39274 13.7192 8.43216 13.8383 8.45878 13.9623C8.48557 14.0871 8.49988 14.2159 8.49988 14.3481V14.8264H4.49991V14.3481C4.49991 14.216 4.52017 14.0841 4.54679 13.9594C4.58446 13.7828 4.65368 13.6185 4.73823 13.4633C4.76392 13.4169 4.78694 13.3691 4.81641 13.325C4.8468 13.2789 4.88187 13.2366 4.91594 13.1934C4.95679 13.1421 4.99881 13.0919 5.04493 13.0449C5.07741 13.0117 5.11165 12.9805 5.14655 12.9497C5.20389 12.8989 5.26391 12.851 5.32728 12.8067C5.3616 12.7827 5.39592 12.7585 5.43174 12.7366C5.50147 12.6941 5.57522 12.6577 5.65056 12.6236C5.68638 12.6073 5.72104 12.5892 5.75804 12.575C5.8394 12.5436 5.9247 12.5212 6.01101 12.5002C6.047 12.4914 6.08149 12.4791 6.11849 12.4723C6.24221 12.4493 6.36903 12.4348 6.49977 12.4348Z" fill="#D4C4ED"/>
</g>
<defs>
<clipPath id="clip0_16428_43969">
<rect width="24" height="24" fill="white"/>
</clipPath>
</defs>
</svg>
