<svg width="24" height="24" viewBox="0 0 24 24" fill="none" xmlns="http://www.w3.org/2000/svg">
<path d="M18.8381 3.25H9.60968V14.0517H21.995V6.06038C22 4.54304 20.5779 3.25 18.8381 3.25ZM6.77559 3.25H5.22743C3.48765 3.25 2 4.48586 2 6.06478V7.41499H6.77559V3.25ZM2 9.94389H6.77559V14.1089H2V9.94389ZM17.2244 20.7456H18.7726C20.5124 20.7456 22 19.5097 22 17.9308V16.585H17.2244V20.7456ZM9.60968 16.585H14.3853V20.75H9.60968V16.585ZM2 16.585V17.9352C2 19.4526 3.41704 20.75 5.22743 20.75H6.77559V16.585H2Z" fill="currentColor"/>
</svg>
