<svg width="27" height="27" viewBox="0 0 27 27" fill="none" xmlns="http://www.w3.org/2000/svg">
  <path d="M19.438 13.5758C19.1768 13.9609 19.1768 14.4778 19.1768 15.5119C19.1768 16.546 19.1768 17.0629 19.438 17.448C19.6091 17.7004 19.8552 17.9098 20.1515 18.0555C20.6039 18.2778 21.2114 18.2778 22.4261 18.2778H23.076C24.2909 18.2778 24.8981 18.2778 25.3506 18.0555C25.6469 17.9098 25.8932 17.7004 26.0642 17.448C26.3253 17.063 26.3253 16.5461 26.3253 15.5119C26.3253 14.4779 26.3253 13.961 26.0642 13.5758C25.8932 13.3236 25.6469 13.1141 25.3506 12.9684C24.8982 12.7461 24.2909 12.7461 23.076 12.7461H22.4261C21.2115 12.7461 20.604 12.7461 20.1515 12.9684C19.8552 13.1141 19.6091 13.3236 19.438 13.5758Z" fill="currentColor" />
  <path fill-rule="evenodd" clip-rule="evenodd" d="M20.9923 4.76425C20.7577 4.72834 20.4557 4.72519 19.5951 4.72519L8.6579 4.7251C6.87984 4.7251 5.61694 4.72607 4.63625 4.80792C3.67105 4.88849 3.08393 5.04134 2.62725 5.2895C2.10869 5.57109 1.66853 5.94553 1.3378 6.38693C1.04645 6.77574 0.866964 7.27542 0.772307 8.097C0.675891 8.93165 0.674837 10.0067 0.674837 11.5203L0.674805 13.3149C2.08897 12.4794 3.73847 12 5.49994 12C10.7466 12 14.9999 16.2533 14.9999 21.5C14.9999 21.7537 14.99 22.0052 14.9705 22.2539L20.53 22.2539C21.7829 22.2539 22.6247 22.2521 23.2525 22.1802C23.8522 22.1116 24.1089 21.9929 24.2784 21.8488C24.4477 21.7045 24.587 21.4862 24.6677 20.9755C24.7238 20.6203 24.7434 20.1843 24.7506 19.6185C24.7152 19.6218 24.6801 19.6246 24.6457 19.6272C24.2109 19.6607 23.6916 19.6607 23.1372 19.6607H22.3645C21.8101 19.6607 21.2907 19.6607 20.8562 19.6272C20.3835 19.5907 19.8538 19.5061 19.3392 19.253C18.7957 18.9861 18.3447 18.602 18.0309 18.1395C17.7337 17.7015 17.6343 17.2507 17.5914 16.848C17.552 16.4784 17.552 16.0362 17.552 15.5642V15.4597C17.552 14.9878 17.552 14.5457 17.5914 14.1759C17.6342 13.7732 17.7337 13.3226 18.0309 12.8846C18.3447 12.4219 18.7957 12.0378 19.3392 11.7709C19.8538 11.5181 20.3834 11.4333 20.8562 11.3968C21.2907 11.3633 21.8101 11.3633 22.3645 11.3633H23.1372C23.6916 11.3633 24.211 11.3633 24.6457 11.3968C24.681 11.3994 24.7167 11.4023 24.7526 11.4057C24.7482 10.8484 24.7345 10.4283 24.6873 10.0881C24.6244 9.63523 24.5143 9.43317 24.3855 9.29962C24.3178 9.22967 24.2426 9.16533 24.1603 9.10795C24.0031 8.99813 23.7658 8.90454 23.2337 8.85104C22.6804 8.79531 21.9471 8.79404 20.8548 8.79404H5.78995C5.25161 8.79404 4.81516 8.42252 4.81516 7.96429C4.81516 7.50592 5.25161 7.13454 5.78995 7.13454H20.9133C21.8978 7.13454 22.7244 7.13454 23.3939 7.19641C23.3881 6.99987 23.3763 6.8795 23.3543 6.77484C23.1386 5.75014 22.1962 4.94799 20.9923 4.76425Z" fill="currentColor" />
</svg>
