<svg width="24" height="24" viewBox="0 0 24 24" fill="none" xmlns="http://www.w3.org/2000/svg">
<path fill-rule="evenodd" clip-rule="evenodd" d="M18.6615 4.23475C18.453 4.20283 18.1846 4.20004 17.4196 4.20004L7.69765 4.19995C6.11715 4.19995 4.99457 4.20082 4.12285 4.27357C3.26489 4.34519 2.74301 4.48106 2.33707 4.70164C1.87613 4.95194 1.48487 5.28478 1.19089 5.67714C0.931906 6.02274 0.772366 6.4669 0.688226 7.1972C0.602524 7.93911 0.601586 8.89473 0.601586 10.2401L0.601562 11.5863C1.47764 11.0859 2.49202 10.7999 3.57319 10.7999C6.8869 10.7999 9.57319 13.4862 9.57319 16.7999C9.57319 17.885 9.28513 18.9029 8.78132 19.7811L18.2506 19.7811C19.3643 19.7811 20.1125 19.7795 20.6706 19.7156C21.2036 19.6547 21.4318 19.5491 21.5825 19.421C21.733 19.2927 21.8569 19.0987 21.9286 18.6448C21.9784 18.329 21.9958 17.9415 22.0022 17.4385C21.9708 17.4415 21.9396 17.4439 21.909 17.4462C21.5226 17.476 21.0609 17.476 20.5681 17.476H19.8813C19.3885 17.476 18.9268 17.476 18.5406 17.4462C18.1204 17.4138 17.6496 17.3386 17.1922 17.1137C16.709 16.8764 16.3081 16.535 16.0292 16.1239C15.765 15.7345 15.6766 15.3338 15.6385 14.9759C15.6035 14.6473 15.6035 14.2543 15.6035 13.8347V13.7418C15.6035 13.3224 15.6035 12.9294 15.6385 12.6006C15.6766 12.2427 15.765 11.8422 16.0292 11.4528C16.3081 11.0416 16.709 10.7001 17.1922 10.4629C17.6496 10.2382 18.1203 10.1628 18.5406 10.1303C18.9268 10.1005 19.3885 10.1005 19.8813 10.1005H20.5681C21.0609 10.1005 21.5226 10.1005 21.909 10.1303C21.9404 10.1327 21.9722 10.1353 22.004 10.1383C22.0001 9.64289 21.9879 9.2695 21.946 8.96705C21.8901 8.56451 21.7922 8.3849 21.6777 8.2662C21.6176 8.20402 21.5507 8.14683 21.4776 8.09582C21.3379 7.9982 21.1269 7.91501 20.654 7.86746C20.1621 7.81792 19.5103 7.81679 18.5394 7.81679H5.14835C4.66983 7.81679 4.28187 7.48655 4.28187 7.07923C4.28187 6.67179 4.66983 6.34168 5.14835 6.34168H18.5914C19.4664 6.34168 20.2012 6.34168 20.7964 6.39668C20.7911 6.22198 20.7806 6.11498 20.7611 6.02194C20.5693 5.1111 19.7317 4.39808 18.6615 4.23475ZM6.41397 18.9334C6.41397 19.2368 6.23124 19.5102 5.95099 19.6263C5.67073 19.7424 5.34814 19.6782 5.13364 19.4637L4.90055 19.2306L4.2669 17.7248L3.60157 18.4785L3.60489 18.4804L2.30751 19.7778C1.87793 20.2074 1.18145 20.2074 0.75187 19.7778C0.322293 19.3482 0.322293 18.6517 0.75187 18.2221L2.16118 16.8128L2.72999 16.3945L1.30255 15.6326L1.00885 15.3389C0.794355 15.1244 0.730188 14.8019 0.846274 14.5216C0.96236 14.2413 1.23584 14.0586 1.53918 14.0586L5.66397 14.0586C6.07819 14.0586 6.41397 14.3944 6.41397 14.8086V18.9334ZM17.0479 13.7885C17.0479 12.8693 17.0479 12.4098 17.2801 12.0676C17.4322 11.8433 17.6509 11.6571 17.9143 11.5276C18.3165 11.33 18.8565 11.33 19.9361 11.33H20.5139C21.5938 11.33 22.1336 11.33 22.5357 11.5276C22.7991 11.6571 23.018 11.8433 23.1701 12.0676C23.4022 12.4099 23.4022 12.8694 23.4022 13.7885C23.4022 14.7078 23.4022 15.1672 23.1701 15.5095C23.018 15.7339 22.7991 15.9199 22.5357 16.0495C22.1335 16.2471 21.5937 16.2471 20.5139 16.2471H20.5139H19.9361H19.9361C18.8564 16.2471 18.3164 16.2471 17.9143 16.0495C17.6509 15.9199 17.4321 15.7339 17.2801 15.5095C17.0479 15.1671 17.0479 14.7077 17.0479 13.7885Z" fill="currentColor"/>
</svg>
