<svg width="24" height="24" viewBox="0 0 24 24" fill="none" xmlns="http://www.w3.org/2000/svg">
    <path fill-rule="evenodd" clip-rule="evenodd" d="M6.76672 2H5.19119C3.44106 2 2 3.44106 2 5.19119V6.76672H6.76672V2ZM18.7593 2H9.61719V9.30299C12.0404 10.0147 13.9543 11.917 14.6823 14.3333H21.9605V5.19119C21.9605 3.44005 20.5194 2 18.7693 2H18.7593ZM12.5988 22.0002C13.3556 21.2983 13.9673 20.4421 14.3839 19.4817V22.0002H12.5988ZM4.51683 9.61674C3.55708 10.0333 2.7015 10.6446 2 11.4009V9.61674H4.51683ZM17.2334 21.9601H18.8089C20.5601 21.9601 22.0001 20.519 22.0001 18.7689V18.7588V17.2335H17.2334V21.9601Z" fill="currentColor"/>
</svg>
