<svg width="24" height="24" viewBox="0 0 24 24" fill="none" xmlns="http://www.w3.org/2000/svg">
<path d="M17.4177 4.20004C18.1827 4.20004 18.4511 4.20283 18.6596 4.23475C19.7298 4.39808 20.5674 5.1111 20.7592 6.02194C20.7787 6.11498 20.7892 6.22198 20.7945 6.39668C20.1993 6.34168 19.4645 6.34168 18.5895 6.34168H5.14645C4.66793 6.34168 4.27997 6.67179 4.27997 7.07923C4.27997 7.48655 4.66793 7.81679 5.14645 7.81679H18.5375C19.5084 7.81679 20.1602 7.81792 20.6521 7.86746C21.125 7.91501 21.336 7.9982 21.4757 8.09582C21.5488 8.14683 21.6157 8.20402 21.6758 8.2662C21.7903 8.3849 21.8882 8.56451 21.9441 8.96705C21.986 9.2695 21.9982 9.64289 22.0021 10.1383C21.9703 10.1353 21.9385 10.1327 21.9071 10.1303C21.5207 10.1005 21.059 10.1005 20.5662 10.1005H19.8794C19.3866 10.1005 18.9249 10.1005 18.5387 10.1303C18.1184 10.1628 17.6477 10.2382 17.1903 10.4629C16.7071 10.7001 16.3062 11.0416 16.0273 11.4528C15.7631 11.8422 15.6747 12.2427 15.6366 12.6006C15.6016 12.9294 15.6016 13.3224 15.6016 13.7418V13.8347C15.6016 14.2543 15.6016 14.6473 15.6366 14.9759C15.6747 15.3338 15.7631 15.7345 16.0273 16.1239C16.3062 16.535 16.7071 16.8764 17.1903 17.1137C17.6477 17.3386 18.1185 17.4138 18.5387 17.4462C18.9249 17.476 19.3866 17.476 19.8794 17.476H20.5662C21.059 17.476 21.5207 17.476 21.9071 17.4462C21.9377 17.4439 21.9689 17.4415 22.0003 17.4385C21.9939 17.9415 21.9765 18.329 21.9267 18.6448C21.855 19.0987 21.7311 19.2927 21.5807 19.421C21.4299 19.5491 21.2018 19.6547 20.6687 19.7156C20.1107 19.7795 19.3624 19.7811 18.2487 19.7811L6.66509 19.7811C5.00681 19.7811 3.85009 19.7795 2.97749 19.6795C2.12975 19.5826 1.68085 19.4051 1.36109 19.133C1.04141 18.8609 0.832889 18.4787 0.718749 17.7571C0.601561 17.0143 0.599609 16.0298 0.599609 14.6182L0.599688 10.2401C0.599688 8.89473 0.600625 7.93911 0.686327 7.1972C0.770467 6.4669 0.930008 6.02274 1.18899 5.67714C1.48297 5.28478 1.87423 4.95194 2.33517 4.70164C2.74111 4.48106 3.26299 4.34519 4.12095 4.27357C4.99267 4.20082 6.11525 4.19995 7.69575 4.19995L17.4177 4.20004Z" fill="#9594AA"/>
<path d="M17.2791 12.0676C17.0469 12.4099 17.0469 12.8694 17.0469 13.7886C17.0469 14.7078 17.0469 15.1672 17.2791 15.5096C17.4312 15.7339 17.6499 15.92 17.9134 16.0496C18.3155 16.2471 18.8555 16.2471 19.9352 16.2471H20.5129C21.5927 16.2471 22.1325 16.2471 22.5347 16.0496C22.7981 15.92 23.017 15.7339 23.1691 15.5096C23.4012 15.1673 23.4012 14.7078 23.4012 13.7886C23.4012 12.8694 23.4012 12.41 23.1691 12.0676C23.017 11.8434 22.7981 11.6572 22.5347 11.5276C22.1326 11.3301 21.5928 11.3301 20.5129 11.3301H19.9352C18.8556 11.3301 18.3156 11.3301 17.9134 11.5276C17.6499 11.6572 17.4312 11.8434 17.2791 12.0676Z" fill="#9594AA"/>
</svg>
