<svg width="116" height="145" viewBox="0 0 116 145" fill="none" xmlns="http://www.w3.org/2000/svg">
<path fill-rule="evenodd" clip-rule="evenodd" d="M115.999 18.1407V79.8543C115.999 98.1426 106.818 112.324 95.6918 122.7C79.4283 137.879 59.0978 144.815 59.0978 144.815C58.385 145.058 57.6139 145.058 56.9011 144.815C56.9011 144.815 36.5704 137.878 20.3071 122.7C9.1809 112.322 0 98.1426 0 79.8543V18.1407C0 16.8614 0.706808 15.6926 1.83263 15.0996C2.01293 15.0069 28.842 0.997314 57.9989 0.997314C87.1558 0.997314 113.985 15.0068 114.167 15.0996C115.293 15.6925 116 16.8613 116 18.1407H115.999Z" fill="#E5E4FA"/>
<path d="M74.2532 43.6004C76.548 43.6004 77.3533 43.6087 77.9789 43.7045C81.1893 44.1945 83.7023 46.3335 84.2777 49.0661C84.3363 49.3452 84.3677 49.6662 84.3834 50.1903C82.5979 50.0253 80.3936 50.0253 77.7684 50.0253H37.4394C36.0038 50.0253 34.8399 51.0156 34.8399 52.2379C34.8399 53.4599 36.0038 54.4506 37.4394 54.4506H77.6124C80.5252 54.4506 82.4806 54.454 83.9562 54.6026C85.3749 54.7453 86.0079 54.9948 86.427 55.2877C86.6463 55.4407 86.847 55.6123 87.0274 55.7988C87.371 56.1549 87.6645 56.6938 87.8323 57.9014C87.9581 58.8087 87.9947 59.9289 88.0064 61.415C87.9108 61.406 87.8154 61.3982 87.7214 61.3913C86.5622 61.3019 85.1771 61.3019 83.6986 61.3019H81.6382C80.1597 61.3019 78.7748 61.3019 77.6161 61.3913C76.3551 61.4886 74.943 61.7149 73.5708 62.389C72.1214 63.1006 70.9186 64.125 70.0819 65.3587C69.2892 66.5268 69.0242 67.7284 68.9098 68.8021C68.8048 69.7884 68.8048 70.9673 68.8048 72.2257V72.5042C68.8048 73.7631 68.8048 74.9421 68.9098 75.9279C69.0242 77.0016 69.2892 78.2038 70.0819 79.3719C70.9186 80.6052 72.1214 81.6294 73.5708 82.3413C74.943 83.016 76.3554 83.2416 77.6161 83.339C78.7748 83.4284 80.1598 83.4284 81.6382 83.4284H83.6986C85.1771 83.4284 86.562 83.4284 87.7214 83.339C87.8131 83.332 87.9066 83.3246 88.001 83.3158C87.9818 84.8247 87.9296 85.9874 87.78 86.9346C87.5649 88.2964 87.1934 88.8785 86.742 89.2634C86.2898 89.6476 85.6053 89.9642 84.0061 90.147C82.332 90.3387 80.0871 90.3435 76.7461 90.3435L41.9953 90.3437C37.0204 90.3437 33.5503 90.3387 30.9325 90.0388C28.3892 89.748 27.0425 89.2155 26.0833 88.3992C25.1242 87.5828 24.4987 86.4365 24.1562 84.2715C23.8047 82.0431 23.7988 79.0897 23.7988 74.8548L23.7991 61.7205C23.7991 57.6844 23.8019 54.8176 24.059 52.5919C24.3114 50.4009 24.79 49.0685 25.567 48.0317C26.4489 46.8546 27.6227 45.8561 29.0055 45.1052C30.2233 44.4434 31.789 44.0358 34.3628 43.8209C36.978 43.6027 40.3457 43.6001 45.0872 43.6001L74.2532 43.6004Z" fill="#0A091E"/>
<path d="M73.8345 67.2029C73.1377 68.2297 73.1377 69.6081 73.1377 72.3658C73.1377 75.1233 73.1377 76.5016 73.8345 77.5287C74.2906 78.2018 74.9468 78.76 75.7371 79.1487C76.9434 79.7414 78.5634 79.7414 81.8025 79.7414H83.5358C86.7753 79.7414 88.3946 79.7414 89.6012 79.1487C90.3915 78.76 91.0482 78.2018 91.5043 77.5287C92.2006 76.5019 92.2006 75.1235 92.2006 72.3658C92.2006 69.6083 92.2006 68.23 91.5043 67.2029C91.0482 66.5302 90.3915 65.9716 89.6012 65.5829C88.3949 64.9902 86.7755 64.9902 83.5358 64.9902H81.8025C78.5637 64.9902 76.9437 64.9902 75.7371 65.5829C74.9468 65.9716 74.2906 66.5302 73.8345 67.2029Z" fill="#0A091E"/>
<path fill-rule="evenodd" clip-rule="evenodd" d="M38 71C38 69.8954 38.8954 69 40 69C41.1046 69 42 69.8954 42 71V72H38V71ZM36 72.0192V71C36 68.7909 37.7909 67 40 67C42.2091 67 44 68.7909 44 71V72.0192C44.3922 72.0431 44.6705 72.097 44.908 72.218C45.2843 72.4097 45.5903 72.7157 45.782 73.092C46 73.5199 46 74.0799 46 75.2V77.8C46 78.9201 46 79.4802 45.782 79.908C45.5903 80.2843 45.2843 80.5903 44.908 80.782C44.4802 81 43.9201 81 42.8 81H37.2C36.0799 81 35.5198 81 35.092 80.782C34.7157 80.5903 34.4097 80.2843 34.218 79.908C34 79.4802 34 78.9201 34 77.8V75.2C34 74.0799 34 73.5199 34.218 73.092C34.4097 72.7157 34.7157 72.4097 35.092 72.218C35.3295 72.097 35.6078 72.0431 36 72.0192Z" fill="#E5E4FA"/>
</svg>
