<svg width="56" height="56" viewBox="0 0 56 56" fill="none" xmlns="http://www.w3.org/2000/svg">
<g clip-path="url(#clip0_18607_49207)">
<rect width="56" height="56" rx="13" fill="#8759FF"/>
<path d="M31.0702 29.791L27.9999 26.7206L24.9297 29.791C24.0768 30.6439 24.0768 32.0298 24.9297 32.8827L27.9999 35.9531L31.0702 32.8827C31.9231 32.0298 31.9231 30.6439 31.0702 29.791ZM27.9999 8C16.9552 8 8 16.9552 8 27.9999C8 39.0448 16.9552 47.9999 27.9999 47.9999C39.0447 47.9999 48 39.0448 48 27.9999C48.0213 16.9765 39.0447 8 27.9999 8ZM42.6908 21.71L36.1236 34.8443L38.2771 38.8955C38.5756 39.4499 38.469 40.1322 38.0212 40.5799L36.3368 42.2642C35.7824 42.8186 34.8656 42.8186 34.3112 42.2642L27.9999 35.9531L21.6887 42.2642C21.1343 42.8186 20.2174 42.8186 19.6631 42.2642L17.9786 40.5799C17.5309 40.1322 17.4243 39.4499 17.7228 38.8955L19.8763 34.8443L13.3092 21.71C13.032 21.1556 13.1386 20.4946 13.5863 20.0682L16.4435 17.1897C16.9978 16.6354 17.9147 16.6354 18.4691 17.1897L27.9999 26.7206L37.5308 17.1897C38.0852 16.6354 39.0021 16.6354 39.5564 17.1897L42.4136 20.0469C42.8613 20.4946 42.968 21.1556 42.6908 21.71ZM31.0702 29.791L27.9999 26.7206L24.9297 29.791C24.0768 30.6439 24.0768 32.0298 24.9297 32.8827L27.9999 35.9531L31.0702 32.8827C31.9231 32.0298 31.9231 30.6439 31.0702 29.791Z" fill="white"/>
</g>
<defs>
<clipPath id="clip0_18607_49207">
<rect width="56" height="56" fill="white"/>
</clipPath>
</defs>
</svg>
