<svg width="99" height="88" viewBox="0 0 99 88" fill="none" xmlns="http://www.w3.org/2000/svg">
<g id="warning">
<path id="warning_2" fill-rule="evenodd" clip-rule="evenodd" d="M48.1261 41.0131V49.5673C48.1261 50.2007 48.6396 50.7142 49.273 50.7142C49.9064 50.7142 50.4199 50.2007 50.4199 49.5673V41.0131C50.4199 40.3797 49.9064 39.8662 49.273 39.8662C48.6396 39.8662 48.1261 40.3797 48.1261 41.0131ZM48.1261 66.2851V66.4153C48.1261 67.0487 48.6396 67.5622 49.273 67.5622C49.9064 67.5622 50.4199 67.0487 50.4199 66.4153V66.2851C50.4199 65.6517 49.9064 65.1382 49.273 65.1382C48.6396 65.1382 48.1261 65.6517 48.1261 66.2851ZM93.168 86.1983H5.37796C2.30857 86.1983 0.3829 82.884 1.90286 80.2175L45.7979 3.20864C47.3325 0.516394 51.2135 0.516387 52.7481 3.20864L96.6431 80.2175C98.1631 82.8841 96.2374 86.1983 93.168 86.1983ZM50.9996 6.19914L94.0368 81.7031C94.4168 82.3697 93.9354 83.1983 93.168 83.1983H5.37796C4.61062 83.1983 4.1292 82.3697 4.50919 81.7031L47.5464 6.19914L47.5465 6.19902L47.568 6.1613L48.4042 4.69425C48.7879 4.02119 49.7581 4.02119 50.1418 4.69425L50.978 6.1613L50.9995 6.19902L50.9996 6.19914ZM49.273 53.7142C51.5633 53.7142 53.4199 51.8576 53.4199 49.5673V41.0131C53.4199 38.7228 51.5633 36.8662 49.273 36.8662C46.9827 36.8662 45.1261 38.7228 45.1261 41.0131V49.5673C45.1261 51.8576 46.9827 53.7142 49.273 53.7142ZM49.273 70.5622C51.5633 70.5622 53.4199 68.7056 53.4199 66.4153V66.2851C53.4199 63.9949 51.5633 62.1382 49.273 62.1382C46.9827 62.1382 45.1261 63.9949 45.1261 66.2851V66.4153C45.1261 68.7056 46.9827 70.5622 49.273 70.5622Z" fill="#FFCD29"/>
</g>
</svg>
