<svg width="24" height="24" viewBox="0 0 24 24" fill="none" xmlns="http://www.w3.org/2000/svg">
<path d="M1.40556 10.5968C1.77979 7.78882 3.25349 5.24382 5.50304 3.52014C7.75256 1.79667 10.5944 1.03524 13.4049 1.40308C16.2146 1.77958 18.76 3.2545 20.4829 5.50407C22.2056 7.75362 22.9653 10.5944 22.5952 13.4032C22.2205 16.2113 20.7466 18.7563 18.4971 20.4798C16.2473 22.2034 13.4053 22.9646 10.5946 22.5967C7.78513 22.2203 5.23987 20.7454 3.51719 18.4958C1.79454 16.2461 1.03502 13.4053 1.40556 10.5968ZM21.7795 13.2951C22.1214 10.7026 21.4205 8.08036 19.8302 6.00376C18.2398 3.92715 15.8902 2.56569 13.2968 2.21825C10.7024 1.87715 8.07829 2.57948 6.00179 4.17087C3.9249 5.762 2.56522 8.11238 2.22144 10.7049C1.87764 13.2976 2.57783 15.9206 4.1683 17.9976C5.75835 20.0746 8.10887 21.4355 10.7027 21.7816C13.2971 22.1212 15.9204 21.4186 17.9971 19.8274C20.0737 18.2365 21.4339 15.8872 21.7795 13.2951Z" fill="white"/>
<path d="M2.90354 12.1587C3.21371 9.83231 4.43474 7.72363 6.29871 6.29586C8.16248 4.86805 10.5169 4.23737 12.8455 4.54201C15.1731 4.85403 17.2818 6.07581 18.7093 7.93951C20.1364 9.80316 20.7659 12.1569 20.4591 14.4838C20.1489 16.81 18.9277 18.9183 17.0641 20.3463C15.2002 21.7741 12.8458 22.405 10.5172 22.1001C8.18953 21.7883 6.08082 20.5663 4.65351 18.7026C3.22603 16.8387 2.59669 14.4854 2.90354 12.1587ZM19.8256 14.3999C20.11 12.2409 19.5261 10.0574 18.2017 8.32828C16.8774 6.59919 14.9208 5.46566 12.7614 5.17633C10.601 4.89397 8.4171 5.47934 6.68826 6.80386C4.95919 8.12856 3.82631 10.0847 3.53825 12.2428C3.2539 14.4014 3.83789 16.5845 5.16202 18.3136C6.48594 20.0426 8.44188 21.1763 10.6013 21.4658C12.7614 21.7483 14.9455 21.163 16.6746 19.8383C18.4037 18.5136 19.5363 16.5578 19.8243 14.3997L19.8256 14.3999Z" fill="white"/>
<path d="M4.40112 13.7199C4.64699 11.8752 5.61548 10.2035 7.09332 9.07111C8.57133 7.93896 10.4379 7.43878 12.2843 7.68039C14.1299 7.92775 15.8024 8.89664 16.9341 10.3744C18.0658 11.8524 18.5649 13.7185 18.3217 15.5635C18.076 17.4085 17.1079 19.0804 15.6299 20.2126C14.1519 21.3449 12.2847 21.845 10.4381 21.603C8.59248 21.3556 6.92068 20.3868 5.78879 18.9088C4.65707 17.431 4.15771 15.5649 4.40112 13.7199ZM17.869 15.5036C18.0967 13.7785 17.6302 12.0335 16.5721 10.6517C15.5138 9.26971 13.9502 8.36392 12.2245 8.13265C10.4983 7.90716 8.75284 8.37493 7.37132 9.43358C5.98979 10.4922 5.08502 12.0554 4.85528 13.78C4.62759 15.5049 5.09372 17.2497 6.15164 18.6314C7.20956 20.0131 8.77284 20.9191 10.4983 21.1508C12.2247 21.3767 13.9703 20.9092 15.3523 19.8504C16.734 18.7917 17.6392 17.2284 17.869 15.5036Z" fill="white"/>
<path d="M5.89933 15.2812C6.0811 13.9183 6.79691 12.6831 7.88878 11.8463C8.98063 11.0098 10.3602 10.6404 11.7242 10.8188C13.0883 11.0013 14.324 11.7171 15.1603 12.809C15.997 13.9011 16.366 15.2802 16.1862 16.6436C16.0044 18.0069 15.2888 19.2423 14.1963 20.0788C13.1042 20.9155 11.7247 21.2847 10.3601 21.1058C8.99666 20.9232 7.761 20.2072 6.92487 19.1154C6.08875 18.0235 5.71958 16.6446 5.89933 15.2812ZM15.9145 16.6076C16.0847 15.3162 15.7349 14.0101 14.9428 12.9757C14.1504 11.9414 12.9802 11.2634 11.6882 11.0906C10.3961 10.9215 9.08948 11.2718 8.05536 12.0639C7.02098 12.8565 6.34372 14.0264 6.17129 15.3172C6.0013 16.6086 6.35027 17.9144 7.14241 18.9486C7.93435 19.9829 9.1046 20.6609 10.3961 20.8341C11.6886 21.0036 12.9951 20.6537 14.0297 19.8612C15.0641 19.0689 15.7422 17.8989 15.9145 16.6076Z" fill="white"/>
</svg>
